%TF.GenerationSoftware,KiCad,Pcbnew,7.0.2*%
%TF.CreationDate,2023-04-27T00:48:17+01:00*%
%TF.ProjectId,ISO75+STM+PKRGB,49534f37-352b-4535-944d-2b504b524742,rev?*%
%TF.SameCoordinates,Original*%
%TF.FileFunction,Drillmap*%
%TF.FilePolarity,Positive*%
%FSLAX45Y45*%
G04 Gerber Fmt 4.5, Leading zero omitted, Abs format (unit mm)*
G04 Created by KiCad (PCBNEW 7.0.2) date 2023-04-27 00:48:17*
%MOMM*%
%LPD*%
G01*
G04 APERTURE LIST*
%ADD10C,0.100000*%
%ADD11C,0.200000*%
%ADD12C,0.030000*%
%ADD13C,0.040000*%
%ADD14C,0.300000*%
G04 APERTURE END LIST*
D10*
X13124264Y-1270004D02*
G75*
G03*
X12982843Y-1370000I-4J-149996D01*
G01*
X8696589Y-12600001D02*
G75*
G03*
X8838014Y-12700000I141421J50001D01*
G01*
X1470000Y-1270000D02*
X2750735Y-1270000D01*
X13124264Y-1270000D02*
X19895735Y-1270000D01*
X29562157Y-1370000D02*
G75*
G03*
X30127842Y-1370000I282843J100000D01*
G01*
X4095000Y-12700000D02*
X4075514Y-12700000D01*
X3934089Y-12600001D02*
G75*
G03*
X4075514Y-12700000I141421J50001D01*
G01*
X31550000Y-12700000D02*
G75*
G03*
X31750000Y-12500000I0J200000D01*
G01*
X3599264Y-1270004D02*
G75*
G03*
X3457842Y-1370000I-4J-149996D01*
G01*
X20602845Y-12599999D02*
G75*
G03*
X20744263Y-12700000I141415J49989D01*
G01*
X12417161Y-1369998D02*
G75*
G03*
X12275735Y-1270000I-141421J-50002D01*
G01*
X20744264Y-1270000D02*
X29420735Y-1270000D01*
X12417157Y-1370000D02*
G75*
G03*
X12982842Y-1370000I282843J100000D01*
G01*
X1470000Y-1270000D02*
G75*
G03*
X1270000Y-1470000I0J-200000D01*
G01*
X31550000Y-12700000D02*
X28364264Y-12700000D01*
X8696593Y-12600000D02*
G75*
G03*
X8130907Y-12600000I-282843J-100000D01*
G01*
X7988235Y-12700000D02*
X7970000Y-12700000D01*
X27515735Y-12699998D02*
G75*
G03*
X27657157Y-12600000I-5J150008D01*
G01*
X19895735Y-12700000D02*
X8838014Y-12700000D01*
X31750000Y-1470000D02*
G75*
G03*
X31550000Y-1270000I-200000J0D01*
G01*
X28222842Y-12600000D02*
G75*
G03*
X27657157Y-12600000I-282843J-100000D01*
G01*
X1270000Y-12500000D02*
X1270000Y-1470000D01*
X3599264Y-1270000D02*
X12275735Y-1270000D01*
X27515735Y-12700000D02*
X20744263Y-12700000D01*
X29562155Y-1370001D02*
G75*
G03*
X29420735Y-1270000I-141415J-49989D01*
G01*
X3934092Y-12600000D02*
G75*
G03*
X3368407Y-12600000I-282843J-100000D01*
G01*
X30269264Y-1270000D02*
X31550000Y-1270000D01*
X30269264Y-1270001D02*
G75*
G03*
X30127842Y-1370000I6J-150009D01*
G01*
X20744264Y-1270001D02*
G75*
G03*
X20602843Y-1370000I6J-150009D01*
G01*
X7989068Y-12699995D02*
G75*
G03*
X8130907Y-12600000I422J149996D01*
G01*
X7989068Y-12700000D02*
X7988235Y-12700000D01*
X7970000Y-12700000D02*
X4095000Y-12700000D01*
X28222845Y-12599999D02*
G75*
G03*
X28364264Y-12700000I141415J49989D01*
G01*
X31750000Y-1470000D02*
X31750000Y-12500000D01*
X19895735Y-12699998D02*
G75*
G03*
X20037157Y-12600000I-5J150008D01*
G01*
X3226985Y-12700000D02*
X1470000Y-12700000D01*
X20037155Y-1370001D02*
G75*
G03*
X19895735Y-1270000I-141415J-49989D01*
G01*
X2892161Y-1369998D02*
G75*
G03*
X2750735Y-1270000I-141421J-50002D01*
G01*
X3226985Y-12699996D02*
G75*
G03*
X3368407Y-12600000I5J149996D01*
G01*
X2892157Y-1370000D02*
G75*
G03*
X3457842Y-1370000I282843J100000D01*
G01*
X1270000Y-12500000D02*
G75*
G03*
X1470000Y-12700000I200000J0D01*
G01*
X20037157Y-1370000D02*
G75*
G03*
X20602842Y-1370000I282843J100000D01*
G01*
X20602842Y-12600000D02*
G75*
G03*
X20037157Y-12600000I-282843J-100000D01*
G01*
D11*
D12*
X10873572Y-11466071D02*
X10903572Y-11496071D01*
X10903572Y-11466071D02*
X10873572Y-11496071D01*
X10873572Y-11543214D02*
X10903572Y-11573214D01*
X10903572Y-11543214D02*
X10873572Y-11573214D01*
X10873572Y-11620357D02*
X10903572Y-11650357D01*
X10903572Y-11620357D02*
X10873572Y-11650357D01*
X10873572Y-11697500D02*
X10903572Y-11727500D01*
X10903572Y-11697500D02*
X10873572Y-11727500D01*
X10873572Y-11774643D02*
X10903572Y-11804643D01*
X10903572Y-11774643D02*
X10873572Y-11804643D01*
X10873572Y-11851786D02*
X10903572Y-11881786D01*
X10903572Y-11851786D02*
X10873572Y-11881786D01*
X10873572Y-11928928D02*
X10903572Y-11958928D01*
X10903572Y-11928928D02*
X10873572Y-11958928D01*
X10950714Y-11466071D02*
X10980714Y-11496071D01*
X10980714Y-11466071D02*
X10950714Y-11496071D01*
X10950714Y-11543214D02*
X10980714Y-11573214D01*
X10980714Y-11543214D02*
X10950714Y-11573214D01*
X10950714Y-11620357D02*
X10980714Y-11650357D01*
X10980714Y-11620357D02*
X10950714Y-11650357D01*
X10950714Y-11697500D02*
X10980714Y-11727500D01*
X10980714Y-11697500D02*
X10950714Y-11727500D01*
X10950714Y-11774643D02*
X10980714Y-11804643D01*
X10980714Y-11774643D02*
X10950714Y-11804643D01*
X10950714Y-11851786D02*
X10980714Y-11881786D01*
X10980714Y-11851786D02*
X10950714Y-11881786D01*
X10950714Y-11928928D02*
X10980714Y-11958928D01*
X10980714Y-11928928D02*
X10950714Y-11958928D01*
X11027857Y-11466071D02*
X11057857Y-11496071D01*
X11057857Y-11466071D02*
X11027857Y-11496071D01*
X11027857Y-11543214D02*
X11057857Y-11573214D01*
X11057857Y-11543214D02*
X11027857Y-11573214D01*
X11027857Y-11620357D02*
X11057857Y-11650357D01*
X11057857Y-11620357D02*
X11027857Y-11650357D01*
X11027857Y-11697500D02*
X11057857Y-11727500D01*
X11057857Y-11697500D02*
X11027857Y-11727500D01*
X11027857Y-11774643D02*
X11057857Y-11804643D01*
X11057857Y-11774643D02*
X11027857Y-11804643D01*
X11027857Y-11851786D02*
X11057857Y-11881786D01*
X11057857Y-11851786D02*
X11027857Y-11881786D01*
X11027857Y-11928928D02*
X11057857Y-11958928D01*
X11057857Y-11928928D02*
X11027857Y-11958928D01*
X11105000Y-11466071D02*
X11135000Y-11496071D01*
X11135000Y-11466071D02*
X11105000Y-11496071D01*
X11105000Y-11543214D02*
X11135000Y-11573214D01*
X11135000Y-11543214D02*
X11105000Y-11573214D01*
X11105000Y-11620357D02*
X11135000Y-11650357D01*
X11135000Y-11620357D02*
X11105000Y-11650357D01*
X11105000Y-11697500D02*
X11135000Y-11727500D01*
X11135000Y-11697500D02*
X11105000Y-11727500D01*
X11105000Y-11774643D02*
X11135000Y-11804643D01*
X11135000Y-11774643D02*
X11105000Y-11804643D01*
X11105000Y-11851786D02*
X11135000Y-11881786D01*
X11135000Y-11851786D02*
X11105000Y-11881786D01*
X11105000Y-11928928D02*
X11135000Y-11958928D01*
X11135000Y-11928928D02*
X11105000Y-11958928D01*
X11182143Y-11466071D02*
X11212143Y-11496071D01*
X11212143Y-11466071D02*
X11182143Y-11496071D01*
X11182143Y-11543214D02*
X11212143Y-11573214D01*
X11212143Y-11543214D02*
X11182143Y-11573214D01*
X11182143Y-11620357D02*
X11212143Y-11650357D01*
X11212143Y-11620357D02*
X11182143Y-11650357D01*
X11182143Y-11697500D02*
X11212143Y-11727500D01*
X11212143Y-11697500D02*
X11182143Y-11727500D01*
X11182143Y-11774643D02*
X11212143Y-11804643D01*
X11212143Y-11774643D02*
X11182143Y-11804643D01*
X11182143Y-11851786D02*
X11212143Y-11881786D01*
X11212143Y-11851786D02*
X11182143Y-11881786D01*
X11182143Y-11928928D02*
X11212143Y-11958928D01*
X11212143Y-11928928D02*
X11182143Y-11958928D01*
X11259286Y-11466071D02*
X11289286Y-11496071D01*
X11289286Y-11466071D02*
X11259286Y-11496071D01*
X11259286Y-11543214D02*
X11289286Y-11573214D01*
X11289286Y-11543214D02*
X11259286Y-11573214D01*
X11259286Y-11620357D02*
X11289286Y-11650357D01*
X11289286Y-11620357D02*
X11259286Y-11650357D01*
X11259286Y-11697500D02*
X11289286Y-11727500D01*
X11289286Y-11697500D02*
X11259286Y-11727500D01*
X11259286Y-11774643D02*
X11289286Y-11804643D01*
X11289286Y-11774643D02*
X11259286Y-11804643D01*
X11259286Y-11851786D02*
X11289286Y-11881786D01*
X11289286Y-11851786D02*
X11259286Y-11881786D01*
X11259286Y-11928928D02*
X11289286Y-11958928D01*
X11289286Y-11928928D02*
X11259286Y-11958928D01*
X11336428Y-11466071D02*
X11366428Y-11496071D01*
X11366428Y-11466071D02*
X11336428Y-11496071D01*
X11336428Y-11543214D02*
X11366428Y-11573214D01*
X11366428Y-11543214D02*
X11336428Y-11573214D01*
X11336428Y-11620357D02*
X11366428Y-11650357D01*
X11366428Y-11620357D02*
X11336428Y-11650357D01*
X11336428Y-11697500D02*
X11366428Y-11727500D01*
X11366428Y-11697500D02*
X11336428Y-11727500D01*
X11336428Y-11774643D02*
X11366428Y-11804643D01*
X11366428Y-11774643D02*
X11336428Y-11804643D01*
X11336428Y-11851786D02*
X11366428Y-11881786D01*
X11366428Y-11851786D02*
X11336428Y-11881786D01*
X11336428Y-11928928D02*
X11366428Y-11958928D01*
X11366428Y-11928928D02*
X11336428Y-11958928D01*
D13*
X1770000Y-9063230D02*
G75*
G03*
X1770000Y-9063230I-20000J0D01*
G01*
X1970000Y-2780000D02*
G75*
G03*
X1970000Y-2780000I-20000J0D01*
G01*
X1970000Y-4690000D02*
G75*
G03*
X1970000Y-4690000I-20000J0D01*
G01*
X2190000Y-12310000D02*
G75*
G03*
X2190000Y-12310000I-20000J0D01*
G01*
X2210000Y-10410000D02*
G75*
G03*
X2210000Y-10410000I-20000J0D01*
G01*
X2240000Y-10749860D02*
G75*
G03*
X2240000Y-10749860I-20000J0D01*
G01*
X2430000Y-6600000D02*
G75*
G03*
X2430000Y-6600000I-20000J0D01*
G01*
X2514300Y-10714300D02*
G75*
G03*
X2514300Y-10714300I-20000J0D01*
G01*
X2680000Y-8510000D02*
G75*
G03*
X2680000Y-8510000I-20000J0D01*
G01*
X3115000Y-4520000D02*
G75*
G03*
X3115000Y-4520000I-20000J0D01*
G01*
X3115625Y-2610000D02*
G75*
G03*
X3115625Y-2610000I-20000J0D01*
G01*
X3353750Y-12100000D02*
G75*
G03*
X3353750Y-12100000I-20000J0D01*
G01*
X3355000Y-10240000D02*
G75*
G03*
X3355000Y-10240000I-20000J0D01*
G01*
X3590000Y-6370000D02*
G75*
G03*
X3590000Y-6370000I-20000J0D01*
G01*
X3673402Y-4563402D02*
G75*
G03*
X3673402Y-4563402I-20000J0D01*
G01*
X3691769Y-2661770D02*
G75*
G03*
X3691769Y-2661770I-20000J0D01*
G01*
X3830000Y-7830000D02*
G75*
G03*
X3830000Y-7830000I-20000J0D01*
G01*
X3869500Y-4690500D02*
G75*
G03*
X3869500Y-4690500I-20000J0D01*
G01*
X3870500Y-4580500D02*
G75*
G03*
X3870500Y-4580500I-20000J0D01*
G01*
X3880000Y-2680000D02*
G75*
G03*
X3880000Y-2680000I-20000J0D01*
G01*
X3880000Y-2790000D02*
G75*
G03*
X3880000Y-2790000I-20000J0D01*
G01*
X4147497Y-10284307D02*
G75*
G03*
X4147497Y-10284307I-20000J0D01*
G01*
X4340000Y-10300000D02*
G75*
G03*
X4340000Y-10300000I-20000J0D01*
G01*
X4350000Y-10405500D02*
G75*
G03*
X4350000Y-10405500I-20000J0D01*
G01*
X4390000Y-12191810D02*
G75*
G03*
X4390000Y-12191810I-20000J0D01*
G01*
X4424250Y-10714250D02*
G75*
G03*
X4424250Y-10714250I-20000J0D01*
G01*
X4590000Y-12200000D02*
G75*
G03*
X4590000Y-12200000I-20000J0D01*
G01*
X4590000Y-12310000D02*
G75*
G03*
X4590000Y-12310000I-20000J0D01*
G01*
X4633402Y-6473402D02*
G75*
G03*
X4633402Y-6473402I-20000J0D01*
G01*
X4823237Y-6489958D02*
G75*
G03*
X4823237Y-6489958I-20000J0D01*
G01*
X4830000Y-6590000D02*
G75*
G03*
X4830000Y-6590000I-20000J0D01*
G01*
X5073402Y-8381810D02*
G75*
G03*
X5073402Y-8381810I-20000J0D01*
G01*
X5298402Y-8388402D02*
G75*
G03*
X5298402Y-8388402I-20000J0D01*
G01*
X5300000Y-8490000D02*
G75*
G03*
X5300000Y-8490000I-20000J0D01*
G01*
X5570000Y-4570000D02*
G75*
G03*
X5570000Y-4570000I-20000J0D01*
G01*
X5583402Y-2666810D02*
G75*
G03*
X5583402Y-2666810I-20000J0D01*
G01*
X5718150Y-9058150D02*
G75*
G03*
X5718150Y-9058150I-20000J0D01*
G01*
X5780000Y-2790000D02*
G75*
G03*
X5780000Y-2790000I-20000J0D01*
G01*
X5788152Y-4578652D02*
G75*
G03*
X5788152Y-4578652I-20000J0D01*
G01*
X5790000Y-2680000D02*
G75*
G03*
X5790000Y-2680000I-20000J0D01*
G01*
X5790000Y-4680000D02*
G75*
G03*
X5790000Y-4680000I-20000J0D01*
G01*
X5965000Y-6380000D02*
G75*
G03*
X5965000Y-6380000I-20000J0D01*
G01*
X6048402Y-10278402D02*
G75*
G03*
X6048402Y-10278402I-20000J0D01*
G01*
X6050000Y-11080000D02*
G75*
G03*
X6050000Y-11080000I-20000J0D01*
G01*
X6050000Y-11320000D02*
G75*
G03*
X6050000Y-11320000I-20000J0D01*
G01*
X6230000Y-10410000D02*
G75*
G03*
X6230000Y-10410000I-20000J0D01*
G01*
X6238402Y-10298402D02*
G75*
G03*
X6238402Y-10298402I-20000J0D01*
G01*
X6365000Y-7742500D02*
G75*
G03*
X6365000Y-7742500I-20000J0D01*
G01*
X6543402Y-6463402D02*
G75*
G03*
X6543402Y-6463402I-20000J0D01*
G01*
X6680000Y-12191810D02*
G75*
G03*
X6680000Y-12191810I-20000J0D01*
G01*
X6730000Y-6600000D02*
G75*
G03*
X6730000Y-6600000I-20000J0D01*
G01*
X6738402Y-6488402D02*
G75*
G03*
X6738402Y-6488402I-20000J0D01*
G01*
X6925000Y-4520000D02*
G75*
G03*
X6925000Y-4520000I-20000J0D01*
G01*
X6925625Y-2610000D02*
G75*
G03*
X6925625Y-2610000I-20000J0D01*
G01*
X6960000Y-12200500D02*
G75*
G03*
X6960000Y-12200500I-20000J0D01*
G01*
X6970000Y-12310500D02*
G75*
G03*
X6970000Y-12310500I-20000J0D01*
G01*
X7024997Y-8381807D02*
G75*
G03*
X7024997Y-8381807I-20000J0D01*
G01*
X7200000Y-2666810D02*
G75*
G03*
X7200000Y-2666810I-20000J0D01*
G01*
X7220000Y-8500000D02*
G75*
G03*
X7220000Y-8500000I-20000J0D01*
G01*
X7222695Y-8390500D02*
G75*
G03*
X7222695Y-8390500I-20000J0D01*
G01*
X7297099Y-2691829D02*
G75*
G03*
X7297099Y-2691829I-20000J0D01*
G01*
X7302500Y-9657500D02*
G75*
G03*
X7302500Y-9657500I-20000J0D01*
G01*
X7319620Y-2789537D02*
G75*
G03*
X7319620Y-2789537I-20000J0D01*
G01*
X7335720Y-4587030D02*
G75*
G03*
X7335720Y-4587030I-20000J0D01*
G01*
X7430774Y-4618951D02*
G75*
G03*
X7430774Y-4618951I-20000J0D01*
G01*
X7510000Y-4700000D02*
G75*
G03*
X7510000Y-4700000I-20000J0D01*
G01*
X7670000Y-2514430D02*
G75*
G03*
X7670000Y-2514430I-20000J0D01*
G01*
X7670000Y-2680000D02*
G75*
G03*
X7670000Y-2680000I-20000J0D01*
G01*
X7670000Y-2790000D02*
G75*
G03*
X7670000Y-2790000I-20000J0D01*
G01*
X7690000Y-4690000D02*
G75*
G03*
X7690000Y-4690000I-20000J0D01*
G01*
X7695000Y-4419430D02*
G75*
G03*
X7695000Y-4419430I-20000J0D01*
G01*
X7695000Y-4575000D02*
G75*
G03*
X7695000Y-4575000I-20000J0D01*
G01*
X7943402Y-10263402D02*
G75*
G03*
X7943402Y-10263402I-20000J0D01*
G01*
X8000000Y-9022590D02*
G75*
G03*
X8000000Y-9022590I-20000J0D01*
G01*
X8115000Y-12060000D02*
G75*
G03*
X8115000Y-12060000I-20000J0D01*
G01*
X8130000Y-10300000D02*
G75*
G03*
X8130000Y-10300000I-20000J0D01*
G01*
X8140000Y-10400000D02*
G75*
G03*
X8140000Y-10400000I-20000J0D01*
G01*
X8221767Y-6438628D02*
G75*
G03*
X8221767Y-6438628I-20000J0D01*
G01*
X8301598Y-6511598D02*
G75*
G03*
X8301598Y-6511598I-20000J0D01*
G01*
X8363533Y-6593533D02*
G75*
G03*
X8363533Y-6593533I-20000J0D01*
G01*
X8620000Y-6470370D02*
G75*
G03*
X8620000Y-6470370I-20000J0D01*
G01*
X8620000Y-6600000D02*
G75*
G03*
X8620000Y-6600000I-20000J0D01*
G01*
X8622500Y-6324430D02*
G75*
G03*
X8622500Y-6324430I-20000J0D01*
G01*
X8793037Y-8401310D02*
G75*
G03*
X8793037Y-8401310I-20000J0D01*
G01*
X8891598Y-8531598D02*
G75*
G03*
X8891598Y-8531598I-20000J0D01*
G01*
X8900000Y-8420000D02*
G75*
G03*
X8900000Y-8420000I-20000J0D01*
G01*
X9130000Y-8229430D02*
G75*
G03*
X9130000Y-8229430I-20000J0D01*
G01*
X9130000Y-8390000D02*
G75*
G03*
X9130000Y-8390000I-20000J0D01*
G01*
X9130000Y-8510000D02*
G75*
G03*
X9130000Y-8510000I-20000J0D01*
G01*
X9373402Y-2666810D02*
G75*
G03*
X9373402Y-2666810I-20000J0D01*
G01*
X9383402Y-4563402D02*
G75*
G03*
X9383402Y-4563402I-20000J0D01*
G01*
X9480000Y-11250000D02*
G75*
G03*
X9480000Y-11250000I-20000J0D01*
G01*
X9480000Y-11405000D02*
G75*
G03*
X9480000Y-11405000I-20000J0D01*
G01*
X9480000Y-11565000D02*
G75*
G03*
X9480000Y-11565000I-20000J0D01*
G01*
X9555000Y-11175000D02*
G75*
G03*
X9555000Y-11175000I-20000J0D01*
G01*
X9555000Y-11325170D02*
G75*
G03*
X9555000Y-11325170I-20000J0D01*
G01*
X9560000Y-11480000D02*
G75*
G03*
X9560000Y-11480000I-20000J0D01*
G01*
X9580000Y-2680000D02*
G75*
G03*
X9580000Y-2680000I-20000J0D01*
G01*
X9580000Y-2790000D02*
G75*
G03*
X9580000Y-2790000I-20000J0D01*
G01*
X9580000Y-4580000D02*
G75*
G03*
X9580000Y-4580000I-20000J0D01*
G01*
X9590000Y-4700000D02*
G75*
G03*
X9590000Y-4700000I-20000J0D01*
G01*
X9786300Y-6400800D02*
G75*
G03*
X9786300Y-6400800I-20000J0D01*
G01*
X9846769Y-10286770D02*
G75*
G03*
X9846769Y-10286770I-20000J0D01*
G01*
X9865000Y-8987030D02*
G75*
G03*
X9865000Y-8987030I-20000J0D01*
G01*
X10050000Y-10290000D02*
G75*
G03*
X10050000Y-10290000I-20000J0D01*
G01*
X10060000Y-10410000D02*
G75*
G03*
X10060000Y-10410000I-20000J0D01*
G01*
X10150000Y-10720000D02*
G75*
G03*
X10150000Y-10720000I-20000J0D01*
G01*
X10155000Y-11060000D02*
G75*
G03*
X10155000Y-11060000I-20000J0D01*
G01*
X10160000Y-10885000D02*
G75*
G03*
X10160000Y-10885000I-20000J0D01*
G01*
X10230000Y-10795000D02*
G75*
G03*
X10230000Y-10795000I-20000J0D01*
G01*
X10235000Y-10975000D02*
G75*
G03*
X10235000Y-10975000I-20000J0D01*
G01*
X10235000Y-11150000D02*
G75*
G03*
X10235000Y-11150000I-20000J0D01*
G01*
X10257000Y-11607150D02*
G75*
G03*
X10257000Y-11607150I-20000J0D01*
G01*
X10260000Y-8310000D02*
G75*
G03*
X10260000Y-8310000I-20000J0D01*
G01*
X10260000Y-11505000D02*
G75*
G03*
X10260000Y-11505000I-20000J0D01*
G01*
X10308000Y-12070000D02*
G75*
G03*
X10308000Y-12070000I-20000J0D01*
G01*
X10332400Y-6474460D02*
G75*
G03*
X10332400Y-6474460I-20000J0D01*
G01*
X10398000Y-12303000D02*
G75*
G03*
X10398000Y-12303000I-20000J0D01*
G01*
X10437033Y-12155665D02*
G75*
G03*
X10437033Y-12155665I-20000J0D01*
G01*
X10536398Y-6490498D02*
G75*
G03*
X10536398Y-6490498I-20000J0D01*
G01*
X10540000Y-6610000D02*
G75*
G03*
X10540000Y-6610000I-20000J0D01*
G01*
X10735000Y-4520000D02*
G75*
G03*
X10735000Y-4520000I-20000J0D01*
G01*
X10735625Y-2610000D02*
G75*
G03*
X10735625Y-2610000I-20000J0D01*
G01*
X10745000Y-12353000D02*
G75*
G03*
X10745000Y-12353000I-20000J0D01*
G01*
X10817019Y-8381810D02*
G75*
G03*
X10817019Y-8381810I-20000J0D01*
G01*
X10940000Y-10286810D02*
G75*
G03*
X10940000Y-10286810I-20000J0D01*
G01*
X11000000Y-10700000D02*
G75*
G03*
X11000000Y-10700000I-20000J0D01*
G01*
X11020000Y-8390500D02*
G75*
G03*
X11020000Y-8390500I-20000J0D01*
G01*
X11020000Y-8510000D02*
G75*
G03*
X11020000Y-8510000I-20000J0D01*
G01*
X11080000Y-10332530D02*
G75*
G03*
X11080000Y-10332530I-20000J0D01*
G01*
X11120000Y-10700000D02*
G75*
G03*
X11120000Y-10700000I-20000J0D01*
G01*
X11210000Y-10210000D02*
G75*
G03*
X11210000Y-10210000I-20000J0D01*
G01*
X11270000Y-4571810D02*
G75*
G03*
X11270000Y-4571810I-20000J0D01*
G01*
X11303864Y-2665174D02*
G75*
G03*
X11303864Y-2665174I-20000J0D01*
G01*
X11476461Y-4690000D02*
G75*
G03*
X11476461Y-4690000I-20000J0D01*
G01*
X11476598Y-4586598D02*
G75*
G03*
X11476598Y-4586598I-20000J0D01*
G01*
X11490000Y-10900000D02*
G75*
G03*
X11490000Y-10900000I-20000J0D01*
G01*
X11497000Y-12253650D02*
G75*
G03*
X11497000Y-12253650I-20000J0D01*
G01*
X11500000Y-2675500D02*
G75*
G03*
X11500000Y-2675500I-20000J0D01*
G01*
X11500000Y-2785500D02*
G75*
G03*
X11500000Y-2785500I-20000J0D01*
G01*
X11750000Y-8951470D02*
G75*
G03*
X11750000Y-8951470I-20000J0D01*
G01*
X11768405Y-10278405D02*
G75*
G03*
X11768405Y-10278405I-20000J0D01*
G01*
X11964098Y-10294098D02*
G75*
G03*
X11964098Y-10294098I-20000J0D01*
G01*
X11970000Y-10420000D02*
G75*
G03*
X11970000Y-10420000I-20000J0D01*
G01*
X12239940Y-6476810D02*
G75*
G03*
X12239940Y-6476810I-20000J0D01*
G01*
X12323402Y-6993402D02*
G75*
G03*
X12323402Y-6993402I-20000J0D01*
G01*
X12333754Y-6879856D02*
G75*
G03*
X12333754Y-6879856I-20000J0D01*
G01*
X12421805Y-7101805D02*
G75*
G03*
X12421805Y-7101805I-20000J0D01*
G01*
X12430000Y-6990000D02*
G75*
G03*
X12430000Y-6990000I-20000J0D01*
G01*
X12437582Y-6489222D02*
G75*
G03*
X12437582Y-6489222I-20000J0D01*
G01*
X12450760Y-6595500D02*
G75*
G03*
X12450760Y-6595500I-20000J0D01*
G01*
X12516800Y-11010900D02*
G75*
G03*
X12516800Y-11010900I-20000J0D01*
G01*
X12516800Y-11163300D02*
G75*
G03*
X12516800Y-11163300I-20000J0D01*
G01*
X12529500Y-11315700D02*
G75*
G03*
X12529500Y-11315700I-20000J0D01*
G01*
X12529500Y-11468100D02*
G75*
G03*
X12529500Y-11468100I-20000J0D01*
G01*
X12529500Y-11620500D02*
G75*
G03*
X12529500Y-11620500I-20000J0D01*
G01*
X12529500Y-11836400D02*
G75*
G03*
X12529500Y-11836400I-20000J0D01*
G01*
X12530000Y-7200000D02*
G75*
G03*
X12530000Y-7200000I-20000J0D01*
G01*
X12540000Y-7086805D02*
G75*
G03*
X12540000Y-7086805I-20000J0D01*
G01*
X12540000Y-11990000D02*
G75*
G03*
X12540000Y-11990000I-20000J0D01*
G01*
X12540000Y-12137970D02*
G75*
G03*
X12540000Y-12137970I-20000J0D01*
G01*
X12630207Y-3160207D02*
G75*
G03*
X12630207Y-3160207I-20000J0D01*
G01*
X12631100Y-11912600D02*
G75*
G03*
X12631100Y-11912600I-20000J0D01*
G01*
X12638610Y-3048610D02*
G75*
G03*
X12638610Y-3048610I-20000J0D01*
G01*
X12640000Y-12060000D02*
G75*
G03*
X12640000Y-12060000I-20000J0D01*
G01*
X12643800Y-11087100D02*
G75*
G03*
X12643800Y-11087100I-20000J0D01*
G01*
X12643800Y-11239500D02*
G75*
G03*
X12643800Y-11239500I-20000J0D01*
G01*
X12643800Y-11391900D02*
G75*
G03*
X12643800Y-11391900I-20000J0D01*
G01*
X12643800Y-11544300D02*
G75*
G03*
X12643800Y-11544300I-20000J0D01*
G01*
X12643800Y-11696700D02*
G75*
G03*
X12643800Y-11696700I-20000J0D01*
G01*
X12732497Y-8374307D02*
G75*
G03*
X12732497Y-8374307I-20000J0D01*
G01*
X12733402Y-3263402D02*
G75*
G03*
X12733402Y-3263402I-20000J0D01*
G01*
X12741805Y-3151805D02*
G75*
G03*
X12741805Y-3151805I-20000J0D01*
G01*
X12831598Y-3371598D02*
G75*
G03*
X12831598Y-3371598I-20000J0D01*
G01*
X12855000Y-3245000D02*
G75*
G03*
X12855000Y-3245000I-20000J0D01*
G01*
X12910000Y-8510000D02*
G75*
G03*
X12910000Y-8510000I-20000J0D01*
G01*
X12911598Y-8401598D02*
G75*
G03*
X12911598Y-8401598I-20000J0D01*
G01*
X13045000Y-11875000D02*
G75*
G03*
X13045000Y-11875000I-20000J0D01*
G01*
X13180000Y-4570000D02*
G75*
G03*
X13180000Y-4570000I-20000J0D01*
G01*
X13210000Y-2660000D02*
G75*
G03*
X13210000Y-2660000I-20000J0D01*
G01*
X13395500Y-2785500D02*
G75*
G03*
X13395500Y-2785500I-20000J0D01*
G01*
X13400000Y-2680000D02*
G75*
G03*
X13400000Y-2680000I-20000J0D01*
G01*
X13400000Y-4580000D02*
G75*
G03*
X13400000Y-4580000I-20000J0D01*
G01*
X13400000Y-4690000D02*
G75*
G03*
X13400000Y-4690000I-20000J0D01*
G01*
X13447500Y-5850000D02*
G75*
G03*
X13447500Y-5850000I-20000J0D01*
G01*
X13545000Y-11875000D02*
G75*
G03*
X13545000Y-11875000I-20000J0D01*
G01*
X13570000Y-12460000D02*
G75*
G03*
X13570000Y-12460000I-20000J0D01*
G01*
X13603402Y-12323402D02*
G75*
G03*
X13603402Y-12323402I-20000J0D01*
G01*
X13647500Y-12210000D02*
G75*
G03*
X13647500Y-12210000I-20000J0D01*
G01*
X13655000Y-8915910D02*
G75*
G03*
X13655000Y-8915910I-20000J0D01*
G01*
X13669997Y-10276807D02*
G75*
G03*
X13669997Y-10276807I-20000J0D01*
G01*
X13870000Y-10290000D02*
G75*
G03*
X13870000Y-10290000I-20000J0D01*
G01*
X13880000Y-10400000D02*
G75*
G03*
X13880000Y-10400000I-20000J0D01*
G01*
X14010000Y-8310000D02*
G75*
G03*
X14010000Y-8310000I-20000J0D01*
G01*
X14045644Y-5549210D02*
G75*
G03*
X14045644Y-5549210I-20000J0D01*
G01*
X14110000Y-12200500D02*
G75*
G03*
X14110000Y-12200500I-20000J0D01*
G01*
X14112612Y-12039430D02*
G75*
G03*
X14112612Y-12039430I-20000J0D01*
G01*
X14120000Y-12310000D02*
G75*
G03*
X14120000Y-12310000I-20000J0D01*
G01*
X14146092Y-6476092D02*
G75*
G03*
X14146092Y-6476092I-20000J0D01*
G01*
X14202000Y-5483860D02*
G75*
G03*
X14202000Y-5483860I-20000J0D01*
G01*
X14345000Y-6605000D02*
G75*
G03*
X14345000Y-6605000I-20000J0D01*
G01*
X14348140Y-6487160D02*
G75*
G03*
X14348140Y-6487160I-20000J0D01*
G01*
X14375000Y-7436000D02*
G75*
G03*
X14375000Y-7436000I-20000J0D01*
G01*
X14432500Y-3902500D02*
G75*
G03*
X14432500Y-3902500I-20000J0D01*
G01*
X14492000Y-7366000D02*
G75*
G03*
X14492000Y-7366000I-20000J0D01*
G01*
X14524000Y-1754000D02*
G75*
G03*
X14524000Y-1754000I-20000J0D01*
G01*
X14547500Y-2070000D02*
G75*
G03*
X14547500Y-2070000I-20000J0D01*
G01*
X14627000Y-1689790D02*
G75*
G03*
X14627000Y-1689790I-20000J0D01*
G01*
X14630902Y-8381810D02*
G75*
G03*
X14630902Y-8381810I-20000J0D01*
G01*
X14732000Y-3644210D02*
G75*
G03*
X14732000Y-3644210I-20000J0D01*
G01*
X14839000Y-3554150D02*
G75*
G03*
X14839000Y-3554150I-20000J0D01*
G01*
X14840000Y-8390000D02*
G75*
G03*
X14840000Y-8390000I-20000J0D01*
G01*
X14850000Y-8500000D02*
G75*
G03*
X14850000Y-8500000I-20000J0D01*
G01*
X14980000Y-9700000D02*
G75*
G03*
X14980000Y-9700000I-20000J0D01*
G01*
X15102604Y-4571810D02*
G75*
G03*
X15102604Y-4571810I-20000J0D01*
G01*
X15104691Y-2666810D02*
G75*
G03*
X15104691Y-2666810I-20000J0D01*
G01*
X15178000Y-12186000D02*
G75*
G03*
X15178000Y-12186000I-20000J0D01*
G01*
X15290000Y-4700000D02*
G75*
G03*
X15290000Y-4700000I-20000J0D01*
G01*
X15296598Y-4596598D02*
G75*
G03*
X15296598Y-4596598I-20000J0D01*
G01*
X15300000Y-2680000D02*
G75*
G03*
X15300000Y-2680000I-20000J0D01*
G01*
X15300000Y-2790000D02*
G75*
G03*
X15300000Y-2790000I-20000J0D01*
G01*
X15397281Y-12334925D02*
G75*
G03*
X15397281Y-12334925I-20000J0D01*
G01*
X15420000Y-9335000D02*
G75*
G03*
X15420000Y-9335000I-20000J0D01*
G01*
X15492435Y-12337565D02*
G75*
G03*
X15492435Y-12337565I-20000J0D01*
G01*
X15525000Y-9277405D02*
G75*
G03*
X15525000Y-9277405I-20000J0D01*
G01*
X15535000Y-8880350D02*
G75*
G03*
X15535000Y-8880350I-20000J0D01*
G01*
X15594997Y-10281807D02*
G75*
G03*
X15594997Y-10281807I-20000J0D01*
G01*
X15780000Y-10410000D02*
G75*
G03*
X15780000Y-10410000I-20000J0D01*
G01*
X15781598Y-10301598D02*
G75*
G03*
X15781598Y-10301598I-20000J0D01*
G01*
X15790000Y-8130000D02*
G75*
G03*
X15790000Y-8130000I-20000J0D01*
G01*
X15972000Y-4440000D02*
G75*
G03*
X15972000Y-4440000I-20000J0D01*
G01*
X16044997Y-6476807D02*
G75*
G03*
X16044997Y-6476807I-20000J0D01*
G01*
X16143500Y-4929500D02*
G75*
G03*
X16143500Y-4929500I-20000J0D01*
G01*
X16215000Y-11790000D02*
G75*
G03*
X16215000Y-11790000I-20000J0D01*
G01*
X16220000Y-11640000D02*
G75*
G03*
X16220000Y-11640000I-20000J0D01*
G01*
X16220000Y-11945000D02*
G75*
G03*
X16220000Y-11945000I-20000J0D01*
G01*
X16230000Y-11355000D02*
G75*
G03*
X16230000Y-11355000I-20000J0D01*
G01*
X16230000Y-11495000D02*
G75*
G03*
X16230000Y-11495000I-20000J0D01*
G01*
X16240000Y-6600000D02*
G75*
G03*
X16240000Y-6600000I-20000J0D01*
G01*
X16247000Y-5021000D02*
G75*
G03*
X16247000Y-5021000I-20000J0D01*
G01*
X16251305Y-6485500D02*
G75*
G03*
X16251305Y-6485500I-20000J0D01*
G01*
X16315000Y-11421950D02*
G75*
G03*
X16315000Y-11421950I-20000J0D01*
G01*
X16315000Y-11560350D02*
G75*
G03*
X16315000Y-11560350I-20000J0D01*
G01*
X16320000Y-11710000D02*
G75*
G03*
X16320000Y-11710000I-20000J0D01*
G01*
X16320000Y-11865000D02*
G75*
G03*
X16320000Y-11865000I-20000J0D01*
G01*
X16320000Y-12015000D02*
G75*
G03*
X16320000Y-12015000I-20000J0D01*
G01*
X16336000Y-11082000D02*
G75*
G03*
X16336000Y-11082000I-20000J0D01*
G01*
X16369380Y-5017410D02*
G75*
G03*
X16369380Y-5017410I-20000J0D01*
G01*
X16442000Y-10988000D02*
G75*
G03*
X16442000Y-10988000I-20000J0D01*
G01*
X16464620Y-5017410D02*
G75*
G03*
X16464620Y-5017410I-20000J0D01*
G01*
X16470000Y-11175000D02*
G75*
G03*
X16470000Y-11175000I-20000J0D01*
G01*
X16500000Y-8381810D02*
G75*
G03*
X16500000Y-8381810I-20000J0D01*
G01*
X16589000Y-5016000D02*
G75*
G03*
X16589000Y-5016000I-20000J0D01*
G01*
X16649000Y-12063000D02*
G75*
G03*
X16649000Y-12063000I-20000J0D01*
G01*
X16650000Y-11965000D02*
G75*
G03*
X16650000Y-11965000I-20000J0D01*
G01*
X16700000Y-10230000D02*
G75*
G03*
X16700000Y-10230000I-20000J0D01*
G01*
X16700000Y-11030000D02*
G75*
G03*
X16700000Y-11030000I-20000J0D01*
G01*
X16730000Y-8390000D02*
G75*
G03*
X16730000Y-8390000I-20000J0D01*
G01*
X16740000Y-8510000D02*
G75*
G03*
X16740000Y-8510000I-20000J0D01*
G01*
X16795000Y-10955000D02*
G75*
G03*
X16795000Y-10955000I-20000J0D01*
G01*
X16858000Y-4440000D02*
G75*
G03*
X16858000Y-4440000I-20000J0D01*
G01*
X16900000Y-9610000D02*
G75*
G03*
X16900000Y-9610000I-20000J0D01*
G01*
X16905000Y-10894300D02*
G75*
G03*
X16905000Y-10894300I-20000J0D01*
G01*
X16970000Y-12135000D02*
G75*
G03*
X16970000Y-12135000I-20000J0D01*
G01*
X16999997Y-2666807D02*
G75*
G03*
X16999997Y-2666807I-20000J0D01*
G01*
X17019762Y-4583418D02*
G75*
G03*
X17019762Y-4583418I-20000J0D01*
G01*
X17078522Y-12110038D02*
G75*
G03*
X17078522Y-12110038I-20000J0D01*
G01*
X17081000Y-10813000D02*
G75*
G03*
X17081000Y-10813000I-20000J0D01*
G01*
X17084958Y-12205011D02*
G75*
G03*
X17084958Y-12205011I-20000J0D01*
G01*
X17135000Y-10218000D02*
G75*
G03*
X17135000Y-10218000I-20000J0D01*
G01*
X17155000Y-10502000D02*
G75*
G03*
X17155000Y-10502000I-20000J0D01*
G01*
X17210000Y-4690000D02*
G75*
G03*
X17210000Y-4690000I-20000J0D01*
G01*
X17211598Y-4581598D02*
G75*
G03*
X17211598Y-4581598I-20000J0D01*
G01*
X17214500Y-2785500D02*
G75*
G03*
X17214500Y-2785500I-20000J0D01*
G01*
X17214896Y-2678299D02*
G75*
G03*
X17214896Y-2678299I-20000J0D01*
G01*
X17233000Y-10829000D02*
G75*
G03*
X17233000Y-10829000I-20000J0D01*
G01*
X17344380Y-10828000D02*
G75*
G03*
X17344380Y-10828000I-20000J0D01*
G01*
X17377000Y-10218000D02*
G75*
G03*
X17377000Y-10218000I-20000J0D01*
G01*
X17405000Y-6465000D02*
G75*
G03*
X17405000Y-6465000I-20000J0D01*
G01*
X17430000Y-8820050D02*
G75*
G03*
X17430000Y-8820050I-20000J0D01*
G01*
X17439620Y-10828000D02*
G75*
G03*
X17439620Y-10828000I-20000J0D01*
G01*
X17509000Y-10508000D02*
G75*
G03*
X17509000Y-10508000I-20000J0D01*
G01*
X17553000Y-10833000D02*
G75*
G03*
X17553000Y-10833000I-20000J0D01*
G01*
X17674000Y-10895000D02*
G75*
G03*
X17674000Y-10895000I-20000J0D01*
G01*
X17680000Y-12165000D02*
G75*
G03*
X17680000Y-12165000I-20000J0D01*
G01*
X17690000Y-10134430D02*
G75*
G03*
X17690000Y-10134430I-20000J0D01*
G01*
X17690000Y-10300000D02*
G75*
G03*
X17690000Y-10300000I-20000J0D01*
G01*
X17690000Y-10410000D02*
G75*
G03*
X17690000Y-10410000I-20000J0D01*
G01*
X17742000Y-8707000D02*
G75*
G03*
X17742000Y-8707000I-20000J0D01*
G01*
X17781000Y-10897000D02*
G75*
G03*
X17781000Y-10897000I-20000J0D01*
G01*
X17795000Y-11968000D02*
G75*
G03*
X17795000Y-11968000I-20000J0D01*
G01*
X17810000Y-7429500D02*
G75*
G03*
X17810000Y-7429500I-20000J0D01*
G01*
X17815000Y-7317500D02*
G75*
G03*
X17815000Y-7317500I-20000J0D01*
G01*
X17838000Y-8197000D02*
G75*
G03*
X17838000Y-8197000I-20000J0D01*
G01*
X17890000Y-11100000D02*
G75*
G03*
X17890000Y-11100000I-20000J0D01*
G01*
X17930000Y-11750000D02*
G75*
G03*
X17930000Y-11750000I-20000J0D01*
G01*
X17930000Y-12035000D02*
G75*
G03*
X17930000Y-12035000I-20000J0D01*
G01*
X18081000Y-12244650D02*
G75*
G03*
X18081000Y-12244650I-20000J0D01*
G01*
X18101000Y-11674000D02*
G75*
G03*
X18101000Y-11674000I-20000J0D01*
G01*
X18150000Y-6590000D02*
G75*
G03*
X18150000Y-6590000I-20000J0D01*
G01*
X18185000Y-11962500D02*
G75*
G03*
X18185000Y-11962500I-20000J0D01*
G01*
X18190000Y-7914000D02*
G75*
G03*
X18190000Y-7914000I-20000J0D01*
G01*
X18292500Y-3627500D02*
G75*
G03*
X18292500Y-3627500I-20000J0D01*
G01*
X18297638Y-3532448D02*
G75*
G03*
X18297638Y-3532448I-20000J0D01*
G01*
X18300000Y-5062500D02*
G75*
G03*
X18300000Y-5062500I-20000J0D01*
G01*
X18355000Y-2635000D02*
G75*
G03*
X18355000Y-2635000I-20000J0D01*
G01*
X18379000Y-12351330D02*
G75*
G03*
X18379000Y-12351330I-20000J0D01*
G01*
X18385000Y-11582000D02*
G75*
G03*
X18385000Y-11582000I-20000J0D01*
G01*
X18450000Y-8785210D02*
G75*
G03*
X18450000Y-8785210I-20000J0D01*
G01*
X18460000Y-6710000D02*
G75*
G03*
X18460000Y-6710000I-20000J0D01*
G01*
X18620000Y-8500000D02*
G75*
G03*
X18620000Y-8500000I-20000J0D01*
G01*
X18622500Y-4767500D02*
G75*
G03*
X18622500Y-4767500I-20000J0D01*
G01*
X18625000Y-4290000D02*
G75*
G03*
X18625000Y-4290000I-20000J0D01*
G01*
X18626000Y-11872000D02*
G75*
G03*
X18626000Y-11872000I-20000J0D01*
G01*
X18631000Y-11569000D02*
G75*
G03*
X18631000Y-11569000I-20000J0D01*
G01*
X18676000Y-11223000D02*
G75*
G03*
X18676000Y-11223000I-20000J0D01*
G01*
X18770000Y-6485500D02*
G75*
G03*
X18770000Y-6485500I-20000J0D01*
G01*
X18780000Y-7430000D02*
G75*
G03*
X18780000Y-7430000I-20000J0D01*
G01*
X18785000Y-7322500D02*
G75*
G03*
X18785000Y-7322500I-20000J0D01*
G01*
X18840000Y-8610000D02*
G75*
G03*
X18840000Y-8610000I-20000J0D01*
G01*
X18850000Y-10295000D02*
G75*
G03*
X18850000Y-10295000I-20000J0D01*
G01*
X19110000Y-2785500D02*
G75*
G03*
X19110000Y-2785500I-20000J0D01*
G01*
X19110000Y-4700000D02*
G75*
G03*
X19110000Y-4700000I-20000J0D01*
G01*
X19120000Y-11615000D02*
G75*
G03*
X19120000Y-11615000I-20000J0D01*
G01*
X19134000Y-11849000D02*
G75*
G03*
X19134000Y-11849000I-20000J0D01*
G01*
X19230000Y-11620000D02*
G75*
G03*
X19230000Y-11620000I-20000J0D01*
G01*
X19272500Y-3644210D02*
G75*
G03*
X19272500Y-3644210I-20000J0D01*
G01*
X19275000Y-3532500D02*
G75*
G03*
X19275000Y-3532500I-20000J0D01*
G01*
X19280000Y-8390500D02*
G75*
G03*
X19280000Y-8390500I-20000J0D01*
G01*
X19290000Y-4810000D02*
G75*
G03*
X19290000Y-4810000I-20000J0D01*
G01*
X19310000Y-2900000D02*
G75*
G03*
X19310000Y-2900000I-20000J0D01*
G01*
X19344000Y-11322000D02*
G75*
G03*
X19344000Y-11322000I-20000J0D01*
G01*
X19590000Y-10405500D02*
G75*
G03*
X19590000Y-10405500I-20000J0D01*
G01*
X19660000Y-4580000D02*
G75*
G03*
X19660000Y-4580000I-20000J0D01*
G01*
X19695000Y-2685000D02*
G75*
G03*
X19695000Y-2685000I-20000J0D01*
G01*
X19780000Y-10510000D02*
G75*
G03*
X19780000Y-10510000I-20000J0D01*
G01*
X19845000Y-6476810D02*
G75*
G03*
X19845000Y-6476810I-20000J0D01*
G01*
X20055902Y-6485902D02*
G75*
G03*
X20055902Y-6485902I-20000J0D01*
G01*
X20060000Y-6600000D02*
G75*
G03*
X20060000Y-6600000I-20000J0D01*
G01*
X20170000Y-10300000D02*
G75*
G03*
X20170000Y-10300000I-20000J0D01*
G01*
X20310000Y-11785000D02*
G75*
G03*
X20310000Y-11785000I-20000J0D01*
G01*
X20312497Y-8374307D02*
G75*
G03*
X20312497Y-8374307I-20000J0D01*
G01*
X20528402Y-8388402D02*
G75*
G03*
X20528402Y-8388402I-20000J0D01*
G01*
X20550000Y-8500000D02*
G75*
G03*
X20550000Y-8500000I-20000J0D01*
G01*
X20812497Y-4564307D02*
G75*
G03*
X20812497Y-4564307I-20000J0D01*
G01*
X20829997Y-2656807D02*
G75*
G03*
X20829997Y-2656807I-20000J0D01*
G01*
X21010000Y-4580000D02*
G75*
G03*
X21010000Y-4580000I-20000J0D01*
G01*
X21010000Y-4690000D02*
G75*
G03*
X21010000Y-4690000I-20000J0D01*
G01*
X21020000Y-2680000D02*
G75*
G03*
X21020000Y-2680000I-20000J0D01*
G01*
X21020000Y-2790000D02*
G75*
G03*
X21020000Y-2790000I-20000J0D01*
G01*
X21030000Y-12207030D02*
G75*
G03*
X21030000Y-12207030I-20000J0D01*
G01*
X21105000Y-8800000D02*
G75*
G03*
X21105000Y-8800000I-20000J0D01*
G01*
X21210000Y-6430000D02*
G75*
G03*
X21210000Y-6430000I-20000J0D01*
G01*
X21250000Y-12320000D02*
G75*
G03*
X21250000Y-12320000I-20000J0D01*
G01*
X21259997Y-10286807D02*
G75*
G03*
X21259997Y-10286807I-20000J0D01*
G01*
X21260000Y-12200500D02*
G75*
G03*
X21260000Y-12200500I-20000J0D01*
G01*
X21480000Y-10420000D02*
G75*
G03*
X21480000Y-10420000I-20000J0D01*
G01*
X21490000Y-10295500D02*
G75*
G03*
X21490000Y-10295500I-20000J0D01*
G01*
X21695000Y-8310000D02*
G75*
G03*
X21695000Y-8310000I-20000J0D01*
G01*
X21780000Y-6476810D02*
G75*
G03*
X21780000Y-6476810I-20000J0D01*
G01*
X21970000Y-6600000D02*
G75*
G03*
X21970000Y-6600000I-20000J0D01*
G01*
X21973402Y-6493402D02*
G75*
G03*
X21973402Y-6493402I-20000J0D01*
G01*
X22165000Y-4520000D02*
G75*
G03*
X22165000Y-4520000I-20000J0D01*
G01*
X22165625Y-2610000D02*
G75*
G03*
X22165625Y-2610000I-20000J0D01*
G01*
X22244652Y-8381810D02*
G75*
G03*
X22244652Y-8381810I-20000J0D01*
G01*
X22450000Y-8390000D02*
G75*
G03*
X22450000Y-8390000I-20000J0D01*
G01*
X22450000Y-8500500D02*
G75*
G03*
X22450000Y-8500500I-20000J0D01*
G01*
X22640000Y-10190000D02*
G75*
G03*
X22640000Y-10190000I-20000J0D01*
G01*
X22645000Y-10745000D02*
G75*
G03*
X22645000Y-10745000I-20000J0D01*
G01*
X22645000Y-12115000D02*
G75*
G03*
X22645000Y-12115000I-20000J0D01*
G01*
X22720000Y-4560000D02*
G75*
G03*
X22720000Y-4560000I-20000J0D01*
G01*
X22733402Y-2663402D02*
G75*
G03*
X22733402Y-2663402I-20000J0D01*
G01*
X22910000Y-4589958D02*
G75*
G03*
X22910000Y-4589958I-20000J0D01*
G01*
X22920000Y-4690000D02*
G75*
G03*
X22920000Y-4690000I-20000J0D01*
G01*
X22930000Y-2680000D02*
G75*
G03*
X22930000Y-2680000I-20000J0D01*
G01*
X22930000Y-2790000D02*
G75*
G03*
X22930000Y-2790000I-20000J0D01*
G01*
X23050000Y-8840000D02*
G75*
G03*
X23050000Y-8840000I-20000J0D01*
G01*
X23202499Y-10274306D02*
G75*
G03*
X23202499Y-10274306I-20000J0D01*
G01*
X23400000Y-10410000D02*
G75*
G03*
X23400000Y-10410000I-20000J0D01*
G01*
X23410000Y-10290000D02*
G75*
G03*
X23410000Y-10290000I-20000J0D01*
G01*
X23410000Y-12191810D02*
G75*
G03*
X23410000Y-12191810I-20000J0D01*
G01*
X23435000Y-7725000D02*
G75*
G03*
X23435000Y-7725000I-20000J0D01*
G01*
X23620000Y-12200000D02*
G75*
G03*
X23620000Y-12200000I-20000J0D01*
G01*
X23620000Y-12310000D02*
G75*
G03*
X23620000Y-12310000I-20000J0D01*
G01*
X23669997Y-6476807D02*
G75*
G03*
X23669997Y-6476807I-20000J0D01*
G01*
X23870000Y-6490000D02*
G75*
G03*
X23870000Y-6490000I-20000J0D01*
G01*
X23875500Y-6595500D02*
G75*
G03*
X23875500Y-6595500I-20000J0D01*
G01*
X24173402Y-8373402D02*
G75*
G03*
X24173402Y-8373402I-20000J0D01*
G01*
X24360000Y-8500000D02*
G75*
G03*
X24360000Y-8500000I-20000J0D01*
G01*
X24363402Y-8393402D02*
G75*
G03*
X24363402Y-8393402I-20000J0D01*
G01*
X24545000Y-10787090D02*
G75*
G03*
X24545000Y-10787090I-20000J0D01*
G01*
X24550000Y-10900000D02*
G75*
G03*
X24550000Y-10900000I-20000J0D01*
G01*
X24621769Y-4571770D02*
G75*
G03*
X24621769Y-4571770I-20000J0D01*
G01*
X24636769Y-2666770D02*
G75*
G03*
X24636769Y-2666770I-20000J0D01*
G01*
X24820000Y-4580000D02*
G75*
G03*
X24820000Y-4580000I-20000J0D01*
G01*
X24830000Y-4700000D02*
G75*
G03*
X24830000Y-4700000I-20000J0D01*
G01*
X24834500Y-2675500D02*
G75*
G03*
X24834500Y-2675500I-20000J0D01*
G01*
X24840000Y-2785500D02*
G75*
G03*
X24840000Y-2785500I-20000J0D01*
G01*
X25025000Y-6420000D02*
G75*
G03*
X25025000Y-6420000I-20000J0D01*
G01*
X25035000Y-8870000D02*
G75*
G03*
X25035000Y-8870000I-20000J0D01*
G01*
X25055000Y-9640000D02*
G75*
G03*
X25055000Y-9640000I-20000J0D01*
G01*
X25499375Y-8330000D02*
G75*
G03*
X25499375Y-8330000I-20000J0D01*
G01*
X25578402Y-6476810D02*
G75*
G03*
X25578402Y-6476810I-20000J0D01*
G01*
X25590000Y-11300350D02*
G75*
G03*
X25590000Y-11300350I-20000J0D01*
G01*
X25778402Y-10286810D02*
G75*
G03*
X25778402Y-10286810I-20000J0D01*
G01*
X25790000Y-6490000D02*
G75*
G03*
X25790000Y-6490000I-20000J0D01*
G01*
X25790000Y-6600000D02*
G75*
G03*
X25790000Y-6600000I-20000J0D01*
G01*
X25975000Y-4510000D02*
G75*
G03*
X25975000Y-4510000I-20000J0D01*
G01*
X25975625Y-2620000D02*
G75*
G03*
X25975625Y-2620000I-20000J0D01*
G01*
X26020000Y-10290000D02*
G75*
G03*
X26020000Y-10290000I-20000J0D01*
G01*
X26020000Y-10400000D02*
G75*
G03*
X26020000Y-10400000I-20000J0D01*
G01*
X26063402Y-8373402D02*
G75*
G03*
X26063402Y-8373402I-20000J0D01*
G01*
X26258402Y-8388402D02*
G75*
G03*
X26258402Y-8388402I-20000J0D01*
G01*
X26260000Y-8500000D02*
G75*
G03*
X26260000Y-8500000I-20000J0D01*
G01*
X26260000Y-8927450D02*
G75*
G03*
X26260000Y-8927450I-20000J0D01*
G01*
X26492497Y-12184307D02*
G75*
G03*
X26492497Y-12184307I-20000J0D01*
G01*
X26526769Y-2666770D02*
G75*
G03*
X26526769Y-2666770I-20000J0D01*
G01*
X26720000Y-12200000D02*
G75*
G03*
X26720000Y-12200000I-20000J0D01*
G01*
X26730000Y-2670000D02*
G75*
G03*
X26730000Y-2670000I-20000J0D01*
G01*
X26730000Y-2785500D02*
G75*
G03*
X26730000Y-2785500I-20000J0D01*
G01*
X26730000Y-12310000D02*
G75*
G03*
X26730000Y-12310000I-20000J0D01*
G01*
X27460000Y-4571810D02*
G75*
G03*
X27460000Y-4571810I-20000J0D01*
G01*
X27660000Y-4590000D02*
G75*
G03*
X27660000Y-4590000I-20000J0D01*
G01*
X27670000Y-4700000D02*
G75*
G03*
X27670000Y-4700000I-20000J0D01*
G01*
X27875000Y-9404930D02*
G75*
G03*
X27875000Y-9404930I-20000J0D01*
G01*
X27875000Y-12100000D02*
G75*
G03*
X27875000Y-12100000I-20000J0D01*
G01*
X28171769Y-7451769D02*
G75*
G03*
X28171769Y-7451769I-20000J0D01*
G01*
X28390000Y-7440000D02*
G75*
G03*
X28390000Y-7440000I-20000J0D01*
G01*
X28400000Y-7550000D02*
G75*
G03*
X28400000Y-7550000I-20000J0D01*
G01*
X28411769Y-12191769D02*
G75*
G03*
X28411769Y-12191769I-20000J0D01*
G01*
X28429997Y-10286807D02*
G75*
G03*
X28429997Y-10286807I-20000J0D01*
G01*
X28440000Y-2666810D02*
G75*
G03*
X28440000Y-2666810I-20000J0D01*
G01*
X28610000Y-12200000D02*
G75*
G03*
X28610000Y-12200000I-20000J0D01*
G01*
X28610000Y-12310000D02*
G75*
G03*
X28610000Y-12310000I-20000J0D01*
G01*
X28630000Y-10300000D02*
G75*
G03*
X28630000Y-10300000I-20000J0D01*
G01*
X28640000Y-2680000D02*
G75*
G03*
X28640000Y-2680000I-20000J0D01*
G01*
X28640000Y-2790000D02*
G75*
G03*
X28640000Y-2790000I-20000J0D01*
G01*
X28640000Y-10410000D02*
G75*
G03*
X28640000Y-10410000I-20000J0D01*
G01*
X28895000Y-8963010D02*
G75*
G03*
X28895000Y-8963010I-20000J0D01*
G01*
X29630000Y-4430000D02*
G75*
G03*
X29630000Y-4430000I-20000J0D01*
G01*
X29680000Y-7610000D02*
G75*
G03*
X29680000Y-7610000I-20000J0D01*
G01*
X29785000Y-12090000D02*
G75*
G03*
X29785000Y-12090000I-20000J0D01*
G01*
X29785625Y-2610000D02*
G75*
G03*
X29785625Y-2610000I-20000J0D01*
G01*
X29785625Y-10220000D02*
G75*
G03*
X29785625Y-10220000I-20000J0D01*
G01*
X30010000Y-6435590D02*
G75*
G03*
X30010000Y-6435590I-20000J0D01*
G01*
X30260000Y-12191810D02*
G75*
G03*
X30260000Y-12191810I-20000J0D01*
G01*
X30290000Y-4571810D02*
G75*
G03*
X30290000Y-4571810I-20000J0D01*
G01*
X30299997Y-10286807D02*
G75*
G03*
X30299997Y-10286807I-20000J0D01*
G01*
X30313402Y-8387030D02*
G75*
G03*
X30313402Y-8387030I-20000J0D01*
G01*
X30338402Y-6481310D02*
G75*
G03*
X30338402Y-6481310I-20000J0D01*
G01*
X30339997Y-2656807D02*
G75*
G03*
X30339997Y-2656807I-20000J0D01*
G01*
X30520000Y-4580500D02*
G75*
G03*
X30520000Y-4580500I-20000J0D01*
G01*
X30530000Y-2790000D02*
G75*
G03*
X30530000Y-2790000I-20000J0D01*
G01*
X30530000Y-10300000D02*
G75*
G03*
X30530000Y-10300000I-20000J0D01*
G01*
X30530000Y-12200000D02*
G75*
G03*
X30530000Y-12200000I-20000J0D01*
G01*
X30530500Y-4690500D02*
G75*
G03*
X30530500Y-4690500I-20000J0D01*
G01*
X30531598Y-2671598D02*
G75*
G03*
X30531598Y-2671598I-20000J0D01*
G01*
X30537500Y-9027500D02*
G75*
G03*
X30537500Y-9027500I-20000J0D01*
G01*
X30540000Y-6600000D02*
G75*
G03*
X30540000Y-6600000I-20000J0D01*
G01*
X30540000Y-8390000D02*
G75*
G03*
X30540000Y-8390000I-20000J0D01*
G01*
X30540000Y-8500000D02*
G75*
G03*
X30540000Y-8500000I-20000J0D01*
G01*
X30540000Y-12310000D02*
G75*
G03*
X30540000Y-12310000I-20000J0D01*
G01*
X30548402Y-6488402D02*
G75*
G03*
X30548402Y-6488402I-20000J0D01*
G01*
X30550000Y-10410000D02*
G75*
G03*
X30550000Y-10410000I-20000J0D01*
G01*
D14*
X1841500Y-1818500D02*
X1841500Y-2118500D01*
X1691500Y-1968500D02*
X1991500Y-1968500D01*
X1841500Y-3723500D02*
X1841500Y-4023500D01*
X1691500Y-3873500D02*
X1991500Y-3873500D01*
X2079625Y-9438500D02*
X2079625Y-9738500D01*
X1929625Y-9588500D02*
X2229625Y-9588500D01*
X2079625Y-11343500D02*
X2079625Y-11643500D01*
X1929625Y-11493500D02*
X2229625Y-11493500D01*
X2317750Y-5628500D02*
X2317750Y-5928500D01*
X2167750Y-5778500D02*
X2467750Y-5778500D01*
X2476500Y-1564500D02*
X2476500Y-1864500D01*
X2326500Y-1714500D02*
X2626500Y-1714500D01*
X2476500Y-3469500D02*
X2476500Y-3769500D01*
X2326500Y-3619500D02*
X2626500Y-3619500D01*
X2555875Y-7533500D02*
X2555875Y-7833500D01*
X2405875Y-7683500D02*
X2705875Y-7683500D01*
X2714625Y-9184500D02*
X2714625Y-9484500D01*
X2564625Y-9334500D02*
X2864625Y-9334500D01*
X2714625Y-11089500D02*
X2714625Y-11389500D01*
X2564625Y-11239500D02*
X2864625Y-11239500D01*
X2952750Y-5374500D02*
X2952750Y-5674500D01*
X2802750Y-5524500D02*
X3102750Y-5524500D01*
X3190875Y-7279500D02*
X3190875Y-7579500D01*
X3040875Y-7429500D02*
X3340875Y-7429500D01*
X3746500Y-1818500D02*
X3746500Y-2118500D01*
X3596500Y-1968500D02*
X3896500Y-1968500D01*
X3746500Y-3723500D02*
X3746500Y-4023500D01*
X3596500Y-3873500D02*
X3896500Y-3873500D01*
X4222750Y-9438500D02*
X4222750Y-9738500D01*
X4072750Y-9588500D02*
X4372750Y-9588500D01*
X4381500Y-1564500D02*
X4381500Y-1864500D01*
X4231500Y-1714500D02*
X4531500Y-1714500D01*
X4381500Y-3469500D02*
X4381500Y-3769500D01*
X4231500Y-3619500D02*
X4531500Y-3619500D01*
X4460875Y-11343500D02*
X4460875Y-11643500D01*
X4310875Y-11493500D02*
X4610875Y-11493500D01*
X4699000Y-5628500D02*
X4699000Y-5928500D01*
X4549000Y-5778500D02*
X4849000Y-5778500D01*
X4857750Y-9184500D02*
X4857750Y-9484500D01*
X4707750Y-9334500D02*
X5007750Y-9334500D01*
X5095875Y-11089500D02*
X5095875Y-11389500D01*
X4945875Y-11239500D02*
X5245875Y-11239500D01*
X5175250Y-7533500D02*
X5175250Y-7833500D01*
X5025250Y-7683500D02*
X5325250Y-7683500D01*
X5334000Y-5374500D02*
X5334000Y-5674500D01*
X5184000Y-5524500D02*
X5484000Y-5524500D01*
X5651500Y-1818500D02*
X5651500Y-2118500D01*
X5501500Y-1968500D02*
X5801500Y-1968500D01*
X5651500Y-3723500D02*
X5651500Y-4023500D01*
X5501500Y-3873500D02*
X5801500Y-3873500D01*
X5810250Y-7279500D02*
X5810250Y-7579500D01*
X5660250Y-7429500D02*
X5960250Y-7429500D01*
X6127750Y-9438500D02*
X6127750Y-9738500D01*
X5977750Y-9588500D02*
X6277750Y-9588500D01*
X6286500Y-1564500D02*
X6286500Y-1864500D01*
X6136500Y-1714500D02*
X6436500Y-1714500D01*
X6286500Y-3469500D02*
X6286500Y-3769500D01*
X6136500Y-3619500D02*
X6436500Y-3619500D01*
X6604000Y-5628500D02*
X6604000Y-5928500D01*
X6454000Y-5778500D02*
X6754000Y-5778500D01*
X6762750Y-9184500D02*
X6762750Y-9484500D01*
X6612750Y-9334500D02*
X6912750Y-9334500D01*
X6842125Y-11343500D02*
X6842125Y-11643500D01*
X6692125Y-11493500D02*
X6992125Y-11493500D01*
X7080250Y-7533500D02*
X7080250Y-7833500D01*
X6930250Y-7683500D02*
X7230250Y-7683500D01*
X7239000Y-5374500D02*
X7239000Y-5674500D01*
X7089000Y-5524500D02*
X7389000Y-5524500D01*
X7477125Y-11089500D02*
X7477125Y-11389500D01*
X7327125Y-11239500D02*
X7627125Y-11239500D01*
X7556500Y-1818500D02*
X7556500Y-2118500D01*
X7406500Y-1968500D02*
X7706500Y-1968500D01*
X7556500Y-3723500D02*
X7556500Y-4023500D01*
X7406500Y-3873500D02*
X7706500Y-3873500D01*
X7715250Y-7279500D02*
X7715250Y-7579500D01*
X7565250Y-7429500D02*
X7865250Y-7429500D01*
X8032750Y-9438500D02*
X8032750Y-9738500D01*
X7882750Y-9588500D02*
X8182750Y-9588500D01*
X8191500Y-1564500D02*
X8191500Y-1864500D01*
X8041500Y-1714500D02*
X8341500Y-1714500D01*
X8191500Y-3469500D02*
X8191500Y-3769500D01*
X8041500Y-3619500D02*
X8341500Y-3619500D01*
X8509000Y-5628500D02*
X8509000Y-5928500D01*
X8359000Y-5778500D02*
X8659000Y-5778500D01*
X8667750Y-9184500D02*
X8667750Y-9484500D01*
X8517750Y-9334500D02*
X8817750Y-9334500D01*
X8985250Y-7533500D02*
X8985250Y-7833500D01*
X8835250Y-7683500D02*
X9135250Y-7683500D01*
X9144000Y-5374500D02*
X9144000Y-5674500D01*
X8994000Y-5524500D02*
X9294000Y-5524500D01*
X9461500Y-1818500D02*
X9461500Y-2118500D01*
X9311500Y-1968500D02*
X9611500Y-1968500D01*
X9461500Y-3723500D02*
X9461500Y-4023500D01*
X9311500Y-3873500D02*
X9611500Y-3873500D01*
X9620250Y-7279500D02*
X9620250Y-7579500D01*
X9470250Y-7429500D02*
X9770250Y-7429500D01*
X9937750Y-9438500D02*
X9937750Y-9738500D01*
X9787750Y-9588500D02*
X10087750Y-9588500D01*
X10096500Y-1564500D02*
X10096500Y-1864500D01*
X9946500Y-1714500D02*
X10246500Y-1714500D01*
X10096500Y-3469500D02*
X10096500Y-3769500D01*
X9946500Y-3619500D02*
X10246500Y-3619500D01*
X10414000Y-5628500D02*
X10414000Y-5928500D01*
X10264000Y-5778500D02*
X10564000Y-5778500D01*
X10572750Y-9184500D02*
X10572750Y-9484500D01*
X10422750Y-9334500D02*
X10722750Y-9334500D01*
X10890250Y-7533500D02*
X10890250Y-7833500D01*
X10740250Y-7683500D02*
X11040250Y-7683500D01*
X11049000Y-5374500D02*
X11049000Y-5674500D01*
X10899000Y-5524500D02*
X11199000Y-5524500D01*
X11366500Y-1818500D02*
X11366500Y-2118500D01*
X11216500Y-1968500D02*
X11516500Y-1968500D01*
X11366500Y-3723500D02*
X11366500Y-4023500D01*
X11216500Y-3873500D02*
X11516500Y-3873500D01*
X11525250Y-7279500D02*
X11525250Y-7579500D01*
X11375250Y-7429500D02*
X11675250Y-7429500D01*
X11842750Y-9438500D02*
X11842750Y-9738500D01*
X11692750Y-9588500D02*
X11992750Y-9588500D01*
X12001500Y-1564500D02*
X12001500Y-1864500D01*
X11851500Y-1714500D02*
X12151500Y-1714500D01*
X12001500Y-3469500D02*
X12001500Y-3769500D01*
X11851500Y-3619500D02*
X12151500Y-3619500D01*
X12319000Y-5628500D02*
X12319000Y-5928500D01*
X12169000Y-5778500D02*
X12469000Y-5778500D01*
X12477750Y-9184500D02*
X12477750Y-9484500D01*
X12327750Y-9334500D02*
X12627750Y-9334500D01*
X12795250Y-7533500D02*
X12795250Y-7833500D01*
X12645250Y-7683500D02*
X12945250Y-7683500D01*
X12954000Y-5374500D02*
X12954000Y-5674500D01*
X12804000Y-5524500D02*
X13104000Y-5524500D01*
X13271500Y-1818500D02*
X13271500Y-2118500D01*
X13121500Y-1968500D02*
X13421500Y-1968500D01*
X13271500Y-3723500D02*
X13271500Y-4023500D01*
X13121500Y-3873500D02*
X13421500Y-3873500D01*
X13430250Y-7279500D02*
X13430250Y-7579500D01*
X13280250Y-7429500D02*
X13580250Y-7429500D01*
X13747750Y-9438500D02*
X13747750Y-9738500D01*
X13597750Y-9588500D02*
X13897750Y-9588500D01*
X13906500Y-1564500D02*
X13906500Y-1864500D01*
X13756500Y-1714500D02*
X14056500Y-1714500D01*
X13906500Y-3469500D02*
X13906500Y-3769500D01*
X13756500Y-3619500D02*
X14056500Y-3619500D01*
X13985875Y-11343500D02*
X13985875Y-11643500D01*
X13835875Y-11493500D02*
X14135875Y-11493500D01*
X14224000Y-5628500D02*
X14224000Y-5928500D01*
X14074000Y-5778500D02*
X14374000Y-5778500D01*
X14382750Y-9184500D02*
X14382750Y-9484500D01*
X14232750Y-9334500D02*
X14532750Y-9334500D01*
X14620875Y-11089500D02*
X14620875Y-11389500D01*
X14470875Y-11239500D02*
X14770875Y-11239500D01*
X14700250Y-7533500D02*
X14700250Y-7833500D01*
X14550250Y-7683500D02*
X14850250Y-7683500D01*
X14859000Y-5374500D02*
X14859000Y-5674500D01*
X14709000Y-5524500D02*
X15009000Y-5524500D01*
X15176500Y-1818500D02*
X15176500Y-2118500D01*
X15026500Y-1968500D02*
X15326500Y-1968500D01*
X15176500Y-3723500D02*
X15176500Y-4023500D01*
X15026500Y-3873500D02*
X15326500Y-3873500D01*
X15335250Y-7279500D02*
X15335250Y-7579500D01*
X15185250Y-7429500D02*
X15485250Y-7429500D01*
X15652750Y-9438500D02*
X15652750Y-9738500D01*
X15502750Y-9588500D02*
X15802750Y-9588500D01*
X15811500Y-1564500D02*
X15811500Y-1864500D01*
X15661500Y-1714500D02*
X15961500Y-1714500D01*
X15811500Y-3469500D02*
X15811500Y-3769500D01*
X15661500Y-3619500D02*
X15961500Y-3619500D01*
X16129000Y-5628500D02*
X16129000Y-5928500D01*
X15979000Y-5778500D02*
X16279000Y-5778500D01*
X16287750Y-9184500D02*
X16287750Y-9484500D01*
X16137750Y-9334500D02*
X16437750Y-9334500D01*
X16605250Y-7533500D02*
X16605250Y-7833500D01*
X16455250Y-7683500D02*
X16755250Y-7683500D01*
X16764000Y-5374500D02*
X16764000Y-5674500D01*
X16614000Y-5524500D02*
X16914000Y-5524500D01*
X17081500Y-1818500D02*
X17081500Y-2118500D01*
X16931500Y-1968500D02*
X17231500Y-1968500D01*
X17081500Y-3723500D02*
X17081500Y-4023500D01*
X16931500Y-3873500D02*
X17231500Y-3873500D01*
X17240250Y-7279500D02*
X17240250Y-7579500D01*
X17090250Y-7429500D02*
X17390250Y-7429500D01*
X17557750Y-9438500D02*
X17557750Y-9738500D01*
X17407750Y-9588500D02*
X17707750Y-9588500D01*
X17716500Y-1564500D02*
X17716500Y-1864500D01*
X17566500Y-1714500D02*
X17866500Y-1714500D01*
X17716500Y-3469500D02*
X17716500Y-3769500D01*
X17566500Y-3619500D02*
X17866500Y-3619500D01*
X18034000Y-5628500D02*
X18034000Y-5928500D01*
X17884000Y-5778500D02*
X18184000Y-5778500D01*
X18192750Y-9184500D02*
X18192750Y-9484500D01*
X18042750Y-9334500D02*
X18342750Y-9334500D01*
X18510250Y-7533500D02*
X18510250Y-7833500D01*
X18360250Y-7683500D02*
X18660250Y-7683500D01*
X18669000Y-5374500D02*
X18669000Y-5674500D01*
X18519000Y-5524500D02*
X18819000Y-5524500D01*
X18986500Y-1818500D02*
X18986500Y-2118500D01*
X18836500Y-1968500D02*
X19136500Y-1968500D01*
X18986500Y-3723500D02*
X18986500Y-4023500D01*
X18836500Y-3873500D02*
X19136500Y-3873500D01*
X19145250Y-7279500D02*
X19145250Y-7579500D01*
X18995250Y-7429500D02*
X19295250Y-7429500D01*
X19462750Y-9438500D02*
X19462750Y-9738500D01*
X19312750Y-9588500D02*
X19612750Y-9588500D01*
X19621500Y-1564500D02*
X19621500Y-1864500D01*
X19471500Y-1714500D02*
X19771500Y-1714500D01*
X19621500Y-3469500D02*
X19621500Y-3769500D01*
X19471500Y-3619500D02*
X19771500Y-3619500D01*
X19939000Y-5628500D02*
X19939000Y-5928500D01*
X19789000Y-5778500D02*
X20089000Y-5778500D01*
X20097750Y-9184500D02*
X20097750Y-9484500D01*
X19947750Y-9334500D02*
X20247750Y-9334500D01*
X20415250Y-7533500D02*
X20415250Y-7833500D01*
X20265250Y-7683500D02*
X20565250Y-7683500D01*
X20574000Y-5374500D02*
X20574000Y-5674500D01*
X20424000Y-5524500D02*
X20724000Y-5524500D01*
X20891500Y-1818500D02*
X20891500Y-2118500D01*
X20741500Y-1968500D02*
X21041500Y-1968500D01*
X20891500Y-3723500D02*
X20891500Y-4023500D01*
X20741500Y-3873500D02*
X21041500Y-3873500D01*
X21050250Y-7279500D02*
X21050250Y-7579500D01*
X20900250Y-7429500D02*
X21200250Y-7429500D01*
X21129625Y-11343500D02*
X21129625Y-11643500D01*
X20979625Y-11493500D02*
X21279625Y-11493500D01*
X21367750Y-9438500D02*
X21367750Y-9738500D01*
X21217750Y-9588500D02*
X21517750Y-9588500D01*
X21526500Y-1564500D02*
X21526500Y-1864500D01*
X21376500Y-1714500D02*
X21676500Y-1714500D01*
X21526500Y-3469500D02*
X21526500Y-3769500D01*
X21376500Y-3619500D02*
X21676500Y-3619500D01*
X21764625Y-11089500D02*
X21764625Y-11389500D01*
X21614625Y-11239500D02*
X21914625Y-11239500D01*
X21844000Y-5628500D02*
X21844000Y-5928500D01*
X21694000Y-5778500D02*
X21994000Y-5778500D01*
X22002750Y-9184500D02*
X22002750Y-9484500D01*
X21852750Y-9334500D02*
X22152750Y-9334500D01*
X22320250Y-7533500D02*
X22320250Y-7833500D01*
X22170250Y-7683500D02*
X22470250Y-7683500D01*
X22479000Y-5374500D02*
X22479000Y-5674500D01*
X22329000Y-5524500D02*
X22629000Y-5524500D01*
X22796500Y-1818500D02*
X22796500Y-2118500D01*
X22646500Y-1968500D02*
X22946500Y-1968500D01*
X22796500Y-3723500D02*
X22796500Y-4023500D01*
X22646500Y-3873500D02*
X22946500Y-3873500D01*
X22955250Y-7279500D02*
X22955250Y-7579500D01*
X22805250Y-7429500D02*
X23105250Y-7429500D01*
X23272750Y-9438500D02*
X23272750Y-9738500D01*
X23122750Y-9588500D02*
X23422750Y-9588500D01*
X23431500Y-1564500D02*
X23431500Y-1864500D01*
X23281500Y-1714500D02*
X23581500Y-1714500D01*
X23431500Y-3469500D02*
X23431500Y-3769500D01*
X23281500Y-3619500D02*
X23581500Y-3619500D01*
X23510875Y-11343500D02*
X23510875Y-11643500D01*
X23360875Y-11493500D02*
X23660875Y-11493500D01*
X23749000Y-5628500D02*
X23749000Y-5928500D01*
X23599000Y-5778500D02*
X23899000Y-5778500D01*
X23907750Y-9184500D02*
X23907750Y-9484500D01*
X23757750Y-9334500D02*
X24057750Y-9334500D01*
X24145875Y-11089500D02*
X24145875Y-11389500D01*
X23995875Y-11239500D02*
X24295875Y-11239500D01*
X24225250Y-7533500D02*
X24225250Y-7833500D01*
X24075250Y-7683500D02*
X24375250Y-7683500D01*
X24384000Y-5374500D02*
X24384000Y-5674500D01*
X24234000Y-5524500D02*
X24534000Y-5524500D01*
X24701500Y-1818500D02*
X24701500Y-2118500D01*
X24551500Y-1968500D02*
X24851500Y-1968500D01*
X24701500Y-3723500D02*
X24701500Y-4023500D01*
X24551500Y-3873500D02*
X24851500Y-3873500D01*
X24860250Y-7279500D02*
X24860250Y-7579500D01*
X24710250Y-7429500D02*
X25010250Y-7429500D01*
X25336500Y-1564500D02*
X25336500Y-1864500D01*
X25186500Y-1714500D02*
X25486500Y-1714500D01*
X25336500Y-3469500D02*
X25336500Y-3769500D01*
X25186500Y-3619500D02*
X25486500Y-3619500D01*
X25654000Y-5628500D02*
X25654000Y-5928500D01*
X25504000Y-5778500D02*
X25804000Y-5778500D01*
X25892125Y-9438500D02*
X25892125Y-9738500D01*
X25742125Y-9588500D02*
X26042125Y-9588500D01*
X26130250Y-7533500D02*
X26130250Y-7833500D01*
X25980250Y-7683500D02*
X26280250Y-7683500D01*
X26289000Y-5374500D02*
X26289000Y-5674500D01*
X26139000Y-5524500D02*
X26439000Y-5524500D01*
X26527125Y-9184500D02*
X26527125Y-9484500D01*
X26377125Y-9334500D02*
X26677125Y-9334500D01*
X26606500Y-1818500D02*
X26606500Y-2118500D01*
X26456500Y-1968500D02*
X26756500Y-1968500D01*
X26606500Y-11343500D02*
X26606500Y-11643500D01*
X26456500Y-11493500D02*
X26756500Y-11493500D01*
X26765250Y-7279500D02*
X26765250Y-7579500D01*
X26615250Y-7429500D02*
X26915250Y-7429500D01*
X27241500Y-1564500D02*
X27241500Y-1864500D01*
X27091500Y-1714500D02*
X27391500Y-1714500D01*
X27241500Y-11089500D02*
X27241500Y-11389500D01*
X27091500Y-11239500D02*
X27391500Y-11239500D01*
X27559000Y-3723500D02*
X27559000Y-4023500D01*
X27409000Y-3873500D02*
X27709000Y-3873500D01*
X28194000Y-3469500D02*
X28194000Y-3769500D01*
X28044000Y-3619500D02*
X28344000Y-3619500D01*
X28273375Y-6581000D02*
X28273375Y-6881000D01*
X28123375Y-6731000D02*
X28423375Y-6731000D01*
X28511500Y-1818500D02*
X28511500Y-2118500D01*
X28361500Y-1968500D02*
X28661500Y-1968500D01*
X28511500Y-9438500D02*
X28511500Y-9738500D01*
X28361500Y-9588500D02*
X28661500Y-9588500D01*
X28511500Y-11343500D02*
X28511500Y-11643500D01*
X28361500Y-11493500D02*
X28661500Y-11493500D01*
X28908375Y-6327000D02*
X28908375Y-6627000D01*
X28758375Y-6477000D02*
X29058375Y-6477000D01*
X29146500Y-1564500D02*
X29146500Y-1864500D01*
X28996500Y-1714500D02*
X29296500Y-1714500D01*
X29146500Y-9184500D02*
X29146500Y-9484500D01*
X28996500Y-9334500D02*
X29296500Y-9334500D01*
X29146500Y-11089500D02*
X29146500Y-11389500D01*
X28996500Y-11239500D02*
X29296500Y-11239500D01*
X30416500Y-1818500D02*
X30416500Y-2118500D01*
X30266500Y-1968500D02*
X30566500Y-1968500D01*
X30416500Y-3723500D02*
X30416500Y-4023500D01*
X30266500Y-3873500D02*
X30566500Y-3873500D01*
X30416500Y-5628500D02*
X30416500Y-5928500D01*
X30266500Y-5778500D02*
X30566500Y-5778500D01*
X30416500Y-7533500D02*
X30416500Y-7833500D01*
X30266500Y-7683500D02*
X30566500Y-7683500D01*
X30416500Y-9438500D02*
X30416500Y-9738500D01*
X30266500Y-9588500D02*
X30566500Y-9588500D01*
X30416500Y-11343500D02*
X30416500Y-11643500D01*
X30266500Y-11493500D02*
X30566500Y-11493500D01*
X31051500Y-1564500D02*
X31051500Y-1864500D01*
X30901500Y-1714500D02*
X31201500Y-1714500D01*
X31051500Y-3469500D02*
X31051500Y-3769500D01*
X30901500Y-3619500D02*
X31201500Y-3619500D01*
X31051500Y-5374500D02*
X31051500Y-5674500D01*
X30901500Y-5524500D02*
X31201500Y-5524500D01*
X31051500Y-7279500D02*
X31051500Y-7579500D01*
X30901500Y-7429500D02*
X31201500Y-7429500D01*
X31051500Y-9184500D02*
X31051500Y-9484500D01*
X30901500Y-9334500D02*
X31201500Y-9334500D01*
X31051500Y-11089500D02*
X31051500Y-11389500D01*
X30901500Y-11239500D02*
X31201500Y-11239500D01*
D11*
X1512619Y-13017524D02*
X1512619Y-12817524D01*
X1512619Y-12817524D02*
X1560238Y-12817524D01*
X1560238Y-12817524D02*
X1588809Y-12827048D01*
X1588809Y-12827048D02*
X1607857Y-12846095D01*
X1607857Y-12846095D02*
X1617381Y-12865143D01*
X1617381Y-12865143D02*
X1626905Y-12903238D01*
X1626905Y-12903238D02*
X1626905Y-12931809D01*
X1626905Y-12931809D02*
X1617381Y-12969905D01*
X1617381Y-12969905D02*
X1607857Y-12988952D01*
X1607857Y-12988952D02*
X1588809Y-13008000D01*
X1588809Y-13008000D02*
X1560238Y-13017524D01*
X1560238Y-13017524D02*
X1512619Y-13017524D01*
X1712619Y-13017524D02*
X1712619Y-12884190D01*
X1712619Y-12922286D02*
X1722143Y-12903238D01*
X1722143Y-12903238D02*
X1731667Y-12893714D01*
X1731667Y-12893714D02*
X1750714Y-12884190D01*
X1750714Y-12884190D02*
X1769762Y-12884190D01*
X1836428Y-13017524D02*
X1836428Y-12884190D01*
X1836428Y-12817524D02*
X1826905Y-12827048D01*
X1826905Y-12827048D02*
X1836428Y-12836571D01*
X1836428Y-12836571D02*
X1845952Y-12827048D01*
X1845952Y-12827048D02*
X1836428Y-12817524D01*
X1836428Y-12817524D02*
X1836428Y-12836571D01*
X1960238Y-13017524D02*
X1941190Y-13008000D01*
X1941190Y-13008000D02*
X1931667Y-12988952D01*
X1931667Y-12988952D02*
X1931667Y-12817524D01*
X2065000Y-13017524D02*
X2045952Y-13008000D01*
X2045952Y-13008000D02*
X2036428Y-12988952D01*
X2036428Y-12988952D02*
X2036428Y-12817524D01*
X2293571Y-13017524D02*
X2293571Y-12817524D01*
X2293571Y-12817524D02*
X2360238Y-12960381D01*
X2360238Y-12960381D02*
X2426905Y-12817524D01*
X2426905Y-12817524D02*
X2426905Y-13017524D01*
X2607857Y-13017524D02*
X2607857Y-12912762D01*
X2607857Y-12912762D02*
X2598333Y-12893714D01*
X2598333Y-12893714D02*
X2579286Y-12884190D01*
X2579286Y-12884190D02*
X2541190Y-12884190D01*
X2541190Y-12884190D02*
X2522143Y-12893714D01*
X2607857Y-13008000D02*
X2588810Y-13017524D01*
X2588810Y-13017524D02*
X2541190Y-13017524D01*
X2541190Y-13017524D02*
X2522143Y-13008000D01*
X2522143Y-13008000D02*
X2512619Y-12988952D01*
X2512619Y-12988952D02*
X2512619Y-12969905D01*
X2512619Y-12969905D02*
X2522143Y-12950857D01*
X2522143Y-12950857D02*
X2541190Y-12941333D01*
X2541190Y-12941333D02*
X2588810Y-12941333D01*
X2588810Y-12941333D02*
X2607857Y-12931809D01*
X2703095Y-12884190D02*
X2703095Y-13084190D01*
X2703095Y-12893714D02*
X2722143Y-12884190D01*
X2722143Y-12884190D02*
X2760238Y-12884190D01*
X2760238Y-12884190D02*
X2779286Y-12893714D01*
X2779286Y-12893714D02*
X2788810Y-12903238D01*
X2788810Y-12903238D02*
X2798333Y-12922286D01*
X2798333Y-12922286D02*
X2798333Y-12979428D01*
X2798333Y-12979428D02*
X2788810Y-12998476D01*
X2788810Y-12998476D02*
X2779286Y-13008000D01*
X2779286Y-13008000D02*
X2760238Y-13017524D01*
X2760238Y-13017524D02*
X2722143Y-13017524D01*
X2722143Y-13017524D02*
X2703095Y-13008000D01*
X2884048Y-12998476D02*
X2893571Y-13008000D01*
X2893571Y-13008000D02*
X2884048Y-13017524D01*
X2884048Y-13017524D02*
X2874524Y-13008000D01*
X2874524Y-13008000D02*
X2884048Y-12998476D01*
X2884048Y-12998476D02*
X2884048Y-13017524D01*
X2884048Y-12893714D02*
X2893571Y-12903238D01*
X2893571Y-12903238D02*
X2884048Y-12912762D01*
X2884048Y-12912762D02*
X2874524Y-12903238D01*
X2874524Y-12903238D02*
X2884048Y-12893714D01*
X2884048Y-12893714D02*
X2884048Y-12912762D01*
D12*
X1235000Y-13330000D02*
X1265000Y-13360000D01*
X1265000Y-13330000D02*
X1235000Y-13360000D01*
D11*
X1550714Y-13237524D02*
X1569762Y-13237524D01*
X1569762Y-13237524D02*
X1588809Y-13247048D01*
X1588809Y-13247048D02*
X1598333Y-13256571D01*
X1598333Y-13256571D02*
X1607857Y-13275619D01*
X1607857Y-13275619D02*
X1617381Y-13313714D01*
X1617381Y-13313714D02*
X1617381Y-13361333D01*
X1617381Y-13361333D02*
X1607857Y-13399428D01*
X1607857Y-13399428D02*
X1598333Y-13418476D01*
X1598333Y-13418476D02*
X1588809Y-13428000D01*
X1588809Y-13428000D02*
X1569762Y-13437524D01*
X1569762Y-13437524D02*
X1550714Y-13437524D01*
X1550714Y-13437524D02*
X1531667Y-13428000D01*
X1531667Y-13428000D02*
X1522143Y-13418476D01*
X1522143Y-13418476D02*
X1512619Y-13399428D01*
X1512619Y-13399428D02*
X1503095Y-13361333D01*
X1503095Y-13361333D02*
X1503095Y-13313714D01*
X1503095Y-13313714D02*
X1512619Y-13275619D01*
X1512619Y-13275619D02*
X1522143Y-13256571D01*
X1522143Y-13256571D02*
X1531667Y-13247048D01*
X1531667Y-13247048D02*
X1550714Y-13237524D01*
X1703095Y-13418476D02*
X1712619Y-13428000D01*
X1712619Y-13428000D02*
X1703095Y-13437524D01*
X1703095Y-13437524D02*
X1693571Y-13428000D01*
X1693571Y-13428000D02*
X1703095Y-13418476D01*
X1703095Y-13418476D02*
X1703095Y-13437524D01*
X1779286Y-13237524D02*
X1903095Y-13237524D01*
X1903095Y-13237524D02*
X1836428Y-13313714D01*
X1836428Y-13313714D02*
X1865000Y-13313714D01*
X1865000Y-13313714D02*
X1884048Y-13323238D01*
X1884048Y-13323238D02*
X1893571Y-13332762D01*
X1893571Y-13332762D02*
X1903095Y-13351809D01*
X1903095Y-13351809D02*
X1903095Y-13399428D01*
X1903095Y-13399428D02*
X1893571Y-13418476D01*
X1893571Y-13418476D02*
X1884048Y-13428000D01*
X1884048Y-13428000D02*
X1865000Y-13437524D01*
X1865000Y-13437524D02*
X1807857Y-13437524D01*
X1807857Y-13437524D02*
X1788809Y-13428000D01*
X1788809Y-13428000D02*
X1779286Y-13418476D01*
X2026905Y-13237524D02*
X2045952Y-13237524D01*
X2045952Y-13237524D02*
X2065000Y-13247048D01*
X2065000Y-13247048D02*
X2074524Y-13256571D01*
X2074524Y-13256571D02*
X2084048Y-13275619D01*
X2084048Y-13275619D02*
X2093571Y-13313714D01*
X2093571Y-13313714D02*
X2093571Y-13361333D01*
X2093571Y-13361333D02*
X2084048Y-13399428D01*
X2084048Y-13399428D02*
X2074524Y-13418476D01*
X2074524Y-13418476D02*
X2065000Y-13428000D01*
X2065000Y-13428000D02*
X2045952Y-13437524D01*
X2045952Y-13437524D02*
X2026905Y-13437524D01*
X2026905Y-13437524D02*
X2007857Y-13428000D01*
X2007857Y-13428000D02*
X1998333Y-13418476D01*
X1998333Y-13418476D02*
X1988809Y-13399428D01*
X1988809Y-13399428D02*
X1979286Y-13361333D01*
X1979286Y-13361333D02*
X1979286Y-13313714D01*
X1979286Y-13313714D02*
X1988809Y-13275619D01*
X1988809Y-13275619D02*
X1998333Y-13256571D01*
X1998333Y-13256571D02*
X2007857Y-13247048D01*
X2007857Y-13247048D02*
X2026905Y-13237524D01*
X2217381Y-13237524D02*
X2236429Y-13237524D01*
X2236429Y-13237524D02*
X2255476Y-13247048D01*
X2255476Y-13247048D02*
X2265000Y-13256571D01*
X2265000Y-13256571D02*
X2274524Y-13275619D01*
X2274524Y-13275619D02*
X2284048Y-13313714D01*
X2284048Y-13313714D02*
X2284048Y-13361333D01*
X2284048Y-13361333D02*
X2274524Y-13399428D01*
X2274524Y-13399428D02*
X2265000Y-13418476D01*
X2265000Y-13418476D02*
X2255476Y-13428000D01*
X2255476Y-13428000D02*
X2236429Y-13437524D01*
X2236429Y-13437524D02*
X2217381Y-13437524D01*
X2217381Y-13437524D02*
X2198333Y-13428000D01*
X2198333Y-13428000D02*
X2188810Y-13418476D01*
X2188810Y-13418476D02*
X2179286Y-13399428D01*
X2179286Y-13399428D02*
X2169762Y-13361333D01*
X2169762Y-13361333D02*
X2169762Y-13313714D01*
X2169762Y-13313714D02*
X2179286Y-13275619D01*
X2179286Y-13275619D02*
X2188810Y-13256571D01*
X2188810Y-13256571D02*
X2198333Y-13247048D01*
X2198333Y-13247048D02*
X2217381Y-13237524D01*
X2369762Y-13437524D02*
X2369762Y-13304190D01*
X2369762Y-13323238D02*
X2379286Y-13313714D01*
X2379286Y-13313714D02*
X2398333Y-13304190D01*
X2398333Y-13304190D02*
X2426905Y-13304190D01*
X2426905Y-13304190D02*
X2445952Y-13313714D01*
X2445952Y-13313714D02*
X2455476Y-13332762D01*
X2455476Y-13332762D02*
X2455476Y-13437524D01*
X2455476Y-13332762D02*
X2465000Y-13313714D01*
X2465000Y-13313714D02*
X2484048Y-13304190D01*
X2484048Y-13304190D02*
X2512619Y-13304190D01*
X2512619Y-13304190D02*
X2531667Y-13313714D01*
X2531667Y-13313714D02*
X2541191Y-13332762D01*
X2541191Y-13332762D02*
X2541191Y-13437524D01*
X2636429Y-13437524D02*
X2636429Y-13304190D01*
X2636429Y-13323238D02*
X2645952Y-13313714D01*
X2645952Y-13313714D02*
X2665000Y-13304190D01*
X2665000Y-13304190D02*
X2693572Y-13304190D01*
X2693572Y-13304190D02*
X2712619Y-13313714D01*
X2712619Y-13313714D02*
X2722143Y-13332762D01*
X2722143Y-13332762D02*
X2722143Y-13437524D01*
X2722143Y-13332762D02*
X2731667Y-13313714D01*
X2731667Y-13313714D02*
X2750714Y-13304190D01*
X2750714Y-13304190D02*
X2779286Y-13304190D01*
X2779286Y-13304190D02*
X2798333Y-13313714D01*
X2798333Y-13313714D02*
X2807857Y-13332762D01*
X2807857Y-13332762D02*
X2807857Y-13437524D01*
X3198333Y-13228000D02*
X3026905Y-13485143D01*
X3455476Y-13237524D02*
X3474524Y-13237524D01*
X3474524Y-13237524D02*
X3493572Y-13247048D01*
X3493572Y-13247048D02*
X3503095Y-13256571D01*
X3503095Y-13256571D02*
X3512619Y-13275619D01*
X3512619Y-13275619D02*
X3522143Y-13313714D01*
X3522143Y-13313714D02*
X3522143Y-13361333D01*
X3522143Y-13361333D02*
X3512619Y-13399428D01*
X3512619Y-13399428D02*
X3503095Y-13418476D01*
X3503095Y-13418476D02*
X3493572Y-13428000D01*
X3493572Y-13428000D02*
X3474524Y-13437524D01*
X3474524Y-13437524D02*
X3455476Y-13437524D01*
X3455476Y-13437524D02*
X3436429Y-13428000D01*
X3436429Y-13428000D02*
X3426905Y-13418476D01*
X3426905Y-13418476D02*
X3417381Y-13399428D01*
X3417381Y-13399428D02*
X3407857Y-13361333D01*
X3407857Y-13361333D02*
X3407857Y-13313714D01*
X3407857Y-13313714D02*
X3417381Y-13275619D01*
X3417381Y-13275619D02*
X3426905Y-13256571D01*
X3426905Y-13256571D02*
X3436429Y-13247048D01*
X3436429Y-13247048D02*
X3455476Y-13237524D01*
X3607857Y-13418476D02*
X3617381Y-13428000D01*
X3617381Y-13428000D02*
X3607857Y-13437524D01*
X3607857Y-13437524D02*
X3598333Y-13428000D01*
X3598333Y-13428000D02*
X3607857Y-13418476D01*
X3607857Y-13418476D02*
X3607857Y-13437524D01*
X3741191Y-13237524D02*
X3760238Y-13237524D01*
X3760238Y-13237524D02*
X3779286Y-13247048D01*
X3779286Y-13247048D02*
X3788810Y-13256571D01*
X3788810Y-13256571D02*
X3798333Y-13275619D01*
X3798333Y-13275619D02*
X3807857Y-13313714D01*
X3807857Y-13313714D02*
X3807857Y-13361333D01*
X3807857Y-13361333D02*
X3798333Y-13399428D01*
X3798333Y-13399428D02*
X3788810Y-13418476D01*
X3788810Y-13418476D02*
X3779286Y-13428000D01*
X3779286Y-13428000D02*
X3760238Y-13437524D01*
X3760238Y-13437524D02*
X3741191Y-13437524D01*
X3741191Y-13437524D02*
X3722143Y-13428000D01*
X3722143Y-13428000D02*
X3712619Y-13418476D01*
X3712619Y-13418476D02*
X3703095Y-13399428D01*
X3703095Y-13399428D02*
X3693572Y-13361333D01*
X3693572Y-13361333D02*
X3693572Y-13313714D01*
X3693572Y-13313714D02*
X3703095Y-13275619D01*
X3703095Y-13275619D02*
X3712619Y-13256571D01*
X3712619Y-13256571D02*
X3722143Y-13247048D01*
X3722143Y-13247048D02*
X3741191Y-13237524D01*
X3998333Y-13437524D02*
X3884048Y-13437524D01*
X3941191Y-13437524D02*
X3941191Y-13237524D01*
X3941191Y-13237524D02*
X3922143Y-13266095D01*
X3922143Y-13266095D02*
X3903095Y-13285143D01*
X3903095Y-13285143D02*
X3884048Y-13294667D01*
X4188810Y-13437524D02*
X4074524Y-13437524D01*
X4131667Y-13437524D02*
X4131667Y-13237524D01*
X4131667Y-13237524D02*
X4112619Y-13266095D01*
X4112619Y-13266095D02*
X4093572Y-13285143D01*
X4093572Y-13285143D02*
X4074524Y-13294667D01*
X4303095Y-13323238D02*
X4284048Y-13313714D01*
X4284048Y-13313714D02*
X4274524Y-13304190D01*
X4274524Y-13304190D02*
X4265000Y-13285143D01*
X4265000Y-13285143D02*
X4265000Y-13275619D01*
X4265000Y-13275619D02*
X4274524Y-13256571D01*
X4274524Y-13256571D02*
X4284048Y-13247048D01*
X4284048Y-13247048D02*
X4303095Y-13237524D01*
X4303095Y-13237524D02*
X4341191Y-13237524D01*
X4341191Y-13237524D02*
X4360238Y-13247048D01*
X4360238Y-13247048D02*
X4369762Y-13256571D01*
X4369762Y-13256571D02*
X4379286Y-13275619D01*
X4379286Y-13275619D02*
X4379286Y-13285143D01*
X4379286Y-13285143D02*
X4369762Y-13304190D01*
X4369762Y-13304190D02*
X4360238Y-13313714D01*
X4360238Y-13313714D02*
X4341191Y-13323238D01*
X4341191Y-13323238D02*
X4303095Y-13323238D01*
X4303095Y-13323238D02*
X4284048Y-13332762D01*
X4284048Y-13332762D02*
X4274524Y-13342286D01*
X4274524Y-13342286D02*
X4265000Y-13361333D01*
X4265000Y-13361333D02*
X4265000Y-13399428D01*
X4265000Y-13399428D02*
X4274524Y-13418476D01*
X4274524Y-13418476D02*
X4284048Y-13428000D01*
X4284048Y-13428000D02*
X4303095Y-13437524D01*
X4303095Y-13437524D02*
X4341191Y-13437524D01*
X4341191Y-13437524D02*
X4360238Y-13428000D01*
X4360238Y-13428000D02*
X4369762Y-13418476D01*
X4369762Y-13418476D02*
X4379286Y-13399428D01*
X4379286Y-13399428D02*
X4379286Y-13361333D01*
X4379286Y-13361333D02*
X4369762Y-13342286D01*
X4369762Y-13342286D02*
X4360238Y-13332762D01*
X4360238Y-13332762D02*
X4341191Y-13323238D01*
X4455476Y-13237524D02*
X4455476Y-13275619D01*
X4531667Y-13237524D02*
X4531667Y-13275619D01*
X4826905Y-13513714D02*
X4817381Y-13504190D01*
X4817381Y-13504190D02*
X4798334Y-13475619D01*
X4798334Y-13475619D02*
X4788810Y-13456571D01*
X4788810Y-13456571D02*
X4779286Y-13428000D01*
X4779286Y-13428000D02*
X4769762Y-13380381D01*
X4769762Y-13380381D02*
X4769762Y-13342286D01*
X4769762Y-13342286D02*
X4779286Y-13294667D01*
X4779286Y-13294667D02*
X4788810Y-13266095D01*
X4788810Y-13266095D02*
X4798334Y-13247048D01*
X4798334Y-13247048D02*
X4817381Y-13218476D01*
X4817381Y-13218476D02*
X4826905Y-13208952D01*
X4988810Y-13304190D02*
X4988810Y-13437524D01*
X4941191Y-13228000D02*
X4893572Y-13370857D01*
X4893572Y-13370857D02*
X5017381Y-13370857D01*
X5103096Y-13437524D02*
X5141191Y-13437524D01*
X5141191Y-13437524D02*
X5160238Y-13428000D01*
X5160238Y-13428000D02*
X5169762Y-13418476D01*
X5169762Y-13418476D02*
X5188810Y-13389905D01*
X5188810Y-13389905D02*
X5198334Y-13351809D01*
X5198334Y-13351809D02*
X5198334Y-13275619D01*
X5198334Y-13275619D02*
X5188810Y-13256571D01*
X5188810Y-13256571D02*
X5179286Y-13247048D01*
X5179286Y-13247048D02*
X5160238Y-13237524D01*
X5160238Y-13237524D02*
X5122143Y-13237524D01*
X5122143Y-13237524D02*
X5103096Y-13247048D01*
X5103096Y-13247048D02*
X5093572Y-13256571D01*
X5093572Y-13256571D02*
X5084048Y-13275619D01*
X5084048Y-13275619D02*
X5084048Y-13323238D01*
X5084048Y-13323238D02*
X5093572Y-13342286D01*
X5093572Y-13342286D02*
X5103096Y-13351809D01*
X5103096Y-13351809D02*
X5122143Y-13361333D01*
X5122143Y-13361333D02*
X5160238Y-13361333D01*
X5160238Y-13361333D02*
X5179286Y-13351809D01*
X5179286Y-13351809D02*
X5188810Y-13342286D01*
X5188810Y-13342286D02*
X5198334Y-13323238D01*
X5436429Y-13437524D02*
X5436429Y-13237524D01*
X5522143Y-13437524D02*
X5522143Y-13332762D01*
X5522143Y-13332762D02*
X5512619Y-13313714D01*
X5512619Y-13313714D02*
X5493572Y-13304190D01*
X5493572Y-13304190D02*
X5465000Y-13304190D01*
X5465000Y-13304190D02*
X5445953Y-13313714D01*
X5445953Y-13313714D02*
X5436429Y-13323238D01*
X5645953Y-13437524D02*
X5626905Y-13428000D01*
X5626905Y-13428000D02*
X5617381Y-13418476D01*
X5617381Y-13418476D02*
X5607857Y-13399428D01*
X5607857Y-13399428D02*
X5607857Y-13342286D01*
X5607857Y-13342286D02*
X5617381Y-13323238D01*
X5617381Y-13323238D02*
X5626905Y-13313714D01*
X5626905Y-13313714D02*
X5645953Y-13304190D01*
X5645953Y-13304190D02*
X5674524Y-13304190D01*
X5674524Y-13304190D02*
X5693572Y-13313714D01*
X5693572Y-13313714D02*
X5703096Y-13323238D01*
X5703096Y-13323238D02*
X5712619Y-13342286D01*
X5712619Y-13342286D02*
X5712619Y-13399428D01*
X5712619Y-13399428D02*
X5703096Y-13418476D01*
X5703096Y-13418476D02*
X5693572Y-13428000D01*
X5693572Y-13428000D02*
X5674524Y-13437524D01*
X5674524Y-13437524D02*
X5645953Y-13437524D01*
X5826905Y-13437524D02*
X5807857Y-13428000D01*
X5807857Y-13428000D02*
X5798334Y-13408952D01*
X5798334Y-13408952D02*
X5798334Y-13237524D01*
X5979286Y-13428000D02*
X5960238Y-13437524D01*
X5960238Y-13437524D02*
X5922143Y-13437524D01*
X5922143Y-13437524D02*
X5903096Y-13428000D01*
X5903096Y-13428000D02*
X5893572Y-13408952D01*
X5893572Y-13408952D02*
X5893572Y-13332762D01*
X5893572Y-13332762D02*
X5903096Y-13313714D01*
X5903096Y-13313714D02*
X5922143Y-13304190D01*
X5922143Y-13304190D02*
X5960238Y-13304190D01*
X5960238Y-13304190D02*
X5979286Y-13313714D01*
X5979286Y-13313714D02*
X5988810Y-13332762D01*
X5988810Y-13332762D02*
X5988810Y-13351809D01*
X5988810Y-13351809D02*
X5893572Y-13370857D01*
X6065000Y-13428000D02*
X6084048Y-13437524D01*
X6084048Y-13437524D02*
X6122143Y-13437524D01*
X6122143Y-13437524D02*
X6141191Y-13428000D01*
X6141191Y-13428000D02*
X6150715Y-13408952D01*
X6150715Y-13408952D02*
X6150715Y-13399428D01*
X6150715Y-13399428D02*
X6141191Y-13380381D01*
X6141191Y-13380381D02*
X6122143Y-13370857D01*
X6122143Y-13370857D02*
X6093572Y-13370857D01*
X6093572Y-13370857D02*
X6074524Y-13361333D01*
X6074524Y-13361333D02*
X6065000Y-13342286D01*
X6065000Y-13342286D02*
X6065000Y-13332762D01*
X6065000Y-13332762D02*
X6074524Y-13313714D01*
X6074524Y-13313714D02*
X6093572Y-13304190D01*
X6093572Y-13304190D02*
X6122143Y-13304190D01*
X6122143Y-13304190D02*
X6141191Y-13313714D01*
X6217381Y-13513714D02*
X6226905Y-13504190D01*
X6226905Y-13504190D02*
X6245953Y-13475619D01*
X6245953Y-13475619D02*
X6255477Y-13456571D01*
X6255477Y-13456571D02*
X6265000Y-13428000D01*
X6265000Y-13428000D02*
X6274524Y-13380381D01*
X6274524Y-13380381D02*
X6274524Y-13342286D01*
X6274524Y-13342286D02*
X6265000Y-13294667D01*
X6265000Y-13294667D02*
X6255477Y-13266095D01*
X6255477Y-13266095D02*
X6245953Y-13247048D01*
X6245953Y-13247048D02*
X6226905Y-13218476D01*
X6226905Y-13218476D02*
X6217381Y-13208952D01*
D13*
X1265000Y-13609000D02*
G75*
G03*
X1265000Y-13609000I-20000J0D01*
G01*
D11*
X1550714Y-13501524D02*
X1569762Y-13501524D01*
X1569762Y-13501524D02*
X1588809Y-13511048D01*
X1588809Y-13511048D02*
X1598333Y-13520571D01*
X1598333Y-13520571D02*
X1607857Y-13539619D01*
X1607857Y-13539619D02*
X1617381Y-13577714D01*
X1617381Y-13577714D02*
X1617381Y-13625333D01*
X1617381Y-13625333D02*
X1607857Y-13663428D01*
X1607857Y-13663428D02*
X1598333Y-13682476D01*
X1598333Y-13682476D02*
X1588809Y-13692000D01*
X1588809Y-13692000D02*
X1569762Y-13701524D01*
X1569762Y-13701524D02*
X1550714Y-13701524D01*
X1550714Y-13701524D02*
X1531667Y-13692000D01*
X1531667Y-13692000D02*
X1522143Y-13682476D01*
X1522143Y-13682476D02*
X1512619Y-13663428D01*
X1512619Y-13663428D02*
X1503095Y-13625333D01*
X1503095Y-13625333D02*
X1503095Y-13577714D01*
X1503095Y-13577714D02*
X1512619Y-13539619D01*
X1512619Y-13539619D02*
X1522143Y-13520571D01*
X1522143Y-13520571D02*
X1531667Y-13511048D01*
X1531667Y-13511048D02*
X1550714Y-13501524D01*
X1703095Y-13682476D02*
X1712619Y-13692000D01*
X1712619Y-13692000D02*
X1703095Y-13701524D01*
X1703095Y-13701524D02*
X1693571Y-13692000D01*
X1693571Y-13692000D02*
X1703095Y-13682476D01*
X1703095Y-13682476D02*
X1703095Y-13701524D01*
X1884048Y-13568190D02*
X1884048Y-13701524D01*
X1836428Y-13492000D02*
X1788809Y-13634857D01*
X1788809Y-13634857D02*
X1912619Y-13634857D01*
X2026905Y-13501524D02*
X2045952Y-13501524D01*
X2045952Y-13501524D02*
X2065000Y-13511048D01*
X2065000Y-13511048D02*
X2074524Y-13520571D01*
X2074524Y-13520571D02*
X2084048Y-13539619D01*
X2084048Y-13539619D02*
X2093571Y-13577714D01*
X2093571Y-13577714D02*
X2093571Y-13625333D01*
X2093571Y-13625333D02*
X2084048Y-13663428D01*
X2084048Y-13663428D02*
X2074524Y-13682476D01*
X2074524Y-13682476D02*
X2065000Y-13692000D01*
X2065000Y-13692000D02*
X2045952Y-13701524D01*
X2045952Y-13701524D02*
X2026905Y-13701524D01*
X2026905Y-13701524D02*
X2007857Y-13692000D01*
X2007857Y-13692000D02*
X1998333Y-13682476D01*
X1998333Y-13682476D02*
X1988809Y-13663428D01*
X1988809Y-13663428D02*
X1979286Y-13625333D01*
X1979286Y-13625333D02*
X1979286Y-13577714D01*
X1979286Y-13577714D02*
X1988809Y-13539619D01*
X1988809Y-13539619D02*
X1998333Y-13520571D01*
X1998333Y-13520571D02*
X2007857Y-13511048D01*
X2007857Y-13511048D02*
X2026905Y-13501524D01*
X2217381Y-13501524D02*
X2236429Y-13501524D01*
X2236429Y-13501524D02*
X2255476Y-13511048D01*
X2255476Y-13511048D02*
X2265000Y-13520571D01*
X2265000Y-13520571D02*
X2274524Y-13539619D01*
X2274524Y-13539619D02*
X2284048Y-13577714D01*
X2284048Y-13577714D02*
X2284048Y-13625333D01*
X2284048Y-13625333D02*
X2274524Y-13663428D01*
X2274524Y-13663428D02*
X2265000Y-13682476D01*
X2265000Y-13682476D02*
X2255476Y-13692000D01*
X2255476Y-13692000D02*
X2236429Y-13701524D01*
X2236429Y-13701524D02*
X2217381Y-13701524D01*
X2217381Y-13701524D02*
X2198333Y-13692000D01*
X2198333Y-13692000D02*
X2188810Y-13682476D01*
X2188810Y-13682476D02*
X2179286Y-13663428D01*
X2179286Y-13663428D02*
X2169762Y-13625333D01*
X2169762Y-13625333D02*
X2169762Y-13577714D01*
X2169762Y-13577714D02*
X2179286Y-13539619D01*
X2179286Y-13539619D02*
X2188810Y-13520571D01*
X2188810Y-13520571D02*
X2198333Y-13511048D01*
X2198333Y-13511048D02*
X2217381Y-13501524D01*
X2369762Y-13701524D02*
X2369762Y-13568190D01*
X2369762Y-13587238D02*
X2379286Y-13577714D01*
X2379286Y-13577714D02*
X2398333Y-13568190D01*
X2398333Y-13568190D02*
X2426905Y-13568190D01*
X2426905Y-13568190D02*
X2445952Y-13577714D01*
X2445952Y-13577714D02*
X2455476Y-13596762D01*
X2455476Y-13596762D02*
X2455476Y-13701524D01*
X2455476Y-13596762D02*
X2465000Y-13577714D01*
X2465000Y-13577714D02*
X2484048Y-13568190D01*
X2484048Y-13568190D02*
X2512619Y-13568190D01*
X2512619Y-13568190D02*
X2531667Y-13577714D01*
X2531667Y-13577714D02*
X2541191Y-13596762D01*
X2541191Y-13596762D02*
X2541191Y-13701524D01*
X2636429Y-13701524D02*
X2636429Y-13568190D01*
X2636429Y-13587238D02*
X2645952Y-13577714D01*
X2645952Y-13577714D02*
X2665000Y-13568190D01*
X2665000Y-13568190D02*
X2693572Y-13568190D01*
X2693572Y-13568190D02*
X2712619Y-13577714D01*
X2712619Y-13577714D02*
X2722143Y-13596762D01*
X2722143Y-13596762D02*
X2722143Y-13701524D01*
X2722143Y-13596762D02*
X2731667Y-13577714D01*
X2731667Y-13577714D02*
X2750714Y-13568190D01*
X2750714Y-13568190D02*
X2779286Y-13568190D01*
X2779286Y-13568190D02*
X2798333Y-13577714D01*
X2798333Y-13577714D02*
X2807857Y-13596762D01*
X2807857Y-13596762D02*
X2807857Y-13701524D01*
X3198333Y-13492000D02*
X3026905Y-13749143D01*
X3455476Y-13501524D02*
X3474524Y-13501524D01*
X3474524Y-13501524D02*
X3493572Y-13511048D01*
X3493572Y-13511048D02*
X3503095Y-13520571D01*
X3503095Y-13520571D02*
X3512619Y-13539619D01*
X3512619Y-13539619D02*
X3522143Y-13577714D01*
X3522143Y-13577714D02*
X3522143Y-13625333D01*
X3522143Y-13625333D02*
X3512619Y-13663428D01*
X3512619Y-13663428D02*
X3503095Y-13682476D01*
X3503095Y-13682476D02*
X3493572Y-13692000D01*
X3493572Y-13692000D02*
X3474524Y-13701524D01*
X3474524Y-13701524D02*
X3455476Y-13701524D01*
X3455476Y-13701524D02*
X3436429Y-13692000D01*
X3436429Y-13692000D02*
X3426905Y-13682476D01*
X3426905Y-13682476D02*
X3417381Y-13663428D01*
X3417381Y-13663428D02*
X3407857Y-13625333D01*
X3407857Y-13625333D02*
X3407857Y-13577714D01*
X3407857Y-13577714D02*
X3417381Y-13539619D01*
X3417381Y-13539619D02*
X3426905Y-13520571D01*
X3426905Y-13520571D02*
X3436429Y-13511048D01*
X3436429Y-13511048D02*
X3455476Y-13501524D01*
X3607857Y-13682476D02*
X3617381Y-13692000D01*
X3617381Y-13692000D02*
X3607857Y-13701524D01*
X3607857Y-13701524D02*
X3598333Y-13692000D01*
X3598333Y-13692000D02*
X3607857Y-13682476D01*
X3607857Y-13682476D02*
X3607857Y-13701524D01*
X3741191Y-13501524D02*
X3760238Y-13501524D01*
X3760238Y-13501524D02*
X3779286Y-13511048D01*
X3779286Y-13511048D02*
X3788810Y-13520571D01*
X3788810Y-13520571D02*
X3798333Y-13539619D01*
X3798333Y-13539619D02*
X3807857Y-13577714D01*
X3807857Y-13577714D02*
X3807857Y-13625333D01*
X3807857Y-13625333D02*
X3798333Y-13663428D01*
X3798333Y-13663428D02*
X3788810Y-13682476D01*
X3788810Y-13682476D02*
X3779286Y-13692000D01*
X3779286Y-13692000D02*
X3760238Y-13701524D01*
X3760238Y-13701524D02*
X3741191Y-13701524D01*
X3741191Y-13701524D02*
X3722143Y-13692000D01*
X3722143Y-13692000D02*
X3712619Y-13682476D01*
X3712619Y-13682476D02*
X3703095Y-13663428D01*
X3703095Y-13663428D02*
X3693572Y-13625333D01*
X3693572Y-13625333D02*
X3693572Y-13577714D01*
X3693572Y-13577714D02*
X3703095Y-13539619D01*
X3703095Y-13539619D02*
X3712619Y-13520571D01*
X3712619Y-13520571D02*
X3722143Y-13511048D01*
X3722143Y-13511048D02*
X3741191Y-13501524D01*
X3998333Y-13701524D02*
X3884048Y-13701524D01*
X3941191Y-13701524D02*
X3941191Y-13501524D01*
X3941191Y-13501524D02*
X3922143Y-13530095D01*
X3922143Y-13530095D02*
X3903095Y-13549143D01*
X3903095Y-13549143D02*
X3884048Y-13558667D01*
X4179286Y-13501524D02*
X4084048Y-13501524D01*
X4084048Y-13501524D02*
X4074524Y-13596762D01*
X4074524Y-13596762D02*
X4084048Y-13587238D01*
X4084048Y-13587238D02*
X4103095Y-13577714D01*
X4103095Y-13577714D02*
X4150714Y-13577714D01*
X4150714Y-13577714D02*
X4169762Y-13587238D01*
X4169762Y-13587238D02*
X4179286Y-13596762D01*
X4179286Y-13596762D02*
X4188810Y-13615809D01*
X4188810Y-13615809D02*
X4188810Y-13663428D01*
X4188810Y-13663428D02*
X4179286Y-13682476D01*
X4179286Y-13682476D02*
X4169762Y-13692000D01*
X4169762Y-13692000D02*
X4150714Y-13701524D01*
X4150714Y-13701524D02*
X4103095Y-13701524D01*
X4103095Y-13701524D02*
X4084048Y-13692000D01*
X4084048Y-13692000D02*
X4074524Y-13682476D01*
X4255476Y-13501524D02*
X4388810Y-13501524D01*
X4388810Y-13501524D02*
X4303095Y-13701524D01*
X4455476Y-13501524D02*
X4455476Y-13539619D01*
X4531667Y-13501524D02*
X4531667Y-13539619D01*
X4826905Y-13777714D02*
X4817381Y-13768190D01*
X4817381Y-13768190D02*
X4798334Y-13739619D01*
X4798334Y-13739619D02*
X4788810Y-13720571D01*
X4788810Y-13720571D02*
X4779286Y-13692000D01*
X4779286Y-13692000D02*
X4769762Y-13644381D01*
X4769762Y-13644381D02*
X4769762Y-13606286D01*
X4769762Y-13606286D02*
X4779286Y-13558667D01*
X4779286Y-13558667D02*
X4788810Y-13530095D01*
X4788810Y-13530095D02*
X4798334Y-13511048D01*
X4798334Y-13511048D02*
X4817381Y-13482476D01*
X4817381Y-13482476D02*
X4826905Y-13472952D01*
X4988810Y-13568190D02*
X4988810Y-13701524D01*
X4941191Y-13492000D02*
X4893572Y-13634857D01*
X4893572Y-13634857D02*
X5017381Y-13634857D01*
X5179286Y-13501524D02*
X5141191Y-13501524D01*
X5141191Y-13501524D02*
X5122143Y-13511048D01*
X5122143Y-13511048D02*
X5112619Y-13520571D01*
X5112619Y-13520571D02*
X5093572Y-13549143D01*
X5093572Y-13549143D02*
X5084048Y-13587238D01*
X5084048Y-13587238D02*
X5084048Y-13663428D01*
X5084048Y-13663428D02*
X5093572Y-13682476D01*
X5093572Y-13682476D02*
X5103096Y-13692000D01*
X5103096Y-13692000D02*
X5122143Y-13701524D01*
X5122143Y-13701524D02*
X5160238Y-13701524D01*
X5160238Y-13701524D02*
X5179286Y-13692000D01*
X5179286Y-13692000D02*
X5188810Y-13682476D01*
X5188810Y-13682476D02*
X5198334Y-13663428D01*
X5198334Y-13663428D02*
X5198334Y-13615809D01*
X5198334Y-13615809D02*
X5188810Y-13596762D01*
X5188810Y-13596762D02*
X5179286Y-13587238D01*
X5179286Y-13587238D02*
X5160238Y-13577714D01*
X5160238Y-13577714D02*
X5122143Y-13577714D01*
X5122143Y-13577714D02*
X5103096Y-13587238D01*
X5103096Y-13587238D02*
X5093572Y-13596762D01*
X5093572Y-13596762D02*
X5084048Y-13615809D01*
X5369762Y-13568190D02*
X5369762Y-13701524D01*
X5322143Y-13492000D02*
X5274524Y-13634857D01*
X5274524Y-13634857D02*
X5398334Y-13634857D01*
X5626905Y-13701524D02*
X5626905Y-13501524D01*
X5712619Y-13701524D02*
X5712619Y-13596762D01*
X5712619Y-13596762D02*
X5703096Y-13577714D01*
X5703096Y-13577714D02*
X5684048Y-13568190D01*
X5684048Y-13568190D02*
X5655476Y-13568190D01*
X5655476Y-13568190D02*
X5636429Y-13577714D01*
X5636429Y-13577714D02*
X5626905Y-13587238D01*
X5836429Y-13701524D02*
X5817381Y-13692000D01*
X5817381Y-13692000D02*
X5807857Y-13682476D01*
X5807857Y-13682476D02*
X5798334Y-13663428D01*
X5798334Y-13663428D02*
X5798334Y-13606286D01*
X5798334Y-13606286D02*
X5807857Y-13587238D01*
X5807857Y-13587238D02*
X5817381Y-13577714D01*
X5817381Y-13577714D02*
X5836429Y-13568190D01*
X5836429Y-13568190D02*
X5865000Y-13568190D01*
X5865000Y-13568190D02*
X5884048Y-13577714D01*
X5884048Y-13577714D02*
X5893572Y-13587238D01*
X5893572Y-13587238D02*
X5903096Y-13606286D01*
X5903096Y-13606286D02*
X5903096Y-13663428D01*
X5903096Y-13663428D02*
X5893572Y-13682476D01*
X5893572Y-13682476D02*
X5884048Y-13692000D01*
X5884048Y-13692000D02*
X5865000Y-13701524D01*
X5865000Y-13701524D02*
X5836429Y-13701524D01*
X6017381Y-13701524D02*
X5998334Y-13692000D01*
X5998334Y-13692000D02*
X5988810Y-13672952D01*
X5988810Y-13672952D02*
X5988810Y-13501524D01*
X6169762Y-13692000D02*
X6150715Y-13701524D01*
X6150715Y-13701524D02*
X6112619Y-13701524D01*
X6112619Y-13701524D02*
X6093572Y-13692000D01*
X6093572Y-13692000D02*
X6084048Y-13672952D01*
X6084048Y-13672952D02*
X6084048Y-13596762D01*
X6084048Y-13596762D02*
X6093572Y-13577714D01*
X6093572Y-13577714D02*
X6112619Y-13568190D01*
X6112619Y-13568190D02*
X6150715Y-13568190D01*
X6150715Y-13568190D02*
X6169762Y-13577714D01*
X6169762Y-13577714D02*
X6179286Y-13596762D01*
X6179286Y-13596762D02*
X6179286Y-13615809D01*
X6179286Y-13615809D02*
X6084048Y-13634857D01*
X6255477Y-13692000D02*
X6274524Y-13701524D01*
X6274524Y-13701524D02*
X6312619Y-13701524D01*
X6312619Y-13701524D02*
X6331667Y-13692000D01*
X6331667Y-13692000D02*
X6341191Y-13672952D01*
X6341191Y-13672952D02*
X6341191Y-13663428D01*
X6341191Y-13663428D02*
X6331667Y-13644381D01*
X6331667Y-13644381D02*
X6312619Y-13634857D01*
X6312619Y-13634857D02*
X6284048Y-13634857D01*
X6284048Y-13634857D02*
X6265000Y-13625333D01*
X6265000Y-13625333D02*
X6255477Y-13606286D01*
X6255477Y-13606286D02*
X6255477Y-13596762D01*
X6255477Y-13596762D02*
X6265000Y-13577714D01*
X6265000Y-13577714D02*
X6284048Y-13568190D01*
X6284048Y-13568190D02*
X6312619Y-13568190D01*
X6312619Y-13568190D02*
X6331667Y-13577714D01*
X6407858Y-13777714D02*
X6417381Y-13768190D01*
X6417381Y-13768190D02*
X6436429Y-13739619D01*
X6436429Y-13739619D02*
X6445953Y-13720571D01*
X6445953Y-13720571D02*
X6455477Y-13692000D01*
X6455477Y-13692000D02*
X6465000Y-13644381D01*
X6465000Y-13644381D02*
X6465000Y-13606286D01*
X6465000Y-13606286D02*
X6455477Y-13558667D01*
X6455477Y-13558667D02*
X6445953Y-13530095D01*
X6445953Y-13530095D02*
X6436429Y-13511048D01*
X6436429Y-13511048D02*
X6417381Y-13482476D01*
X6417381Y-13482476D02*
X6407858Y-13472952D01*
X1165000Y-13773000D02*
X1165000Y-13973000D01*
X1065000Y-13873000D02*
X1265000Y-13873000D01*
X1493571Y-13765524D02*
X1617381Y-13765524D01*
X1617381Y-13765524D02*
X1550714Y-13841714D01*
X1550714Y-13841714D02*
X1579286Y-13841714D01*
X1579286Y-13841714D02*
X1598333Y-13851238D01*
X1598333Y-13851238D02*
X1607857Y-13860762D01*
X1607857Y-13860762D02*
X1617381Y-13879809D01*
X1617381Y-13879809D02*
X1617381Y-13927428D01*
X1617381Y-13927428D02*
X1607857Y-13946476D01*
X1607857Y-13946476D02*
X1598333Y-13956000D01*
X1598333Y-13956000D02*
X1579286Y-13965524D01*
X1579286Y-13965524D02*
X1522143Y-13965524D01*
X1522143Y-13965524D02*
X1503095Y-13956000D01*
X1503095Y-13956000D02*
X1493571Y-13946476D01*
X1703095Y-13946476D02*
X1712619Y-13956000D01*
X1712619Y-13956000D02*
X1703095Y-13965524D01*
X1703095Y-13965524D02*
X1693571Y-13956000D01*
X1693571Y-13956000D02*
X1703095Y-13946476D01*
X1703095Y-13946476D02*
X1703095Y-13965524D01*
X1836428Y-13765524D02*
X1855476Y-13765524D01*
X1855476Y-13765524D02*
X1874524Y-13775048D01*
X1874524Y-13775048D02*
X1884048Y-13784571D01*
X1884048Y-13784571D02*
X1893571Y-13803619D01*
X1893571Y-13803619D02*
X1903095Y-13841714D01*
X1903095Y-13841714D02*
X1903095Y-13889333D01*
X1903095Y-13889333D02*
X1893571Y-13927428D01*
X1893571Y-13927428D02*
X1884048Y-13946476D01*
X1884048Y-13946476D02*
X1874524Y-13956000D01*
X1874524Y-13956000D02*
X1855476Y-13965524D01*
X1855476Y-13965524D02*
X1836428Y-13965524D01*
X1836428Y-13965524D02*
X1817381Y-13956000D01*
X1817381Y-13956000D02*
X1807857Y-13946476D01*
X1807857Y-13946476D02*
X1798333Y-13927428D01*
X1798333Y-13927428D02*
X1788809Y-13889333D01*
X1788809Y-13889333D02*
X1788809Y-13841714D01*
X1788809Y-13841714D02*
X1798333Y-13803619D01*
X1798333Y-13803619D02*
X1807857Y-13784571D01*
X1807857Y-13784571D02*
X1817381Y-13775048D01*
X1817381Y-13775048D02*
X1836428Y-13765524D01*
X2026905Y-13765524D02*
X2045952Y-13765524D01*
X2045952Y-13765524D02*
X2065000Y-13775048D01*
X2065000Y-13775048D02*
X2074524Y-13784571D01*
X2074524Y-13784571D02*
X2084048Y-13803619D01*
X2084048Y-13803619D02*
X2093571Y-13841714D01*
X2093571Y-13841714D02*
X2093571Y-13889333D01*
X2093571Y-13889333D02*
X2084048Y-13927428D01*
X2084048Y-13927428D02*
X2074524Y-13946476D01*
X2074524Y-13946476D02*
X2065000Y-13956000D01*
X2065000Y-13956000D02*
X2045952Y-13965524D01*
X2045952Y-13965524D02*
X2026905Y-13965524D01*
X2026905Y-13965524D02*
X2007857Y-13956000D01*
X2007857Y-13956000D02*
X1998333Y-13946476D01*
X1998333Y-13946476D02*
X1988809Y-13927428D01*
X1988809Y-13927428D02*
X1979286Y-13889333D01*
X1979286Y-13889333D02*
X1979286Y-13841714D01*
X1979286Y-13841714D02*
X1988809Y-13803619D01*
X1988809Y-13803619D02*
X1998333Y-13784571D01*
X1998333Y-13784571D02*
X2007857Y-13775048D01*
X2007857Y-13775048D02*
X2026905Y-13765524D01*
X2217381Y-13765524D02*
X2236429Y-13765524D01*
X2236429Y-13765524D02*
X2255476Y-13775048D01*
X2255476Y-13775048D02*
X2265000Y-13784571D01*
X2265000Y-13784571D02*
X2274524Y-13803619D01*
X2274524Y-13803619D02*
X2284048Y-13841714D01*
X2284048Y-13841714D02*
X2284048Y-13889333D01*
X2284048Y-13889333D02*
X2274524Y-13927428D01*
X2274524Y-13927428D02*
X2265000Y-13946476D01*
X2265000Y-13946476D02*
X2255476Y-13956000D01*
X2255476Y-13956000D02*
X2236429Y-13965524D01*
X2236429Y-13965524D02*
X2217381Y-13965524D01*
X2217381Y-13965524D02*
X2198333Y-13956000D01*
X2198333Y-13956000D02*
X2188810Y-13946476D01*
X2188810Y-13946476D02*
X2179286Y-13927428D01*
X2179286Y-13927428D02*
X2169762Y-13889333D01*
X2169762Y-13889333D02*
X2169762Y-13841714D01*
X2169762Y-13841714D02*
X2179286Y-13803619D01*
X2179286Y-13803619D02*
X2188810Y-13784571D01*
X2188810Y-13784571D02*
X2198333Y-13775048D01*
X2198333Y-13775048D02*
X2217381Y-13765524D01*
X2369762Y-13965524D02*
X2369762Y-13832190D01*
X2369762Y-13851238D02*
X2379286Y-13841714D01*
X2379286Y-13841714D02*
X2398333Y-13832190D01*
X2398333Y-13832190D02*
X2426905Y-13832190D01*
X2426905Y-13832190D02*
X2445952Y-13841714D01*
X2445952Y-13841714D02*
X2455476Y-13860762D01*
X2455476Y-13860762D02*
X2455476Y-13965524D01*
X2455476Y-13860762D02*
X2465000Y-13841714D01*
X2465000Y-13841714D02*
X2484048Y-13832190D01*
X2484048Y-13832190D02*
X2512619Y-13832190D01*
X2512619Y-13832190D02*
X2531667Y-13841714D01*
X2531667Y-13841714D02*
X2541191Y-13860762D01*
X2541191Y-13860762D02*
X2541191Y-13965524D01*
X2636429Y-13965524D02*
X2636429Y-13832190D01*
X2636429Y-13851238D02*
X2645952Y-13841714D01*
X2645952Y-13841714D02*
X2665000Y-13832190D01*
X2665000Y-13832190D02*
X2693572Y-13832190D01*
X2693572Y-13832190D02*
X2712619Y-13841714D01*
X2712619Y-13841714D02*
X2722143Y-13860762D01*
X2722143Y-13860762D02*
X2722143Y-13965524D01*
X2722143Y-13860762D02*
X2731667Y-13841714D01*
X2731667Y-13841714D02*
X2750714Y-13832190D01*
X2750714Y-13832190D02*
X2779286Y-13832190D01*
X2779286Y-13832190D02*
X2798333Y-13841714D01*
X2798333Y-13841714D02*
X2807857Y-13860762D01*
X2807857Y-13860762D02*
X2807857Y-13965524D01*
X3198333Y-13756000D02*
X3026905Y-14013143D01*
X3455476Y-13765524D02*
X3474524Y-13765524D01*
X3474524Y-13765524D02*
X3493572Y-13775048D01*
X3493572Y-13775048D02*
X3503095Y-13784571D01*
X3503095Y-13784571D02*
X3512619Y-13803619D01*
X3512619Y-13803619D02*
X3522143Y-13841714D01*
X3522143Y-13841714D02*
X3522143Y-13889333D01*
X3522143Y-13889333D02*
X3512619Y-13927428D01*
X3512619Y-13927428D02*
X3503095Y-13946476D01*
X3503095Y-13946476D02*
X3493572Y-13956000D01*
X3493572Y-13956000D02*
X3474524Y-13965524D01*
X3474524Y-13965524D02*
X3455476Y-13965524D01*
X3455476Y-13965524D02*
X3436429Y-13956000D01*
X3436429Y-13956000D02*
X3426905Y-13946476D01*
X3426905Y-13946476D02*
X3417381Y-13927428D01*
X3417381Y-13927428D02*
X3407857Y-13889333D01*
X3407857Y-13889333D02*
X3407857Y-13841714D01*
X3407857Y-13841714D02*
X3417381Y-13803619D01*
X3417381Y-13803619D02*
X3426905Y-13784571D01*
X3426905Y-13784571D02*
X3436429Y-13775048D01*
X3436429Y-13775048D02*
X3455476Y-13765524D01*
X3607857Y-13946476D02*
X3617381Y-13956000D01*
X3617381Y-13956000D02*
X3607857Y-13965524D01*
X3607857Y-13965524D02*
X3598333Y-13956000D01*
X3598333Y-13956000D02*
X3607857Y-13946476D01*
X3607857Y-13946476D02*
X3607857Y-13965524D01*
X3807857Y-13965524D02*
X3693572Y-13965524D01*
X3750714Y-13965524D02*
X3750714Y-13765524D01*
X3750714Y-13765524D02*
X3731667Y-13794095D01*
X3731667Y-13794095D02*
X3712619Y-13813143D01*
X3712619Y-13813143D02*
X3693572Y-13822667D01*
X3998333Y-13965524D02*
X3884048Y-13965524D01*
X3941191Y-13965524D02*
X3941191Y-13765524D01*
X3941191Y-13765524D02*
X3922143Y-13794095D01*
X3922143Y-13794095D02*
X3903095Y-13813143D01*
X3903095Y-13813143D02*
X3884048Y-13822667D01*
X4112619Y-13851238D02*
X4093572Y-13841714D01*
X4093572Y-13841714D02*
X4084048Y-13832190D01*
X4084048Y-13832190D02*
X4074524Y-13813143D01*
X4074524Y-13813143D02*
X4074524Y-13803619D01*
X4074524Y-13803619D02*
X4084048Y-13784571D01*
X4084048Y-13784571D02*
X4093572Y-13775048D01*
X4093572Y-13775048D02*
X4112619Y-13765524D01*
X4112619Y-13765524D02*
X4150714Y-13765524D01*
X4150714Y-13765524D02*
X4169762Y-13775048D01*
X4169762Y-13775048D02*
X4179286Y-13784571D01*
X4179286Y-13784571D02*
X4188810Y-13803619D01*
X4188810Y-13803619D02*
X4188810Y-13813143D01*
X4188810Y-13813143D02*
X4179286Y-13832190D01*
X4179286Y-13832190D02*
X4169762Y-13841714D01*
X4169762Y-13841714D02*
X4150714Y-13851238D01*
X4150714Y-13851238D02*
X4112619Y-13851238D01*
X4112619Y-13851238D02*
X4093572Y-13860762D01*
X4093572Y-13860762D02*
X4084048Y-13870286D01*
X4084048Y-13870286D02*
X4074524Y-13889333D01*
X4074524Y-13889333D02*
X4074524Y-13927428D01*
X4074524Y-13927428D02*
X4084048Y-13946476D01*
X4084048Y-13946476D02*
X4093572Y-13956000D01*
X4093572Y-13956000D02*
X4112619Y-13965524D01*
X4112619Y-13965524D02*
X4150714Y-13965524D01*
X4150714Y-13965524D02*
X4169762Y-13956000D01*
X4169762Y-13956000D02*
X4179286Y-13946476D01*
X4179286Y-13946476D02*
X4188810Y-13927428D01*
X4188810Y-13927428D02*
X4188810Y-13889333D01*
X4188810Y-13889333D02*
X4179286Y-13870286D01*
X4179286Y-13870286D02*
X4169762Y-13860762D01*
X4169762Y-13860762D02*
X4150714Y-13851238D01*
X4379286Y-13965524D02*
X4265000Y-13965524D01*
X4322143Y-13965524D02*
X4322143Y-13765524D01*
X4322143Y-13765524D02*
X4303095Y-13794095D01*
X4303095Y-13794095D02*
X4284048Y-13813143D01*
X4284048Y-13813143D02*
X4265000Y-13822667D01*
X4455476Y-13765524D02*
X4455476Y-13803619D01*
X4531667Y-13765524D02*
X4531667Y-13803619D01*
X4826905Y-14041714D02*
X4817381Y-14032190D01*
X4817381Y-14032190D02*
X4798334Y-14003619D01*
X4798334Y-14003619D02*
X4788810Y-13984571D01*
X4788810Y-13984571D02*
X4779286Y-13956000D01*
X4779286Y-13956000D02*
X4769762Y-13908381D01*
X4769762Y-13908381D02*
X4769762Y-13870286D01*
X4769762Y-13870286D02*
X4779286Y-13822667D01*
X4779286Y-13822667D02*
X4788810Y-13794095D01*
X4788810Y-13794095D02*
X4798334Y-13775048D01*
X4798334Y-13775048D02*
X4817381Y-13746476D01*
X4817381Y-13746476D02*
X4826905Y-13736952D01*
X5007857Y-13965524D02*
X4893572Y-13965524D01*
X4950715Y-13965524D02*
X4950715Y-13765524D01*
X4950715Y-13765524D02*
X4931667Y-13794095D01*
X4931667Y-13794095D02*
X4912619Y-13813143D01*
X4912619Y-13813143D02*
X4893572Y-13822667D01*
X5179286Y-13765524D02*
X5141191Y-13765524D01*
X5141191Y-13765524D02*
X5122143Y-13775048D01*
X5122143Y-13775048D02*
X5112619Y-13784571D01*
X5112619Y-13784571D02*
X5093572Y-13813143D01*
X5093572Y-13813143D02*
X5084048Y-13851238D01*
X5084048Y-13851238D02*
X5084048Y-13927428D01*
X5084048Y-13927428D02*
X5093572Y-13946476D01*
X5093572Y-13946476D02*
X5103096Y-13956000D01*
X5103096Y-13956000D02*
X5122143Y-13965524D01*
X5122143Y-13965524D02*
X5160238Y-13965524D01*
X5160238Y-13965524D02*
X5179286Y-13956000D01*
X5179286Y-13956000D02*
X5188810Y-13946476D01*
X5188810Y-13946476D02*
X5198334Y-13927428D01*
X5198334Y-13927428D02*
X5198334Y-13879809D01*
X5198334Y-13879809D02*
X5188810Y-13860762D01*
X5188810Y-13860762D02*
X5179286Y-13851238D01*
X5179286Y-13851238D02*
X5160238Y-13841714D01*
X5160238Y-13841714D02*
X5122143Y-13841714D01*
X5122143Y-13841714D02*
X5103096Y-13851238D01*
X5103096Y-13851238D02*
X5093572Y-13860762D01*
X5093572Y-13860762D02*
X5084048Y-13879809D01*
X5312619Y-13851238D02*
X5293572Y-13841714D01*
X5293572Y-13841714D02*
X5284048Y-13832190D01*
X5284048Y-13832190D02*
X5274524Y-13813143D01*
X5274524Y-13813143D02*
X5274524Y-13803619D01*
X5274524Y-13803619D02*
X5284048Y-13784571D01*
X5284048Y-13784571D02*
X5293572Y-13775048D01*
X5293572Y-13775048D02*
X5312619Y-13765524D01*
X5312619Y-13765524D02*
X5350715Y-13765524D01*
X5350715Y-13765524D02*
X5369762Y-13775048D01*
X5369762Y-13775048D02*
X5379286Y-13784571D01*
X5379286Y-13784571D02*
X5388810Y-13803619D01*
X5388810Y-13803619D02*
X5388810Y-13813143D01*
X5388810Y-13813143D02*
X5379286Y-13832190D01*
X5379286Y-13832190D02*
X5369762Y-13841714D01*
X5369762Y-13841714D02*
X5350715Y-13851238D01*
X5350715Y-13851238D02*
X5312619Y-13851238D01*
X5312619Y-13851238D02*
X5293572Y-13860762D01*
X5293572Y-13860762D02*
X5284048Y-13870286D01*
X5284048Y-13870286D02*
X5274524Y-13889333D01*
X5274524Y-13889333D02*
X5274524Y-13927428D01*
X5274524Y-13927428D02*
X5284048Y-13946476D01*
X5284048Y-13946476D02*
X5293572Y-13956000D01*
X5293572Y-13956000D02*
X5312619Y-13965524D01*
X5312619Y-13965524D02*
X5350715Y-13965524D01*
X5350715Y-13965524D02*
X5369762Y-13956000D01*
X5369762Y-13956000D02*
X5379286Y-13946476D01*
X5379286Y-13946476D02*
X5388810Y-13927428D01*
X5388810Y-13927428D02*
X5388810Y-13889333D01*
X5388810Y-13889333D02*
X5379286Y-13870286D01*
X5379286Y-13870286D02*
X5369762Y-13860762D01*
X5369762Y-13860762D02*
X5350715Y-13851238D01*
X5626905Y-13965524D02*
X5626905Y-13765524D01*
X5712619Y-13965524D02*
X5712619Y-13860762D01*
X5712619Y-13860762D02*
X5703096Y-13841714D01*
X5703096Y-13841714D02*
X5684048Y-13832190D01*
X5684048Y-13832190D02*
X5655476Y-13832190D01*
X5655476Y-13832190D02*
X5636429Y-13841714D01*
X5636429Y-13841714D02*
X5626905Y-13851238D01*
X5836429Y-13965524D02*
X5817381Y-13956000D01*
X5817381Y-13956000D02*
X5807857Y-13946476D01*
X5807857Y-13946476D02*
X5798334Y-13927428D01*
X5798334Y-13927428D02*
X5798334Y-13870286D01*
X5798334Y-13870286D02*
X5807857Y-13851238D01*
X5807857Y-13851238D02*
X5817381Y-13841714D01*
X5817381Y-13841714D02*
X5836429Y-13832190D01*
X5836429Y-13832190D02*
X5865000Y-13832190D01*
X5865000Y-13832190D02*
X5884048Y-13841714D01*
X5884048Y-13841714D02*
X5893572Y-13851238D01*
X5893572Y-13851238D02*
X5903096Y-13870286D01*
X5903096Y-13870286D02*
X5903096Y-13927428D01*
X5903096Y-13927428D02*
X5893572Y-13946476D01*
X5893572Y-13946476D02*
X5884048Y-13956000D01*
X5884048Y-13956000D02*
X5865000Y-13965524D01*
X5865000Y-13965524D02*
X5836429Y-13965524D01*
X6017381Y-13965524D02*
X5998334Y-13956000D01*
X5998334Y-13956000D02*
X5988810Y-13936952D01*
X5988810Y-13936952D02*
X5988810Y-13765524D01*
X6169762Y-13956000D02*
X6150715Y-13965524D01*
X6150715Y-13965524D02*
X6112619Y-13965524D01*
X6112619Y-13965524D02*
X6093572Y-13956000D01*
X6093572Y-13956000D02*
X6084048Y-13936952D01*
X6084048Y-13936952D02*
X6084048Y-13860762D01*
X6084048Y-13860762D02*
X6093572Y-13841714D01*
X6093572Y-13841714D02*
X6112619Y-13832190D01*
X6112619Y-13832190D02*
X6150715Y-13832190D01*
X6150715Y-13832190D02*
X6169762Y-13841714D01*
X6169762Y-13841714D02*
X6179286Y-13860762D01*
X6179286Y-13860762D02*
X6179286Y-13879809D01*
X6179286Y-13879809D02*
X6084048Y-13898857D01*
X6255477Y-13956000D02*
X6274524Y-13965524D01*
X6274524Y-13965524D02*
X6312619Y-13965524D01*
X6312619Y-13965524D02*
X6331667Y-13956000D01*
X6331667Y-13956000D02*
X6341191Y-13936952D01*
X6341191Y-13936952D02*
X6341191Y-13927428D01*
X6341191Y-13927428D02*
X6331667Y-13908381D01*
X6331667Y-13908381D02*
X6312619Y-13898857D01*
X6312619Y-13898857D02*
X6284048Y-13898857D01*
X6284048Y-13898857D02*
X6265000Y-13889333D01*
X6265000Y-13889333D02*
X6255477Y-13870286D01*
X6255477Y-13870286D02*
X6255477Y-13860762D01*
X6255477Y-13860762D02*
X6265000Y-13841714D01*
X6265000Y-13841714D02*
X6284048Y-13832190D01*
X6284048Y-13832190D02*
X6312619Y-13832190D01*
X6312619Y-13832190D02*
X6331667Y-13841714D01*
X6407858Y-14041714D02*
X6417381Y-14032190D01*
X6417381Y-14032190D02*
X6436429Y-14003619D01*
X6436429Y-14003619D02*
X6445953Y-13984571D01*
X6445953Y-13984571D02*
X6455477Y-13956000D01*
X6455477Y-13956000D02*
X6465000Y-13908381D01*
X6465000Y-13908381D02*
X6465000Y-13870286D01*
X6465000Y-13870286D02*
X6455477Y-13822667D01*
X6455477Y-13822667D02*
X6445953Y-13794095D01*
X6445953Y-13794095D02*
X6436429Y-13775048D01*
X6436429Y-13775048D02*
X6417381Y-13746476D01*
X6417381Y-13746476D02*
X6407858Y-13736952D01*
M02*
