G04 #@! TF.GenerationSoftware,KiCad,Pcbnew,7.0.2*
G04 #@! TF.CreationDate,2023-04-27T00:32:00+01:00*
G04 #@! TF.ProjectId,ISO75+STM+PKRGB,49534f37-352b-4535-944d-2b504b524742,rev?*
G04 #@! TF.SameCoordinates,Original*
G04 #@! TF.FileFunction,Legend,Top*
G04 #@! TF.FilePolarity,Positive*
%FSLAX46Y46*%
G04 Gerber Fmt 4.6, Leading zero omitted, Abs format (unit mm)*
G04 Created by KiCad (PCBNEW 7.0.2) date 2023-04-27 00:32:00*
%MOMM*%
%LPD*%
G01*
G04 APERTURE LIST*
%ADD10C,0.150000*%
%ADD11C,3.048000*%
%ADD12C,3.987800*%
%ADD13C,1.750000*%
%ADD14C,3.300000*%
%ADD15C,2.100000*%
%ADD16C,0.600000*%
G04 APERTURE END LIST*
D10*
X305666667Y-30462619D02*
X305666667Y-29462619D01*
X306142857Y-30462619D02*
X306142857Y-29462619D01*
X306142857Y-29462619D02*
X306714285Y-30462619D01*
X306714285Y-30462619D02*
X306714285Y-29462619D01*
X307142857Y-30415000D02*
X307285714Y-30462619D01*
X307285714Y-30462619D02*
X307523809Y-30462619D01*
X307523809Y-30462619D02*
X307619047Y-30415000D01*
X307619047Y-30415000D02*
X307666666Y-30367380D01*
X307666666Y-30367380D02*
X307714285Y-30272142D01*
X307714285Y-30272142D02*
X307714285Y-30176904D01*
X307714285Y-30176904D02*
X307666666Y-30081666D01*
X307666666Y-30081666D02*
X307619047Y-30034047D01*
X307619047Y-30034047D02*
X307523809Y-29986428D01*
X307523809Y-29986428D02*
X307333333Y-29938809D01*
X307333333Y-29938809D02*
X307238095Y-29891190D01*
X307238095Y-29891190D02*
X307190476Y-29843571D01*
X307190476Y-29843571D02*
X307142857Y-29748333D01*
X307142857Y-29748333D02*
X307142857Y-29653095D01*
X307142857Y-29653095D02*
X307190476Y-29557857D01*
X307190476Y-29557857D02*
X307238095Y-29510238D01*
X307238095Y-29510238D02*
X307333333Y-29462619D01*
X307333333Y-29462619D02*
X307571428Y-29462619D01*
X307571428Y-29462619D02*
X307714285Y-29510238D01*
X308142857Y-29938809D02*
X308476190Y-29938809D01*
X308619047Y-30462619D02*
X308142857Y-30462619D01*
X308142857Y-30462619D02*
X308142857Y-29462619D01*
X308142857Y-29462619D02*
X308619047Y-29462619D01*
X309619047Y-30462619D02*
X309285714Y-29986428D01*
X309047619Y-30462619D02*
X309047619Y-29462619D01*
X309047619Y-29462619D02*
X309428571Y-29462619D01*
X309428571Y-29462619D02*
X309523809Y-29510238D01*
X309523809Y-29510238D02*
X309571428Y-29557857D01*
X309571428Y-29557857D02*
X309619047Y-29653095D01*
X309619047Y-29653095D02*
X309619047Y-29795952D01*
X309619047Y-29795952D02*
X309571428Y-29891190D01*
X309571428Y-29891190D02*
X309523809Y-29938809D01*
X309523809Y-29938809D02*
X309428571Y-29986428D01*
X309428571Y-29986428D02*
X309047619Y-29986428D01*
X309904762Y-29462619D02*
X310476190Y-29462619D01*
X310190476Y-30462619D02*
X310190476Y-29462619D01*
X193409524Y-49462619D02*
X193600000Y-49462619D01*
X193600000Y-49462619D02*
X193695238Y-49415000D01*
X193695238Y-49415000D02*
X193742857Y-49367380D01*
X193742857Y-49367380D02*
X193838095Y-49224523D01*
X193838095Y-49224523D02*
X193885714Y-49034047D01*
X193885714Y-49034047D02*
X193885714Y-48653095D01*
X193885714Y-48653095D02*
X193838095Y-48557857D01*
X193838095Y-48557857D02*
X193790476Y-48510238D01*
X193790476Y-48510238D02*
X193695238Y-48462619D01*
X193695238Y-48462619D02*
X193504762Y-48462619D01*
X193504762Y-48462619D02*
X193409524Y-48510238D01*
X193409524Y-48510238D02*
X193361905Y-48557857D01*
X193361905Y-48557857D02*
X193314286Y-48653095D01*
X193314286Y-48653095D02*
X193314286Y-48891190D01*
X193314286Y-48891190D02*
X193361905Y-48986428D01*
X193361905Y-48986428D02*
X193409524Y-49034047D01*
X193409524Y-49034047D02*
X193504762Y-49081666D01*
X193504762Y-49081666D02*
X193695238Y-49081666D01*
X193695238Y-49081666D02*
X193790476Y-49034047D01*
X193790476Y-49034047D02*
X193838095Y-48986428D01*
X193838095Y-48986428D02*
X193885714Y-48891190D01*
X179066667Y-106662619D02*
X179066667Y-105662619D01*
X179066667Y-105662619D02*
X179400000Y-106376904D01*
X179400000Y-106376904D02*
X179733333Y-105662619D01*
X179733333Y-105662619D02*
X179733333Y-106662619D01*
X93338095Y-87462619D02*
X93338095Y-86462619D01*
X93338095Y-86462619D02*
X93576190Y-86462619D01*
X93576190Y-86462619D02*
X93719047Y-86510238D01*
X93719047Y-86510238D02*
X93814285Y-86605476D01*
X93814285Y-86605476D02*
X93861904Y-86700714D01*
X93861904Y-86700714D02*
X93909523Y-86891190D01*
X93909523Y-86891190D02*
X93909523Y-87034047D01*
X93909523Y-87034047D02*
X93861904Y-87224523D01*
X93861904Y-87224523D02*
X93814285Y-87319761D01*
X93814285Y-87319761D02*
X93719047Y-87415000D01*
X93719047Y-87415000D02*
X93576190Y-87462619D01*
X93576190Y-87462619D02*
X93338095Y-87462619D01*
X234480952Y-106615000D02*
X234623809Y-106662619D01*
X234623809Y-106662619D02*
X234861904Y-106662619D01*
X234861904Y-106662619D02*
X234957142Y-106615000D01*
X234957142Y-106615000D02*
X235004761Y-106567380D01*
X235004761Y-106567380D02*
X235052380Y-106472142D01*
X235052380Y-106472142D02*
X235052380Y-106376904D01*
X235052380Y-106376904D02*
X235004761Y-106281666D01*
X235004761Y-106281666D02*
X234957142Y-106234047D01*
X234957142Y-106234047D02*
X234861904Y-106186428D01*
X234861904Y-106186428D02*
X234671428Y-106138809D01*
X234671428Y-106138809D02*
X234576190Y-106091190D01*
X234576190Y-106091190D02*
X234528571Y-106043571D01*
X234528571Y-106043571D02*
X234480952Y-105948333D01*
X234480952Y-105948333D02*
X234480952Y-105853095D01*
X234480952Y-105853095D02*
X234528571Y-105757857D01*
X234528571Y-105757857D02*
X234576190Y-105710238D01*
X234576190Y-105710238D02*
X234671428Y-105662619D01*
X234671428Y-105662619D02*
X234909523Y-105662619D01*
X234909523Y-105662619D02*
X235052380Y-105710238D01*
X235957142Y-106662619D02*
X235480952Y-106662619D01*
X235480952Y-106662619D02*
X235480952Y-105662619D01*
X236242857Y-106376904D02*
X236719047Y-106376904D01*
X236147619Y-106662619D02*
X236480952Y-105662619D01*
X236480952Y-105662619D02*
X236814285Y-106662619D01*
X237100000Y-106615000D02*
X237242857Y-106662619D01*
X237242857Y-106662619D02*
X237480952Y-106662619D01*
X237480952Y-106662619D02*
X237576190Y-106615000D01*
X237576190Y-106615000D02*
X237623809Y-106567380D01*
X237623809Y-106567380D02*
X237671428Y-106472142D01*
X237671428Y-106472142D02*
X237671428Y-106376904D01*
X237671428Y-106376904D02*
X237623809Y-106281666D01*
X237623809Y-106281666D02*
X237576190Y-106234047D01*
X237576190Y-106234047D02*
X237480952Y-106186428D01*
X237480952Y-106186428D02*
X237290476Y-106138809D01*
X237290476Y-106138809D02*
X237195238Y-106091190D01*
X237195238Y-106091190D02*
X237147619Y-106043571D01*
X237147619Y-106043571D02*
X237100000Y-105948333D01*
X237100000Y-105948333D02*
X237100000Y-105853095D01*
X237100000Y-105853095D02*
X237147619Y-105757857D01*
X237147619Y-105757857D02*
X237195238Y-105710238D01*
X237195238Y-105710238D02*
X237290476Y-105662619D01*
X237290476Y-105662619D02*
X237528571Y-105662619D01*
X237528571Y-105662619D02*
X237671428Y-105710238D01*
X238100000Y-106662619D02*
X238100000Y-105662619D01*
X238100000Y-106138809D02*
X238671428Y-106138809D01*
X238671428Y-106662619D02*
X238671428Y-105662619D01*
X155266667Y-48462619D02*
X155933333Y-48462619D01*
X155933333Y-48462619D02*
X155504762Y-49462619D01*
X126714286Y-67462619D02*
X127285714Y-67462619D01*
X127000000Y-68462619D02*
X127000000Y-67462619D01*
X174266666Y-29938809D02*
X173933333Y-29938809D01*
X173933333Y-30462619D02*
X173933333Y-29462619D01*
X173933333Y-29462619D02*
X174409523Y-29462619D01*
X174933333Y-29891190D02*
X174838095Y-29843571D01*
X174838095Y-29843571D02*
X174790476Y-29795952D01*
X174790476Y-29795952D02*
X174742857Y-29700714D01*
X174742857Y-29700714D02*
X174742857Y-29653095D01*
X174742857Y-29653095D02*
X174790476Y-29557857D01*
X174790476Y-29557857D02*
X174838095Y-29510238D01*
X174838095Y-29510238D02*
X174933333Y-29462619D01*
X174933333Y-29462619D02*
X175123809Y-29462619D01*
X175123809Y-29462619D02*
X175219047Y-29510238D01*
X175219047Y-29510238D02*
X175266666Y-29557857D01*
X175266666Y-29557857D02*
X175314285Y-29653095D01*
X175314285Y-29653095D02*
X175314285Y-29700714D01*
X175314285Y-29700714D02*
X175266666Y-29795952D01*
X175266666Y-29795952D02*
X175219047Y-29843571D01*
X175219047Y-29843571D02*
X175123809Y-29891190D01*
X175123809Y-29891190D02*
X174933333Y-29891190D01*
X174933333Y-29891190D02*
X174838095Y-29938809D01*
X174838095Y-29938809D02*
X174790476Y-29986428D01*
X174790476Y-29986428D02*
X174742857Y-30081666D01*
X174742857Y-30081666D02*
X174742857Y-30272142D01*
X174742857Y-30272142D02*
X174790476Y-30367380D01*
X174790476Y-30367380D02*
X174838095Y-30415000D01*
X174838095Y-30415000D02*
X174933333Y-30462619D01*
X174933333Y-30462619D02*
X175123809Y-30462619D01*
X175123809Y-30462619D02*
X175219047Y-30415000D01*
X175219047Y-30415000D02*
X175266666Y-30367380D01*
X175266666Y-30367380D02*
X175314285Y-30272142D01*
X175314285Y-30272142D02*
X175314285Y-30081666D01*
X175314285Y-30081666D02*
X175266666Y-29986428D01*
X175266666Y-29986428D02*
X175219047Y-29938809D01*
X175219047Y-29938809D02*
X175123809Y-29891190D01*
X136590476Y-48462619D02*
X136400000Y-48462619D01*
X136400000Y-48462619D02*
X136304762Y-48510238D01*
X136304762Y-48510238D02*
X136257143Y-48557857D01*
X136257143Y-48557857D02*
X136161905Y-48700714D01*
X136161905Y-48700714D02*
X136114286Y-48891190D01*
X136114286Y-48891190D02*
X136114286Y-49272142D01*
X136114286Y-49272142D02*
X136161905Y-49367380D01*
X136161905Y-49367380D02*
X136209524Y-49415000D01*
X136209524Y-49415000D02*
X136304762Y-49462619D01*
X136304762Y-49462619D02*
X136495238Y-49462619D01*
X136495238Y-49462619D02*
X136590476Y-49415000D01*
X136590476Y-49415000D02*
X136638095Y-49367380D01*
X136638095Y-49367380D02*
X136685714Y-49272142D01*
X136685714Y-49272142D02*
X136685714Y-49034047D01*
X136685714Y-49034047D02*
X136638095Y-48938809D01*
X136638095Y-48938809D02*
X136590476Y-48891190D01*
X136590476Y-48891190D02*
X136495238Y-48843571D01*
X136495238Y-48843571D02*
X136304762Y-48843571D01*
X136304762Y-48843571D02*
X136209524Y-48891190D01*
X136209524Y-48891190D02*
X136161905Y-48938809D01*
X136161905Y-48938809D02*
X136114286Y-49034047D01*
X211990476Y-29938809D02*
X211657143Y-29938809D01*
X211657143Y-30462619D02*
X211657143Y-29462619D01*
X211657143Y-29462619D02*
X212133333Y-29462619D01*
X213038095Y-30462619D02*
X212466667Y-30462619D01*
X212752381Y-30462619D02*
X212752381Y-29462619D01*
X212752381Y-29462619D02*
X212657143Y-29605476D01*
X212657143Y-29605476D02*
X212561905Y-29700714D01*
X212561905Y-29700714D02*
X212466667Y-29748333D01*
X213657143Y-29462619D02*
X213752381Y-29462619D01*
X213752381Y-29462619D02*
X213847619Y-29510238D01*
X213847619Y-29510238D02*
X213895238Y-29557857D01*
X213895238Y-29557857D02*
X213942857Y-29653095D01*
X213942857Y-29653095D02*
X213990476Y-29843571D01*
X213990476Y-29843571D02*
X213990476Y-30081666D01*
X213990476Y-30081666D02*
X213942857Y-30272142D01*
X213942857Y-30272142D02*
X213895238Y-30367380D01*
X213895238Y-30367380D02*
X213847619Y-30415000D01*
X213847619Y-30415000D02*
X213752381Y-30462619D01*
X213752381Y-30462619D02*
X213657143Y-30462619D01*
X213657143Y-30462619D02*
X213561905Y-30415000D01*
X213561905Y-30415000D02*
X213514286Y-30367380D01*
X213514286Y-30367380D02*
X213466667Y-30272142D01*
X213466667Y-30272142D02*
X213419048Y-30081666D01*
X213419048Y-30081666D02*
X213419048Y-29843571D01*
X213419048Y-29843571D02*
X213466667Y-29653095D01*
X213466667Y-29653095D02*
X213514286Y-29557857D01*
X213514286Y-29557857D02*
X213561905Y-29510238D01*
X213561905Y-29510238D02*
X213657143Y-29462619D01*
X132061904Y-86510238D02*
X131966666Y-86462619D01*
X131966666Y-86462619D02*
X131823809Y-86462619D01*
X131823809Y-86462619D02*
X131680952Y-86510238D01*
X131680952Y-86510238D02*
X131585714Y-86605476D01*
X131585714Y-86605476D02*
X131538095Y-86700714D01*
X131538095Y-86700714D02*
X131490476Y-86891190D01*
X131490476Y-86891190D02*
X131490476Y-87034047D01*
X131490476Y-87034047D02*
X131538095Y-87224523D01*
X131538095Y-87224523D02*
X131585714Y-87319761D01*
X131585714Y-87319761D02*
X131680952Y-87415000D01*
X131680952Y-87415000D02*
X131823809Y-87462619D01*
X131823809Y-87462619D02*
X131919047Y-87462619D01*
X131919047Y-87462619D02*
X132061904Y-87415000D01*
X132061904Y-87415000D02*
X132109523Y-87367380D01*
X132109523Y-87367380D02*
X132109523Y-87034047D01*
X132109523Y-87034047D02*
X131919047Y-87034047D01*
X306761905Y-106138809D02*
X307095238Y-106138809D01*
X307238095Y-106662619D02*
X306761905Y-106662619D01*
X306761905Y-106662619D02*
X306761905Y-105662619D01*
X306761905Y-105662619D02*
X307238095Y-105662619D01*
X307666667Y-106662619D02*
X307666667Y-105662619D01*
X307666667Y-105662619D02*
X308238095Y-106662619D01*
X308238095Y-106662619D02*
X308238095Y-105662619D01*
X308714286Y-106662619D02*
X308714286Y-105662619D01*
X308714286Y-105662619D02*
X308952381Y-105662619D01*
X308952381Y-105662619D02*
X309095238Y-105710238D01*
X309095238Y-105710238D02*
X309190476Y-105805476D01*
X309190476Y-105805476D02*
X309238095Y-105900714D01*
X309238095Y-105900714D02*
X309285714Y-106091190D01*
X309285714Y-106091190D02*
X309285714Y-106234047D01*
X309285714Y-106234047D02*
X309238095Y-106424523D01*
X309238095Y-106424523D02*
X309190476Y-106519761D01*
X309190476Y-106519761D02*
X309095238Y-106615000D01*
X309095238Y-106615000D02*
X308952381Y-106662619D01*
X308952381Y-106662619D02*
X308714286Y-106662619D01*
X141433333Y-125615000D02*
X141576190Y-125662619D01*
X141576190Y-125662619D02*
X141814285Y-125662619D01*
X141814285Y-125662619D02*
X141909523Y-125615000D01*
X141909523Y-125615000D02*
X141957142Y-125567380D01*
X141957142Y-125567380D02*
X142004761Y-125472142D01*
X142004761Y-125472142D02*
X142004761Y-125376904D01*
X142004761Y-125376904D02*
X141957142Y-125281666D01*
X141957142Y-125281666D02*
X141909523Y-125234047D01*
X141909523Y-125234047D02*
X141814285Y-125186428D01*
X141814285Y-125186428D02*
X141623809Y-125138809D01*
X141623809Y-125138809D02*
X141528571Y-125091190D01*
X141528571Y-125091190D02*
X141480952Y-125043571D01*
X141480952Y-125043571D02*
X141433333Y-124948333D01*
X141433333Y-124948333D02*
X141433333Y-124853095D01*
X141433333Y-124853095D02*
X141480952Y-124757857D01*
X141480952Y-124757857D02*
X141528571Y-124710238D01*
X141528571Y-124710238D02*
X141623809Y-124662619D01*
X141623809Y-124662619D02*
X141861904Y-124662619D01*
X141861904Y-124662619D02*
X142004761Y-124710238D01*
X142433333Y-125662619D02*
X142433333Y-124662619D01*
X142433333Y-124662619D02*
X142814285Y-124662619D01*
X142814285Y-124662619D02*
X142909523Y-124710238D01*
X142909523Y-124710238D02*
X142957142Y-124757857D01*
X142957142Y-124757857D02*
X143004761Y-124853095D01*
X143004761Y-124853095D02*
X143004761Y-124995952D01*
X143004761Y-124995952D02*
X142957142Y-125091190D01*
X142957142Y-125091190D02*
X142909523Y-125138809D01*
X142909523Y-125138809D02*
X142814285Y-125186428D01*
X142814285Y-125186428D02*
X142433333Y-125186428D01*
X143385714Y-125376904D02*
X143861904Y-125376904D01*
X143290476Y-125662619D02*
X143623809Y-124662619D01*
X143623809Y-124662619D02*
X143957142Y-125662619D01*
X144861904Y-125567380D02*
X144814285Y-125615000D01*
X144814285Y-125615000D02*
X144671428Y-125662619D01*
X144671428Y-125662619D02*
X144576190Y-125662619D01*
X144576190Y-125662619D02*
X144433333Y-125615000D01*
X144433333Y-125615000D02*
X144338095Y-125519761D01*
X144338095Y-125519761D02*
X144290476Y-125424523D01*
X144290476Y-125424523D02*
X144242857Y-125234047D01*
X144242857Y-125234047D02*
X144242857Y-125091190D01*
X144242857Y-125091190D02*
X144290476Y-124900714D01*
X144290476Y-124900714D02*
X144338095Y-124805476D01*
X144338095Y-124805476D02*
X144433333Y-124710238D01*
X144433333Y-124710238D02*
X144576190Y-124662619D01*
X144576190Y-124662619D02*
X144671428Y-124662619D01*
X144671428Y-124662619D02*
X144814285Y-124710238D01*
X144814285Y-124710238D02*
X144861904Y-124757857D01*
X145290476Y-125138809D02*
X145623809Y-125138809D01*
X145766666Y-125662619D02*
X145290476Y-125662619D01*
X145290476Y-125662619D02*
X145290476Y-124662619D01*
X145290476Y-124662619D02*
X145766666Y-124662619D01*
X40866666Y-29938809D02*
X40533333Y-29938809D01*
X40533333Y-30462619D02*
X40533333Y-29462619D01*
X40533333Y-29462619D02*
X41009523Y-29462619D01*
X41914285Y-30462619D02*
X41342857Y-30462619D01*
X41628571Y-30462619D02*
X41628571Y-29462619D01*
X41628571Y-29462619D02*
X41533333Y-29605476D01*
X41533333Y-29605476D02*
X41438095Y-29700714D01*
X41438095Y-29700714D02*
X41342857Y-29748333D01*
X159914286Y-106662619D02*
X159914286Y-105662619D01*
X159914286Y-105662619D02*
X160485714Y-106662619D01*
X160485714Y-106662619D02*
X160485714Y-105662619D01*
X60114286Y-48557857D02*
X60161905Y-48510238D01*
X60161905Y-48510238D02*
X60257143Y-48462619D01*
X60257143Y-48462619D02*
X60495238Y-48462619D01*
X60495238Y-48462619D02*
X60590476Y-48510238D01*
X60590476Y-48510238D02*
X60638095Y-48557857D01*
X60638095Y-48557857D02*
X60685714Y-48653095D01*
X60685714Y-48653095D02*
X60685714Y-48748333D01*
X60685714Y-48748333D02*
X60638095Y-48891190D01*
X60638095Y-48891190D02*
X60066667Y-49462619D01*
X60066667Y-49462619D02*
X60685714Y-49462619D01*
X51180952Y-68557857D02*
X51085714Y-68510238D01*
X51085714Y-68510238D02*
X50990476Y-68415000D01*
X50990476Y-68415000D02*
X50847619Y-68272142D01*
X50847619Y-68272142D02*
X50752381Y-68224523D01*
X50752381Y-68224523D02*
X50657143Y-68224523D01*
X50704762Y-68462619D02*
X50609524Y-68415000D01*
X50609524Y-68415000D02*
X50514286Y-68319761D01*
X50514286Y-68319761D02*
X50466667Y-68129285D01*
X50466667Y-68129285D02*
X50466667Y-67795952D01*
X50466667Y-67795952D02*
X50514286Y-67605476D01*
X50514286Y-67605476D02*
X50609524Y-67510238D01*
X50609524Y-67510238D02*
X50704762Y-67462619D01*
X50704762Y-67462619D02*
X50895238Y-67462619D01*
X50895238Y-67462619D02*
X50990476Y-67510238D01*
X50990476Y-67510238D02*
X51085714Y-67605476D01*
X51085714Y-67605476D02*
X51133333Y-67795952D01*
X51133333Y-67795952D02*
X51133333Y-68129285D01*
X51133333Y-68129285D02*
X51085714Y-68319761D01*
X51085714Y-68319761D02*
X50990476Y-68415000D01*
X50990476Y-68415000D02*
X50895238Y-68462619D01*
X50895238Y-68462619D02*
X50704762Y-68462619D01*
X188738095Y-87462619D02*
X188738095Y-86462619D01*
X189309523Y-87462619D02*
X188880952Y-86891190D01*
X189309523Y-86462619D02*
X188738095Y-87034047D01*
X98590476Y-48795952D02*
X98590476Y-49462619D01*
X98352381Y-48415000D02*
X98114286Y-49129285D01*
X98114286Y-49129285D02*
X98733333Y-49129285D01*
X286595238Y-30462619D02*
X286595238Y-29462619D01*
X286595238Y-29462619D02*
X286833333Y-29462619D01*
X286833333Y-29462619D02*
X286976190Y-29510238D01*
X286976190Y-29510238D02*
X287071428Y-29605476D01*
X287071428Y-29605476D02*
X287119047Y-29700714D01*
X287119047Y-29700714D02*
X287166666Y-29891190D01*
X287166666Y-29891190D02*
X287166666Y-30034047D01*
X287166666Y-30034047D02*
X287119047Y-30224523D01*
X287119047Y-30224523D02*
X287071428Y-30319761D01*
X287071428Y-30319761D02*
X286976190Y-30415000D01*
X286976190Y-30415000D02*
X286833333Y-30462619D01*
X286833333Y-30462619D02*
X286595238Y-30462619D01*
X287595238Y-29938809D02*
X287928571Y-29938809D01*
X288071428Y-30462619D02*
X287595238Y-30462619D01*
X287595238Y-30462619D02*
X287595238Y-29462619D01*
X287595238Y-29462619D02*
X288071428Y-29462619D01*
X288976190Y-30462619D02*
X288500000Y-30462619D01*
X288500000Y-30462619D02*
X288500000Y-29462619D01*
X289309524Y-29938809D02*
X289642857Y-29938809D01*
X289785714Y-30462619D02*
X289309524Y-30462619D01*
X289309524Y-30462619D02*
X289309524Y-29462619D01*
X289309524Y-29462619D02*
X289785714Y-29462619D01*
X290071429Y-29462619D02*
X290642857Y-29462619D01*
X290357143Y-30462619D02*
X290357143Y-29462619D01*
X290976191Y-29938809D02*
X291309524Y-29938809D01*
X291452381Y-30462619D02*
X290976191Y-30462619D01*
X290976191Y-30462619D02*
X290976191Y-29462619D01*
X290976191Y-29462619D02*
X291452381Y-29462619D01*
X244699999Y-87557857D02*
X244604761Y-87510238D01*
X244604761Y-87510238D02*
X244509523Y-87415000D01*
X244509523Y-87415000D02*
X244366666Y-87272142D01*
X244366666Y-87272142D02*
X244271428Y-87224523D01*
X244271428Y-87224523D02*
X244176190Y-87224523D01*
X244223809Y-87462619D02*
X244128571Y-87415000D01*
X244128571Y-87415000D02*
X244033333Y-87319761D01*
X244033333Y-87319761D02*
X243985714Y-87129285D01*
X243985714Y-87129285D02*
X243985714Y-86795952D01*
X243985714Y-86795952D02*
X244033333Y-86605476D01*
X244033333Y-86605476D02*
X244128571Y-86510238D01*
X244128571Y-86510238D02*
X244223809Y-86462619D01*
X244223809Y-86462619D02*
X244414285Y-86462619D01*
X244414285Y-86462619D02*
X244509523Y-86510238D01*
X244509523Y-86510238D02*
X244604761Y-86605476D01*
X244604761Y-86605476D02*
X244652380Y-86795952D01*
X244652380Y-86795952D02*
X244652380Y-87129285D01*
X244652380Y-87129285D02*
X244604761Y-87319761D01*
X244604761Y-87319761D02*
X244509523Y-87415000D01*
X244509523Y-87415000D02*
X244414285Y-87462619D01*
X244414285Y-87462619D02*
X244223809Y-87462619D01*
X245080952Y-86462619D02*
X245080952Y-87272142D01*
X245080952Y-87272142D02*
X245128571Y-87367380D01*
X245128571Y-87367380D02*
X245176190Y-87415000D01*
X245176190Y-87415000D02*
X245271428Y-87462619D01*
X245271428Y-87462619D02*
X245461904Y-87462619D01*
X245461904Y-87462619D02*
X245557142Y-87415000D01*
X245557142Y-87415000D02*
X245604761Y-87367380D01*
X245604761Y-87367380D02*
X245652380Y-87272142D01*
X245652380Y-87272142D02*
X245652380Y-86462619D01*
X246319047Y-86462619D02*
X246509523Y-86462619D01*
X246509523Y-86462619D02*
X246604761Y-86510238D01*
X246604761Y-86510238D02*
X246699999Y-86605476D01*
X246699999Y-86605476D02*
X246747618Y-86795952D01*
X246747618Y-86795952D02*
X246747618Y-87129285D01*
X246747618Y-87129285D02*
X246699999Y-87319761D01*
X246699999Y-87319761D02*
X246604761Y-87415000D01*
X246604761Y-87415000D02*
X246509523Y-87462619D01*
X246509523Y-87462619D02*
X246319047Y-87462619D01*
X246319047Y-87462619D02*
X246223809Y-87415000D01*
X246223809Y-87415000D02*
X246128571Y-87319761D01*
X246128571Y-87319761D02*
X246080952Y-87129285D01*
X246080952Y-87129285D02*
X246080952Y-86795952D01*
X246080952Y-86795952D02*
X246128571Y-86605476D01*
X246128571Y-86605476D02*
X246223809Y-86510238D01*
X246223809Y-86510238D02*
X246319047Y-86462619D01*
X247033333Y-86462619D02*
X247604761Y-86462619D01*
X247319047Y-87462619D02*
X247319047Y-86462619D01*
X247938095Y-86938809D02*
X248271428Y-86938809D01*
X248414285Y-87462619D02*
X247938095Y-87462619D01*
X247938095Y-87462619D02*
X247938095Y-86462619D01*
X247938095Y-86462619D02*
X248414285Y-86462619D01*
X155266666Y-29938809D02*
X154933333Y-29938809D01*
X154933333Y-30462619D02*
X154933333Y-29462619D01*
X154933333Y-29462619D02*
X155409523Y-29462619D01*
X155695238Y-29462619D02*
X156361904Y-29462619D01*
X156361904Y-29462619D02*
X155933333Y-30462619D01*
X305333333Y-68462619D02*
X305333333Y-67462619D01*
X305333333Y-67462619D02*
X305714285Y-67462619D01*
X305714285Y-67462619D02*
X305809523Y-67510238D01*
X305809523Y-67510238D02*
X305857142Y-67557857D01*
X305857142Y-67557857D02*
X305904761Y-67653095D01*
X305904761Y-67653095D02*
X305904761Y-67795952D01*
X305904761Y-67795952D02*
X305857142Y-67891190D01*
X305857142Y-67891190D02*
X305809523Y-67938809D01*
X305809523Y-67938809D02*
X305714285Y-67986428D01*
X305714285Y-67986428D02*
X305333333Y-67986428D01*
X306285714Y-68176904D02*
X306761904Y-68176904D01*
X306190476Y-68462619D02*
X306523809Y-67462619D01*
X306523809Y-67462619D02*
X306857142Y-68462619D01*
X307714285Y-67510238D02*
X307619047Y-67462619D01*
X307619047Y-67462619D02*
X307476190Y-67462619D01*
X307476190Y-67462619D02*
X307333333Y-67510238D01*
X307333333Y-67510238D02*
X307238095Y-67605476D01*
X307238095Y-67605476D02*
X307190476Y-67700714D01*
X307190476Y-67700714D02*
X307142857Y-67891190D01*
X307142857Y-67891190D02*
X307142857Y-68034047D01*
X307142857Y-68034047D02*
X307190476Y-68224523D01*
X307190476Y-68224523D02*
X307238095Y-68319761D01*
X307238095Y-68319761D02*
X307333333Y-68415000D01*
X307333333Y-68415000D02*
X307476190Y-68462619D01*
X307476190Y-68462619D02*
X307571428Y-68462619D01*
X307571428Y-68462619D02*
X307714285Y-68415000D01*
X307714285Y-68415000D02*
X307761904Y-68367380D01*
X307761904Y-68367380D02*
X307761904Y-68034047D01*
X307761904Y-68034047D02*
X307571428Y-68034047D01*
X308190476Y-67938809D02*
X308523809Y-67938809D01*
X308666666Y-68462619D02*
X308190476Y-68462619D01*
X308190476Y-68462619D02*
X308190476Y-67462619D01*
X308190476Y-67462619D02*
X308666666Y-67462619D01*
X309095238Y-67462619D02*
X309095238Y-68272142D01*
X309095238Y-68272142D02*
X309142857Y-68367380D01*
X309142857Y-68367380D02*
X309190476Y-68415000D01*
X309190476Y-68415000D02*
X309285714Y-68462619D01*
X309285714Y-68462619D02*
X309476190Y-68462619D01*
X309476190Y-68462619D02*
X309571428Y-68415000D01*
X309571428Y-68415000D02*
X309619047Y-68367380D01*
X309619047Y-68367380D02*
X309666666Y-68272142D01*
X309666666Y-68272142D02*
X309666666Y-67462619D01*
X310142857Y-68462619D02*
X310142857Y-67462619D01*
X310142857Y-67462619D02*
X310523809Y-67462619D01*
X310523809Y-67462619D02*
X310619047Y-67510238D01*
X310619047Y-67510238D02*
X310666666Y-67557857D01*
X310666666Y-67557857D02*
X310714285Y-67653095D01*
X310714285Y-67653095D02*
X310714285Y-67795952D01*
X310714285Y-67795952D02*
X310666666Y-67891190D01*
X310666666Y-67891190D02*
X310619047Y-67938809D01*
X310619047Y-67938809D02*
X310523809Y-67986428D01*
X310523809Y-67986428D02*
X310142857Y-67986428D01*
X117266666Y-29938809D02*
X116933333Y-29938809D01*
X116933333Y-30462619D02*
X116933333Y-29462619D01*
X116933333Y-29462619D02*
X117409523Y-29462619D01*
X118266666Y-29462619D02*
X117790476Y-29462619D01*
X117790476Y-29462619D02*
X117742857Y-29938809D01*
X117742857Y-29938809D02*
X117790476Y-29891190D01*
X117790476Y-29891190D02*
X117885714Y-29843571D01*
X117885714Y-29843571D02*
X118123809Y-29843571D01*
X118123809Y-29843571D02*
X118219047Y-29891190D01*
X118219047Y-29891190D02*
X118266666Y-29938809D01*
X118266666Y-29938809D02*
X118314285Y-30034047D01*
X118314285Y-30034047D02*
X118314285Y-30272142D01*
X118314285Y-30272142D02*
X118266666Y-30367380D01*
X118266666Y-30367380D02*
X118219047Y-30415000D01*
X118219047Y-30415000D02*
X118123809Y-30462619D01*
X118123809Y-30462619D02*
X117885714Y-30462619D01*
X117885714Y-30462619D02*
X117790476Y-30415000D01*
X117790476Y-30415000D02*
X117742857Y-30367380D01*
X141271428Y-106138809D02*
X141414285Y-106186428D01*
X141414285Y-106186428D02*
X141461904Y-106234047D01*
X141461904Y-106234047D02*
X141509523Y-106329285D01*
X141509523Y-106329285D02*
X141509523Y-106472142D01*
X141509523Y-106472142D02*
X141461904Y-106567380D01*
X141461904Y-106567380D02*
X141414285Y-106615000D01*
X141414285Y-106615000D02*
X141319047Y-106662619D01*
X141319047Y-106662619D02*
X140938095Y-106662619D01*
X140938095Y-106662619D02*
X140938095Y-105662619D01*
X140938095Y-105662619D02*
X141271428Y-105662619D01*
X141271428Y-105662619D02*
X141366666Y-105710238D01*
X141366666Y-105710238D02*
X141414285Y-105757857D01*
X141414285Y-105757857D02*
X141461904Y-105853095D01*
X141461904Y-105853095D02*
X141461904Y-105948333D01*
X141461904Y-105948333D02*
X141414285Y-106043571D01*
X141414285Y-106043571D02*
X141366666Y-106091190D01*
X141366666Y-106091190D02*
X141271428Y-106138809D01*
X141271428Y-106138809D02*
X140938095Y-106138809D01*
X108309523Y-68462619D02*
X107976190Y-67986428D01*
X107738095Y-68462619D02*
X107738095Y-67462619D01*
X107738095Y-67462619D02*
X108119047Y-67462619D01*
X108119047Y-67462619D02*
X108214285Y-67510238D01*
X108214285Y-67510238D02*
X108261904Y-67557857D01*
X108261904Y-67557857D02*
X108309523Y-67653095D01*
X108309523Y-67653095D02*
X108309523Y-67795952D01*
X108309523Y-67795952D02*
X108261904Y-67891190D01*
X108261904Y-67891190D02*
X108214285Y-67938809D01*
X108214285Y-67938809D02*
X108119047Y-67986428D01*
X108119047Y-67986428D02*
X107738095Y-67986428D01*
X275485714Y-48938809D02*
X275628571Y-48986428D01*
X275628571Y-48986428D02*
X275676190Y-49034047D01*
X275676190Y-49034047D02*
X275723809Y-49129285D01*
X275723809Y-49129285D02*
X275723809Y-49272142D01*
X275723809Y-49272142D02*
X275676190Y-49367380D01*
X275676190Y-49367380D02*
X275628571Y-49415000D01*
X275628571Y-49415000D02*
X275533333Y-49462619D01*
X275533333Y-49462619D02*
X275152381Y-49462619D01*
X275152381Y-49462619D02*
X275152381Y-48462619D01*
X275152381Y-48462619D02*
X275485714Y-48462619D01*
X275485714Y-48462619D02*
X275580952Y-48510238D01*
X275580952Y-48510238D02*
X275628571Y-48557857D01*
X275628571Y-48557857D02*
X275676190Y-48653095D01*
X275676190Y-48653095D02*
X275676190Y-48748333D01*
X275676190Y-48748333D02*
X275628571Y-48843571D01*
X275628571Y-48843571D02*
X275580952Y-48891190D01*
X275580952Y-48891190D02*
X275485714Y-48938809D01*
X275485714Y-48938809D02*
X275152381Y-48938809D01*
X276104762Y-49176904D02*
X276580952Y-49176904D01*
X276009524Y-49462619D02*
X276342857Y-48462619D01*
X276342857Y-48462619D02*
X276676190Y-49462619D01*
X277580952Y-49367380D02*
X277533333Y-49415000D01*
X277533333Y-49415000D02*
X277390476Y-49462619D01*
X277390476Y-49462619D02*
X277295238Y-49462619D01*
X277295238Y-49462619D02*
X277152381Y-49415000D01*
X277152381Y-49415000D02*
X277057143Y-49319761D01*
X277057143Y-49319761D02*
X277009524Y-49224523D01*
X277009524Y-49224523D02*
X276961905Y-49034047D01*
X276961905Y-49034047D02*
X276961905Y-48891190D01*
X276961905Y-48891190D02*
X277009524Y-48700714D01*
X277009524Y-48700714D02*
X277057143Y-48605476D01*
X277057143Y-48605476D02*
X277152381Y-48510238D01*
X277152381Y-48510238D02*
X277295238Y-48462619D01*
X277295238Y-48462619D02*
X277390476Y-48462619D01*
X277390476Y-48462619D02*
X277533333Y-48510238D01*
X277533333Y-48510238D02*
X277580952Y-48557857D01*
X278009524Y-49462619D02*
X278009524Y-48462619D01*
X278580952Y-49462619D02*
X278152381Y-48891190D01*
X278580952Y-48462619D02*
X278009524Y-49034047D01*
X278961905Y-49415000D02*
X279104762Y-49462619D01*
X279104762Y-49462619D02*
X279342857Y-49462619D01*
X279342857Y-49462619D02*
X279438095Y-49415000D01*
X279438095Y-49415000D02*
X279485714Y-49367380D01*
X279485714Y-49367380D02*
X279533333Y-49272142D01*
X279533333Y-49272142D02*
X279533333Y-49176904D01*
X279533333Y-49176904D02*
X279485714Y-49081666D01*
X279485714Y-49081666D02*
X279438095Y-49034047D01*
X279438095Y-49034047D02*
X279342857Y-48986428D01*
X279342857Y-48986428D02*
X279152381Y-48938809D01*
X279152381Y-48938809D02*
X279057143Y-48891190D01*
X279057143Y-48891190D02*
X279009524Y-48843571D01*
X279009524Y-48843571D02*
X278961905Y-48748333D01*
X278961905Y-48748333D02*
X278961905Y-48653095D01*
X278961905Y-48653095D02*
X279009524Y-48557857D01*
X279009524Y-48557857D02*
X279057143Y-48510238D01*
X279057143Y-48510238D02*
X279152381Y-48462619D01*
X279152381Y-48462619D02*
X279390476Y-48462619D01*
X279390476Y-48462619D02*
X279533333Y-48510238D01*
X279961905Y-49462619D02*
X279961905Y-48462619D01*
X279961905Y-48462619D02*
X280342857Y-48462619D01*
X280342857Y-48462619D02*
X280438095Y-48510238D01*
X280438095Y-48510238D02*
X280485714Y-48557857D01*
X280485714Y-48557857D02*
X280533333Y-48653095D01*
X280533333Y-48653095D02*
X280533333Y-48795952D01*
X280533333Y-48795952D02*
X280485714Y-48891190D01*
X280485714Y-48891190D02*
X280438095Y-48938809D01*
X280438095Y-48938809D02*
X280342857Y-48986428D01*
X280342857Y-48986428D02*
X279961905Y-48986428D01*
X280914286Y-49176904D02*
X281390476Y-49176904D01*
X280819048Y-49462619D02*
X281152381Y-48462619D01*
X281152381Y-48462619D02*
X281485714Y-49462619D01*
X282390476Y-49367380D02*
X282342857Y-49415000D01*
X282342857Y-49415000D02*
X282200000Y-49462619D01*
X282200000Y-49462619D02*
X282104762Y-49462619D01*
X282104762Y-49462619D02*
X281961905Y-49415000D01*
X281961905Y-49415000D02*
X281866667Y-49319761D01*
X281866667Y-49319761D02*
X281819048Y-49224523D01*
X281819048Y-49224523D02*
X281771429Y-49034047D01*
X281771429Y-49034047D02*
X281771429Y-48891190D01*
X281771429Y-48891190D02*
X281819048Y-48700714D01*
X281819048Y-48700714D02*
X281866667Y-48605476D01*
X281866667Y-48605476D02*
X281961905Y-48510238D01*
X281961905Y-48510238D02*
X282104762Y-48462619D01*
X282104762Y-48462619D02*
X282200000Y-48462619D01*
X282200000Y-48462619D02*
X282342857Y-48510238D01*
X282342857Y-48510238D02*
X282390476Y-48557857D01*
X282819048Y-48938809D02*
X283152381Y-48938809D01*
X283295238Y-49462619D02*
X282819048Y-49462619D01*
X282819048Y-49462619D02*
X282819048Y-48462619D01*
X282819048Y-48462619D02*
X283295238Y-48462619D01*
X117638095Y-48462619D02*
X117161905Y-48462619D01*
X117161905Y-48462619D02*
X117114286Y-48938809D01*
X117114286Y-48938809D02*
X117161905Y-48891190D01*
X117161905Y-48891190D02*
X117257143Y-48843571D01*
X117257143Y-48843571D02*
X117495238Y-48843571D01*
X117495238Y-48843571D02*
X117590476Y-48891190D01*
X117590476Y-48891190D02*
X117638095Y-48938809D01*
X117638095Y-48938809D02*
X117685714Y-49034047D01*
X117685714Y-49034047D02*
X117685714Y-49272142D01*
X117685714Y-49272142D02*
X117638095Y-49367380D01*
X117638095Y-49367380D02*
X117590476Y-49415000D01*
X117590476Y-49415000D02*
X117495238Y-49462619D01*
X117495238Y-49462619D02*
X117257143Y-49462619D01*
X117257143Y-49462619D02*
X117161905Y-49415000D01*
X117161905Y-49415000D02*
X117114286Y-49367380D01*
X193266666Y-29938809D02*
X192933333Y-29938809D01*
X192933333Y-30462619D02*
X192933333Y-29462619D01*
X192933333Y-29462619D02*
X193409523Y-29462619D01*
X193838095Y-30462619D02*
X194028571Y-30462619D01*
X194028571Y-30462619D02*
X194123809Y-30415000D01*
X194123809Y-30415000D02*
X194171428Y-30367380D01*
X194171428Y-30367380D02*
X194266666Y-30224523D01*
X194266666Y-30224523D02*
X194314285Y-30034047D01*
X194314285Y-30034047D02*
X194314285Y-29653095D01*
X194314285Y-29653095D02*
X194266666Y-29557857D01*
X194266666Y-29557857D02*
X194219047Y-29510238D01*
X194219047Y-29510238D02*
X194123809Y-29462619D01*
X194123809Y-29462619D02*
X193933333Y-29462619D01*
X193933333Y-29462619D02*
X193838095Y-29510238D01*
X193838095Y-29510238D02*
X193790476Y-29557857D01*
X193790476Y-29557857D02*
X193742857Y-29653095D01*
X193742857Y-29653095D02*
X193742857Y-29891190D01*
X193742857Y-29891190D02*
X193790476Y-29986428D01*
X193790476Y-29986428D02*
X193838095Y-30034047D01*
X193838095Y-30034047D02*
X193933333Y-30081666D01*
X193933333Y-30081666D02*
X194123809Y-30081666D01*
X194123809Y-30081666D02*
X194219047Y-30034047D01*
X194219047Y-30034047D02*
X194266666Y-29986428D01*
X194266666Y-29986428D02*
X194314285Y-29891190D01*
X268847618Y-125862619D02*
X268371428Y-125862619D01*
X268371428Y-125862619D02*
X268371428Y-124862619D01*
X269180952Y-125338809D02*
X269514285Y-125338809D01*
X269657142Y-125862619D02*
X269180952Y-125862619D01*
X269180952Y-125862619D02*
X269180952Y-124862619D01*
X269180952Y-124862619D02*
X269657142Y-124862619D01*
X270419047Y-125338809D02*
X270085714Y-125338809D01*
X270085714Y-125862619D02*
X270085714Y-124862619D01*
X270085714Y-124862619D02*
X270561904Y-124862619D01*
X270800000Y-124862619D02*
X271371428Y-124862619D01*
X271085714Y-125862619D02*
X271085714Y-124862619D01*
X150514286Y-87462619D02*
X150514286Y-86462619D01*
X150514286Y-86938809D02*
X151085714Y-86938809D01*
X151085714Y-87462619D02*
X151085714Y-86462619D01*
X230990476Y-29938809D02*
X230657143Y-29938809D01*
X230657143Y-30462619D02*
X230657143Y-29462619D01*
X230657143Y-29462619D02*
X231133333Y-29462619D01*
X232038095Y-30462619D02*
X231466667Y-30462619D01*
X231752381Y-30462619D02*
X231752381Y-29462619D01*
X231752381Y-29462619D02*
X231657143Y-29605476D01*
X231657143Y-29605476D02*
X231561905Y-29700714D01*
X231561905Y-29700714D02*
X231466667Y-29748333D01*
X232990476Y-30462619D02*
X232419048Y-30462619D01*
X232704762Y-30462619D02*
X232704762Y-29462619D01*
X232704762Y-29462619D02*
X232609524Y-29605476D01*
X232609524Y-29605476D02*
X232514286Y-29700714D01*
X232514286Y-29700714D02*
X232419048Y-29748333D01*
X286919048Y-125662619D02*
X286919048Y-124662619D01*
X286919048Y-124662619D02*
X287157143Y-124662619D01*
X287157143Y-124662619D02*
X287300000Y-124710238D01*
X287300000Y-124710238D02*
X287395238Y-124805476D01*
X287395238Y-124805476D02*
X287442857Y-124900714D01*
X287442857Y-124900714D02*
X287490476Y-125091190D01*
X287490476Y-125091190D02*
X287490476Y-125234047D01*
X287490476Y-125234047D02*
X287442857Y-125424523D01*
X287442857Y-125424523D02*
X287395238Y-125519761D01*
X287395238Y-125519761D02*
X287300000Y-125615000D01*
X287300000Y-125615000D02*
X287157143Y-125662619D01*
X287157143Y-125662619D02*
X286919048Y-125662619D01*
X288109524Y-124662619D02*
X288300000Y-124662619D01*
X288300000Y-124662619D02*
X288395238Y-124710238D01*
X288395238Y-124710238D02*
X288490476Y-124805476D01*
X288490476Y-124805476D02*
X288538095Y-124995952D01*
X288538095Y-124995952D02*
X288538095Y-125329285D01*
X288538095Y-125329285D02*
X288490476Y-125519761D01*
X288490476Y-125519761D02*
X288395238Y-125615000D01*
X288395238Y-125615000D02*
X288300000Y-125662619D01*
X288300000Y-125662619D02*
X288109524Y-125662619D01*
X288109524Y-125662619D02*
X288014286Y-125615000D01*
X288014286Y-125615000D02*
X287919048Y-125519761D01*
X287919048Y-125519761D02*
X287871429Y-125329285D01*
X287871429Y-125329285D02*
X287871429Y-124995952D01*
X287871429Y-124995952D02*
X287919048Y-124805476D01*
X287919048Y-124805476D02*
X288014286Y-124710238D01*
X288014286Y-124710238D02*
X288109524Y-124662619D01*
X288871429Y-124662619D02*
X289109524Y-125662619D01*
X289109524Y-125662619D02*
X289300000Y-124948333D01*
X289300000Y-124948333D02*
X289490476Y-125662619D01*
X289490476Y-125662619D02*
X289728572Y-124662619D01*
X290109524Y-125662619D02*
X290109524Y-124662619D01*
X290109524Y-124662619D02*
X290680952Y-125662619D01*
X290680952Y-125662619D02*
X290680952Y-124662619D01*
X47209524Y-124662619D02*
X47447619Y-125662619D01*
X47447619Y-125662619D02*
X47638095Y-124948333D01*
X47638095Y-124948333D02*
X47828571Y-125662619D01*
X47828571Y-125662619D02*
X48066667Y-124662619D01*
X48447619Y-125662619D02*
X48447619Y-124662619D01*
X48923809Y-125662619D02*
X48923809Y-124662619D01*
X48923809Y-124662619D02*
X49495237Y-125662619D01*
X49495237Y-125662619D02*
X49495237Y-124662619D01*
X41485714Y-49462619D02*
X40914286Y-49462619D01*
X41200000Y-49462619D02*
X41200000Y-48462619D01*
X41200000Y-48462619D02*
X41104762Y-48605476D01*
X41104762Y-48605476D02*
X41009524Y-48700714D01*
X41009524Y-48700714D02*
X40914286Y-48748333D01*
X69371429Y-67462619D02*
X69609524Y-68462619D01*
X69609524Y-68462619D02*
X69800000Y-67748333D01*
X69800000Y-67748333D02*
X69990476Y-68462619D01*
X69990476Y-68462619D02*
X70228572Y-67462619D01*
X304238095Y-87662619D02*
X304238095Y-86662619D01*
X304238095Y-86662619D02*
X304619047Y-86662619D01*
X304619047Y-86662619D02*
X304714285Y-86710238D01*
X304714285Y-86710238D02*
X304761904Y-86757857D01*
X304761904Y-86757857D02*
X304809523Y-86853095D01*
X304809523Y-86853095D02*
X304809523Y-86995952D01*
X304809523Y-86995952D02*
X304761904Y-87091190D01*
X304761904Y-87091190D02*
X304714285Y-87138809D01*
X304714285Y-87138809D02*
X304619047Y-87186428D01*
X304619047Y-87186428D02*
X304238095Y-87186428D01*
X305190476Y-87376904D02*
X305666666Y-87376904D01*
X305095238Y-87662619D02*
X305428571Y-86662619D01*
X305428571Y-86662619D02*
X305761904Y-87662619D01*
X306619047Y-86710238D02*
X306523809Y-86662619D01*
X306523809Y-86662619D02*
X306380952Y-86662619D01*
X306380952Y-86662619D02*
X306238095Y-86710238D01*
X306238095Y-86710238D02*
X306142857Y-86805476D01*
X306142857Y-86805476D02*
X306095238Y-86900714D01*
X306095238Y-86900714D02*
X306047619Y-87091190D01*
X306047619Y-87091190D02*
X306047619Y-87234047D01*
X306047619Y-87234047D02*
X306095238Y-87424523D01*
X306095238Y-87424523D02*
X306142857Y-87519761D01*
X306142857Y-87519761D02*
X306238095Y-87615000D01*
X306238095Y-87615000D02*
X306380952Y-87662619D01*
X306380952Y-87662619D02*
X306476190Y-87662619D01*
X306476190Y-87662619D02*
X306619047Y-87615000D01*
X306619047Y-87615000D02*
X306666666Y-87567380D01*
X306666666Y-87567380D02*
X306666666Y-87234047D01*
X306666666Y-87234047D02*
X306476190Y-87234047D01*
X307095238Y-87138809D02*
X307428571Y-87138809D01*
X307571428Y-87662619D02*
X307095238Y-87662619D01*
X307095238Y-87662619D02*
X307095238Y-86662619D01*
X307095238Y-86662619D02*
X307571428Y-86662619D01*
X308000000Y-87662619D02*
X308000000Y-86662619D01*
X308000000Y-86662619D02*
X308238095Y-86662619D01*
X308238095Y-86662619D02*
X308380952Y-86710238D01*
X308380952Y-86710238D02*
X308476190Y-86805476D01*
X308476190Y-86805476D02*
X308523809Y-86900714D01*
X308523809Y-86900714D02*
X308571428Y-87091190D01*
X308571428Y-87091190D02*
X308571428Y-87234047D01*
X308571428Y-87234047D02*
X308523809Y-87424523D01*
X308523809Y-87424523D02*
X308476190Y-87519761D01*
X308476190Y-87519761D02*
X308380952Y-87615000D01*
X308380952Y-87615000D02*
X308238095Y-87662619D01*
X308238095Y-87662619D02*
X308000000Y-87662619D01*
X309190476Y-86662619D02*
X309380952Y-86662619D01*
X309380952Y-86662619D02*
X309476190Y-86710238D01*
X309476190Y-86710238D02*
X309571428Y-86805476D01*
X309571428Y-86805476D02*
X309619047Y-86995952D01*
X309619047Y-86995952D02*
X309619047Y-87329285D01*
X309619047Y-87329285D02*
X309571428Y-87519761D01*
X309571428Y-87519761D02*
X309476190Y-87615000D01*
X309476190Y-87615000D02*
X309380952Y-87662619D01*
X309380952Y-87662619D02*
X309190476Y-87662619D01*
X309190476Y-87662619D02*
X309095238Y-87615000D01*
X309095238Y-87615000D02*
X309000000Y-87519761D01*
X309000000Y-87519761D02*
X308952381Y-87329285D01*
X308952381Y-87329285D02*
X308952381Y-86995952D01*
X308952381Y-86995952D02*
X309000000Y-86805476D01*
X309000000Y-86805476D02*
X309095238Y-86710238D01*
X309095238Y-86710238D02*
X309190476Y-86662619D01*
X309952381Y-86662619D02*
X310190476Y-87662619D01*
X310190476Y-87662619D02*
X310380952Y-86948333D01*
X310380952Y-86948333D02*
X310571428Y-87662619D01*
X310571428Y-87662619D02*
X310809524Y-86662619D01*
X311190476Y-87662619D02*
X311190476Y-86662619D01*
X311190476Y-86662619D02*
X311761904Y-87662619D01*
X311761904Y-87662619D02*
X311761904Y-86662619D01*
X25785714Y-67462619D02*
X26357142Y-67462619D01*
X26071428Y-68462619D02*
X26071428Y-67462619D01*
X26642857Y-68176904D02*
X27119047Y-68176904D01*
X26547619Y-68462619D02*
X26880952Y-67462619D01*
X26880952Y-67462619D02*
X27214285Y-68462619D01*
X27880952Y-67938809D02*
X28023809Y-67986428D01*
X28023809Y-67986428D02*
X28071428Y-68034047D01*
X28071428Y-68034047D02*
X28119047Y-68129285D01*
X28119047Y-68129285D02*
X28119047Y-68272142D01*
X28119047Y-68272142D02*
X28071428Y-68367380D01*
X28071428Y-68367380D02*
X28023809Y-68415000D01*
X28023809Y-68415000D02*
X27928571Y-68462619D01*
X27928571Y-68462619D02*
X27547619Y-68462619D01*
X27547619Y-68462619D02*
X27547619Y-67462619D01*
X27547619Y-67462619D02*
X27880952Y-67462619D01*
X27880952Y-67462619D02*
X27976190Y-67510238D01*
X27976190Y-67510238D02*
X28023809Y-67557857D01*
X28023809Y-67557857D02*
X28071428Y-67653095D01*
X28071428Y-67653095D02*
X28071428Y-67748333D01*
X28071428Y-67748333D02*
X28023809Y-67843571D01*
X28023809Y-67843571D02*
X27976190Y-67891190D01*
X27976190Y-67891190D02*
X27880952Y-67938809D01*
X27880952Y-67938809D02*
X27547619Y-67938809D01*
X306666666Y-125662619D02*
X306333333Y-125186428D01*
X306095238Y-125662619D02*
X306095238Y-124662619D01*
X306095238Y-124662619D02*
X306476190Y-124662619D01*
X306476190Y-124662619D02*
X306571428Y-124710238D01*
X306571428Y-124710238D02*
X306619047Y-124757857D01*
X306619047Y-124757857D02*
X306666666Y-124853095D01*
X306666666Y-124853095D02*
X306666666Y-124995952D01*
X306666666Y-124995952D02*
X306619047Y-125091190D01*
X306619047Y-125091190D02*
X306571428Y-125138809D01*
X306571428Y-125138809D02*
X306476190Y-125186428D01*
X306476190Y-125186428D02*
X306095238Y-125186428D01*
X307095238Y-125662619D02*
X307095238Y-124662619D01*
X308095237Y-124710238D02*
X307999999Y-124662619D01*
X307999999Y-124662619D02*
X307857142Y-124662619D01*
X307857142Y-124662619D02*
X307714285Y-124710238D01*
X307714285Y-124710238D02*
X307619047Y-124805476D01*
X307619047Y-124805476D02*
X307571428Y-124900714D01*
X307571428Y-124900714D02*
X307523809Y-125091190D01*
X307523809Y-125091190D02*
X307523809Y-125234047D01*
X307523809Y-125234047D02*
X307571428Y-125424523D01*
X307571428Y-125424523D02*
X307619047Y-125519761D01*
X307619047Y-125519761D02*
X307714285Y-125615000D01*
X307714285Y-125615000D02*
X307857142Y-125662619D01*
X307857142Y-125662619D02*
X307952380Y-125662619D01*
X307952380Y-125662619D02*
X308095237Y-125615000D01*
X308095237Y-125615000D02*
X308142856Y-125567380D01*
X308142856Y-125567380D02*
X308142856Y-125234047D01*
X308142856Y-125234047D02*
X307952380Y-125234047D01*
X308571428Y-125662619D02*
X308571428Y-124662619D01*
X308571428Y-125138809D02*
X309142856Y-125138809D01*
X309142856Y-125662619D02*
X309142856Y-124662619D01*
X309476190Y-124662619D02*
X310047618Y-124662619D01*
X309761904Y-125662619D02*
X309761904Y-124662619D01*
X196614285Y-106567380D02*
X196566666Y-106615000D01*
X196566666Y-106615000D02*
X196423809Y-106662619D01*
X196423809Y-106662619D02*
X196328571Y-106662619D01*
X196328571Y-106662619D02*
X196185714Y-106615000D01*
X196185714Y-106615000D02*
X196090476Y-106519761D01*
X196090476Y-106519761D02*
X196042857Y-106424523D01*
X196042857Y-106424523D02*
X195995238Y-106234047D01*
X195995238Y-106234047D02*
X195995238Y-106091190D01*
X195995238Y-106091190D02*
X196042857Y-105900714D01*
X196042857Y-105900714D02*
X196090476Y-105805476D01*
X196090476Y-105805476D02*
X196185714Y-105710238D01*
X196185714Y-105710238D02*
X196328571Y-105662619D01*
X196328571Y-105662619D02*
X196423809Y-105662619D01*
X196423809Y-105662619D02*
X196566666Y-105710238D01*
X196566666Y-105710238D02*
X196614285Y-105757857D01*
X197233333Y-105662619D02*
X197423809Y-105662619D01*
X197423809Y-105662619D02*
X197519047Y-105710238D01*
X197519047Y-105710238D02*
X197614285Y-105805476D01*
X197614285Y-105805476D02*
X197661904Y-105995952D01*
X197661904Y-105995952D02*
X197661904Y-106329285D01*
X197661904Y-106329285D02*
X197614285Y-106519761D01*
X197614285Y-106519761D02*
X197519047Y-106615000D01*
X197519047Y-106615000D02*
X197423809Y-106662619D01*
X197423809Y-106662619D02*
X197233333Y-106662619D01*
X197233333Y-106662619D02*
X197138095Y-106615000D01*
X197138095Y-106615000D02*
X197042857Y-106519761D01*
X197042857Y-106519761D02*
X196995238Y-106329285D01*
X196995238Y-106329285D02*
X196995238Y-105995952D01*
X196995238Y-105995952D02*
X197042857Y-105805476D01*
X197042857Y-105805476D02*
X197138095Y-105710238D01*
X197138095Y-105710238D02*
X197233333Y-105662619D01*
X198090476Y-106662619D02*
X198090476Y-105662619D01*
X198090476Y-105662619D02*
X198423809Y-106376904D01*
X198423809Y-106376904D02*
X198757142Y-105662619D01*
X198757142Y-105662619D02*
X198757142Y-106662619D01*
X199233333Y-106662619D02*
X199233333Y-105662619D01*
X199233333Y-105662619D02*
X199566666Y-106376904D01*
X199566666Y-106376904D02*
X199899999Y-105662619D01*
X199899999Y-105662619D02*
X199899999Y-106662619D01*
X200328571Y-106376904D02*
X200804761Y-106376904D01*
X200233333Y-106662619D02*
X200566666Y-105662619D01*
X200566666Y-105662619D02*
X200899999Y-106662619D01*
X23323809Y-125662619D02*
X22847619Y-125662619D01*
X22847619Y-125662619D02*
X22847619Y-124662619D01*
X24228571Y-125567380D02*
X24180952Y-125615000D01*
X24180952Y-125615000D02*
X24038095Y-125662619D01*
X24038095Y-125662619D02*
X23942857Y-125662619D01*
X23942857Y-125662619D02*
X23800000Y-125615000D01*
X23800000Y-125615000D02*
X23704762Y-125519761D01*
X23704762Y-125519761D02*
X23657143Y-125424523D01*
X23657143Y-125424523D02*
X23609524Y-125234047D01*
X23609524Y-125234047D02*
X23609524Y-125091190D01*
X23609524Y-125091190D02*
X23657143Y-124900714D01*
X23657143Y-124900714D02*
X23704762Y-124805476D01*
X23704762Y-124805476D02*
X23800000Y-124710238D01*
X23800000Y-124710238D02*
X23942857Y-124662619D01*
X23942857Y-124662619D02*
X24038095Y-124662619D01*
X24038095Y-124662619D02*
X24180952Y-124710238D01*
X24180952Y-124710238D02*
X24228571Y-124757857D01*
X24514286Y-124662619D02*
X25085714Y-124662619D01*
X24800000Y-125662619D02*
X24800000Y-124662619D01*
X25990476Y-125662619D02*
X25657143Y-125186428D01*
X25419048Y-125662619D02*
X25419048Y-124662619D01*
X25419048Y-124662619D02*
X25800000Y-124662619D01*
X25800000Y-124662619D02*
X25895238Y-124710238D01*
X25895238Y-124710238D02*
X25942857Y-124757857D01*
X25942857Y-124757857D02*
X25990476Y-124853095D01*
X25990476Y-124853095D02*
X25990476Y-124995952D01*
X25990476Y-124995952D02*
X25942857Y-125091190D01*
X25942857Y-125091190D02*
X25895238Y-125138809D01*
X25895238Y-125138809D02*
X25800000Y-125186428D01*
X25800000Y-125186428D02*
X25419048Y-125186428D01*
X26895238Y-125662619D02*
X26419048Y-125662619D01*
X26419048Y-125662619D02*
X26419048Y-124662619D01*
X216433333Y-106662619D02*
X216433333Y-105662619D01*
X216433333Y-105662619D02*
X216671428Y-105662619D01*
X216671428Y-105662619D02*
X216814285Y-105710238D01*
X216814285Y-105710238D02*
X216909523Y-105805476D01*
X216909523Y-105805476D02*
X216957142Y-105900714D01*
X216957142Y-105900714D02*
X217004761Y-106091190D01*
X217004761Y-106091190D02*
X217004761Y-106234047D01*
X217004761Y-106234047D02*
X216957142Y-106424523D01*
X216957142Y-106424523D02*
X216909523Y-106519761D01*
X216909523Y-106519761D02*
X216814285Y-106615000D01*
X216814285Y-106615000D02*
X216671428Y-106662619D01*
X216671428Y-106662619D02*
X216433333Y-106662619D01*
X217623809Y-105662619D02*
X217814285Y-105662619D01*
X217814285Y-105662619D02*
X217909523Y-105710238D01*
X217909523Y-105710238D02*
X218004761Y-105805476D01*
X218004761Y-105805476D02*
X218052380Y-105995952D01*
X218052380Y-105995952D02*
X218052380Y-106329285D01*
X218052380Y-106329285D02*
X218004761Y-106519761D01*
X218004761Y-106519761D02*
X217909523Y-106615000D01*
X217909523Y-106615000D02*
X217814285Y-106662619D01*
X217814285Y-106662619D02*
X217623809Y-106662619D01*
X217623809Y-106662619D02*
X217528571Y-106615000D01*
X217528571Y-106615000D02*
X217433333Y-106519761D01*
X217433333Y-106519761D02*
X217385714Y-106329285D01*
X217385714Y-106329285D02*
X217385714Y-105995952D01*
X217385714Y-105995952D02*
X217433333Y-105805476D01*
X217433333Y-105805476D02*
X217528571Y-105710238D01*
X217528571Y-105710238D02*
X217623809Y-105662619D01*
X218338095Y-105662619D02*
X218909523Y-105662619D01*
X218623809Y-106662619D02*
X218623809Y-105662619D01*
X79066667Y-48462619D02*
X79685714Y-48462619D01*
X79685714Y-48462619D02*
X79352381Y-48843571D01*
X79352381Y-48843571D02*
X79495238Y-48843571D01*
X79495238Y-48843571D02*
X79590476Y-48891190D01*
X79590476Y-48891190D02*
X79638095Y-48938809D01*
X79638095Y-48938809D02*
X79685714Y-49034047D01*
X79685714Y-49034047D02*
X79685714Y-49272142D01*
X79685714Y-49272142D02*
X79638095Y-49367380D01*
X79638095Y-49367380D02*
X79590476Y-49415000D01*
X79590476Y-49415000D02*
X79495238Y-49462619D01*
X79495238Y-49462619D02*
X79209524Y-49462619D01*
X79209524Y-49462619D02*
X79114286Y-49415000D01*
X79114286Y-49415000D02*
X79066667Y-49367380D01*
X83666667Y-105662619D02*
X84333333Y-106662619D01*
X84333333Y-105662619D02*
X83666667Y-106662619D01*
X98066666Y-29938809D02*
X97733333Y-29938809D01*
X97733333Y-30462619D02*
X97733333Y-29462619D01*
X97733333Y-29462619D02*
X98209523Y-29462619D01*
X99019047Y-29795952D02*
X99019047Y-30462619D01*
X98780952Y-29415000D02*
X98542857Y-30129285D01*
X98542857Y-30129285D02*
X99161904Y-30129285D01*
X229704762Y-49462619D02*
X229704762Y-48462619D01*
X229704762Y-48462619D02*
X230038095Y-49176904D01*
X230038095Y-49176904D02*
X230371428Y-48462619D01*
X230371428Y-48462619D02*
X230371428Y-49462619D01*
X230847619Y-49462619D02*
X230847619Y-48462619D01*
X231323809Y-49462619D02*
X231323809Y-48462619D01*
X231323809Y-48462619D02*
X231895237Y-49462619D01*
X231895237Y-49462619D02*
X231895237Y-48462619D01*
X232371428Y-48462619D02*
X232371428Y-49272142D01*
X232371428Y-49272142D02*
X232419047Y-49367380D01*
X232419047Y-49367380D02*
X232466666Y-49415000D01*
X232466666Y-49415000D02*
X232561904Y-49462619D01*
X232561904Y-49462619D02*
X232752380Y-49462619D01*
X232752380Y-49462619D02*
X232847618Y-49415000D01*
X232847618Y-49415000D02*
X232895237Y-49367380D01*
X232895237Y-49367380D02*
X232942856Y-49272142D01*
X232942856Y-49272142D02*
X232942856Y-48462619D01*
X233371428Y-49415000D02*
X233514285Y-49462619D01*
X233514285Y-49462619D02*
X233752380Y-49462619D01*
X233752380Y-49462619D02*
X233847618Y-49415000D01*
X233847618Y-49415000D02*
X233895237Y-49367380D01*
X233895237Y-49367380D02*
X233942856Y-49272142D01*
X233942856Y-49272142D02*
X233942856Y-49176904D01*
X233942856Y-49176904D02*
X233895237Y-49081666D01*
X233895237Y-49081666D02*
X233847618Y-49034047D01*
X233847618Y-49034047D02*
X233752380Y-48986428D01*
X233752380Y-48986428D02*
X233561904Y-48938809D01*
X233561904Y-48938809D02*
X233466666Y-48891190D01*
X233466666Y-48891190D02*
X233419047Y-48843571D01*
X233419047Y-48843571D02*
X233371428Y-48748333D01*
X233371428Y-48748333D02*
X233371428Y-48653095D01*
X233371428Y-48653095D02*
X233419047Y-48557857D01*
X233419047Y-48557857D02*
X233466666Y-48510238D01*
X233466666Y-48510238D02*
X233561904Y-48462619D01*
X233561904Y-48462619D02*
X233799999Y-48462619D01*
X233799999Y-48462619D02*
X233942856Y-48510238D01*
X214295237Y-125662619D02*
X213961904Y-125186428D01*
X213723809Y-125662619D02*
X213723809Y-124662619D01*
X213723809Y-124662619D02*
X214104761Y-124662619D01*
X214104761Y-124662619D02*
X214199999Y-124710238D01*
X214199999Y-124710238D02*
X214247618Y-124757857D01*
X214247618Y-124757857D02*
X214295237Y-124853095D01*
X214295237Y-124853095D02*
X214295237Y-124995952D01*
X214295237Y-124995952D02*
X214247618Y-125091190D01*
X214247618Y-125091190D02*
X214199999Y-125138809D01*
X214199999Y-125138809D02*
X214104761Y-125186428D01*
X214104761Y-125186428D02*
X213723809Y-125186428D01*
X214676190Y-125376904D02*
X215152380Y-125376904D01*
X214580952Y-125662619D02*
X214914285Y-124662619D01*
X214914285Y-124662619D02*
X215247618Y-125662619D01*
X216057142Y-125662619D02*
X215580952Y-125662619D01*
X215580952Y-125662619D02*
X215580952Y-124662619D01*
X216247619Y-124662619D02*
X216819047Y-124662619D01*
X216533333Y-125662619D02*
X216533333Y-124662619D01*
X64666667Y-105662619D02*
X65333333Y-105662619D01*
X65333333Y-105662619D02*
X64666667Y-106662619D01*
X64666667Y-106662619D02*
X65333333Y-106662619D01*
X184000000Y-68462619D02*
X184000000Y-67462619D01*
X22861904Y-106662619D02*
X22385714Y-106662619D01*
X22385714Y-106662619D02*
X22385714Y-105662619D01*
X23147619Y-106615000D02*
X23290476Y-106662619D01*
X23290476Y-106662619D02*
X23528571Y-106662619D01*
X23528571Y-106662619D02*
X23623809Y-106615000D01*
X23623809Y-106615000D02*
X23671428Y-106567380D01*
X23671428Y-106567380D02*
X23719047Y-106472142D01*
X23719047Y-106472142D02*
X23719047Y-106376904D01*
X23719047Y-106376904D02*
X23671428Y-106281666D01*
X23671428Y-106281666D02*
X23623809Y-106234047D01*
X23623809Y-106234047D02*
X23528571Y-106186428D01*
X23528571Y-106186428D02*
X23338095Y-106138809D01*
X23338095Y-106138809D02*
X23242857Y-106091190D01*
X23242857Y-106091190D02*
X23195238Y-106043571D01*
X23195238Y-106043571D02*
X23147619Y-105948333D01*
X23147619Y-105948333D02*
X23147619Y-105853095D01*
X23147619Y-105853095D02*
X23195238Y-105757857D01*
X23195238Y-105757857D02*
X23242857Y-105710238D01*
X23242857Y-105710238D02*
X23338095Y-105662619D01*
X23338095Y-105662619D02*
X23576190Y-105662619D01*
X23576190Y-105662619D02*
X23719047Y-105710238D01*
X24147619Y-106662619D02*
X24147619Y-105662619D01*
X24147619Y-106138809D02*
X24719047Y-106138809D01*
X24719047Y-106662619D02*
X24719047Y-105662619D01*
X25195238Y-106662619D02*
X25195238Y-105662619D01*
X26004761Y-106138809D02*
X25671428Y-106138809D01*
X25671428Y-106662619D02*
X25671428Y-105662619D01*
X25671428Y-105662619D02*
X26147618Y-105662619D01*
X26385714Y-105662619D02*
X26957142Y-105662619D01*
X26671428Y-106662619D02*
X26671428Y-105662619D01*
X121866667Y-105662619D02*
X122200000Y-106662619D01*
X122200000Y-106662619D02*
X122533333Y-105662619D01*
X55361905Y-87176904D02*
X55838095Y-87176904D01*
X55266667Y-87462619D02*
X55600000Y-86462619D01*
X55600000Y-86462619D02*
X55933333Y-87462619D01*
X169942857Y-86462619D02*
X169942857Y-87176904D01*
X169942857Y-87176904D02*
X169895238Y-87319761D01*
X169895238Y-87319761D02*
X169800000Y-87415000D01*
X169800000Y-87415000D02*
X169657143Y-87462619D01*
X169657143Y-87462619D02*
X169561905Y-87462619D01*
X203104762Y-67462619D02*
X203295238Y-67462619D01*
X203295238Y-67462619D02*
X203390476Y-67510238D01*
X203390476Y-67510238D02*
X203485714Y-67605476D01*
X203485714Y-67605476D02*
X203533333Y-67795952D01*
X203533333Y-67795952D02*
X203533333Y-68129285D01*
X203533333Y-68129285D02*
X203485714Y-68319761D01*
X203485714Y-68319761D02*
X203390476Y-68415000D01*
X203390476Y-68415000D02*
X203295238Y-68462619D01*
X203295238Y-68462619D02*
X203104762Y-68462619D01*
X203104762Y-68462619D02*
X203009524Y-68415000D01*
X203009524Y-68415000D02*
X202914286Y-68319761D01*
X202914286Y-68319761D02*
X202866667Y-68129285D01*
X202866667Y-68129285D02*
X202866667Y-67795952D01*
X202866667Y-67795952D02*
X202914286Y-67605476D01*
X202914286Y-67605476D02*
X203009524Y-67510238D01*
X203009524Y-67510238D02*
X203104762Y-67462619D01*
X221938095Y-68462619D02*
X221938095Y-67462619D01*
X221938095Y-67462619D02*
X222319047Y-67462619D01*
X222319047Y-67462619D02*
X222414285Y-67510238D01*
X222414285Y-67510238D02*
X222461904Y-67557857D01*
X222461904Y-67557857D02*
X222509523Y-67653095D01*
X222509523Y-67653095D02*
X222509523Y-67795952D01*
X222509523Y-67795952D02*
X222461904Y-67891190D01*
X222461904Y-67891190D02*
X222414285Y-67938809D01*
X222414285Y-67938809D02*
X222319047Y-67986428D01*
X222319047Y-67986428D02*
X221938095Y-67986428D01*
X71295237Y-125662619D02*
X70819047Y-125662619D01*
X70819047Y-125662619D02*
X70819047Y-124662619D01*
X71580952Y-125376904D02*
X72057142Y-125376904D01*
X71485714Y-125662619D02*
X71819047Y-124662619D01*
X71819047Y-124662619D02*
X72152380Y-125662619D01*
X72961904Y-125662619D02*
X72485714Y-125662619D01*
X72485714Y-125662619D02*
X72485714Y-124662619D01*
X73152381Y-124662619D02*
X73723809Y-124662619D01*
X73438095Y-125662619D02*
X73438095Y-124662619D01*
X79066666Y-29938809D02*
X78733333Y-29938809D01*
X78733333Y-30462619D02*
X78733333Y-29462619D01*
X78733333Y-29462619D02*
X79209523Y-29462619D01*
X79495238Y-29462619D02*
X80114285Y-29462619D01*
X80114285Y-29462619D02*
X79780952Y-29843571D01*
X79780952Y-29843571D02*
X79923809Y-29843571D01*
X79923809Y-29843571D02*
X80019047Y-29891190D01*
X80019047Y-29891190D02*
X80066666Y-29938809D01*
X80066666Y-29938809D02*
X80114285Y-30034047D01*
X80114285Y-30034047D02*
X80114285Y-30272142D01*
X80114285Y-30272142D02*
X80066666Y-30367380D01*
X80066666Y-30367380D02*
X80019047Y-30415000D01*
X80019047Y-30415000D02*
X79923809Y-30462619D01*
X79923809Y-30462619D02*
X79638095Y-30462619D01*
X79638095Y-30462619D02*
X79542857Y-30415000D01*
X79542857Y-30415000D02*
X79495238Y-30367380D01*
X146000000Y-67986428D02*
X146000000Y-68462619D01*
X145666667Y-67462619D02*
X146000000Y-67986428D01*
X146000000Y-67986428D02*
X146333333Y-67462619D01*
X26376190Y-87367380D02*
X26328571Y-87415000D01*
X26328571Y-87415000D02*
X26185714Y-87462619D01*
X26185714Y-87462619D02*
X26090476Y-87462619D01*
X26090476Y-87462619D02*
X25947619Y-87415000D01*
X25947619Y-87415000D02*
X25852381Y-87319761D01*
X25852381Y-87319761D02*
X25804762Y-87224523D01*
X25804762Y-87224523D02*
X25757143Y-87034047D01*
X25757143Y-87034047D02*
X25757143Y-86891190D01*
X25757143Y-86891190D02*
X25804762Y-86700714D01*
X25804762Y-86700714D02*
X25852381Y-86605476D01*
X25852381Y-86605476D02*
X25947619Y-86510238D01*
X25947619Y-86510238D02*
X26090476Y-86462619D01*
X26090476Y-86462619D02*
X26185714Y-86462619D01*
X26185714Y-86462619D02*
X26328571Y-86510238D01*
X26328571Y-86510238D02*
X26376190Y-86557857D01*
X26757143Y-87176904D02*
X27233333Y-87176904D01*
X26661905Y-87462619D02*
X26995238Y-86462619D01*
X26995238Y-86462619D02*
X27328571Y-87462619D01*
X27661905Y-87462619D02*
X27661905Y-86462619D01*
X27661905Y-86462619D02*
X28042857Y-86462619D01*
X28042857Y-86462619D02*
X28138095Y-86510238D01*
X28138095Y-86510238D02*
X28185714Y-86557857D01*
X28185714Y-86557857D02*
X28233333Y-86653095D01*
X28233333Y-86653095D02*
X28233333Y-86795952D01*
X28233333Y-86795952D02*
X28185714Y-86891190D01*
X28185714Y-86891190D02*
X28138095Y-86938809D01*
X28138095Y-86938809D02*
X28042857Y-86986428D01*
X28042857Y-86986428D02*
X27661905Y-86986428D01*
X28614286Y-87415000D02*
X28757143Y-87462619D01*
X28757143Y-87462619D02*
X28995238Y-87462619D01*
X28995238Y-87462619D02*
X29090476Y-87415000D01*
X29090476Y-87415000D02*
X29138095Y-87367380D01*
X29138095Y-87367380D02*
X29185714Y-87272142D01*
X29185714Y-87272142D02*
X29185714Y-87176904D01*
X29185714Y-87176904D02*
X29138095Y-87081666D01*
X29138095Y-87081666D02*
X29090476Y-87034047D01*
X29090476Y-87034047D02*
X28995238Y-86986428D01*
X28995238Y-86986428D02*
X28804762Y-86938809D01*
X28804762Y-86938809D02*
X28709524Y-86891190D01*
X28709524Y-86891190D02*
X28661905Y-86843571D01*
X28661905Y-86843571D02*
X28614286Y-86748333D01*
X28614286Y-86748333D02*
X28614286Y-86653095D01*
X28614286Y-86653095D02*
X28661905Y-86557857D01*
X28661905Y-86557857D02*
X28709524Y-86510238D01*
X28709524Y-86510238D02*
X28804762Y-86462619D01*
X28804762Y-86462619D02*
X29042857Y-86462619D01*
X29042857Y-86462619D02*
X29185714Y-86510238D01*
X30090476Y-87462619D02*
X29614286Y-87462619D01*
X29614286Y-87462619D02*
X29614286Y-86462619D01*
X30614286Y-86462619D02*
X30804762Y-86462619D01*
X30804762Y-86462619D02*
X30900000Y-86510238D01*
X30900000Y-86510238D02*
X30995238Y-86605476D01*
X30995238Y-86605476D02*
X31042857Y-86795952D01*
X31042857Y-86795952D02*
X31042857Y-87129285D01*
X31042857Y-87129285D02*
X30995238Y-87319761D01*
X30995238Y-87319761D02*
X30900000Y-87415000D01*
X30900000Y-87415000D02*
X30804762Y-87462619D01*
X30804762Y-87462619D02*
X30614286Y-87462619D01*
X30614286Y-87462619D02*
X30519048Y-87415000D01*
X30519048Y-87415000D02*
X30423810Y-87319761D01*
X30423810Y-87319761D02*
X30376191Y-87129285D01*
X30376191Y-87129285D02*
X30376191Y-86795952D01*
X30376191Y-86795952D02*
X30423810Y-86605476D01*
X30423810Y-86605476D02*
X30519048Y-86510238D01*
X30519048Y-86510238D02*
X30614286Y-86462619D01*
X32042857Y-87367380D02*
X31995238Y-87415000D01*
X31995238Y-87415000D02*
X31852381Y-87462619D01*
X31852381Y-87462619D02*
X31757143Y-87462619D01*
X31757143Y-87462619D02*
X31614286Y-87415000D01*
X31614286Y-87415000D02*
X31519048Y-87319761D01*
X31519048Y-87319761D02*
X31471429Y-87224523D01*
X31471429Y-87224523D02*
X31423810Y-87034047D01*
X31423810Y-87034047D02*
X31423810Y-86891190D01*
X31423810Y-86891190D02*
X31471429Y-86700714D01*
X31471429Y-86700714D02*
X31519048Y-86605476D01*
X31519048Y-86605476D02*
X31614286Y-86510238D01*
X31614286Y-86510238D02*
X31757143Y-86462619D01*
X31757143Y-86462619D02*
X31852381Y-86462619D01*
X31852381Y-86462619D02*
X31995238Y-86510238D01*
X31995238Y-86510238D02*
X32042857Y-86557857D01*
X32471429Y-87462619D02*
X32471429Y-86462619D01*
X33042857Y-87462619D02*
X32614286Y-86891190D01*
X33042857Y-86462619D02*
X32471429Y-87034047D01*
X164714286Y-67462619D02*
X164714286Y-68272142D01*
X164714286Y-68272142D02*
X164761905Y-68367380D01*
X164761905Y-68367380D02*
X164809524Y-68415000D01*
X164809524Y-68415000D02*
X164904762Y-68462619D01*
X164904762Y-68462619D02*
X165095238Y-68462619D01*
X165095238Y-68462619D02*
X165190476Y-68415000D01*
X165190476Y-68415000D02*
X165238095Y-68367380D01*
X165238095Y-68367380D02*
X165285714Y-68272142D01*
X165285714Y-68272142D02*
X165285714Y-67462619D01*
X306166667Y-49462619D02*
X306166667Y-48462619D01*
X306166667Y-48938809D02*
X306738095Y-48938809D01*
X306738095Y-49462619D02*
X306738095Y-48462619D01*
X307404762Y-48462619D02*
X307595238Y-48462619D01*
X307595238Y-48462619D02*
X307690476Y-48510238D01*
X307690476Y-48510238D02*
X307785714Y-48605476D01*
X307785714Y-48605476D02*
X307833333Y-48795952D01*
X307833333Y-48795952D02*
X307833333Y-49129285D01*
X307833333Y-49129285D02*
X307785714Y-49319761D01*
X307785714Y-49319761D02*
X307690476Y-49415000D01*
X307690476Y-49415000D02*
X307595238Y-49462619D01*
X307595238Y-49462619D02*
X307404762Y-49462619D01*
X307404762Y-49462619D02*
X307309524Y-49415000D01*
X307309524Y-49415000D02*
X307214286Y-49319761D01*
X307214286Y-49319761D02*
X307166667Y-49129285D01*
X307166667Y-49129285D02*
X307166667Y-48795952D01*
X307166667Y-48795952D02*
X307214286Y-48605476D01*
X307214286Y-48605476D02*
X307309524Y-48510238D01*
X307309524Y-48510238D02*
X307404762Y-48462619D01*
X308261905Y-49462619D02*
X308261905Y-48462619D01*
X308261905Y-48462619D02*
X308595238Y-49176904D01*
X308595238Y-49176904D02*
X308928571Y-48462619D01*
X308928571Y-48462619D02*
X308928571Y-49462619D01*
X309404762Y-48938809D02*
X309738095Y-48938809D01*
X309880952Y-49462619D02*
X309404762Y-49462619D01*
X309404762Y-49462619D02*
X309404762Y-48462619D01*
X309404762Y-48462619D02*
X309880952Y-48462619D01*
X263485714Y-87462619D02*
X263485714Y-86462619D01*
X263485714Y-86938809D02*
X264057142Y-86938809D01*
X264057142Y-87462619D02*
X264057142Y-86462619D01*
X264485714Y-87176904D02*
X264961904Y-87176904D01*
X264390476Y-87462619D02*
X264723809Y-86462619D01*
X264723809Y-86462619D02*
X265057142Y-87462619D01*
X265342857Y-87415000D02*
X265485714Y-87462619D01*
X265485714Y-87462619D02*
X265723809Y-87462619D01*
X265723809Y-87462619D02*
X265819047Y-87415000D01*
X265819047Y-87415000D02*
X265866666Y-87367380D01*
X265866666Y-87367380D02*
X265914285Y-87272142D01*
X265914285Y-87272142D02*
X265914285Y-87176904D01*
X265914285Y-87176904D02*
X265866666Y-87081666D01*
X265866666Y-87081666D02*
X265819047Y-87034047D01*
X265819047Y-87034047D02*
X265723809Y-86986428D01*
X265723809Y-86986428D02*
X265533333Y-86938809D01*
X265533333Y-86938809D02*
X265438095Y-86891190D01*
X265438095Y-86891190D02*
X265390476Y-86843571D01*
X265390476Y-86843571D02*
X265342857Y-86748333D01*
X265342857Y-86748333D02*
X265342857Y-86653095D01*
X265342857Y-86653095D02*
X265390476Y-86557857D01*
X265390476Y-86557857D02*
X265438095Y-86510238D01*
X265438095Y-86510238D02*
X265533333Y-86462619D01*
X265533333Y-86462619D02*
X265771428Y-86462619D01*
X265771428Y-86462619D02*
X265914285Y-86510238D01*
X266342857Y-87462619D02*
X266342857Y-86462619D01*
X266342857Y-86938809D02*
X266914285Y-86938809D01*
X266914285Y-87462619D02*
X266914285Y-86462619D01*
X208509523Y-87462619D02*
X208033333Y-87462619D01*
X208033333Y-87462619D02*
X208033333Y-86462619D01*
X248904762Y-48938809D02*
X249238095Y-48938809D01*
X249380952Y-49462619D02*
X248904762Y-49462619D01*
X248904762Y-49462619D02*
X248904762Y-48462619D01*
X248904762Y-48462619D02*
X249380952Y-48462619D01*
X250476190Y-49557857D02*
X250380952Y-49510238D01*
X250380952Y-49510238D02*
X250285714Y-49415000D01*
X250285714Y-49415000D02*
X250142857Y-49272142D01*
X250142857Y-49272142D02*
X250047619Y-49224523D01*
X250047619Y-49224523D02*
X249952381Y-49224523D01*
X250000000Y-49462619D02*
X249904762Y-49415000D01*
X249904762Y-49415000D02*
X249809524Y-49319761D01*
X249809524Y-49319761D02*
X249761905Y-49129285D01*
X249761905Y-49129285D02*
X249761905Y-48795952D01*
X249761905Y-48795952D02*
X249809524Y-48605476D01*
X249809524Y-48605476D02*
X249904762Y-48510238D01*
X249904762Y-48510238D02*
X250000000Y-48462619D01*
X250000000Y-48462619D02*
X250190476Y-48462619D01*
X250190476Y-48462619D02*
X250285714Y-48510238D01*
X250285714Y-48510238D02*
X250380952Y-48605476D01*
X250380952Y-48605476D02*
X250428571Y-48795952D01*
X250428571Y-48795952D02*
X250428571Y-49129285D01*
X250428571Y-49129285D02*
X250380952Y-49319761D01*
X250380952Y-49319761D02*
X250285714Y-49415000D01*
X250285714Y-49415000D02*
X250190476Y-49462619D01*
X250190476Y-49462619D02*
X250000000Y-49462619D01*
X250857143Y-48462619D02*
X250857143Y-49272142D01*
X250857143Y-49272142D02*
X250904762Y-49367380D01*
X250904762Y-49367380D02*
X250952381Y-49415000D01*
X250952381Y-49415000D02*
X251047619Y-49462619D01*
X251047619Y-49462619D02*
X251238095Y-49462619D01*
X251238095Y-49462619D02*
X251333333Y-49415000D01*
X251333333Y-49415000D02*
X251380952Y-49367380D01*
X251380952Y-49367380D02*
X251428571Y-49272142D01*
X251428571Y-49272142D02*
X251428571Y-48462619D01*
X251857143Y-49176904D02*
X252333333Y-49176904D01*
X251761905Y-49462619D02*
X252095238Y-48462619D01*
X252095238Y-48462619D02*
X252428571Y-49462619D01*
X253238095Y-49462619D02*
X252761905Y-49462619D01*
X252761905Y-49462619D02*
X252761905Y-48462619D01*
X174504762Y-48891190D02*
X174409524Y-48843571D01*
X174409524Y-48843571D02*
X174361905Y-48795952D01*
X174361905Y-48795952D02*
X174314286Y-48700714D01*
X174314286Y-48700714D02*
X174314286Y-48653095D01*
X174314286Y-48653095D02*
X174361905Y-48557857D01*
X174361905Y-48557857D02*
X174409524Y-48510238D01*
X174409524Y-48510238D02*
X174504762Y-48462619D01*
X174504762Y-48462619D02*
X174695238Y-48462619D01*
X174695238Y-48462619D02*
X174790476Y-48510238D01*
X174790476Y-48510238D02*
X174838095Y-48557857D01*
X174838095Y-48557857D02*
X174885714Y-48653095D01*
X174885714Y-48653095D02*
X174885714Y-48700714D01*
X174885714Y-48700714D02*
X174838095Y-48795952D01*
X174838095Y-48795952D02*
X174790476Y-48843571D01*
X174790476Y-48843571D02*
X174695238Y-48891190D01*
X174695238Y-48891190D02*
X174504762Y-48891190D01*
X174504762Y-48891190D02*
X174409524Y-48938809D01*
X174409524Y-48938809D02*
X174361905Y-48986428D01*
X174361905Y-48986428D02*
X174314286Y-49081666D01*
X174314286Y-49081666D02*
X174314286Y-49272142D01*
X174314286Y-49272142D02*
X174361905Y-49367380D01*
X174361905Y-49367380D02*
X174409524Y-49415000D01*
X174409524Y-49415000D02*
X174504762Y-49462619D01*
X174504762Y-49462619D02*
X174695238Y-49462619D01*
X174695238Y-49462619D02*
X174790476Y-49415000D01*
X174790476Y-49415000D02*
X174838095Y-49367380D01*
X174838095Y-49367380D02*
X174885714Y-49272142D01*
X174885714Y-49272142D02*
X174885714Y-49081666D01*
X174885714Y-49081666D02*
X174838095Y-48986428D01*
X174838095Y-48986428D02*
X174790476Y-48938809D01*
X174790476Y-48938809D02*
X174695238Y-48891190D01*
X249990476Y-29938809D02*
X249657143Y-29938809D01*
X249657143Y-30462619D02*
X249657143Y-29462619D01*
X249657143Y-29462619D02*
X250133333Y-29462619D01*
X251038095Y-30462619D02*
X250466667Y-30462619D01*
X250752381Y-30462619D02*
X250752381Y-29462619D01*
X250752381Y-29462619D02*
X250657143Y-29605476D01*
X250657143Y-29605476D02*
X250561905Y-29700714D01*
X250561905Y-29700714D02*
X250466667Y-29748333D01*
X251419048Y-29557857D02*
X251466667Y-29510238D01*
X251466667Y-29510238D02*
X251561905Y-29462619D01*
X251561905Y-29462619D02*
X251800000Y-29462619D01*
X251800000Y-29462619D02*
X251895238Y-29510238D01*
X251895238Y-29510238D02*
X251942857Y-29557857D01*
X251942857Y-29557857D02*
X251990476Y-29653095D01*
X251990476Y-29653095D02*
X251990476Y-29748333D01*
X251990476Y-29748333D02*
X251942857Y-29891190D01*
X251942857Y-29891190D02*
X251371429Y-30462619D01*
X251371429Y-30462619D02*
X251990476Y-30462619D01*
X74314286Y-87415000D02*
X74457143Y-87462619D01*
X74457143Y-87462619D02*
X74695238Y-87462619D01*
X74695238Y-87462619D02*
X74790476Y-87415000D01*
X74790476Y-87415000D02*
X74838095Y-87367380D01*
X74838095Y-87367380D02*
X74885714Y-87272142D01*
X74885714Y-87272142D02*
X74885714Y-87176904D01*
X74885714Y-87176904D02*
X74838095Y-87081666D01*
X74838095Y-87081666D02*
X74790476Y-87034047D01*
X74790476Y-87034047D02*
X74695238Y-86986428D01*
X74695238Y-86986428D02*
X74504762Y-86938809D01*
X74504762Y-86938809D02*
X74409524Y-86891190D01*
X74409524Y-86891190D02*
X74361905Y-86843571D01*
X74361905Y-86843571D02*
X74314286Y-86748333D01*
X74314286Y-86748333D02*
X74314286Y-86653095D01*
X74314286Y-86653095D02*
X74361905Y-86557857D01*
X74361905Y-86557857D02*
X74409524Y-86510238D01*
X74409524Y-86510238D02*
X74504762Y-86462619D01*
X74504762Y-86462619D02*
X74742857Y-86462619D01*
X74742857Y-86462619D02*
X74885714Y-86510238D01*
X267180952Y-30462619D02*
X267180952Y-29462619D01*
X267180952Y-29462619D02*
X267561904Y-29462619D01*
X267561904Y-29462619D02*
X267657142Y-29510238D01*
X267657142Y-29510238D02*
X267704761Y-29557857D01*
X267704761Y-29557857D02*
X267752380Y-29653095D01*
X267752380Y-29653095D02*
X267752380Y-29795952D01*
X267752380Y-29795952D02*
X267704761Y-29891190D01*
X267704761Y-29891190D02*
X267657142Y-29938809D01*
X267657142Y-29938809D02*
X267561904Y-29986428D01*
X267561904Y-29986428D02*
X267180952Y-29986428D01*
X268752380Y-30462619D02*
X268419047Y-29986428D01*
X268180952Y-30462619D02*
X268180952Y-29462619D01*
X268180952Y-29462619D02*
X268561904Y-29462619D01*
X268561904Y-29462619D02*
X268657142Y-29510238D01*
X268657142Y-29510238D02*
X268704761Y-29557857D01*
X268704761Y-29557857D02*
X268752380Y-29653095D01*
X268752380Y-29653095D02*
X268752380Y-29795952D01*
X268752380Y-29795952D02*
X268704761Y-29891190D01*
X268704761Y-29891190D02*
X268657142Y-29938809D01*
X268657142Y-29938809D02*
X268561904Y-29986428D01*
X268561904Y-29986428D02*
X268180952Y-29986428D01*
X269038095Y-29462619D02*
X269609523Y-29462619D01*
X269323809Y-30462619D02*
X269323809Y-29462619D01*
X269895238Y-30415000D02*
X270038095Y-30462619D01*
X270038095Y-30462619D02*
X270276190Y-30462619D01*
X270276190Y-30462619D02*
X270371428Y-30415000D01*
X270371428Y-30415000D02*
X270419047Y-30367380D01*
X270419047Y-30367380D02*
X270466666Y-30272142D01*
X270466666Y-30272142D02*
X270466666Y-30176904D01*
X270466666Y-30176904D02*
X270419047Y-30081666D01*
X270419047Y-30081666D02*
X270371428Y-30034047D01*
X270371428Y-30034047D02*
X270276190Y-29986428D01*
X270276190Y-29986428D02*
X270085714Y-29938809D01*
X270085714Y-29938809D02*
X269990476Y-29891190D01*
X269990476Y-29891190D02*
X269942857Y-29843571D01*
X269942857Y-29843571D02*
X269895238Y-29748333D01*
X269895238Y-29748333D02*
X269895238Y-29653095D01*
X269895238Y-29653095D02*
X269942857Y-29557857D01*
X269942857Y-29557857D02*
X269990476Y-29510238D01*
X269990476Y-29510238D02*
X270085714Y-29462619D01*
X270085714Y-29462619D02*
X270323809Y-29462619D01*
X270323809Y-29462619D02*
X270466666Y-29510238D01*
X271466666Y-30367380D02*
X271419047Y-30415000D01*
X271419047Y-30415000D02*
X271276190Y-30462619D01*
X271276190Y-30462619D02*
X271180952Y-30462619D01*
X271180952Y-30462619D02*
X271038095Y-30415000D01*
X271038095Y-30415000D02*
X270942857Y-30319761D01*
X270942857Y-30319761D02*
X270895238Y-30224523D01*
X270895238Y-30224523D02*
X270847619Y-30034047D01*
X270847619Y-30034047D02*
X270847619Y-29891190D01*
X270847619Y-29891190D02*
X270895238Y-29700714D01*
X270895238Y-29700714D02*
X270942857Y-29605476D01*
X270942857Y-29605476D02*
X271038095Y-29510238D01*
X271038095Y-29510238D02*
X271180952Y-29462619D01*
X271180952Y-29462619D02*
X271276190Y-29462619D01*
X271276190Y-29462619D02*
X271419047Y-29510238D01*
X271419047Y-29510238D02*
X271466666Y-29557857D01*
X272466666Y-30462619D02*
X272133333Y-29986428D01*
X271895238Y-30462619D02*
X271895238Y-29462619D01*
X271895238Y-29462619D02*
X272276190Y-29462619D01*
X272276190Y-29462619D02*
X272371428Y-29510238D01*
X272371428Y-29510238D02*
X272419047Y-29557857D01*
X272419047Y-29557857D02*
X272466666Y-29653095D01*
X272466666Y-29653095D02*
X272466666Y-29795952D01*
X272466666Y-29795952D02*
X272419047Y-29891190D01*
X272419047Y-29891190D02*
X272371428Y-29938809D01*
X272371428Y-29938809D02*
X272276190Y-29986428D01*
X272276190Y-29986428D02*
X271895238Y-29986428D01*
X212552381Y-48462619D02*
X212647619Y-48462619D01*
X212647619Y-48462619D02*
X212742857Y-48510238D01*
X212742857Y-48510238D02*
X212790476Y-48557857D01*
X212790476Y-48557857D02*
X212838095Y-48653095D01*
X212838095Y-48653095D02*
X212885714Y-48843571D01*
X212885714Y-48843571D02*
X212885714Y-49081666D01*
X212885714Y-49081666D02*
X212838095Y-49272142D01*
X212838095Y-49272142D02*
X212790476Y-49367380D01*
X212790476Y-49367380D02*
X212742857Y-49415000D01*
X212742857Y-49415000D02*
X212647619Y-49462619D01*
X212647619Y-49462619D02*
X212552381Y-49462619D01*
X212552381Y-49462619D02*
X212457143Y-49415000D01*
X212457143Y-49415000D02*
X212409524Y-49367380D01*
X212409524Y-49367380D02*
X212361905Y-49272142D01*
X212361905Y-49272142D02*
X212314286Y-49081666D01*
X212314286Y-49081666D02*
X212314286Y-48843571D01*
X212314286Y-48843571D02*
X212361905Y-48653095D01*
X212361905Y-48653095D02*
X212409524Y-48557857D01*
X212409524Y-48557857D02*
X212457143Y-48510238D01*
X212457143Y-48510238D02*
X212552381Y-48462619D01*
X222976191Y-87415000D02*
X223119048Y-87462619D01*
X223119048Y-87462619D02*
X223357143Y-87462619D01*
X223357143Y-87462619D02*
X223452381Y-87415000D01*
X223452381Y-87415000D02*
X223500000Y-87367380D01*
X223500000Y-87367380D02*
X223547619Y-87272142D01*
X223547619Y-87272142D02*
X223547619Y-87176904D01*
X223547619Y-87176904D02*
X223500000Y-87081666D01*
X223500000Y-87081666D02*
X223452381Y-87034047D01*
X223452381Y-87034047D02*
X223357143Y-86986428D01*
X223357143Y-86986428D02*
X223166667Y-86938809D01*
X223166667Y-86938809D02*
X223071429Y-86891190D01*
X223071429Y-86891190D02*
X223023810Y-86843571D01*
X223023810Y-86843571D02*
X222976191Y-86748333D01*
X222976191Y-86748333D02*
X222976191Y-86653095D01*
X222976191Y-86653095D02*
X223023810Y-86557857D01*
X223023810Y-86557857D02*
X223071429Y-86510238D01*
X223071429Y-86510238D02*
X223166667Y-86462619D01*
X223166667Y-86462619D02*
X223404762Y-86462619D01*
X223404762Y-86462619D02*
X223547619Y-86510238D01*
X223976191Y-86938809D02*
X224309524Y-86938809D01*
X224452381Y-87462619D02*
X223976191Y-87462619D01*
X223976191Y-87462619D02*
X223976191Y-86462619D01*
X223976191Y-86462619D02*
X224452381Y-86462619D01*
X224880953Y-87462619D02*
X224880953Y-86462619D01*
X224880953Y-86462619D02*
X225214286Y-87176904D01*
X225214286Y-87176904D02*
X225547619Y-86462619D01*
X225547619Y-86462619D02*
X225547619Y-87462619D01*
X226023810Y-87462619D02*
X226023810Y-86462619D01*
X227071428Y-87367380D02*
X227023809Y-87415000D01*
X227023809Y-87415000D02*
X226880952Y-87462619D01*
X226880952Y-87462619D02*
X226785714Y-87462619D01*
X226785714Y-87462619D02*
X226642857Y-87415000D01*
X226642857Y-87415000D02*
X226547619Y-87319761D01*
X226547619Y-87319761D02*
X226500000Y-87224523D01*
X226500000Y-87224523D02*
X226452381Y-87034047D01*
X226452381Y-87034047D02*
X226452381Y-86891190D01*
X226452381Y-86891190D02*
X226500000Y-86700714D01*
X226500000Y-86700714D02*
X226547619Y-86605476D01*
X226547619Y-86605476D02*
X226642857Y-86510238D01*
X226642857Y-86510238D02*
X226785714Y-86462619D01*
X226785714Y-86462619D02*
X226880952Y-86462619D01*
X226880952Y-86462619D02*
X227023809Y-86510238D01*
X227023809Y-86510238D02*
X227071428Y-86557857D01*
X227690476Y-86462619D02*
X227880952Y-86462619D01*
X227880952Y-86462619D02*
X227976190Y-86510238D01*
X227976190Y-86510238D02*
X228071428Y-86605476D01*
X228071428Y-86605476D02*
X228119047Y-86795952D01*
X228119047Y-86795952D02*
X228119047Y-87129285D01*
X228119047Y-87129285D02*
X228071428Y-87319761D01*
X228071428Y-87319761D02*
X227976190Y-87415000D01*
X227976190Y-87415000D02*
X227880952Y-87462619D01*
X227880952Y-87462619D02*
X227690476Y-87462619D01*
X227690476Y-87462619D02*
X227595238Y-87415000D01*
X227595238Y-87415000D02*
X227500000Y-87319761D01*
X227500000Y-87319761D02*
X227452381Y-87129285D01*
X227452381Y-87129285D02*
X227452381Y-86795952D01*
X227452381Y-86795952D02*
X227500000Y-86605476D01*
X227500000Y-86605476D02*
X227595238Y-86510238D01*
X227595238Y-86510238D02*
X227690476Y-86462619D01*
X229023809Y-87462619D02*
X228547619Y-87462619D01*
X228547619Y-87462619D02*
X228547619Y-86462619D01*
X229547619Y-86462619D02*
X229738095Y-86462619D01*
X229738095Y-86462619D02*
X229833333Y-86510238D01*
X229833333Y-86510238D02*
X229928571Y-86605476D01*
X229928571Y-86605476D02*
X229976190Y-86795952D01*
X229976190Y-86795952D02*
X229976190Y-87129285D01*
X229976190Y-87129285D02*
X229928571Y-87319761D01*
X229928571Y-87319761D02*
X229833333Y-87415000D01*
X229833333Y-87415000D02*
X229738095Y-87462619D01*
X229738095Y-87462619D02*
X229547619Y-87462619D01*
X229547619Y-87462619D02*
X229452381Y-87415000D01*
X229452381Y-87415000D02*
X229357143Y-87319761D01*
X229357143Y-87319761D02*
X229309524Y-87129285D01*
X229309524Y-87129285D02*
X229309524Y-86795952D01*
X229309524Y-86795952D02*
X229357143Y-86605476D01*
X229357143Y-86605476D02*
X229452381Y-86510238D01*
X229452381Y-86510238D02*
X229547619Y-86462619D01*
X230404762Y-87462619D02*
X230404762Y-86462619D01*
X230404762Y-86462619D02*
X230976190Y-87462619D01*
X230976190Y-87462619D02*
X230976190Y-86462619D01*
X88585714Y-67938809D02*
X88919047Y-67938809D01*
X89061904Y-68462619D02*
X88585714Y-68462619D01*
X88585714Y-68462619D02*
X88585714Y-67462619D01*
X88585714Y-67462619D02*
X89061904Y-67462619D01*
X42333333Y-106138809D02*
X42476190Y-106186428D01*
X42476190Y-106186428D02*
X42523809Y-106234047D01*
X42523809Y-106234047D02*
X42571428Y-106329285D01*
X42571428Y-106329285D02*
X42571428Y-106472142D01*
X42571428Y-106472142D02*
X42523809Y-106567380D01*
X42523809Y-106567380D02*
X42476190Y-106615000D01*
X42476190Y-106615000D02*
X42380952Y-106662619D01*
X42380952Y-106662619D02*
X42000000Y-106662619D01*
X42000000Y-106662619D02*
X42000000Y-105662619D01*
X42000000Y-105662619D02*
X42333333Y-105662619D01*
X42333333Y-105662619D02*
X42428571Y-105710238D01*
X42428571Y-105710238D02*
X42476190Y-105757857D01*
X42476190Y-105757857D02*
X42523809Y-105853095D01*
X42523809Y-105853095D02*
X42523809Y-105948333D01*
X42523809Y-105948333D02*
X42476190Y-106043571D01*
X42476190Y-106043571D02*
X42428571Y-106091190D01*
X42428571Y-106091190D02*
X42333333Y-106138809D01*
X42333333Y-106138809D02*
X42000000Y-106138809D01*
X42952381Y-106376904D02*
X43428571Y-106376904D01*
X42857143Y-106662619D02*
X43190476Y-105662619D01*
X43190476Y-105662619D02*
X43523809Y-106662619D01*
X44428571Y-106567380D02*
X44380952Y-106615000D01*
X44380952Y-106615000D02*
X44238095Y-106662619D01*
X44238095Y-106662619D02*
X44142857Y-106662619D01*
X44142857Y-106662619D02*
X44000000Y-106615000D01*
X44000000Y-106615000D02*
X43904762Y-106519761D01*
X43904762Y-106519761D02*
X43857143Y-106424523D01*
X43857143Y-106424523D02*
X43809524Y-106234047D01*
X43809524Y-106234047D02*
X43809524Y-106091190D01*
X43809524Y-106091190D02*
X43857143Y-105900714D01*
X43857143Y-105900714D02*
X43904762Y-105805476D01*
X43904762Y-105805476D02*
X44000000Y-105710238D01*
X44000000Y-105710238D02*
X44142857Y-105662619D01*
X44142857Y-105662619D02*
X44238095Y-105662619D01*
X44238095Y-105662619D02*
X44380952Y-105710238D01*
X44380952Y-105710238D02*
X44428571Y-105757857D01*
X44857143Y-106662619D02*
X44857143Y-105662619D01*
X45428571Y-106662619D02*
X45000000Y-106091190D01*
X45428571Y-105662619D02*
X44857143Y-106234047D01*
X45809524Y-106615000D02*
X45952381Y-106662619D01*
X45952381Y-106662619D02*
X46190476Y-106662619D01*
X46190476Y-106662619D02*
X46285714Y-106615000D01*
X46285714Y-106615000D02*
X46333333Y-106567380D01*
X46333333Y-106567380D02*
X46380952Y-106472142D01*
X46380952Y-106472142D02*
X46380952Y-106376904D01*
X46380952Y-106376904D02*
X46333333Y-106281666D01*
X46333333Y-106281666D02*
X46285714Y-106234047D01*
X46285714Y-106234047D02*
X46190476Y-106186428D01*
X46190476Y-106186428D02*
X46000000Y-106138809D01*
X46000000Y-106138809D02*
X45904762Y-106091190D01*
X45904762Y-106091190D02*
X45857143Y-106043571D01*
X45857143Y-106043571D02*
X45809524Y-105948333D01*
X45809524Y-105948333D02*
X45809524Y-105853095D01*
X45809524Y-105853095D02*
X45857143Y-105757857D01*
X45857143Y-105757857D02*
X45904762Y-105710238D01*
X45904762Y-105710238D02*
X46000000Y-105662619D01*
X46000000Y-105662619D02*
X46238095Y-105662619D01*
X46238095Y-105662619D02*
X46380952Y-105710238D01*
X47285714Y-106662619D02*
X46809524Y-106662619D01*
X46809524Y-106662619D02*
X46809524Y-105662619D01*
X47571429Y-106376904D02*
X48047619Y-106376904D01*
X47476191Y-106662619D02*
X47809524Y-105662619D01*
X47809524Y-105662619D02*
X48142857Y-106662619D01*
X48428572Y-106615000D02*
X48571429Y-106662619D01*
X48571429Y-106662619D02*
X48809524Y-106662619D01*
X48809524Y-106662619D02*
X48904762Y-106615000D01*
X48904762Y-106615000D02*
X48952381Y-106567380D01*
X48952381Y-106567380D02*
X49000000Y-106472142D01*
X49000000Y-106472142D02*
X49000000Y-106376904D01*
X49000000Y-106376904D02*
X48952381Y-106281666D01*
X48952381Y-106281666D02*
X48904762Y-106234047D01*
X48904762Y-106234047D02*
X48809524Y-106186428D01*
X48809524Y-106186428D02*
X48619048Y-106138809D01*
X48619048Y-106138809D02*
X48523810Y-106091190D01*
X48523810Y-106091190D02*
X48476191Y-106043571D01*
X48476191Y-106043571D02*
X48428572Y-105948333D01*
X48428572Y-105948333D02*
X48428572Y-105853095D01*
X48428572Y-105853095D02*
X48476191Y-105757857D01*
X48476191Y-105757857D02*
X48523810Y-105710238D01*
X48523810Y-105710238D02*
X48619048Y-105662619D01*
X48619048Y-105662619D02*
X48857143Y-105662619D01*
X48857143Y-105662619D02*
X49000000Y-105710238D01*
X49428572Y-106662619D02*
X49428572Y-105662619D01*
X49428572Y-106138809D02*
X50000000Y-106138809D01*
X50000000Y-106662619D02*
X50000000Y-105662619D01*
X112742857Y-86938809D02*
X112409524Y-86938809D01*
X112409524Y-87462619D02*
X112409524Y-86462619D01*
X112409524Y-86462619D02*
X112885714Y-86462619D01*
X258780952Y-68367380D02*
X258733333Y-68415000D01*
X258733333Y-68415000D02*
X258590476Y-68462619D01*
X258590476Y-68462619D02*
X258495238Y-68462619D01*
X258495238Y-68462619D02*
X258352381Y-68415000D01*
X258352381Y-68415000D02*
X258257143Y-68319761D01*
X258257143Y-68319761D02*
X258209524Y-68224523D01*
X258209524Y-68224523D02*
X258161905Y-68034047D01*
X258161905Y-68034047D02*
X258161905Y-67891190D01*
X258161905Y-67891190D02*
X258209524Y-67700714D01*
X258209524Y-67700714D02*
X258257143Y-67605476D01*
X258257143Y-67605476D02*
X258352381Y-67510238D01*
X258352381Y-67510238D02*
X258495238Y-67462619D01*
X258495238Y-67462619D02*
X258590476Y-67462619D01*
X258590476Y-67462619D02*
X258733333Y-67510238D01*
X258733333Y-67510238D02*
X258780952Y-67557857D01*
X259542857Y-67938809D02*
X259685714Y-67986428D01*
X259685714Y-67986428D02*
X259733333Y-68034047D01*
X259733333Y-68034047D02*
X259780952Y-68129285D01*
X259780952Y-68129285D02*
X259780952Y-68272142D01*
X259780952Y-68272142D02*
X259733333Y-68367380D01*
X259733333Y-68367380D02*
X259685714Y-68415000D01*
X259685714Y-68415000D02*
X259590476Y-68462619D01*
X259590476Y-68462619D02*
X259209524Y-68462619D01*
X259209524Y-68462619D02*
X259209524Y-67462619D01*
X259209524Y-67462619D02*
X259542857Y-67462619D01*
X259542857Y-67462619D02*
X259638095Y-67510238D01*
X259638095Y-67510238D02*
X259685714Y-67557857D01*
X259685714Y-67557857D02*
X259733333Y-67653095D01*
X259733333Y-67653095D02*
X259733333Y-67748333D01*
X259733333Y-67748333D02*
X259685714Y-67843571D01*
X259685714Y-67843571D02*
X259638095Y-67891190D01*
X259638095Y-67891190D02*
X259542857Y-67938809D01*
X259542857Y-67938809D02*
X259209524Y-67938809D01*
X260780952Y-68462619D02*
X260447619Y-67986428D01*
X260209524Y-68462619D02*
X260209524Y-67462619D01*
X260209524Y-67462619D02*
X260590476Y-67462619D01*
X260590476Y-67462619D02*
X260685714Y-67510238D01*
X260685714Y-67510238D02*
X260733333Y-67557857D01*
X260733333Y-67557857D02*
X260780952Y-67653095D01*
X260780952Y-67653095D02*
X260780952Y-67795952D01*
X260780952Y-67795952D02*
X260733333Y-67891190D01*
X260733333Y-67891190D02*
X260685714Y-67938809D01*
X260685714Y-67938809D02*
X260590476Y-67986428D01*
X260590476Y-67986428D02*
X260209524Y-67986428D01*
X261161905Y-68176904D02*
X261638095Y-68176904D01*
X261066667Y-68462619D02*
X261400000Y-67462619D01*
X261400000Y-67462619D02*
X261733333Y-68462619D01*
X262638095Y-68367380D02*
X262590476Y-68415000D01*
X262590476Y-68415000D02*
X262447619Y-68462619D01*
X262447619Y-68462619D02*
X262352381Y-68462619D01*
X262352381Y-68462619D02*
X262209524Y-68415000D01*
X262209524Y-68415000D02*
X262114286Y-68319761D01*
X262114286Y-68319761D02*
X262066667Y-68224523D01*
X262066667Y-68224523D02*
X262019048Y-68034047D01*
X262019048Y-68034047D02*
X262019048Y-67891190D01*
X262019048Y-67891190D02*
X262066667Y-67700714D01*
X262066667Y-67700714D02*
X262114286Y-67605476D01*
X262114286Y-67605476D02*
X262209524Y-67510238D01*
X262209524Y-67510238D02*
X262352381Y-67462619D01*
X262352381Y-67462619D02*
X262447619Y-67462619D01*
X262447619Y-67462619D02*
X262590476Y-67510238D01*
X262590476Y-67510238D02*
X262638095Y-67557857D01*
X103509523Y-106567380D02*
X103461904Y-106615000D01*
X103461904Y-106615000D02*
X103319047Y-106662619D01*
X103319047Y-106662619D02*
X103223809Y-106662619D01*
X103223809Y-106662619D02*
X103080952Y-106615000D01*
X103080952Y-106615000D02*
X102985714Y-106519761D01*
X102985714Y-106519761D02*
X102938095Y-106424523D01*
X102938095Y-106424523D02*
X102890476Y-106234047D01*
X102890476Y-106234047D02*
X102890476Y-106091190D01*
X102890476Y-106091190D02*
X102938095Y-105900714D01*
X102938095Y-105900714D02*
X102985714Y-105805476D01*
X102985714Y-105805476D02*
X103080952Y-105710238D01*
X103080952Y-105710238D02*
X103223809Y-105662619D01*
X103223809Y-105662619D02*
X103319047Y-105662619D01*
X103319047Y-105662619D02*
X103461904Y-105710238D01*
X103461904Y-105710238D02*
X103509523Y-105757857D01*
X136266666Y-29938809D02*
X135933333Y-29938809D01*
X135933333Y-30462619D02*
X135933333Y-29462619D01*
X135933333Y-29462619D02*
X136409523Y-29462619D01*
X137219047Y-29462619D02*
X137028571Y-29462619D01*
X137028571Y-29462619D02*
X136933333Y-29510238D01*
X136933333Y-29510238D02*
X136885714Y-29557857D01*
X136885714Y-29557857D02*
X136790476Y-29700714D01*
X136790476Y-29700714D02*
X136742857Y-29891190D01*
X136742857Y-29891190D02*
X136742857Y-30272142D01*
X136742857Y-30272142D02*
X136790476Y-30367380D01*
X136790476Y-30367380D02*
X136838095Y-30415000D01*
X136838095Y-30415000D02*
X136933333Y-30462619D01*
X136933333Y-30462619D02*
X137123809Y-30462619D01*
X137123809Y-30462619D02*
X137219047Y-30415000D01*
X137219047Y-30415000D02*
X137266666Y-30367380D01*
X137266666Y-30367380D02*
X137314285Y-30272142D01*
X137314285Y-30272142D02*
X137314285Y-30034047D01*
X137314285Y-30034047D02*
X137266666Y-29938809D01*
X137266666Y-29938809D02*
X137219047Y-29891190D01*
X137219047Y-29891190D02*
X137123809Y-29843571D01*
X137123809Y-29843571D02*
X136933333Y-29843571D01*
X136933333Y-29843571D02*
X136838095Y-29891190D01*
X136838095Y-29891190D02*
X136790476Y-29938809D01*
X136790476Y-29938809D02*
X136742857Y-30034047D01*
X284528571Y-77538809D02*
X284861904Y-77538809D01*
X285004761Y-78062619D02*
X284528571Y-78062619D01*
X284528571Y-78062619D02*
X284528571Y-77062619D01*
X284528571Y-77062619D02*
X285004761Y-77062619D01*
X285433333Y-78062619D02*
X285433333Y-77062619D01*
X285433333Y-77062619D02*
X286004761Y-78062619D01*
X286004761Y-78062619D02*
X286004761Y-77062619D01*
X286338095Y-77062619D02*
X286909523Y-77062619D01*
X286623809Y-78062619D02*
X286623809Y-77062619D01*
X287242857Y-77538809D02*
X287576190Y-77538809D01*
X287719047Y-78062619D02*
X287242857Y-78062619D01*
X287242857Y-78062619D02*
X287242857Y-77062619D01*
X287242857Y-77062619D02*
X287719047Y-77062619D01*
X288719047Y-78062619D02*
X288385714Y-77586428D01*
X288147619Y-78062619D02*
X288147619Y-77062619D01*
X288147619Y-77062619D02*
X288528571Y-77062619D01*
X288528571Y-77062619D02*
X288623809Y-77110238D01*
X288623809Y-77110238D02*
X288671428Y-77157857D01*
X288671428Y-77157857D02*
X288719047Y-77253095D01*
X288719047Y-77253095D02*
X288719047Y-77395952D01*
X288719047Y-77395952D02*
X288671428Y-77491190D01*
X288671428Y-77491190D02*
X288623809Y-77538809D01*
X288623809Y-77538809D02*
X288528571Y-77586428D01*
X288528571Y-77586428D02*
X288147619Y-77586428D01*
X239176190Y-67462619D02*
X239366666Y-67462619D01*
X239366666Y-67462619D02*
X239461904Y-67510238D01*
X239461904Y-67510238D02*
X239557142Y-67605476D01*
X239557142Y-67605476D02*
X239604761Y-67795952D01*
X239604761Y-67795952D02*
X239604761Y-68129285D01*
X239604761Y-68129285D02*
X239557142Y-68319761D01*
X239557142Y-68319761D02*
X239461904Y-68415000D01*
X239461904Y-68415000D02*
X239366666Y-68462619D01*
X239366666Y-68462619D02*
X239176190Y-68462619D01*
X239176190Y-68462619D02*
X239080952Y-68415000D01*
X239080952Y-68415000D02*
X238985714Y-68319761D01*
X238985714Y-68319761D02*
X238938095Y-68129285D01*
X238938095Y-68129285D02*
X238938095Y-67795952D01*
X238938095Y-67795952D02*
X238985714Y-67605476D01*
X238985714Y-67605476D02*
X239080952Y-67510238D01*
X239080952Y-67510238D02*
X239176190Y-67462619D01*
X240366666Y-67938809D02*
X240509523Y-67986428D01*
X240509523Y-67986428D02*
X240557142Y-68034047D01*
X240557142Y-68034047D02*
X240604761Y-68129285D01*
X240604761Y-68129285D02*
X240604761Y-68272142D01*
X240604761Y-68272142D02*
X240557142Y-68367380D01*
X240557142Y-68367380D02*
X240509523Y-68415000D01*
X240509523Y-68415000D02*
X240414285Y-68462619D01*
X240414285Y-68462619D02*
X240033333Y-68462619D01*
X240033333Y-68462619D02*
X240033333Y-67462619D01*
X240033333Y-67462619D02*
X240366666Y-67462619D01*
X240366666Y-67462619D02*
X240461904Y-67510238D01*
X240461904Y-67510238D02*
X240509523Y-67557857D01*
X240509523Y-67557857D02*
X240557142Y-67653095D01*
X240557142Y-67653095D02*
X240557142Y-67748333D01*
X240557142Y-67748333D02*
X240509523Y-67843571D01*
X240509523Y-67843571D02*
X240461904Y-67891190D01*
X240461904Y-67891190D02*
X240366666Y-67938809D01*
X240366666Y-67938809D02*
X240033333Y-67938809D01*
X241604761Y-68462619D02*
X241271428Y-67986428D01*
X241033333Y-68462619D02*
X241033333Y-67462619D01*
X241033333Y-67462619D02*
X241414285Y-67462619D01*
X241414285Y-67462619D02*
X241509523Y-67510238D01*
X241509523Y-67510238D02*
X241557142Y-67557857D01*
X241557142Y-67557857D02*
X241604761Y-67653095D01*
X241604761Y-67653095D02*
X241604761Y-67795952D01*
X241604761Y-67795952D02*
X241557142Y-67891190D01*
X241557142Y-67891190D02*
X241509523Y-67938809D01*
X241509523Y-67938809D02*
X241414285Y-67986428D01*
X241414285Y-67986428D02*
X241033333Y-67986428D01*
X241985714Y-68176904D02*
X242461904Y-68176904D01*
X241890476Y-68462619D02*
X242223809Y-67462619D01*
X242223809Y-67462619D02*
X242557142Y-68462619D01*
X243461904Y-68367380D02*
X243414285Y-68415000D01*
X243414285Y-68415000D02*
X243271428Y-68462619D01*
X243271428Y-68462619D02*
X243176190Y-68462619D01*
X243176190Y-68462619D02*
X243033333Y-68415000D01*
X243033333Y-68415000D02*
X242938095Y-68319761D01*
X242938095Y-68319761D02*
X242890476Y-68224523D01*
X242890476Y-68224523D02*
X242842857Y-68034047D01*
X242842857Y-68034047D02*
X242842857Y-67891190D01*
X242842857Y-67891190D02*
X242890476Y-67700714D01*
X242890476Y-67700714D02*
X242938095Y-67605476D01*
X242938095Y-67605476D02*
X243033333Y-67510238D01*
X243033333Y-67510238D02*
X243176190Y-67462619D01*
X243176190Y-67462619D02*
X243271428Y-67462619D01*
X243271428Y-67462619D02*
X243414285Y-67510238D01*
X243414285Y-67510238D02*
X243461904Y-67557857D01*
X288014286Y-105662619D02*
X288014286Y-106472142D01*
X288014286Y-106472142D02*
X288061905Y-106567380D01*
X288061905Y-106567380D02*
X288109524Y-106615000D01*
X288109524Y-106615000D02*
X288204762Y-106662619D01*
X288204762Y-106662619D02*
X288395238Y-106662619D01*
X288395238Y-106662619D02*
X288490476Y-106615000D01*
X288490476Y-106615000D02*
X288538095Y-106567380D01*
X288538095Y-106567380D02*
X288585714Y-106472142D01*
X288585714Y-106472142D02*
X288585714Y-105662619D01*
X289061905Y-106662619D02*
X289061905Y-105662619D01*
X289061905Y-105662619D02*
X289442857Y-105662619D01*
X289442857Y-105662619D02*
X289538095Y-105710238D01*
X289538095Y-105710238D02*
X289585714Y-105757857D01*
X289585714Y-105757857D02*
X289633333Y-105853095D01*
X289633333Y-105853095D02*
X289633333Y-105995952D01*
X289633333Y-105995952D02*
X289585714Y-106091190D01*
X289585714Y-106091190D02*
X289538095Y-106138809D01*
X289538095Y-106138809D02*
X289442857Y-106186428D01*
X289442857Y-106186428D02*
X289061905Y-106186428D01*
X60066666Y-29938809D02*
X59733333Y-29938809D01*
X59733333Y-30462619D02*
X59733333Y-29462619D01*
X59733333Y-29462619D02*
X60209523Y-29462619D01*
X60542857Y-29557857D02*
X60590476Y-29510238D01*
X60590476Y-29510238D02*
X60685714Y-29462619D01*
X60685714Y-29462619D02*
X60923809Y-29462619D01*
X60923809Y-29462619D02*
X61019047Y-29510238D01*
X61019047Y-29510238D02*
X61066666Y-29557857D01*
X61066666Y-29557857D02*
X61114285Y-29653095D01*
X61114285Y-29653095D02*
X61114285Y-29748333D01*
X61114285Y-29748333D02*
X61066666Y-29891190D01*
X61066666Y-29891190D02*
X60495238Y-30462619D01*
X60495238Y-30462619D02*
X61114285Y-30462619D01*
X21009524Y-29938809D02*
X21342857Y-29938809D01*
X21485714Y-30462619D02*
X21009524Y-30462619D01*
X21009524Y-30462619D02*
X21009524Y-29462619D01*
X21009524Y-29462619D02*
X21485714Y-29462619D01*
X21866667Y-30415000D02*
X22009524Y-30462619D01*
X22009524Y-30462619D02*
X22247619Y-30462619D01*
X22247619Y-30462619D02*
X22342857Y-30415000D01*
X22342857Y-30415000D02*
X22390476Y-30367380D01*
X22390476Y-30367380D02*
X22438095Y-30272142D01*
X22438095Y-30272142D02*
X22438095Y-30176904D01*
X22438095Y-30176904D02*
X22390476Y-30081666D01*
X22390476Y-30081666D02*
X22342857Y-30034047D01*
X22342857Y-30034047D02*
X22247619Y-29986428D01*
X22247619Y-29986428D02*
X22057143Y-29938809D01*
X22057143Y-29938809D02*
X21961905Y-29891190D01*
X21961905Y-29891190D02*
X21914286Y-29843571D01*
X21914286Y-29843571D02*
X21866667Y-29748333D01*
X21866667Y-29748333D02*
X21866667Y-29653095D01*
X21866667Y-29653095D02*
X21914286Y-29557857D01*
X21914286Y-29557857D02*
X21961905Y-29510238D01*
X21961905Y-29510238D02*
X22057143Y-29462619D01*
X22057143Y-29462619D02*
X22295238Y-29462619D01*
X22295238Y-29462619D02*
X22438095Y-29510238D01*
X23438095Y-30367380D02*
X23390476Y-30415000D01*
X23390476Y-30415000D02*
X23247619Y-30462619D01*
X23247619Y-30462619D02*
X23152381Y-30462619D01*
X23152381Y-30462619D02*
X23009524Y-30415000D01*
X23009524Y-30415000D02*
X22914286Y-30319761D01*
X22914286Y-30319761D02*
X22866667Y-30224523D01*
X22866667Y-30224523D02*
X22819048Y-30034047D01*
X22819048Y-30034047D02*
X22819048Y-29891190D01*
X22819048Y-29891190D02*
X22866667Y-29700714D01*
X22866667Y-29700714D02*
X22914286Y-29605476D01*
X22914286Y-29605476D02*
X23009524Y-29510238D01*
X23009524Y-29510238D02*
X23152381Y-29462619D01*
X23152381Y-29462619D02*
X23247619Y-29462619D01*
X23247619Y-29462619D02*
X23390476Y-29510238D01*
X23390476Y-29510238D02*
X23438095Y-29557857D01*
X238619047Y-125138809D02*
X238285714Y-125138809D01*
X238285714Y-125662619D02*
X238285714Y-124662619D01*
X238285714Y-124662619D02*
X238761904Y-124662619D01*
X239142857Y-125662619D02*
X239142857Y-124662619D01*
X239142857Y-124662619D02*
X239714285Y-125662619D01*
X239714285Y-125662619D02*
X239714285Y-124662619D01*
X19423809Y-48938809D02*
X19566666Y-48986428D01*
X19566666Y-48986428D02*
X19614285Y-49034047D01*
X19614285Y-49034047D02*
X19661904Y-49129285D01*
X19661904Y-49129285D02*
X19661904Y-49272142D01*
X19661904Y-49272142D02*
X19614285Y-49367380D01*
X19614285Y-49367380D02*
X19566666Y-49415000D01*
X19566666Y-49415000D02*
X19471428Y-49462619D01*
X19471428Y-49462619D02*
X19090476Y-49462619D01*
X19090476Y-49462619D02*
X19090476Y-48462619D01*
X19090476Y-48462619D02*
X19423809Y-48462619D01*
X19423809Y-48462619D02*
X19519047Y-48510238D01*
X19519047Y-48510238D02*
X19566666Y-48557857D01*
X19566666Y-48557857D02*
X19614285Y-48653095D01*
X19614285Y-48653095D02*
X19614285Y-48748333D01*
X19614285Y-48748333D02*
X19566666Y-48843571D01*
X19566666Y-48843571D02*
X19519047Y-48891190D01*
X19519047Y-48891190D02*
X19423809Y-48938809D01*
X19423809Y-48938809D02*
X19090476Y-48938809D01*
X20042857Y-49176904D02*
X20519047Y-49176904D01*
X19947619Y-49462619D02*
X20280952Y-48462619D01*
X20280952Y-48462619D02*
X20614285Y-49462619D01*
X21519047Y-49367380D02*
X21471428Y-49415000D01*
X21471428Y-49415000D02*
X21328571Y-49462619D01*
X21328571Y-49462619D02*
X21233333Y-49462619D01*
X21233333Y-49462619D02*
X21090476Y-49415000D01*
X21090476Y-49415000D02*
X20995238Y-49319761D01*
X20995238Y-49319761D02*
X20947619Y-49224523D01*
X20947619Y-49224523D02*
X20900000Y-49034047D01*
X20900000Y-49034047D02*
X20900000Y-48891190D01*
X20900000Y-48891190D02*
X20947619Y-48700714D01*
X20947619Y-48700714D02*
X20995238Y-48605476D01*
X20995238Y-48605476D02*
X21090476Y-48510238D01*
X21090476Y-48510238D02*
X21233333Y-48462619D01*
X21233333Y-48462619D02*
X21328571Y-48462619D01*
X21328571Y-48462619D02*
X21471428Y-48510238D01*
X21471428Y-48510238D02*
X21519047Y-48557857D01*
X21947619Y-49462619D02*
X21947619Y-48462619D01*
X22519047Y-49462619D02*
X22090476Y-48891190D01*
X22519047Y-48462619D02*
X21947619Y-49034047D01*
X22804762Y-48462619D02*
X23376190Y-48462619D01*
X23090476Y-49462619D02*
X23090476Y-48462619D01*
X23709524Y-49462619D02*
X23709524Y-48462619D01*
X24757142Y-49367380D02*
X24709523Y-49415000D01*
X24709523Y-49415000D02*
X24566666Y-49462619D01*
X24566666Y-49462619D02*
X24471428Y-49462619D01*
X24471428Y-49462619D02*
X24328571Y-49415000D01*
X24328571Y-49415000D02*
X24233333Y-49319761D01*
X24233333Y-49319761D02*
X24185714Y-49224523D01*
X24185714Y-49224523D02*
X24138095Y-49034047D01*
X24138095Y-49034047D02*
X24138095Y-48891190D01*
X24138095Y-48891190D02*
X24185714Y-48700714D01*
X24185714Y-48700714D02*
X24233333Y-48605476D01*
X24233333Y-48605476D02*
X24328571Y-48510238D01*
X24328571Y-48510238D02*
X24471428Y-48462619D01*
X24471428Y-48462619D02*
X24566666Y-48462619D01*
X24566666Y-48462619D02*
X24709523Y-48510238D01*
X24709523Y-48510238D02*
X24757142Y-48557857D01*
X25185714Y-49462619D02*
X25185714Y-48462619D01*
X25757142Y-49462619D02*
X25328571Y-48891190D01*
X25757142Y-48462619D02*
X25185714Y-49034047D01*
X260861904Y-106662619D02*
X260528571Y-106186428D01*
X260290476Y-106662619D02*
X260290476Y-105662619D01*
X260290476Y-105662619D02*
X260671428Y-105662619D01*
X260671428Y-105662619D02*
X260766666Y-105710238D01*
X260766666Y-105710238D02*
X260814285Y-105757857D01*
X260814285Y-105757857D02*
X260861904Y-105853095D01*
X260861904Y-105853095D02*
X260861904Y-105995952D01*
X260861904Y-105995952D02*
X260814285Y-106091190D01*
X260814285Y-106091190D02*
X260766666Y-106138809D01*
X260766666Y-106138809D02*
X260671428Y-106186428D01*
X260671428Y-106186428D02*
X260290476Y-106186428D01*
X261242857Y-106615000D02*
X261385714Y-106662619D01*
X261385714Y-106662619D02*
X261623809Y-106662619D01*
X261623809Y-106662619D02*
X261719047Y-106615000D01*
X261719047Y-106615000D02*
X261766666Y-106567380D01*
X261766666Y-106567380D02*
X261814285Y-106472142D01*
X261814285Y-106472142D02*
X261814285Y-106376904D01*
X261814285Y-106376904D02*
X261766666Y-106281666D01*
X261766666Y-106281666D02*
X261719047Y-106234047D01*
X261719047Y-106234047D02*
X261623809Y-106186428D01*
X261623809Y-106186428D02*
X261433333Y-106138809D01*
X261433333Y-106138809D02*
X261338095Y-106091190D01*
X261338095Y-106091190D02*
X261290476Y-106043571D01*
X261290476Y-106043571D02*
X261242857Y-105948333D01*
X261242857Y-105948333D02*
X261242857Y-105853095D01*
X261242857Y-105853095D02*
X261290476Y-105757857D01*
X261290476Y-105757857D02*
X261338095Y-105710238D01*
X261338095Y-105710238D02*
X261433333Y-105662619D01*
X261433333Y-105662619D02*
X261671428Y-105662619D01*
X261671428Y-105662619D02*
X261814285Y-105710238D01*
X262242857Y-106662619D02*
X262242857Y-105662619D01*
X262242857Y-106138809D02*
X262814285Y-106138809D01*
X262814285Y-106662619D02*
X262814285Y-105662619D01*
X263290476Y-106662619D02*
X263290476Y-105662619D01*
X264099999Y-106138809D02*
X263766666Y-106138809D01*
X263766666Y-106662619D02*
X263766666Y-105662619D01*
X263766666Y-105662619D02*
X264242856Y-105662619D01*
X264480952Y-105662619D02*
X265052380Y-105662619D01*
X264766666Y-106662619D02*
X264766666Y-105662619D01*
%LPC*%
D11*
X267493750Y-34290000D03*
D12*
X267493750Y-49530000D03*
D11*
X291306250Y-34290000D03*
D12*
X291306250Y-49530000D03*
D11*
X193675000Y-124460000D03*
D12*
X193675000Y-109220000D03*
D11*
X93662500Y-124460000D03*
D12*
X93662500Y-109220000D03*
D11*
X279558750Y-57943750D03*
X279558750Y-81756250D03*
D12*
X294798750Y-57943750D03*
X294798750Y-81756250D03*
D13*
X241617500Y-98425000D03*
D12*
X236537500Y-98425000D03*
D13*
X231457500Y-98425000D03*
D14*
X232727500Y-95885000D03*
X239077500Y-93345000D03*
D13*
X243998750Y-117475000D03*
D12*
X238918750Y-117475000D03*
D13*
X233838750Y-117475000D03*
D14*
X235108750Y-114935000D03*
X241458750Y-112395000D03*
D15*
X238918750Y-122555000D03*
D13*
X193992500Y-79375000D03*
D12*
X188912500Y-79375000D03*
D13*
X183832500Y-79375000D03*
D14*
X185102500Y-76835000D03*
X191452500Y-74295000D03*
D15*
X136525000Y-46355000D03*
D13*
X274955000Y-117475000D03*
D12*
X269875000Y-117475000D03*
D13*
X264795000Y-117475000D03*
D14*
X266065000Y-114935000D03*
X272415000Y-112395000D03*
D13*
X103505000Y-22225000D03*
D12*
X98425000Y-22225000D03*
D13*
X93345000Y-22225000D03*
D14*
X94615000Y-19685000D03*
X100965000Y-17145000D03*
D15*
X136525000Y-27305000D03*
D13*
X294005000Y-117475000D03*
D12*
X288925000Y-117475000D03*
D13*
X283845000Y-117475000D03*
D14*
X285115000Y-114935000D03*
X291465000Y-112395000D03*
D13*
X148748750Y-117475000D03*
D12*
X143668750Y-117475000D03*
D13*
X138588750Y-117475000D03*
D14*
X139858750Y-114935000D03*
X146208750Y-112395000D03*
D13*
X60642500Y-79375000D03*
D12*
X55562500Y-79375000D03*
D13*
X50482500Y-79375000D03*
D14*
X51752500Y-76835000D03*
X58102500Y-74295000D03*
D15*
X41275000Y-46355000D03*
D13*
X84455000Y-41275000D03*
D12*
X79375000Y-41275000D03*
D13*
X74295000Y-41275000D03*
D14*
X75565000Y-38735000D03*
X81915000Y-36195000D03*
D13*
X184467500Y-98425000D03*
D12*
X179387500Y-98425000D03*
D13*
X174307500Y-98425000D03*
D14*
X175577500Y-95885000D03*
X181927500Y-93345000D03*
D15*
X88900000Y-65405000D03*
X286543750Y-74930000D03*
X250825000Y-27305000D03*
D13*
X29686250Y-98425000D03*
D12*
X24606250Y-98425000D03*
D13*
X19526250Y-98425000D03*
D14*
X20796250Y-95885000D03*
X27146250Y-93345000D03*
D13*
X117792500Y-79375000D03*
D12*
X112712500Y-79375000D03*
D13*
X107632500Y-79375000D03*
D14*
X108902500Y-76835000D03*
X115252500Y-74295000D03*
D15*
X60325000Y-27305000D03*
X117475000Y-46355000D03*
D13*
X127317500Y-98425000D03*
D12*
X122237500Y-98425000D03*
D13*
X117157500Y-98425000D03*
D14*
X118427500Y-95885000D03*
X124777500Y-93345000D03*
D13*
X160655000Y-22225000D03*
D12*
X155575000Y-22225000D03*
D13*
X150495000Y-22225000D03*
D14*
X151765000Y-19685000D03*
X158115000Y-17145000D03*
D13*
X151130000Y-60325000D03*
D12*
X146050000Y-60325000D03*
D13*
X140970000Y-60325000D03*
D14*
X142240000Y-57785000D03*
X148590000Y-55245000D03*
D13*
X132080000Y-60325000D03*
D12*
X127000000Y-60325000D03*
D13*
X121920000Y-60325000D03*
D14*
X123190000Y-57785000D03*
X129540000Y-55245000D03*
D13*
X213042500Y-79375000D03*
D12*
X207962500Y-79375000D03*
D13*
X202882500Y-79375000D03*
D14*
X204152500Y-76835000D03*
X210502500Y-74295000D03*
D13*
X146367500Y-98425000D03*
D12*
X141287500Y-98425000D03*
D13*
X136207500Y-98425000D03*
D14*
X137477500Y-95885000D03*
X143827500Y-93345000D03*
D15*
X174625000Y-27305000D03*
X217487500Y-103505000D03*
X279400000Y-46355000D03*
D13*
X46355000Y-41275000D03*
D12*
X41275000Y-41275000D03*
D13*
X36195000Y-41275000D03*
D14*
X37465000Y-38735000D03*
X43815000Y-36195000D03*
D15*
X24606250Y-103505000D03*
D13*
X227330000Y-60325000D03*
D12*
X222250000Y-60325000D03*
D13*
X217170000Y-60325000D03*
D14*
X218440000Y-57785000D03*
X224790000Y-55245000D03*
D15*
X41275000Y-27305000D03*
X227012500Y-84455000D03*
D13*
X79692500Y-79375000D03*
D12*
X74612500Y-79375000D03*
D13*
X69532500Y-79375000D03*
D14*
X70802500Y-76835000D03*
X77152500Y-74295000D03*
D15*
X222250000Y-65405000D03*
X143668750Y-122555000D03*
D13*
X284480000Y-41275000D03*
D12*
X279400000Y-41275000D03*
D13*
X274320000Y-41275000D03*
D14*
X275590000Y-38735000D03*
X281940000Y-36195000D03*
D13*
X217805000Y-22225000D03*
D12*
X212725000Y-22225000D03*
D13*
X207645000Y-22225000D03*
D14*
X208915000Y-19685000D03*
X215265000Y-17145000D03*
D13*
X236855000Y-22225000D03*
D12*
X231775000Y-22225000D03*
D13*
X226695000Y-22225000D03*
D14*
X227965000Y-19685000D03*
X234315000Y-17145000D03*
D15*
X307975000Y-103505000D03*
D13*
X255905000Y-22225000D03*
D12*
X250825000Y-22225000D03*
D13*
X245745000Y-22225000D03*
D14*
X247015000Y-19685000D03*
X253365000Y-17145000D03*
D13*
X34448750Y-79375000D03*
D12*
X29368750Y-79375000D03*
D13*
X24288750Y-79375000D03*
D14*
X25558750Y-76835000D03*
X31908750Y-74295000D03*
D15*
X160337500Y-103505000D03*
D13*
X222567500Y-98425000D03*
D12*
X217487500Y-98425000D03*
D13*
X212407500Y-98425000D03*
D14*
X213677500Y-95885000D03*
X220027500Y-93345000D03*
D13*
X313055000Y-117475000D03*
D12*
X307975000Y-117475000D03*
D13*
X302895000Y-117475000D03*
D14*
X304165000Y-114935000D03*
X310515000Y-112395000D03*
D13*
X141605000Y-22225000D03*
D12*
X136525000Y-22225000D03*
D13*
X131445000Y-22225000D03*
D14*
X132715000Y-19685000D03*
X139065000Y-17145000D03*
D13*
X84455000Y-22225000D03*
D12*
X79375000Y-22225000D03*
D13*
X74295000Y-22225000D03*
D14*
X75565000Y-19685000D03*
X81915000Y-17145000D03*
D15*
X307975000Y-27305000D03*
D13*
X294005000Y-22225000D03*
D12*
X288925000Y-22225000D03*
D13*
X283845000Y-22225000D03*
D14*
X285115000Y-19685000D03*
X291465000Y-17145000D03*
D16*
X108885715Y-119439285D03*
X109657144Y-119439285D03*
X110428572Y-119439285D03*
X111200001Y-119439285D03*
X111971428Y-119439285D03*
X112742857Y-119439285D03*
X113514285Y-119439285D03*
X108885715Y-118667857D03*
X109657143Y-118667857D03*
X110428571Y-118667857D03*
X111200000Y-118667857D03*
X111971428Y-118667857D03*
X112742857Y-118667857D03*
X113514285Y-118667857D03*
X109657143Y-117896429D03*
X110428571Y-117896429D03*
X111200000Y-117896429D03*
X111971428Y-117896429D03*
X112742857Y-117896429D03*
X113514285Y-117896429D03*
X108885715Y-117896428D03*
X113514285Y-117125001D03*
X108885715Y-117125000D03*
X109657143Y-117125000D03*
X110428571Y-117125000D03*
X111200000Y-117125000D03*
X111971428Y-117125000D03*
X112742857Y-117125000D03*
X113514285Y-116353573D03*
X109657143Y-116353572D03*
X110428571Y-116353572D03*
X111200000Y-116353572D03*
X111971428Y-116353572D03*
X112742857Y-116353572D03*
X108885715Y-116353571D03*
X113514285Y-115582145D03*
X108885715Y-115582143D03*
X109657143Y-115582143D03*
X110428571Y-115582143D03*
X111200000Y-115582143D03*
X111971428Y-115582143D03*
X112742857Y-115582143D03*
X109657143Y-114810715D03*
X110428571Y-114810715D03*
X111200000Y-114810715D03*
X111971428Y-114810715D03*
X112742857Y-114810715D03*
X113514285Y-114810715D03*
X108885715Y-114810714D03*
D15*
X29368750Y-84455000D03*
X207962500Y-84455000D03*
X24606250Y-122555000D03*
D13*
X251142500Y-79375000D03*
D12*
X246062500Y-79375000D03*
D13*
X240982500Y-79375000D03*
D14*
X242252500Y-76835000D03*
X248602500Y-74295000D03*
D13*
X274955000Y-22225000D03*
D12*
X269875000Y-22225000D03*
D13*
X264795000Y-22225000D03*
D14*
X266065000Y-19685000D03*
X272415000Y-17145000D03*
D15*
X98425000Y-46355000D03*
D13*
X113030000Y-60325000D03*
D12*
X107950000Y-60325000D03*
D13*
X102870000Y-60325000D03*
D14*
X104140000Y-57785000D03*
X110490000Y-55245000D03*
D15*
X74612500Y-84455000D03*
X307975000Y-84455000D03*
D13*
X236855000Y-41275000D03*
D12*
X231775000Y-41275000D03*
D13*
X226695000Y-41275000D03*
D14*
X227965000Y-38735000D03*
X234315000Y-36195000D03*
D13*
X291623750Y-69850000D03*
D12*
X286543750Y-69850000D03*
D13*
X281463750Y-69850000D03*
D14*
X282733750Y-67310000D03*
X289083750Y-64770000D03*
D15*
X288925000Y-27305000D03*
X269875000Y-122555000D03*
X262731250Y-103505000D03*
D13*
X98742500Y-79375000D03*
D12*
X93662500Y-79375000D03*
D13*
X88582500Y-79375000D03*
D14*
X89852500Y-76835000D03*
X96202500Y-74295000D03*
D13*
X29686250Y-117475000D03*
D12*
X24606250Y-117475000D03*
D13*
X19526250Y-117475000D03*
D14*
X20796250Y-114935000D03*
X27146250Y-112395000D03*
D15*
X65087500Y-103505000D03*
X265112500Y-84455000D03*
X212725000Y-46355000D03*
D13*
X77311250Y-117475000D03*
D12*
X72231250Y-117475000D03*
D13*
X67151250Y-117475000D03*
D14*
X68421250Y-114935000D03*
X74771250Y-112395000D03*
D15*
X146050000Y-65405000D03*
D13*
X141605000Y-41275000D03*
D12*
X136525000Y-41275000D03*
D13*
X131445000Y-41275000D03*
D14*
X132715000Y-38735000D03*
X139065000Y-36195000D03*
D15*
X46037500Y-103505000D03*
X203200000Y-65405000D03*
D13*
X65405000Y-22225000D03*
D12*
X60325000Y-22225000D03*
D13*
X55245000Y-22225000D03*
D14*
X56515000Y-19685000D03*
X62865000Y-17145000D03*
D13*
X32067500Y-60325000D03*
D12*
X26987500Y-60325000D03*
D13*
X21907500Y-60325000D03*
D14*
X23177500Y-57785000D03*
X29527500Y-55245000D03*
D15*
X174625000Y-46355000D03*
D13*
X189230000Y-60325000D03*
D12*
X184150000Y-60325000D03*
D13*
X179070000Y-60325000D03*
D14*
X180340000Y-57785000D03*
X186690000Y-55245000D03*
D15*
X107950000Y-65405000D03*
X50800000Y-65405000D03*
X155575000Y-46355000D03*
D13*
X89217500Y-98425000D03*
D12*
X84137500Y-98425000D03*
D13*
X79057500Y-98425000D03*
D14*
X80327500Y-95885000D03*
X86677500Y-93345000D03*
D15*
X26987500Y-65405000D03*
X188912500Y-84455000D03*
X179387500Y-103505000D03*
D13*
X122555000Y-41275000D03*
D12*
X117475000Y-41275000D03*
D13*
X112395000Y-41275000D03*
D14*
X113665000Y-38735000D03*
X120015000Y-36195000D03*
D15*
X98425000Y-27305000D03*
X22225000Y-27305000D03*
D13*
X179705000Y-22225000D03*
D12*
X174625000Y-22225000D03*
D13*
X169545000Y-22225000D03*
D14*
X170815000Y-19685000D03*
X177165000Y-17145000D03*
D13*
X313055000Y-98425000D03*
D12*
X307975000Y-98425000D03*
D13*
X302895000Y-98425000D03*
D14*
X304165000Y-95885000D03*
X310515000Y-93345000D03*
D15*
X112712500Y-84455000D03*
D13*
X265430000Y-60325000D03*
D12*
X260350000Y-60325000D03*
D13*
X255270000Y-60325000D03*
D14*
X256540000Y-57785000D03*
X262890000Y-55245000D03*
D13*
X108267500Y-98425000D03*
D12*
X103187500Y-98425000D03*
D13*
X98107500Y-98425000D03*
D14*
X99377500Y-95885000D03*
X105727500Y-93345000D03*
D15*
X122237500Y-103505000D03*
D13*
X198755000Y-41275000D03*
D12*
X193675000Y-41275000D03*
D13*
X188595000Y-41275000D03*
D14*
X189865000Y-38735000D03*
X196215000Y-36195000D03*
D15*
X193675000Y-46355000D03*
D13*
X74930000Y-60325000D03*
D12*
X69850000Y-60325000D03*
D13*
X64770000Y-60325000D03*
D14*
X66040000Y-57785000D03*
X72390000Y-55245000D03*
D15*
X60325000Y-46355000D03*
D13*
X267811250Y-98425000D03*
D12*
X262731250Y-98425000D03*
D13*
X257651250Y-98425000D03*
D14*
X258921250Y-95885000D03*
X265271250Y-93345000D03*
D13*
X160655000Y-41275000D03*
D12*
X155575000Y-41275000D03*
D13*
X150495000Y-41275000D03*
D14*
X151765000Y-38735000D03*
X158115000Y-36195000D03*
D13*
X179705000Y-41275000D03*
D12*
X174625000Y-41275000D03*
D13*
X169545000Y-41275000D03*
D14*
X170815000Y-38735000D03*
X177165000Y-36195000D03*
D13*
X220186250Y-117475000D03*
D12*
X215106250Y-117475000D03*
D13*
X210026250Y-117475000D03*
D14*
X211296250Y-114935000D03*
X217646250Y-112395000D03*
D15*
X212725000Y-27305000D03*
X93662500Y-84455000D03*
X215106250Y-122555000D03*
D13*
X70167500Y-98425000D03*
D12*
X65087500Y-98425000D03*
D13*
X60007500Y-98425000D03*
D14*
X61277500Y-95885000D03*
X67627500Y-93345000D03*
D13*
X255905000Y-41275000D03*
D12*
X250825000Y-41275000D03*
D13*
X245745000Y-41275000D03*
D14*
X247015000Y-38735000D03*
X253365000Y-36195000D03*
D15*
X165100000Y-65405000D03*
X169862500Y-84455000D03*
X236537500Y-103505000D03*
D13*
X170180000Y-60325000D03*
D12*
X165100000Y-60325000D03*
D13*
X160020000Y-60325000D03*
D14*
X161290000Y-57785000D03*
X167640000Y-55245000D03*
D13*
X51117500Y-98425000D03*
D12*
X46037500Y-98425000D03*
D13*
X40957500Y-98425000D03*
D14*
X42227500Y-95885000D03*
X48577500Y-93345000D03*
D15*
X246062500Y-84455000D03*
X103187500Y-103505000D03*
D13*
X65405000Y-41275000D03*
D12*
X60325000Y-41275000D03*
D13*
X55245000Y-41275000D03*
D14*
X56515000Y-38735000D03*
X62865000Y-36195000D03*
D15*
X79375000Y-27305000D03*
X84137500Y-103505000D03*
D13*
X53498750Y-117475000D03*
D12*
X48418750Y-117475000D03*
D13*
X43338750Y-117475000D03*
D14*
X44608750Y-114935000D03*
X50958750Y-112395000D03*
D15*
X241300000Y-65405000D03*
D13*
X198755000Y-22225000D03*
D12*
X193675000Y-22225000D03*
D13*
X188595000Y-22225000D03*
D14*
X189865000Y-19685000D03*
X196215000Y-17145000D03*
D13*
X270192500Y-79375000D03*
D12*
X265112500Y-79375000D03*
D13*
X260032500Y-79375000D03*
D14*
X261302500Y-76835000D03*
X267652500Y-74295000D03*
D13*
X217805000Y-41275000D03*
D12*
X212725000Y-41275000D03*
D13*
X207645000Y-41275000D03*
D14*
X208915000Y-38735000D03*
X215265000Y-36195000D03*
D15*
X231775000Y-46355000D03*
X155575000Y-27305000D03*
X307975000Y-46355000D03*
D13*
X313055000Y-79375000D03*
D12*
X307975000Y-79375000D03*
D13*
X302895000Y-79375000D03*
D14*
X304165000Y-76835000D03*
X310515000Y-74295000D03*
D13*
X165417500Y-98425000D03*
D12*
X160337500Y-98425000D03*
D13*
X155257500Y-98425000D03*
D14*
X156527500Y-95885000D03*
X162877500Y-93345000D03*
D13*
X174942500Y-79375000D03*
D12*
X169862500Y-79375000D03*
D13*
X164782500Y-79375000D03*
D14*
X166052500Y-76835000D03*
X172402500Y-74295000D03*
D15*
X127000000Y-65405000D03*
D13*
X203517500Y-98425000D03*
D12*
X198437500Y-98425000D03*
D13*
X193357500Y-98425000D03*
D14*
X194627500Y-95885000D03*
X200977500Y-93345000D03*
D15*
X193675000Y-27305000D03*
D13*
X246380000Y-60325000D03*
D12*
X241300000Y-60325000D03*
D13*
X236220000Y-60325000D03*
D14*
X237490000Y-57785000D03*
X243840000Y-55245000D03*
D13*
X93980000Y-60325000D03*
D12*
X88900000Y-60325000D03*
D13*
X83820000Y-60325000D03*
D14*
X85090000Y-57785000D03*
X91440000Y-55245000D03*
D15*
X307975000Y-65405000D03*
X288925000Y-103505000D03*
X288925000Y-122555000D03*
X231775000Y-27305000D03*
X131762500Y-84455000D03*
D13*
X27305000Y-22225000D03*
D12*
X22225000Y-22225000D03*
D13*
X17145000Y-22225000D03*
D14*
X18415000Y-19685000D03*
X24765000Y-17145000D03*
D15*
X250825000Y-46355000D03*
X184150000Y-65405000D03*
D13*
X208280000Y-60325000D03*
D12*
X203200000Y-60325000D03*
D13*
X198120000Y-60325000D03*
D14*
X199390000Y-57785000D03*
X205740000Y-55245000D03*
D15*
X48418750Y-122555000D03*
X22225000Y-46355000D03*
D13*
X155892500Y-79375000D03*
D12*
X150812500Y-79375000D03*
D13*
X145732500Y-79375000D03*
D14*
X147002500Y-76835000D03*
X153352500Y-74295000D03*
D13*
X313055000Y-41275000D03*
D12*
X307975000Y-41275000D03*
D13*
X302895000Y-41275000D03*
D14*
X304165000Y-38735000D03*
X310515000Y-36195000D03*
D15*
X198437500Y-103505000D03*
X117475000Y-27305000D03*
X55562500Y-84455000D03*
D13*
X55880000Y-60325000D03*
D12*
X50800000Y-60325000D03*
D13*
X45720000Y-60325000D03*
D14*
X46990000Y-57785000D03*
X53340000Y-55245000D03*
D15*
X72231250Y-122555000D03*
D13*
X313055000Y-60325000D03*
D12*
X307975000Y-60325000D03*
D13*
X302895000Y-60325000D03*
D14*
X304165000Y-57785000D03*
X310515000Y-55245000D03*
D15*
X260350000Y-65405000D03*
D13*
X232092500Y-79375000D03*
D12*
X227012500Y-79375000D03*
D13*
X221932500Y-79375000D03*
D14*
X223202500Y-76835000D03*
X229552500Y-74295000D03*
D13*
X136842500Y-79375000D03*
D12*
X131762500Y-79375000D03*
D13*
X126682500Y-79375000D03*
D14*
X127952500Y-76835000D03*
X134302500Y-74295000D03*
D13*
X313055000Y-22225000D03*
D12*
X307975000Y-22225000D03*
D13*
X302895000Y-22225000D03*
D14*
X304165000Y-19685000D03*
X310515000Y-17145000D03*
D15*
X269875000Y-27305000D03*
D13*
X122555000Y-22225000D03*
D12*
X117475000Y-22225000D03*
D13*
X112395000Y-22225000D03*
D14*
X113665000Y-19685000D03*
X120015000Y-17145000D03*
D15*
X79375000Y-46355000D03*
X307975000Y-122555000D03*
D13*
X46355000Y-22225000D03*
D12*
X41275000Y-22225000D03*
D13*
X36195000Y-22225000D03*
D14*
X37465000Y-19685000D03*
X43815000Y-17145000D03*
D13*
X103505000Y-41275000D03*
D12*
X98425000Y-41275000D03*
D13*
X93345000Y-41275000D03*
D14*
X94615000Y-38735000D03*
X100965000Y-36195000D03*
D15*
X141287500Y-103505000D03*
X69850000Y-65405000D03*
D13*
X27305000Y-41275000D03*
D12*
X22225000Y-41275000D03*
D13*
X17145000Y-41275000D03*
D14*
X18415000Y-38735000D03*
X24765000Y-36195000D03*
D13*
X294005000Y-98425000D03*
D12*
X288925000Y-98425000D03*
D13*
X283845000Y-98425000D03*
D14*
X285115000Y-95885000D03*
X291465000Y-93345000D03*
D15*
X150812500Y-84455000D03*
%LPD*%
M02*
