G04 #@! TF.GenerationSoftware,KiCad,Pcbnew,7.0.2*
G04 #@! TF.CreationDate,2023-04-27T00:32:00+01:00*
G04 #@! TF.ProjectId,ISO75+STM+PKRGB,49534f37-352b-4535-944d-2b504b524742,rev?*
G04 #@! TF.SameCoordinates,Original*
G04 #@! TF.FileFunction,Soldermask,Bot*
G04 #@! TF.FilePolarity,Negative*
%FSLAX46Y46*%
G04 Gerber Fmt 4.6, Leading zero omitted, Abs format (unit mm)*
G04 Created by KiCad (PCBNEW 7.0.2) date 2023-04-27 00:32:00*
%MOMM*%
%LPD*%
G01*
G04 APERTURE LIST*
G04 Aperture macros list*
%AMRoundRect*
0 Rectangle with rounded corners*
0 $1 Rounding radius*
0 $2 $3 $4 $5 $6 $7 $8 $9 X,Y pos of 4 corners*
0 Add a 4 corners polygon primitive as box body*
4,1,4,$2,$3,$4,$5,$6,$7,$8,$9,$2,$3,0*
0 Add four circle primitives for the rounded corners*
1,1,$1+$1,$2,$3*
1,1,$1+$1,$4,$5*
1,1,$1+$1,$6,$7*
1,1,$1+$1,$8,$9*
0 Add four rect primitives between the rounded corners*
20,1,$1+$1,$2,$3,$4,$5,0*
20,1,$1+$1,$4,$5,$6,$7,0*
20,1,$1+$1,$6,$7,$8,$9,0*
20,1,$1+$1,$8,$9,$2,$3,0*%
G04 Aperture macros list end*
%ADD10C,3.048000*%
%ADD11C,3.987800*%
%ADD12RoundRect,0.135000X0.185000X-0.135000X0.185000X0.135000X-0.185000X0.135000X-0.185000X-0.135000X0*%
%ADD13C,1.750000*%
%ADD14C,3.300000*%
%ADD15RoundRect,0.250000X1.025000X1.000000X-1.025000X1.000000X-1.025000X-1.000000X1.025000X-1.000000X0*%
%ADD16RoundRect,0.140000X-0.170000X0.140000X-0.170000X-0.140000X0.170000X-0.140000X0.170000X0.140000X0*%
%ADD17R,1.200000X0.900000*%
%ADD18RoundRect,0.135000X-0.135000X-0.185000X0.135000X-0.185000X0.135000X0.185000X-0.135000X0.185000X0*%
%ADD19C,2.100000*%
%ADD20RoundRect,0.070000X0.330000X-0.280000X0.330000X0.280000X-0.330000X0.280000X-0.330000X-0.280000X0*%
%ADD21RoundRect,0.150000X-0.150000X0.587500X-0.150000X-0.587500X0.150000X-0.587500X0.150000X0.587500X0*%
%ADD22RoundRect,0.135000X0.135000X0.185000X-0.135000X0.185000X-0.135000X-0.185000X0.135000X-0.185000X0*%
%ADD23RoundRect,0.135000X-0.185000X0.135000X-0.185000X-0.135000X0.185000X-0.135000X0.185000X0.135000X0*%
%ADD24O,0.220000X0.740000*%
%ADD25O,0.740000X0.220000*%
%ADD26C,0.600000*%
%ADD27R,0.771428X0.771428*%
%ADD28RoundRect,0.140000X0.170000X-0.140000X0.170000X0.140000X-0.170000X0.140000X-0.170000X-0.140000X0*%
%ADD29R,1.800000X1.100000*%
%ADD30RoundRect,0.075000X0.075000X-0.662500X0.075000X0.662500X-0.075000X0.662500X-0.075000X-0.662500X0*%
%ADD31RoundRect,0.075000X0.662500X-0.075000X0.662500X0.075000X-0.662500X0.075000X-0.662500X-0.075000X0*%
%ADD32RoundRect,0.140000X-0.140000X-0.170000X0.140000X-0.170000X0.140000X0.170000X-0.140000X0.170000X0*%
%ADD33RoundRect,0.150000X-0.150000X-0.275000X0.150000X-0.275000X0.150000X0.275000X-0.150000X0.275000X0*%
%ADD34RoundRect,0.175000X-0.175000X-0.225000X0.175000X-0.225000X0.175000X0.225000X-0.175000X0.225000X0*%
%ADD35RoundRect,0.150000X0.150000X-0.587500X0.150000X0.587500X-0.150000X0.587500X-0.150000X-0.587500X0*%
G04 APERTURE END LIST*
D10*
X267493750Y-34290000D03*
D11*
X267493750Y-49530000D03*
D10*
X291306250Y-34290000D03*
D11*
X291306250Y-49530000D03*
D10*
X193675000Y-124460000D03*
D11*
X193675000Y-109220000D03*
D10*
X93662500Y-124460000D03*
D11*
X93662500Y-109220000D03*
D10*
X279558750Y-57943750D03*
X279558750Y-81756250D03*
D11*
X294798750Y-57943750D03*
X294798750Y-81756250D03*
D12*
X110998000Y-109018800D03*
X110998000Y-107998800D03*
D13*
X241617500Y-98425000D03*
D11*
X236537500Y-98425000D03*
D13*
X231457500Y-98425000D03*
D14*
X232727500Y-95885000D03*
D15*
X229177500Y-95885000D03*
X242627500Y-93345000D03*
D14*
X239077500Y-93345000D03*
D16*
X192140000Y-117530000D03*
X192140000Y-118490000D03*
D17*
X157500000Y-108850000D03*
X157500000Y-112150000D03*
D18*
X120648000Y-115462000D03*
X121668000Y-115462000D03*
D13*
X243998750Y-117475000D03*
D11*
X238918750Y-117475000D03*
D13*
X233838750Y-117475000D03*
D14*
X235108750Y-114935000D03*
D15*
X231558750Y-114935000D03*
X245008750Y-112395000D03*
D14*
X241458750Y-112395000D03*
D19*
X238918750Y-122555000D03*
D20*
X237368750Y-123105000D03*
X237368750Y-122005000D03*
X240468750Y-122005000D03*
X240468750Y-123105000D03*
D21*
X80000000Y-116862500D03*
X81900000Y-116862500D03*
X80950000Y-118737500D03*
D13*
X193992500Y-79375000D03*
D11*
X188912500Y-79375000D03*
D13*
X183832500Y-79375000D03*
D14*
X185102500Y-76835000D03*
D15*
X181552500Y-76835000D03*
X195002500Y-74295000D03*
D14*
X191452500Y-74295000D03*
D21*
X37150000Y-80025000D03*
X39050000Y-80025000D03*
X38100000Y-81900000D03*
D19*
X136525000Y-46355000D03*
D20*
X134975000Y-46905000D03*
X134975000Y-45805000D03*
X138075000Y-45805000D03*
X138075000Y-46905000D03*
D18*
X122934000Y-118364000D03*
X123954000Y-118364000D03*
D13*
X274955000Y-117475000D03*
D11*
X269875000Y-117475000D03*
D13*
X264795000Y-117475000D03*
D14*
X266065000Y-114935000D03*
D15*
X262515000Y-114935000D03*
X275965000Y-112395000D03*
D14*
X272415000Y-112395000D03*
D13*
X103505000Y-22225000D03*
D11*
X98425000Y-22225000D03*
D13*
X93345000Y-22225000D03*
D14*
X94615000Y-19685000D03*
D15*
X91065000Y-19685000D03*
X104515000Y-17145000D03*
D14*
X100965000Y-17145000D03*
D19*
X136525000Y-27305000D03*
D20*
X134975000Y-27855000D03*
X134975000Y-26755000D03*
X138075000Y-26755000D03*
X138075000Y-27855000D03*
D13*
X294005000Y-117475000D03*
D11*
X288925000Y-117475000D03*
D13*
X283845000Y-117475000D03*
D14*
X285115000Y-114935000D03*
D15*
X281565000Y-114935000D03*
X295015000Y-112395000D03*
D14*
X291465000Y-112395000D03*
D21*
X63343750Y-79662500D03*
X65243750Y-79662500D03*
X64293750Y-81537500D03*
D13*
X148748750Y-117475000D03*
D11*
X143668750Y-117475000D03*
D13*
X138588750Y-117475000D03*
D14*
X139858750Y-114935000D03*
D15*
X136308750Y-114935000D03*
X149758750Y-112395000D03*
D14*
X146208750Y-112395000D03*
D13*
X60642500Y-79375000D03*
D11*
X55562500Y-79375000D03*
D13*
X50482500Y-79375000D03*
D14*
X51752500Y-76835000D03*
D15*
X48202500Y-76835000D03*
X61652500Y-74295000D03*
D14*
X58102500Y-74295000D03*
D19*
X41275000Y-46355000D03*
D20*
X39725000Y-46905000D03*
X39725000Y-45805000D03*
X42825000Y-45805000D03*
X42825000Y-46905000D03*
D13*
X84455000Y-41275000D03*
D11*
X79375000Y-41275000D03*
D13*
X74295000Y-41275000D03*
D14*
X75565000Y-38735000D03*
D15*
X72015000Y-38735000D03*
X85465000Y-36195000D03*
D14*
X81915000Y-36195000D03*
D13*
X184467500Y-98425000D03*
D11*
X179387500Y-98425000D03*
D13*
X174307500Y-98425000D03*
D14*
X175577500Y-95885000D03*
D15*
X172027500Y-95885000D03*
X185477500Y-93345000D03*
D14*
X181927500Y-93345000D03*
D19*
X88900000Y-65405000D03*
D20*
X87350000Y-65955000D03*
X87350000Y-64855000D03*
X90450000Y-64855000D03*
X90450000Y-65955000D03*
D19*
X286543750Y-74930000D03*
D20*
X284993750Y-75480000D03*
X284993750Y-74380000D03*
X288093750Y-74380000D03*
X288093750Y-75480000D03*
D19*
X250825000Y-27305000D03*
D20*
X249275000Y-27855000D03*
X249275000Y-26755000D03*
X252375000Y-26755000D03*
X252375000Y-27855000D03*
D13*
X29686250Y-98425000D03*
D11*
X24606250Y-98425000D03*
D13*
X19526250Y-98425000D03*
D14*
X20796250Y-95885000D03*
D15*
X17246250Y-95885000D03*
X30696250Y-93345000D03*
D14*
X27146250Y-93345000D03*
D13*
X117792500Y-79375000D03*
D11*
X112712500Y-79375000D03*
D13*
X107632500Y-79375000D03*
D14*
X108902500Y-76835000D03*
D15*
X105352500Y-76835000D03*
X118802500Y-74295000D03*
D14*
X115252500Y-74295000D03*
D19*
X60325000Y-27305000D03*
D20*
X58775000Y-27855000D03*
X58775000Y-26755000D03*
X61875000Y-26755000D03*
X61875000Y-27855000D03*
D22*
X97735000Y-114046000D03*
X96715000Y-114046000D03*
D19*
X117475000Y-46355000D03*
D20*
X115925000Y-46905000D03*
X115925000Y-45805000D03*
X119025000Y-45805000D03*
X119025000Y-46905000D03*
D13*
X127317500Y-98425000D03*
D11*
X122237500Y-98425000D03*
D13*
X117157500Y-98425000D03*
D14*
X118427500Y-95885000D03*
D15*
X114877500Y-95885000D03*
X128327500Y-93345000D03*
D14*
X124777500Y-93345000D03*
D13*
X160655000Y-22225000D03*
D11*
X155575000Y-22225000D03*
D13*
X150495000Y-22225000D03*
D14*
X151765000Y-19685000D03*
D15*
X148215000Y-19685000D03*
X161665000Y-17145000D03*
D14*
X158115000Y-17145000D03*
D21*
X277656250Y-117600000D03*
X279556250Y-117600000D03*
X278606250Y-119475000D03*
D13*
X151130000Y-60325000D03*
D11*
X146050000Y-60325000D03*
D13*
X140970000Y-60325000D03*
D14*
X142240000Y-57785000D03*
D15*
X138690000Y-57785000D03*
X152140000Y-55245000D03*
D14*
X148590000Y-55245000D03*
D21*
X187575000Y-116537500D03*
X189475000Y-116537500D03*
X188525000Y-118412500D03*
D23*
X109150000Y-122172000D03*
X109150000Y-123192000D03*
D21*
X30006250Y-41925000D03*
X31906250Y-41925000D03*
X30956250Y-43800000D03*
D13*
X132080000Y-60325000D03*
D11*
X127000000Y-60325000D03*
D13*
X121920000Y-60325000D03*
D14*
X123190000Y-57785000D03*
D15*
X119640000Y-57785000D03*
X133090000Y-55245000D03*
D14*
X129540000Y-55245000D03*
D13*
X213042500Y-79375000D03*
D11*
X207962500Y-79375000D03*
D13*
X202882500Y-79375000D03*
D14*
X204152500Y-76835000D03*
D15*
X200602500Y-76835000D03*
X214052500Y-74295000D03*
D14*
X210502500Y-74295000D03*
D21*
X110950000Y-98562500D03*
X112850000Y-98562500D03*
X111900000Y-100437500D03*
D13*
X146367500Y-98425000D03*
D11*
X141287500Y-98425000D03*
D13*
X136207500Y-98425000D03*
D14*
X137477500Y-95885000D03*
D15*
X133927500Y-95885000D03*
X147377500Y-93345000D03*
D14*
X143827500Y-93345000D03*
D19*
X174625000Y-27305000D03*
D20*
X173075000Y-27855000D03*
X173075000Y-26755000D03*
X176175000Y-26755000D03*
X176175000Y-27855000D03*
D19*
X217487500Y-103505000D03*
D20*
X215937500Y-104055000D03*
X215937500Y-102955000D03*
X219037500Y-102955000D03*
X219037500Y-104055000D03*
D19*
X279400000Y-46355000D03*
D20*
X277850000Y-46905000D03*
X277850000Y-45805000D03*
X280950000Y-45805000D03*
X280950000Y-46905000D03*
D16*
X166700000Y-111770000D03*
X166700000Y-112730000D03*
D21*
X215743750Y-79762500D03*
X217643750Y-79762500D03*
X216693750Y-81637500D03*
D13*
X46355000Y-41275000D03*
D11*
X41275000Y-41275000D03*
D13*
X36195000Y-41275000D03*
D14*
X37465000Y-38735000D03*
D15*
X33915000Y-38735000D03*
X47365000Y-36195000D03*
D14*
X43815000Y-36195000D03*
D19*
X24606250Y-103505000D03*
D20*
X23056250Y-104055000D03*
X23056250Y-102955000D03*
X26156250Y-102955000D03*
X26156250Y-104055000D03*
D13*
X227330000Y-60325000D03*
D11*
X222250000Y-60325000D03*
D13*
X217170000Y-60325000D03*
D14*
X218440000Y-57785000D03*
D15*
X214890000Y-57785000D03*
X228340000Y-55245000D03*
D14*
X224790000Y-55245000D03*
D19*
X41275000Y-27305000D03*
D20*
X39725000Y-27855000D03*
X39725000Y-26755000D03*
X42825000Y-26755000D03*
X42825000Y-27855000D03*
D21*
X58581250Y-60525000D03*
X60481250Y-60525000D03*
X59531250Y-62400000D03*
D23*
X181750000Y-116740000D03*
X181750000Y-117760000D03*
D19*
X227012500Y-84455000D03*
D20*
X225462500Y-85005000D03*
X225462500Y-83905000D03*
X228562500Y-83905000D03*
X228562500Y-85005000D03*
D21*
X249081250Y-60975000D03*
X250981250Y-60975000D03*
X250031250Y-62850000D03*
D13*
X79692500Y-79375000D03*
D11*
X74612500Y-79375000D03*
D13*
X69532500Y-79375000D03*
D14*
X70802500Y-76835000D03*
D15*
X67252500Y-76835000D03*
X80702500Y-74295000D03*
D14*
X77152500Y-74295000D03*
D19*
X222250000Y-65405000D03*
D20*
X220700000Y-65955000D03*
X220700000Y-64855000D03*
X223800000Y-64855000D03*
X223800000Y-65955000D03*
D19*
X143668750Y-122555000D03*
D20*
X142118750Y-123105000D03*
X142118750Y-122005000D03*
X145218750Y-122005000D03*
X145218750Y-123105000D03*
D13*
X284480000Y-41275000D03*
D11*
X279400000Y-41275000D03*
D13*
X274320000Y-41275000D03*
D14*
X275590000Y-38735000D03*
D15*
X272040000Y-38735000D03*
X285490000Y-36195000D03*
D14*
X281940000Y-36195000D03*
D21*
X134250000Y-60762500D03*
X136150000Y-60762500D03*
X135200000Y-62637500D03*
D13*
X217805000Y-22225000D03*
D11*
X212725000Y-22225000D03*
D13*
X207645000Y-22225000D03*
D14*
X208915000Y-19685000D03*
D15*
X205365000Y-19685000D03*
X218815000Y-17145000D03*
D14*
X215265000Y-17145000D03*
D18*
X122934000Y-108458000D03*
X123954000Y-108458000D03*
D21*
X34750000Y-60262500D03*
X36650000Y-60262500D03*
X35700000Y-62137500D03*
D13*
X236855000Y-22225000D03*
D11*
X231775000Y-22225000D03*
D13*
X226695000Y-22225000D03*
D14*
X227965000Y-19685000D03*
D15*
X224415000Y-19685000D03*
X237865000Y-17145000D03*
D14*
X234315000Y-17145000D03*
D19*
X307975000Y-103505000D03*
D20*
X306425000Y-104055000D03*
X306425000Y-102955000D03*
X309525000Y-102955000D03*
X309525000Y-104055000D03*
D13*
X255905000Y-22225000D03*
D11*
X250825000Y-22225000D03*
D13*
X245745000Y-22225000D03*
D14*
X247015000Y-19685000D03*
D15*
X243465000Y-19685000D03*
X256915000Y-17145000D03*
D14*
X253365000Y-17145000D03*
D13*
X34448750Y-79375000D03*
D11*
X29368750Y-79375000D03*
D13*
X24288750Y-79375000D03*
D14*
X25558750Y-76835000D03*
D15*
X22008750Y-76835000D03*
X35458750Y-74295000D03*
D14*
X31908750Y-74295000D03*
D16*
X163200000Y-111770000D03*
X163200000Y-112730000D03*
D19*
X160337500Y-103505000D03*
D20*
X158787500Y-104055000D03*
X158787500Y-102955000D03*
X161887500Y-102955000D03*
X161887500Y-104055000D03*
D22*
X106428000Y-108839000D03*
X105408000Y-108839000D03*
D21*
X220506250Y-22875000D03*
X222406250Y-22875000D03*
X221456250Y-24750000D03*
D13*
X222567500Y-98425000D03*
D11*
X217487500Y-98425000D03*
D13*
X212407500Y-98425000D03*
D14*
X213677500Y-95885000D03*
D15*
X210127500Y-95885000D03*
X223577500Y-93345000D03*
D14*
X220027500Y-93345000D03*
D13*
X313055000Y-117475000D03*
D11*
X307975000Y-117475000D03*
D13*
X302895000Y-117475000D03*
D14*
X304165000Y-114935000D03*
D15*
X300615000Y-114935000D03*
X314065000Y-112395000D03*
D14*
X310515000Y-112395000D03*
D13*
X141605000Y-22225000D03*
D11*
X136525000Y-22225000D03*
D13*
X131445000Y-22225000D03*
D14*
X132715000Y-19685000D03*
D15*
X129165000Y-19685000D03*
X142615000Y-17145000D03*
D14*
X139065000Y-17145000D03*
D13*
X84455000Y-22225000D03*
D11*
X79375000Y-22225000D03*
D13*
X74295000Y-22225000D03*
D14*
X75565000Y-19685000D03*
D15*
X72015000Y-19685000D03*
X85465000Y-17145000D03*
D14*
X81915000Y-17145000D03*
D19*
X307975000Y-27305000D03*
D20*
X306425000Y-27855000D03*
X306425000Y-26755000D03*
X309525000Y-26755000D03*
X309525000Y-27855000D03*
D18*
X185090000Y-116700000D03*
X186110000Y-116700000D03*
D13*
X294005000Y-22225000D03*
D11*
X288925000Y-22225000D03*
D13*
X283845000Y-22225000D03*
D14*
X285115000Y-19685000D03*
D15*
X281565000Y-19685000D03*
X295015000Y-17145000D03*
D14*
X291465000Y-17145000D03*
D24*
X114000000Y-120530000D03*
X113600000Y-120530000D03*
X113200000Y-120530000D03*
X112800000Y-120530000D03*
X112400000Y-120530000D03*
X112000000Y-120530000D03*
X111600000Y-120530000D03*
X111200000Y-120530000D03*
X110800000Y-120530000D03*
X110400000Y-120530000D03*
X110000000Y-120530000D03*
X109600000Y-120530000D03*
X109200000Y-120530000D03*
X108800000Y-120530000D03*
X108400000Y-120530000D03*
D25*
X107795000Y-119925000D03*
X107795000Y-119525000D03*
X107795000Y-119125000D03*
X107795000Y-118725000D03*
X107795000Y-118325000D03*
X107795000Y-117925000D03*
X107795000Y-117525000D03*
X107795000Y-117125000D03*
X107795000Y-116725000D03*
X107795000Y-116325000D03*
X107795000Y-115925000D03*
X107795000Y-115525000D03*
X107795000Y-115125000D03*
X107795000Y-114725000D03*
X107795000Y-114325000D03*
D24*
X108400000Y-113720000D03*
X108800000Y-113720000D03*
X109200000Y-113720000D03*
X109600000Y-113720000D03*
X110000000Y-113720000D03*
X110400000Y-113720000D03*
X110800000Y-113720000D03*
X111200000Y-113720000D03*
X111600000Y-113720000D03*
X112000000Y-113720000D03*
X112400000Y-113720000D03*
X112800000Y-113720000D03*
X113200000Y-113720000D03*
X113600000Y-113720000D03*
X114000000Y-113720000D03*
D25*
X114605000Y-114325000D03*
X114605000Y-114725000D03*
X114605000Y-115125000D03*
X114605000Y-115525000D03*
X114605000Y-115925000D03*
X114605000Y-116325000D03*
X114605000Y-116725000D03*
X114605000Y-117125000D03*
X114605000Y-117525000D03*
X114605000Y-117925000D03*
X114605000Y-118325000D03*
X114605000Y-118725000D03*
X114605000Y-119125000D03*
X114605000Y-119525000D03*
X114605000Y-119925000D03*
D26*
X108885715Y-119439285D03*
D27*
X108885715Y-119439285D03*
X109657143Y-119439285D03*
D26*
X109657144Y-119439285D03*
X110428572Y-119439285D03*
D27*
X110428572Y-119439285D03*
X111200000Y-119439285D03*
D26*
X111200001Y-119439285D03*
X111971428Y-119439285D03*
D27*
X111971428Y-119439285D03*
D26*
X112742857Y-119439285D03*
D27*
X112742857Y-119439285D03*
D26*
X113514285Y-119439285D03*
D27*
X113514285Y-119439285D03*
D26*
X108885715Y-118667857D03*
D27*
X108885715Y-118667857D03*
D26*
X109657143Y-118667857D03*
D27*
X109657143Y-118667857D03*
D26*
X110428571Y-118667857D03*
D27*
X110428572Y-118667857D03*
D26*
X111200000Y-118667857D03*
D27*
X111200000Y-118667857D03*
D26*
X111971428Y-118667857D03*
D27*
X111971428Y-118667857D03*
D26*
X112742857Y-118667857D03*
D27*
X112742857Y-118667857D03*
D26*
X113514285Y-118667857D03*
D27*
X113514285Y-118667857D03*
D26*
X109657143Y-117896429D03*
X110428571Y-117896429D03*
X111200000Y-117896429D03*
X111971428Y-117896429D03*
X112742857Y-117896429D03*
X113514285Y-117896429D03*
X108885715Y-117896428D03*
D27*
X108885715Y-117896428D03*
X109657143Y-117896428D03*
X110428572Y-117896428D03*
X111200000Y-117896428D03*
X111971428Y-117896428D03*
X112742857Y-117896428D03*
X113514285Y-117896428D03*
D26*
X113514285Y-117125001D03*
X108885715Y-117125000D03*
D27*
X108885715Y-117125000D03*
D26*
X109657143Y-117125000D03*
D27*
X109657143Y-117125000D03*
D26*
X110428571Y-117125000D03*
D27*
X110428572Y-117125000D03*
D26*
X111200000Y-117125000D03*
D27*
X111200000Y-117125000D03*
D26*
X111971428Y-117125000D03*
D27*
X111971428Y-117125000D03*
D26*
X112742857Y-117125000D03*
D27*
X112742857Y-117125000D03*
X113514285Y-117125000D03*
D26*
X113514285Y-116353573D03*
D27*
X108885715Y-116353572D03*
D26*
X109657143Y-116353572D03*
D27*
X109657143Y-116353572D03*
D26*
X110428571Y-116353572D03*
D27*
X110428572Y-116353572D03*
D26*
X111200000Y-116353572D03*
D27*
X111200000Y-116353572D03*
D26*
X111971428Y-116353572D03*
D27*
X111971428Y-116353572D03*
D26*
X112742857Y-116353572D03*
D27*
X112742857Y-116353572D03*
X113514285Y-116353572D03*
D26*
X108885715Y-116353571D03*
X113514285Y-115582145D03*
X108885715Y-115582143D03*
D27*
X108885715Y-115582143D03*
D26*
X109657143Y-115582143D03*
D27*
X109657143Y-115582143D03*
D26*
X110428571Y-115582143D03*
D27*
X110428572Y-115582143D03*
D26*
X111200000Y-115582143D03*
D27*
X111200000Y-115582143D03*
D26*
X111971428Y-115582143D03*
D27*
X111971428Y-115582143D03*
D26*
X112742857Y-115582143D03*
D27*
X112742857Y-115582143D03*
X113514285Y-115582143D03*
X108885715Y-114810715D03*
D26*
X109657143Y-114810715D03*
D27*
X109657143Y-114810715D03*
D26*
X110428571Y-114810715D03*
D27*
X110428572Y-114810715D03*
D26*
X111200000Y-114810715D03*
D27*
X111200000Y-114810715D03*
D26*
X111971428Y-114810715D03*
D27*
X111971428Y-114810715D03*
D26*
X112742857Y-114810715D03*
D27*
X112742857Y-114810715D03*
D26*
X113514285Y-114810715D03*
D27*
X113514285Y-114810715D03*
D26*
X108885715Y-114810714D03*
D12*
X112369600Y-109018800D03*
X112369600Y-107998800D03*
D19*
X29368750Y-84455000D03*
D20*
X27818750Y-85005000D03*
X27818750Y-83905000D03*
X30918750Y-83905000D03*
X30918750Y-85005000D03*
D22*
X97740000Y-112522000D03*
X96720000Y-112522000D03*
D28*
X104512500Y-116012500D03*
X104512500Y-115052500D03*
D19*
X207962500Y-84455000D03*
D20*
X206412500Y-85005000D03*
X206412500Y-83905000D03*
X209512500Y-83905000D03*
X209512500Y-85005000D03*
D18*
X122934000Y-111652000D03*
X123954000Y-111652000D03*
D19*
X24606250Y-122555000D03*
D20*
X23056250Y-123105000D03*
X23056250Y-122005000D03*
X26156250Y-122005000D03*
X26156250Y-123105000D03*
D13*
X251142500Y-79375000D03*
D11*
X246062500Y-79375000D03*
D13*
X240982500Y-79375000D03*
D14*
X242252500Y-76835000D03*
D15*
X238702500Y-76835000D03*
X252152500Y-74295000D03*
D14*
X248602500Y-74295000D03*
D29*
X201275000Y-114275000D03*
X195075000Y-114275000D03*
X201275000Y-117975000D03*
X195075000Y-117975000D03*
D13*
X274955000Y-22225000D03*
D11*
X269875000Y-22225000D03*
D13*
X264795000Y-22225000D03*
D14*
X266065000Y-19685000D03*
D15*
X262515000Y-19685000D03*
X275965000Y-17145000D03*
D14*
X272415000Y-17145000D03*
D19*
X98425000Y-46355000D03*
D20*
X96875000Y-46905000D03*
X96875000Y-45805000D03*
X99975000Y-45805000D03*
X99975000Y-46905000D03*
D13*
X113030000Y-60325000D03*
D11*
X107950000Y-60325000D03*
D13*
X102870000Y-60325000D03*
D14*
X104140000Y-57785000D03*
D15*
X100590000Y-57785000D03*
X114040000Y-55245000D03*
D14*
X110490000Y-55245000D03*
D21*
X106206250Y-22875000D03*
X108106250Y-22875000D03*
X107156250Y-24750000D03*
D19*
X74612500Y-84455000D03*
D20*
X73062500Y-85005000D03*
X73062500Y-83905000D03*
X76162500Y-83905000D03*
X76162500Y-85005000D03*
D19*
X307975000Y-84455000D03*
D20*
X306425000Y-85005000D03*
X306425000Y-83905000D03*
X309525000Y-83905000D03*
X309525000Y-85005000D03*
D13*
X236855000Y-41275000D03*
D11*
X231775000Y-41275000D03*
D13*
X226695000Y-41275000D03*
D14*
X227965000Y-38735000D03*
D15*
X224415000Y-38735000D03*
X237865000Y-36195000D03*
D14*
X234315000Y-36195000D03*
D13*
X291623750Y-69850000D03*
D11*
X286543750Y-69850000D03*
D13*
X281463750Y-69850000D03*
D14*
X282733750Y-67310000D03*
D15*
X279183750Y-67310000D03*
X292633750Y-64770000D03*
D14*
X289083750Y-64770000D03*
D28*
X192100000Y-115180000D03*
X192100000Y-114220000D03*
D21*
X296650000Y-98862500D03*
X298550000Y-98862500D03*
X297600000Y-100737500D03*
D19*
X288925000Y-27305000D03*
D20*
X287375000Y-27855000D03*
X287375000Y-26755000D03*
X290475000Y-26755000D03*
X290475000Y-27855000D03*
D19*
X269875000Y-122555000D03*
D20*
X268325000Y-123105000D03*
X268325000Y-122005000D03*
X271425000Y-122005000D03*
X271425000Y-123105000D03*
D19*
X262731250Y-103505000D03*
D20*
X261181250Y-104055000D03*
X261181250Y-102955000D03*
X264281250Y-102955000D03*
X264281250Y-104055000D03*
D13*
X98742500Y-79375000D03*
D11*
X93662500Y-79375000D03*
D13*
X88582500Y-79375000D03*
D14*
X89852500Y-76835000D03*
D15*
X86302500Y-76835000D03*
X99752500Y-74295000D03*
D14*
X96202500Y-74295000D03*
D21*
X225250000Y-98462500D03*
X227150000Y-98462500D03*
X226200000Y-100337500D03*
D13*
X29686250Y-117475000D03*
D11*
X24606250Y-117475000D03*
D13*
X19526250Y-117475000D03*
D14*
X20796250Y-114935000D03*
D15*
X17246250Y-114935000D03*
X30696250Y-112395000D03*
D14*
X27146250Y-112395000D03*
D19*
X65087500Y-103505000D03*
D20*
X63537500Y-104055000D03*
X63537500Y-102955000D03*
X66637500Y-102955000D03*
X66637500Y-104055000D03*
D21*
X182406250Y-22875000D03*
X184306250Y-22875000D03*
X183356250Y-24750000D03*
D19*
X265112500Y-84455000D03*
D20*
X263562500Y-85005000D03*
X263562500Y-83905000D03*
X266662500Y-83905000D03*
X266662500Y-85005000D03*
D28*
X103412500Y-116012500D03*
X103412500Y-115052500D03*
D19*
X212725000Y-46355000D03*
D20*
X211175000Y-46905000D03*
X211175000Y-45805000D03*
X214275000Y-45805000D03*
X214275000Y-46905000D03*
D21*
X176270000Y-83672500D03*
X178170000Y-83672500D03*
X177220000Y-85547500D03*
D13*
X77311250Y-117475000D03*
D11*
X72231250Y-117475000D03*
D13*
X67151250Y-117475000D03*
D14*
X68421250Y-114935000D03*
D15*
X64871250Y-114935000D03*
X78321250Y-112395000D03*
D14*
X74771250Y-112395000D03*
D19*
X146050000Y-65405000D03*
D20*
X144500000Y-65955000D03*
X144500000Y-64855000D03*
X147600000Y-64855000D03*
X147600000Y-65955000D03*
D21*
X258606250Y-41925000D03*
X260506250Y-41925000D03*
X259556250Y-43800000D03*
D30*
X175470000Y-119478500D03*
X174970000Y-119478500D03*
X174470000Y-119478500D03*
X173970000Y-119478500D03*
X173470000Y-119478500D03*
X172970000Y-119478500D03*
X172470000Y-119478500D03*
X171970000Y-119478500D03*
X171470000Y-119478500D03*
X170970000Y-119478500D03*
X170470000Y-119478500D03*
X169970000Y-119478500D03*
D31*
X168557500Y-118066000D03*
X168557500Y-117566000D03*
X168557500Y-117066000D03*
X168557500Y-116566000D03*
X168557500Y-116066000D03*
X168557500Y-115566000D03*
X168557500Y-115066000D03*
X168557500Y-114566000D03*
X168557500Y-114066000D03*
X168557500Y-113566000D03*
X168557500Y-113066000D03*
X168557500Y-112566000D03*
D30*
X169970000Y-111153500D03*
X170470000Y-111153500D03*
X170970000Y-111153500D03*
X171470000Y-111153500D03*
X171970000Y-111153500D03*
X172470000Y-111153500D03*
X172970000Y-111153500D03*
X173470000Y-111153500D03*
X173970000Y-111153500D03*
X174470000Y-111153500D03*
X174970000Y-111153500D03*
X175470000Y-111153500D03*
D31*
X176882500Y-112566000D03*
X176882500Y-113066000D03*
X176882500Y-113566000D03*
X176882500Y-114066000D03*
X176882500Y-114566000D03*
X176882500Y-115066000D03*
X176882500Y-115566000D03*
X176882500Y-116066000D03*
X176882500Y-116566000D03*
X176882500Y-117066000D03*
X176882500Y-117566000D03*
X176882500Y-118066000D03*
D21*
X148550000Y-98562500D03*
X150450000Y-98562500D03*
X149500000Y-100437500D03*
D22*
X104142000Y-109728000D03*
X103122000Y-109728000D03*
D13*
X141605000Y-41275000D03*
D11*
X136525000Y-41275000D03*
D13*
X131445000Y-41275000D03*
D14*
X132715000Y-38735000D03*
D15*
X129165000Y-38735000D03*
X142615000Y-36195000D03*
D14*
X139065000Y-36195000D03*
D19*
X46037500Y-103505000D03*
D20*
X44487500Y-104055000D03*
X44487500Y-102955000D03*
X47587500Y-102955000D03*
X47587500Y-104055000D03*
D18*
X120648000Y-120650000D03*
X121668000Y-120650000D03*
D19*
X203200000Y-65405000D03*
D20*
X201650000Y-65955000D03*
X201650000Y-64855000D03*
X204750000Y-64855000D03*
X204750000Y-65955000D03*
D13*
X65405000Y-22225000D03*
D11*
X60325000Y-22225000D03*
D13*
X55245000Y-22225000D03*
D14*
X56515000Y-19685000D03*
D15*
X52965000Y-19685000D03*
X66415000Y-17145000D03*
D14*
X62865000Y-17145000D03*
D22*
X106428000Y-107188000D03*
X105408000Y-107188000D03*
D13*
X32067500Y-60325000D03*
D11*
X26987500Y-60325000D03*
D13*
X21907500Y-60325000D03*
D14*
X23177500Y-57785000D03*
D15*
X19627500Y-57785000D03*
X33077500Y-55245000D03*
D14*
X29527500Y-55245000D03*
D21*
X225268750Y-117331250D03*
X227168750Y-117331250D03*
X226218750Y-119206250D03*
X182350000Y-46912500D03*
X184250000Y-46912500D03*
X183300000Y-48787500D03*
D19*
X174625000Y-46355000D03*
D20*
X173075000Y-46905000D03*
X173075000Y-45805000D03*
X176175000Y-45805000D03*
X176175000Y-46905000D03*
D21*
X68106250Y-41925000D03*
X70006250Y-41925000D03*
X69056250Y-43800000D03*
D13*
X189230000Y-60325000D03*
D11*
X184150000Y-60325000D03*
D13*
X179070000Y-60325000D03*
D14*
X180340000Y-57785000D03*
D15*
X176790000Y-57785000D03*
X190240000Y-55245000D03*
D14*
X186690000Y-55245000D03*
D21*
X258606250Y-22875000D03*
X260506250Y-22875000D03*
X259556250Y-24750000D03*
D18*
X120648000Y-109220000D03*
X121668000Y-109220000D03*
D22*
X100078000Y-113284000D03*
X99058000Y-113284000D03*
D21*
X72868750Y-99075000D03*
X74768750Y-99075000D03*
X73818750Y-100950000D03*
D16*
X106212500Y-120602500D03*
X106212500Y-121562500D03*
D21*
X296650000Y-117462500D03*
X298550000Y-117462500D03*
X297600000Y-119337500D03*
D28*
X176550000Y-110980000D03*
X176550000Y-110020000D03*
D16*
X105100000Y-122570000D03*
X105100000Y-123530000D03*
D18*
X122934000Y-121412000D03*
X123954000Y-121412000D03*
D19*
X107950000Y-65405000D03*
D20*
X106400000Y-65955000D03*
X106400000Y-64855000D03*
X109500000Y-64855000D03*
X109500000Y-65955000D03*
D19*
X50800000Y-65405000D03*
D20*
X49250000Y-65955000D03*
X49250000Y-64855000D03*
X52350000Y-64855000D03*
X52350000Y-65955000D03*
D19*
X155575000Y-46355000D03*
D20*
X154025000Y-46905000D03*
X154025000Y-45805000D03*
X157125000Y-45805000D03*
X157125000Y-46905000D03*
D21*
X298950000Y-60825000D03*
X300850000Y-60825000D03*
X299900000Y-62700000D03*
D13*
X89217500Y-98425000D03*
D11*
X84137500Y-98425000D03*
D13*
X79057500Y-98425000D03*
D14*
X80327500Y-95885000D03*
D15*
X76777500Y-95885000D03*
X90227500Y-93345000D03*
D14*
X86677500Y-93345000D03*
D18*
X120648000Y-107569000D03*
X121668000Y-107569000D03*
D19*
X26987500Y-65405000D03*
D20*
X25437500Y-65955000D03*
X25437500Y-64855000D03*
X28537500Y-64855000D03*
X28537500Y-65955000D03*
D19*
X188912500Y-84455000D03*
D20*
X187362500Y-85005000D03*
X187362500Y-83905000D03*
X190462500Y-83905000D03*
X190462500Y-85005000D03*
D19*
X179387500Y-103505000D03*
D20*
X177837500Y-104055000D03*
X177837500Y-102955000D03*
X180937500Y-102955000D03*
X180937500Y-104055000D03*
D13*
X122555000Y-41275000D03*
D11*
X117475000Y-41275000D03*
D13*
X112395000Y-41275000D03*
D14*
X113665000Y-38735000D03*
D15*
X110115000Y-38735000D03*
X123565000Y-36195000D03*
D14*
X120015000Y-36195000D03*
D32*
X185100000Y-117750000D03*
X186060000Y-117750000D03*
D19*
X98425000Y-27305000D03*
D20*
X96875000Y-27855000D03*
X96875000Y-26755000D03*
X99975000Y-26755000D03*
X99975000Y-27855000D03*
D19*
X22225000Y-27305000D03*
D20*
X20675000Y-27855000D03*
X20675000Y-26755000D03*
X23775000Y-26755000D03*
X23775000Y-27855000D03*
D13*
X179705000Y-22225000D03*
D11*
X174625000Y-22225000D03*
D13*
X169545000Y-22225000D03*
D14*
X170815000Y-19685000D03*
D15*
X167265000Y-19685000D03*
X180715000Y-17145000D03*
D14*
X177165000Y-17145000D03*
D21*
X295118750Y-40659375D03*
X297018750Y-40659375D03*
X296068750Y-42534375D03*
D13*
X313055000Y-98425000D03*
D11*
X307975000Y-98425000D03*
D13*
X302895000Y-98425000D03*
D14*
X304165000Y-95885000D03*
D15*
X300615000Y-95885000D03*
X314065000Y-93345000D03*
D14*
X310515000Y-93345000D03*
D19*
X112712500Y-84455000D03*
D20*
X111162500Y-85005000D03*
X111162500Y-83905000D03*
X114262500Y-83905000D03*
X114262500Y-85005000D03*
D22*
X100078000Y-111760000D03*
X99058000Y-111760000D03*
D13*
X265430000Y-60325000D03*
D11*
X260350000Y-60325000D03*
D13*
X255270000Y-60325000D03*
D14*
X256540000Y-57785000D03*
D15*
X252990000Y-57785000D03*
X266440000Y-55245000D03*
D14*
X262890000Y-55245000D03*
D13*
X108267500Y-98425000D03*
D11*
X103187500Y-98425000D03*
D13*
X98107500Y-98425000D03*
D14*
X99377500Y-95885000D03*
D15*
X95827500Y-95885000D03*
X109277500Y-93345000D03*
D14*
X105727500Y-93345000D03*
D19*
X122237500Y-103505000D03*
D20*
X120687500Y-104055000D03*
X120687500Y-102955000D03*
X123787500Y-102955000D03*
X123787500Y-104055000D03*
D13*
X198755000Y-41275000D03*
D11*
X193675000Y-41275000D03*
D13*
X188595000Y-41275000D03*
D14*
X189865000Y-38735000D03*
D15*
X186315000Y-38735000D03*
X199765000Y-36195000D03*
D14*
X196215000Y-36195000D03*
D19*
X193675000Y-46355000D03*
D20*
X192125000Y-46905000D03*
X192125000Y-45805000D03*
X195225000Y-45805000D03*
X195225000Y-46905000D03*
D21*
X138950000Y-79762500D03*
X140850000Y-79762500D03*
X139900000Y-81637500D03*
D13*
X74930000Y-60325000D03*
D11*
X69850000Y-60325000D03*
D13*
X64770000Y-60325000D03*
D14*
X66040000Y-57785000D03*
D15*
X62490000Y-57785000D03*
X75940000Y-55245000D03*
D14*
X72390000Y-55245000D03*
D19*
X60325000Y-46355000D03*
D20*
X58775000Y-46905000D03*
X58775000Y-45805000D03*
X61875000Y-45805000D03*
X61875000Y-46905000D03*
D13*
X267811250Y-98425000D03*
D11*
X262731250Y-98425000D03*
D13*
X257651250Y-98425000D03*
D14*
X258921250Y-95885000D03*
D15*
X255371250Y-95885000D03*
X268821250Y-93345000D03*
D14*
X265271250Y-93345000D03*
D13*
X160655000Y-41275000D03*
D11*
X155575000Y-41275000D03*
D13*
X150495000Y-41275000D03*
D14*
X151765000Y-38735000D03*
D15*
X148215000Y-38735000D03*
X161665000Y-36195000D03*
D14*
X158115000Y-36195000D03*
D13*
X179705000Y-41275000D03*
D11*
X174625000Y-41275000D03*
D13*
X169545000Y-41275000D03*
D14*
X170815000Y-38735000D03*
D15*
X167265000Y-38735000D03*
X180715000Y-36195000D03*
D14*
X177165000Y-36195000D03*
D18*
X120648000Y-110890000D03*
X121668000Y-110890000D03*
D13*
X220186250Y-117475000D03*
D11*
X215106250Y-117475000D03*
D13*
X210026250Y-117475000D03*
D14*
X211296250Y-114935000D03*
D15*
X207746250Y-114935000D03*
X221196250Y-112395000D03*
D14*
X217646250Y-112395000D03*
D19*
X212725000Y-27305000D03*
D20*
X211175000Y-27855000D03*
X211175000Y-26755000D03*
X214275000Y-26755000D03*
X214275000Y-27855000D03*
D19*
X93662500Y-84455000D03*
D20*
X92112500Y-85005000D03*
X92112500Y-83905000D03*
X95212500Y-83905000D03*
X95212500Y-85005000D03*
D22*
X100078000Y-114808000D03*
X99058000Y-114808000D03*
D23*
X183650000Y-116740000D03*
X183650000Y-117760000D03*
D16*
X165550000Y-111770000D03*
X165550000Y-112730000D03*
D19*
X215106250Y-122555000D03*
D20*
X213556250Y-123105000D03*
X213556250Y-122005000D03*
X216656250Y-122005000D03*
X216656250Y-123105000D03*
D13*
X70167500Y-98425000D03*
D11*
X65087500Y-98425000D03*
D13*
X60007500Y-98425000D03*
D14*
X61277500Y-95885000D03*
D15*
X57727500Y-95885000D03*
X71177500Y-93345000D03*
D14*
X67627500Y-93345000D03*
D16*
X163150000Y-108920000D03*
X163150000Y-109880000D03*
D13*
X255905000Y-41275000D03*
D11*
X250825000Y-41275000D03*
D13*
X245745000Y-41275000D03*
D14*
X247015000Y-38735000D03*
D15*
X243465000Y-38735000D03*
X256915000Y-36195000D03*
D14*
X253365000Y-36195000D03*
D21*
X96713000Y-60657500D03*
X98613000Y-60657500D03*
X97663000Y-62532500D03*
D19*
X165100000Y-65405000D03*
D20*
X163550000Y-65955000D03*
X163550000Y-64855000D03*
X166650000Y-64855000D03*
X166650000Y-65955000D03*
D19*
X169862500Y-84455000D03*
D20*
X168312500Y-85005000D03*
X168312500Y-83905000D03*
X171412500Y-83905000D03*
X171412500Y-85005000D03*
D21*
X253843750Y-79962500D03*
X255743750Y-79962500D03*
X254793750Y-81837500D03*
D19*
X236537500Y-103505000D03*
D20*
X234987500Y-104055000D03*
X234987500Y-102955000D03*
X238087500Y-102955000D03*
X238087500Y-104055000D03*
D13*
X170180000Y-60325000D03*
D11*
X165100000Y-60325000D03*
D13*
X160020000Y-60325000D03*
D14*
X161290000Y-57785000D03*
D15*
X157740000Y-57785000D03*
X171190000Y-55245000D03*
D14*
X167640000Y-55245000D03*
D13*
X51117500Y-98425000D03*
D11*
X46037500Y-98425000D03*
D13*
X40957500Y-98425000D03*
D14*
X42227500Y-95885000D03*
D15*
X38677500Y-95885000D03*
X52127500Y-93345000D03*
D14*
X48577500Y-93345000D03*
D33*
X162170000Y-48155000D03*
X163370000Y-48155000D03*
X164570000Y-48155000D03*
X165770000Y-48155000D03*
D34*
X161020000Y-44380000D03*
X166920000Y-44380000D03*
D19*
X246062500Y-84455000D03*
D20*
X244512500Y-85005000D03*
X244512500Y-83905000D03*
X247612500Y-83905000D03*
X247612500Y-85005000D03*
D12*
X109778800Y-109018800D03*
X109778800Y-107998800D03*
D19*
X103187500Y-103505000D03*
D20*
X101637500Y-104055000D03*
X101637500Y-102955000D03*
X104737500Y-102955000D03*
X104737500Y-104055000D03*
D18*
X122934000Y-110128000D03*
X123954000Y-110128000D03*
X122934000Y-114700000D03*
X123954000Y-114700000D03*
D13*
X65405000Y-41275000D03*
D11*
X60325000Y-41275000D03*
D13*
X55245000Y-41275000D03*
D14*
X56515000Y-38735000D03*
D15*
X52965000Y-38735000D03*
X66415000Y-36195000D03*
D14*
X62865000Y-36195000D03*
D21*
X172881250Y-60975000D03*
X174781250Y-60975000D03*
X173831250Y-62850000D03*
D19*
X79375000Y-27305000D03*
D20*
X77825000Y-27855000D03*
X77825000Y-26755000D03*
X80925000Y-26755000D03*
X80925000Y-27855000D03*
D19*
X84137500Y-103505000D03*
D20*
X82587500Y-104055000D03*
X82587500Y-102955000D03*
X85687500Y-102955000D03*
X85687500Y-104055000D03*
D13*
X53498750Y-117475000D03*
D11*
X48418750Y-117475000D03*
D13*
X43338750Y-117475000D03*
D14*
X44608750Y-114935000D03*
D15*
X41058750Y-114935000D03*
X54508750Y-112395000D03*
D14*
X50958750Y-112395000D03*
D16*
X105112500Y-120602500D03*
X105112500Y-121562500D03*
D19*
X241300000Y-65405000D03*
D20*
X239750000Y-65955000D03*
X239750000Y-64855000D03*
X242850000Y-64855000D03*
X242850000Y-65955000D03*
D13*
X198755000Y-22225000D03*
D11*
X193675000Y-22225000D03*
D13*
X188595000Y-22225000D03*
D14*
X189865000Y-19685000D03*
D15*
X186315000Y-19685000D03*
X199765000Y-17145000D03*
D14*
X196215000Y-17145000D03*
D28*
X177600000Y-110980000D03*
X177600000Y-110020000D03*
X179100000Y-119380000D03*
X179100000Y-118420000D03*
D18*
X122934000Y-119888000D03*
X123954000Y-119888000D03*
D13*
X270192500Y-79375000D03*
D11*
X265112500Y-79375000D03*
D13*
X260032500Y-79375000D03*
D14*
X261302500Y-76835000D03*
D15*
X257752500Y-76835000D03*
X271202500Y-74295000D03*
D14*
X267652500Y-74295000D03*
D13*
X217805000Y-41275000D03*
D11*
X212725000Y-41275000D03*
D13*
X207645000Y-41275000D03*
D14*
X208915000Y-38735000D03*
D15*
X205365000Y-38735000D03*
X218815000Y-36195000D03*
D14*
X215265000Y-36195000D03*
D21*
X210981250Y-60975000D03*
X212881250Y-60975000D03*
X211931250Y-62850000D03*
D19*
X231775000Y-46355000D03*
D20*
X230225000Y-46905000D03*
X230225000Y-45805000D03*
X233325000Y-45805000D03*
X233325000Y-46905000D03*
D19*
X155575000Y-27305000D03*
D20*
X154025000Y-27855000D03*
X154025000Y-26755000D03*
X157125000Y-26755000D03*
X157125000Y-27855000D03*
D21*
X32387500Y-99075000D03*
X34287500Y-99075000D03*
X33337500Y-100950000D03*
D19*
X307975000Y-46355000D03*
D20*
X306425000Y-46905000D03*
X306425000Y-45805000D03*
X309525000Y-45805000D03*
X309525000Y-46905000D03*
D13*
X313055000Y-79375000D03*
D11*
X307975000Y-79375000D03*
D13*
X302895000Y-79375000D03*
D14*
X304165000Y-76835000D03*
D15*
X300615000Y-76835000D03*
X314065000Y-74295000D03*
D14*
X310515000Y-74295000D03*
D13*
X165417500Y-98425000D03*
D11*
X160337500Y-98425000D03*
D13*
X155257500Y-98425000D03*
D14*
X156527500Y-95885000D03*
D15*
X152977500Y-95885000D03*
X166427500Y-93345000D03*
D14*
X162877500Y-93345000D03*
D21*
X144306250Y-41781250D03*
X146206250Y-41781250D03*
X145256250Y-43656250D03*
D28*
X176600000Y-120630000D03*
X176600000Y-119670000D03*
D13*
X174942500Y-79375000D03*
D11*
X169862500Y-79375000D03*
D13*
X164782500Y-79375000D03*
D14*
X166052500Y-76835000D03*
D15*
X162502500Y-76835000D03*
X175952500Y-74295000D03*
D14*
X172402500Y-74295000D03*
D22*
X104142000Y-107950000D03*
X103122000Y-107950000D03*
D18*
X122934000Y-113176000D03*
X123954000Y-113176000D03*
D19*
X127000000Y-65405000D03*
D20*
X125450000Y-65955000D03*
X125450000Y-64855000D03*
X128550000Y-64855000D03*
X128550000Y-65955000D03*
D13*
X203517500Y-98425000D03*
D11*
X198437500Y-98425000D03*
D13*
X193357500Y-98425000D03*
D14*
X194627500Y-95885000D03*
D15*
X191077500Y-95885000D03*
X204527500Y-93345000D03*
D14*
X200977500Y-93345000D03*
D18*
X120648000Y-113938000D03*
X121668000Y-113938000D03*
D19*
X193675000Y-27305000D03*
D20*
X192125000Y-27855000D03*
X192125000Y-26755000D03*
X195225000Y-26755000D03*
X195225000Y-27855000D03*
D13*
X246380000Y-60325000D03*
D11*
X241300000Y-60325000D03*
D13*
X236220000Y-60325000D03*
D14*
X237490000Y-57785000D03*
D15*
X233940000Y-57785000D03*
X247390000Y-55245000D03*
D14*
X243840000Y-55245000D03*
D13*
X93980000Y-60325000D03*
D11*
X88900000Y-60325000D03*
D13*
X83820000Y-60325000D03*
D14*
X85090000Y-57785000D03*
D15*
X81540000Y-57785000D03*
X94990000Y-55245000D03*
D14*
X91440000Y-55245000D03*
D19*
X307975000Y-65405000D03*
D20*
X306425000Y-65955000D03*
X306425000Y-64855000D03*
X309525000Y-64855000D03*
X309525000Y-65955000D03*
D19*
X288925000Y-103505000D03*
D20*
X287375000Y-104055000D03*
X287375000Y-102955000D03*
X290475000Y-102955000D03*
X290475000Y-104055000D03*
D19*
X288925000Y-122555000D03*
D20*
X287375000Y-123105000D03*
X287375000Y-122005000D03*
X290475000Y-122005000D03*
X290475000Y-123105000D03*
D21*
X101443750Y-79800000D03*
X103343750Y-79800000D03*
X102393750Y-81675000D03*
X32350000Y-117562500D03*
X34250000Y-117562500D03*
X33300000Y-119437500D03*
D12*
X193230000Y-118520000D03*
X193230000Y-117500000D03*
D19*
X231775000Y-27305000D03*
D20*
X230225000Y-27855000D03*
X230225000Y-26755000D03*
X233325000Y-26755000D03*
X233325000Y-27855000D03*
D21*
X187325000Y-99218750D03*
X189225000Y-99218750D03*
X188275000Y-101093750D03*
D19*
X131762500Y-84455000D03*
D20*
X130212500Y-85005000D03*
X130212500Y-83905000D03*
X133312500Y-83905000D03*
X133312500Y-85005000D03*
D13*
X27305000Y-22225000D03*
D11*
X22225000Y-22225000D03*
D13*
X17145000Y-22225000D03*
D14*
X18415000Y-19685000D03*
D15*
X14865000Y-19685000D03*
X28315000Y-17145000D03*
D14*
X24765000Y-17145000D03*
D19*
X250825000Y-46355000D03*
D20*
X249275000Y-46905000D03*
X249275000Y-45805000D03*
X252375000Y-45805000D03*
X252375000Y-46905000D03*
D19*
X184150000Y-65405000D03*
D20*
X182600000Y-65955000D03*
X182600000Y-64855000D03*
X185700000Y-64855000D03*
X185700000Y-65955000D03*
D21*
X106206250Y-41925000D03*
X108106250Y-41925000D03*
X107156250Y-43800000D03*
D13*
X208280000Y-60325000D03*
D11*
X203200000Y-60325000D03*
D13*
X198120000Y-60325000D03*
D14*
X199390000Y-57785000D03*
D15*
X195840000Y-57785000D03*
X209290000Y-55245000D03*
D14*
X205740000Y-55245000D03*
D21*
X150620000Y-118272500D03*
X152520000Y-118272500D03*
X151570000Y-120147500D03*
D19*
X48418750Y-122555000D03*
D20*
X46868750Y-123105000D03*
X46868750Y-122005000D03*
X49968750Y-122005000D03*
X49968750Y-123105000D03*
D35*
X161600000Y-110687500D03*
X159700000Y-110687500D03*
X160650000Y-108812500D03*
D18*
X120648000Y-119126000D03*
X121668000Y-119126000D03*
D19*
X22225000Y-46355000D03*
D20*
X20675000Y-46905000D03*
X20675000Y-45805000D03*
X23775000Y-45805000D03*
X23775000Y-46905000D03*
D13*
X155892500Y-79375000D03*
D11*
X150812500Y-79375000D03*
D13*
X145732500Y-79375000D03*
D14*
X147002500Y-76835000D03*
D15*
X143452500Y-76835000D03*
X156902500Y-74295000D03*
D14*
X153352500Y-74295000D03*
D13*
X313055000Y-41275000D03*
D11*
X307975000Y-41275000D03*
D13*
X302895000Y-41275000D03*
D14*
X304165000Y-38735000D03*
D15*
X300615000Y-38735000D03*
X314065000Y-36195000D03*
D14*
X310515000Y-36195000D03*
D19*
X198437500Y-103505000D03*
D20*
X196887500Y-104055000D03*
X196887500Y-102955000D03*
X199987500Y-102955000D03*
X199987500Y-104055000D03*
D19*
X117475000Y-27305000D03*
D20*
X115925000Y-27855000D03*
X115925000Y-26755000D03*
X119025000Y-26755000D03*
X119025000Y-27855000D03*
D19*
X55562500Y-84455000D03*
D20*
X54012500Y-85005000D03*
X54012500Y-83905000D03*
X57112500Y-83905000D03*
X57112500Y-85005000D03*
D21*
X68106250Y-22875000D03*
X70006250Y-22875000D03*
X69056250Y-24750000D03*
D22*
X104142000Y-111506000D03*
X103122000Y-111506000D03*
D13*
X55880000Y-60325000D03*
D11*
X50800000Y-60325000D03*
D13*
X45720000Y-60325000D03*
D14*
X46990000Y-57785000D03*
D15*
X43440000Y-57785000D03*
X56890000Y-55245000D03*
D14*
X53340000Y-55245000D03*
D19*
X72231250Y-122555000D03*
D20*
X70681250Y-123105000D03*
X70681250Y-122005000D03*
X73781250Y-122005000D03*
X73781250Y-123105000D03*
D16*
X168500000Y-119670000D03*
X168500000Y-120630000D03*
D13*
X313055000Y-60325000D03*
D11*
X307975000Y-60325000D03*
D13*
X302895000Y-60325000D03*
D14*
X304165000Y-57785000D03*
D15*
X300615000Y-57785000D03*
X314065000Y-55245000D03*
D14*
X310515000Y-55245000D03*
D18*
X122934000Y-116224000D03*
X123954000Y-116224000D03*
D19*
X260350000Y-65405000D03*
D20*
X258800000Y-65955000D03*
X258800000Y-64855000D03*
X261900000Y-64855000D03*
X261900000Y-65955000D03*
D13*
X232092500Y-79375000D03*
D11*
X227012500Y-79375000D03*
D13*
X221932500Y-79375000D03*
D14*
X223202500Y-76835000D03*
D15*
X219652500Y-76835000D03*
X233102500Y-74295000D03*
D14*
X229552500Y-74295000D03*
D13*
X136842500Y-79375000D03*
D11*
X131762500Y-79375000D03*
D13*
X126682500Y-79375000D03*
D14*
X127952500Y-76835000D03*
D15*
X124402500Y-76835000D03*
X137852500Y-74295000D03*
D14*
X134302500Y-74295000D03*
D16*
X167450000Y-119670000D03*
X167450000Y-120630000D03*
D21*
X220506250Y-41925000D03*
X222406250Y-41925000D03*
X221456250Y-43800000D03*
X249400000Y-98100000D03*
X251300000Y-98100000D03*
X250350000Y-99975000D03*
D13*
X313055000Y-22225000D03*
D11*
X307975000Y-22225000D03*
D13*
X302895000Y-22225000D03*
D14*
X304165000Y-19685000D03*
D15*
X300615000Y-19685000D03*
X314065000Y-17145000D03*
D14*
X310515000Y-17145000D03*
D21*
X296706250Y-22875000D03*
X298606250Y-22875000D03*
X297656250Y-24750000D03*
D19*
X269875000Y-27305000D03*
D20*
X268325000Y-27855000D03*
X268325000Y-26755000D03*
X271425000Y-26755000D03*
X271425000Y-27855000D03*
D13*
X122555000Y-22225000D03*
D11*
X117475000Y-22225000D03*
D13*
X112395000Y-22225000D03*
D14*
X113665000Y-19685000D03*
D15*
X110115000Y-19685000D03*
X123565000Y-17145000D03*
D14*
X120015000Y-17145000D03*
D19*
X79375000Y-46355000D03*
D20*
X77825000Y-46905000D03*
X77825000Y-45805000D03*
X80925000Y-45805000D03*
X80925000Y-46905000D03*
D19*
X307975000Y-122555000D03*
D20*
X306425000Y-123105000D03*
X306425000Y-122005000D03*
X309525000Y-122005000D03*
X309525000Y-123105000D03*
D13*
X46355000Y-22225000D03*
D11*
X41275000Y-22225000D03*
D13*
X36195000Y-22225000D03*
D14*
X37465000Y-19685000D03*
D15*
X33915000Y-19685000D03*
X47365000Y-17145000D03*
D14*
X43815000Y-17145000D03*
D21*
X144306250Y-22875000D03*
X146206250Y-22875000D03*
X145256250Y-24750000D03*
D13*
X103505000Y-41275000D03*
D11*
X98425000Y-41275000D03*
D13*
X93345000Y-41275000D03*
D14*
X94615000Y-38735000D03*
D15*
X91065000Y-38735000D03*
X104515000Y-36195000D03*
D14*
X100965000Y-36195000D03*
D19*
X141287500Y-103505000D03*
D20*
X139737500Y-104055000D03*
X139737500Y-102955000D03*
X142837500Y-102955000D03*
X142837500Y-104055000D03*
D16*
X106200000Y-122570000D03*
X106200000Y-123530000D03*
D21*
X295700000Y-72362500D03*
X297600000Y-72362500D03*
X296650000Y-74237500D03*
D23*
X191000000Y-114210000D03*
X191000000Y-115230000D03*
D19*
X69850000Y-65405000D03*
D20*
X68300000Y-65955000D03*
X68300000Y-64855000D03*
X71400000Y-64855000D03*
X71400000Y-65955000D03*
D21*
X30006250Y-22662500D03*
X31906250Y-22662500D03*
X30956250Y-24537500D03*
D12*
X193250000Y-115210000D03*
X193250000Y-114190000D03*
D22*
X106428000Y-110617000D03*
X105408000Y-110617000D03*
X97735000Y-115570000D03*
X96715000Y-115570000D03*
D13*
X27305000Y-41275000D03*
D11*
X22225000Y-41275000D03*
D13*
X17145000Y-41275000D03*
D14*
X18415000Y-38735000D03*
D15*
X14865000Y-38735000D03*
X28315000Y-36195000D03*
D14*
X24765000Y-36195000D03*
D18*
X120648000Y-116986000D03*
X121668000Y-116986000D03*
D13*
X294005000Y-98425000D03*
D11*
X288925000Y-98425000D03*
D13*
X283845000Y-98425000D03*
D14*
X285115000Y-95885000D03*
D15*
X281565000Y-95885000D03*
X295015000Y-93345000D03*
D14*
X291465000Y-93345000D03*
D18*
X120648000Y-112414000D03*
X121668000Y-112414000D03*
D19*
X150812500Y-84455000D03*
D20*
X149262500Y-85005000D03*
X149262500Y-83905000D03*
X152362500Y-83905000D03*
X152362500Y-85005000D03*
M02*
