M48
; DRILL file {KiCad 7.0.2} date Thu Apr 27 00:48:16 2023
; FORMAT={-:-/ absolute / metric / decimal}
; #@! TF.CreationDate,2023-04-27T00:48:16+01:00
; #@! TF.GenerationSoftware,Kicad,Pcbnew,7.0.2
; #@! TF.FileFunction,Plated,1,2,PTH
FMAT,2
METRIC
; #@! TA.AperFunction,Plated,PTH,ComponentDrill
T1C0.300
; #@! TA.AperFunction,Plated,PTH,ViaDrill
T2C0.400
; #@! TA.AperFunction,Plated,PTH,ComponentDrill
T3C3.000
%
G90
G05
T1
X108.886Y-114.811
X108.886Y-115.582
X108.886Y-116.354
X108.886Y-117.125
X108.886Y-117.896
X108.886Y-118.668
X108.886Y-119.439
X109.657Y-114.811
X109.657Y-115.582
X109.657Y-116.354
X109.657Y-117.125
X109.657Y-117.896
X109.657Y-118.668
X109.657Y-119.439
X110.429Y-114.811
X110.429Y-115.582
X110.429Y-116.354
X110.429Y-117.125
X110.429Y-117.896
X110.429Y-118.668
X110.429Y-119.439
X111.2Y-114.811
X111.2Y-115.582
X111.2Y-116.354
X111.2Y-117.125
X111.2Y-117.896
X111.2Y-118.668
X111.2Y-119.439
X111.971Y-114.811
X111.971Y-115.582
X111.971Y-116.354
X111.971Y-117.125
X111.971Y-117.896
X111.971Y-118.668
X111.971Y-119.439
X112.743Y-114.811
X112.743Y-115.582
X112.743Y-116.354
X112.743Y-117.125
X112.743Y-117.896
X112.743Y-118.668
X112.743Y-119.439
X113.514Y-114.811
X113.514Y-115.582
X113.514Y-116.354
X113.514Y-117.125
X113.514Y-117.896
X113.514Y-118.668
X113.514Y-119.439
T2
X17.5Y-90.632
X19.5Y-27.8
X19.5Y-46.9
X21.7Y-123.1
X21.9Y-104.1
X22.2Y-107.499
X24.1Y-66.0
X24.943Y-107.143
X26.6Y-85.1
X30.95Y-45.2
X30.956Y-26.1
X33.337Y-121.0
X33.35Y-102.4
X35.7Y-63.7
X36.534Y-45.634
X36.718Y-26.618
X38.1Y-78.3
X38.495Y-46.905
X38.505Y-45.805
X38.6Y-26.8
X38.6Y-27.9
X41.275Y-102.843
X43.2Y-103.0
X43.3Y-104.055
X43.7Y-121.918
X44.042Y-107.142
X45.7Y-122.0
X45.7Y-123.1
X46.134Y-64.734
X48.032Y-64.9
X48.1Y-65.9
X50.534Y-83.818
X52.784Y-83.884
X52.8Y-84.9
X55.5Y-45.7
X55.634Y-26.668
X56.981Y-90.581
X57.6Y-27.9
X57.682Y-45.787
X57.7Y-26.8
X57.7Y-46.8
X59.45Y-63.8
X60.284Y-102.784
X60.3Y-110.8
X60.3Y-113.2
X62.1Y-104.1
X62.184Y-102.984
X63.45Y-77.425
X65.234Y-64.634
X66.6Y-121.918
X67.1Y-66.0
X67.184Y-64.884
X69.05Y-45.2
X69.056Y-26.1
X69.4Y-122.005
X69.5Y-123.105
X70.05Y-83.818
X71.8Y-26.668
X72.0Y-85.0
X72.027Y-83.905
X72.771Y-26.918
X72.825Y-96.575
X72.996Y-27.895
X73.157Y-45.87
X74.108Y-46.19
X74.9Y-47.0
X76.5Y-25.144
X76.5Y-26.8
X76.5Y-27.9
X76.7Y-46.9
X76.75Y-44.194
X76.75Y-45.75
X79.234Y-102.634
X79.8Y-90.226
X80.95Y-120.6
X81.1Y-103.0
X81.2Y-104.0
X82.018Y-64.386
X82.816Y-65.116
X83.435Y-65.935
X86.0Y-64.704
X86.0Y-66.0
X86.025Y-63.244
X87.73Y-84.013
X88.716Y-85.316
X88.8Y-84.2
X91.1Y-82.294
X91.1Y-83.9
X91.1Y-85.1
X93.534Y-26.668
X93.634Y-45.634
X94.6Y-112.5
X94.6Y-114.05
X94.6Y-115.65
X95.35Y-111.75
X95.35Y-113.252
X95.4Y-114.8
X95.6Y-26.8
X95.6Y-27.9
X95.6Y-45.8
X95.7Y-47.0
X97.663Y-64.008
X98.268Y-102.868
X98.45Y-89.87
X100.3Y-102.9
X100.4Y-104.1
X101.3Y-107.2
X101.35Y-110.6
X101.4Y-108.85
X102.1Y-107.95
X102.15Y-109.75
X102.15Y-111.5
X102.37Y-116.072
X102.4Y-83.1
X102.4Y-115.05
X102.88Y-120.7
X103.124Y-64.745
X103.78Y-123.03
X104.17Y-121.557
X105.164Y-64.905
X105.2Y-66.1
X107.15Y-45.2
X107.156Y-26.1
X107.25Y-123.53
X107.97Y-83.818
X109.2Y-102.868
X109.8Y-107.0
X110.0Y-83.905
X110.0Y-85.1
X110.6Y-103.325
X111.0Y-107.0
X111.9Y-102.1
X112.5Y-45.718
X112.839Y-26.652
X114.565Y-46.9
X114.566Y-45.866
X114.7Y-109.0
X114.77Y-122.536
X114.8Y-26.755
X114.8Y-27.855
X117.3Y-89.515
X117.484Y-102.784
X119.441Y-102.941
X119.5Y-104.2
X122.199Y-64.768
X123.034Y-69.934
X123.138Y-68.799
X124.018Y-71.018
X124.1Y-69.9
X124.176Y-64.892
X124.308Y-65.955
X124.968Y-110.109
X124.968Y-111.633
X125.095Y-113.157
X125.095Y-114.681
X125.095Y-116.205
X125.095Y-118.364
X125.1Y-72.0
X125.2Y-70.868
X125.2Y-119.9
X125.2Y-121.38
X126.102Y-31.602
X126.111Y-119.126
X126.186Y-30.486
X126.2Y-120.6
X126.238Y-110.871
X126.238Y-112.395
X126.238Y-113.919
X126.238Y-115.443
X126.238Y-116.967
X127.125Y-83.743
X127.134Y-32.634
X127.218Y-31.518
X128.116Y-33.716
X128.35Y-32.45
X128.9Y-85.1
X128.916Y-84.016
X130.25Y-118.75
X131.6Y-45.7
X131.9Y-26.6
X133.755Y-27.855
X133.8Y-26.8
X133.8Y-45.8
X133.8Y-46.9
X134.275Y-58.5
X135.25Y-118.75
X135.5Y-124.6
X135.834Y-123.234
X136.275Y-122.1
X136.35Y-89.159
X136.5Y-102.768
X138.5Y-102.9
X138.6Y-104.0
X139.9Y-83.1
X140.256Y-55.492
X140.9Y-122.005
X140.926Y-120.394
X141.0Y-123.1
X141.261Y-64.761
X141.82Y-54.839
X143.25Y-66.05
X143.281Y-64.872
X143.55Y-74.36
X144.125Y-39.025
X144.72Y-73.66
X145.04Y-17.54
X145.275Y-20.7
X146.07Y-16.898
X146.109Y-83.818
X147.12Y-36.442
X148.19Y-35.541
X148.2Y-83.9
X148.3Y-85.0
X149.6Y-97.0
X150.826Y-45.718
X150.847Y-26.668
X151.58Y-121.86
X152.7Y-47.0
X152.766Y-45.966
X152.8Y-26.8
X152.8Y-27.9
X153.773Y-123.349
X154.0Y-93.35
X154.724Y-123.376
X155.05Y-92.774
X155.15Y-88.803
X155.75Y-102.818
X157.6Y-104.1
X157.616Y-103.016
X157.7Y-81.3
X159.52Y-44.4
X160.25Y-64.768
X161.235Y-49.295
X161.95Y-117.9
X162.0Y-116.4
X162.0Y-119.45
X162.1Y-113.55
X162.1Y-114.95
X162.2Y-66.0
X162.27Y-50.21
X162.313Y-64.855
X162.95Y-114.219
X162.95Y-115.603
X163.0Y-117.1
X163.0Y-118.65
X163.0Y-120.15
X163.16Y-110.82
X163.494Y-50.174
X164.22Y-109.88
X164.446Y-50.174
X164.5Y-111.75
X164.8Y-83.818
X165.69Y-50.16
X166.29Y-120.63
X166.3Y-119.65
X166.8Y-102.3
X166.8Y-110.3
X167.1Y-83.9
X167.2Y-85.1
X167.75Y-109.55
X168.38Y-44.4
X168.8Y-96.1
X168.85Y-108.943
X169.5Y-121.35
X169.8Y-26.668
X169.998Y-45.834
X170.585Y-121.1
X170.61Y-108.13
X170.65Y-122.05
X171.15Y-102.18
X171.35Y-105.02
X171.9Y-46.9
X171.916Y-45.816
X171.945Y-27.855
X171.949Y-26.783
X172.13Y-108.29
X173.244Y-108.28
X173.57Y-102.18
X173.85Y-64.65
X174.1Y-88.2
X174.196Y-108.28
X174.89Y-105.08
X175.33Y-108.33
X176.54Y-108.95
X176.6Y-121.65
X176.7Y-101.344
X176.7Y-103.0
X176.7Y-104.1
X177.22Y-87.07
X177.61Y-108.97
X177.75Y-119.68
X177.9Y-74.295
X177.95Y-73.175
X178.18Y-81.97
X178.7Y-111.0
X179.1Y-117.5
X179.1Y-120.35
X180.61Y-122.447
X180.81Y-116.74
X181.3Y-65.9
X181.65Y-119.625
X181.7Y-79.14
X182.725Y-36.275
X182.776Y-35.324
X182.8Y-50.625
X183.35Y-26.35
X183.59Y-123.513
X183.65Y-115.82
X184.3Y-87.852
X184.4Y-67.1
X186.0Y-85.0
X186.025Y-47.675
X186.05Y-42.9
X186.06Y-118.72
X186.11Y-115.69
X186.56Y-112.23
X187.5Y-64.855
X187.6Y-74.3
X187.65Y-73.225
X188.2Y-86.1
X188.3Y-102.95
X190.9Y-27.855
X190.9Y-47.0
X191.0Y-116.15
X191.14Y-118.49
X192.1Y-116.2
X192.525Y-36.442
X192.55Y-35.325
X192.6Y-83.905
X192.7Y-48.1
X192.9Y-29.0
X193.24Y-113.22
X195.7Y-104.055
X196.4Y-45.8
X196.75Y-26.85
X197.6Y-105.1
X198.25Y-64.768
X200.359Y-64.859
X200.4Y-66.0
X201.5Y-103.0
X202.9Y-117.85
X202.925Y-83.743
X205.084Y-83.884
X205.3Y-85.0
X207.925Y-45.643
X208.1Y-26.568
X209.9Y-45.8
X209.9Y-46.9
X210.0Y-26.8
X210.0Y-27.9
X210.1Y-122.07
X210.85Y-88.0
X211.9Y-64.3
X212.3Y-123.2
X212.4Y-102.868
X212.4Y-122.005
X214.6Y-104.2
X214.7Y-102.955
X216.75Y-83.1
X217.6Y-64.768
X219.5Y-66.0
X219.534Y-64.934
X221.45Y-45.2
X221.456Y-26.1
X222.247Y-83.818
X224.3Y-83.9
X224.3Y-85.005
X226.2Y-101.9
X226.25Y-107.45
X226.25Y-121.15
X227.0Y-45.6
X227.134Y-26.634
X228.9Y-45.9
X229.0Y-46.9
X229.1Y-26.8
X229.1Y-27.9
X230.3Y-88.4
X231.825Y-102.743
X233.8Y-104.1
X233.9Y-102.9
X233.9Y-121.918
X234.15Y-77.25
X236.0Y-122.0
X236.0Y-123.1
X236.5Y-64.768
X238.5Y-64.9
X238.555Y-65.955
X241.534Y-83.734
X243.4Y-85.0
X243.434Y-83.934
X245.25Y-107.871
X245.3Y-109.0
X246.018Y-45.718
X246.168Y-26.668
X248.0Y-45.8
X248.1Y-47.0
X248.145Y-26.755
X248.2Y-27.855
X250.05Y-64.2
X250.15Y-88.7
X250.35Y-96.4
X254.794Y-83.3
X255.584Y-64.768
X255.7Y-113.003
X257.584Y-102.868
X257.7Y-64.9
X257.7Y-66.0
X259.55Y-45.1
X259.556Y-26.2
X260.0Y-102.9
X260.0Y-104.0
X260.434Y-83.734
X262.384Y-83.884
X262.4Y-85.0
X262.4Y-89.274
X264.725Y-121.843
X265.068Y-26.668
X267.0Y-122.0
X267.1Y-26.7
X267.1Y-27.855
X267.1Y-123.1
X274.4Y-45.718
X276.4Y-45.9
X276.5Y-47.0
X278.55Y-94.049
X278.55Y-121.0
X281.518Y-74.518
X283.7Y-74.4
X283.8Y-75.5
X283.918Y-121.918
X284.1Y-102.868
X284.2Y-26.668
X285.9Y-122.0
X285.9Y-123.1
X286.1Y-103.0
X286.2Y-26.8
X286.2Y-27.9
X286.2Y-104.1
X288.75Y-89.63
X296.1Y-44.3
X296.6Y-76.1
X297.65Y-120.9
X297.656Y-26.1
X297.656Y-102.2
X299.9Y-64.356
X302.4Y-121.918
X302.7Y-45.718
X302.8Y-102.868
X302.934Y-83.87
X303.184Y-64.813
X303.2Y-26.568
X305.0Y-45.805
X305.1Y-27.9
X305.1Y-103.0
X305.1Y-122.0
X305.105Y-46.905
X305.116Y-26.716
X305.175Y-90.275
X305.2Y-66.0
X305.2Y-83.9
X305.2Y-85.0
X305.2Y-123.1
X305.284Y-64.884
X305.3Y-104.1
T3
X18.415Y-19.685
X18.415Y-38.735
X20.796Y-95.885
X20.796Y-114.935
X23.177Y-57.785
X24.765Y-17.145
X24.765Y-36.195
X25.559Y-76.835
X27.146Y-93.345
X27.146Y-112.395
X29.527Y-55.245
X31.909Y-74.295
X37.465Y-19.685
X37.465Y-38.735
X42.227Y-95.885
X43.815Y-17.145
X43.815Y-36.195
X44.609Y-114.935
X46.99Y-57.785
X48.578Y-93.345
X50.959Y-112.395
X51.752Y-76.835
X53.34Y-55.245
X56.515Y-19.685
X56.515Y-38.735
X58.102Y-74.295
X61.277Y-95.885
X62.865Y-17.145
X62.865Y-36.195
X66.04Y-57.785
X67.627Y-93.345
X68.421Y-114.935
X70.802Y-76.835
X72.39Y-55.245
X74.771Y-112.395
X75.565Y-19.685
X75.565Y-38.735
X77.153Y-74.295
X80.328Y-95.885
X81.915Y-17.145
X81.915Y-36.195
X85.09Y-57.785
X86.677Y-93.345
X89.852Y-76.835
X91.44Y-55.245
X94.615Y-19.685
X94.615Y-38.735
X96.203Y-74.295
X99.377Y-95.885
X100.965Y-17.145
X100.965Y-36.195
X104.14Y-57.785
X105.727Y-93.345
X108.902Y-76.835
X110.49Y-55.245
X113.665Y-19.685
X113.665Y-38.735
X115.252Y-74.295
X118.427Y-95.885
X120.015Y-17.145
X120.015Y-36.195
X123.19Y-57.785
X124.777Y-93.345
X127.953Y-76.835
X129.54Y-55.245
X132.715Y-19.685
X132.715Y-38.735
X134.302Y-74.295
X137.477Y-95.885
X139.065Y-17.145
X139.065Y-36.195
X139.859Y-114.935
X142.24Y-57.785
X143.827Y-93.345
X146.209Y-112.395
X147.002Y-76.835
X148.59Y-55.245
X151.765Y-19.685
X151.765Y-38.735
X153.352Y-74.295
X156.528Y-95.885
X158.115Y-17.145
X158.115Y-36.195
X161.29Y-57.785
X162.877Y-93.345
X166.052Y-76.835
X167.64Y-55.245
X170.815Y-19.685
X170.815Y-38.735
X172.403Y-74.295
X175.577Y-95.885
X177.165Y-17.145
X177.165Y-36.195
X180.34Y-57.785
X181.927Y-93.345
X185.102Y-76.835
X186.69Y-55.245
X189.865Y-19.685
X189.865Y-38.735
X191.452Y-74.295
X194.627Y-95.885
X196.215Y-17.145
X196.215Y-36.195
X199.39Y-57.785
X200.977Y-93.345
X204.153Y-76.835
X205.74Y-55.245
X208.915Y-19.685
X208.915Y-38.735
X210.502Y-74.295
X211.296Y-114.935
X213.677Y-95.885
X215.265Y-17.145
X215.265Y-36.195
X217.646Y-112.395
X218.44Y-57.785
X220.028Y-93.345
X223.202Y-76.835
X224.79Y-55.245
X227.965Y-19.685
X227.965Y-38.735
X229.552Y-74.295
X232.727Y-95.885
X234.315Y-17.145
X234.315Y-36.195
X235.109Y-114.935
X237.49Y-57.785
X239.077Y-93.345
X241.459Y-112.395
X242.252Y-76.835
X243.84Y-55.245
X247.015Y-19.685
X247.015Y-38.735
X248.602Y-74.295
X253.365Y-17.145
X253.365Y-36.195
X256.54Y-57.785
X258.921Y-95.885
X261.303Y-76.835
X262.89Y-55.245
X265.271Y-93.345
X266.065Y-19.685
X266.065Y-114.935
X267.652Y-74.295
X272.415Y-17.145
X272.415Y-112.395
X275.59Y-38.735
X281.94Y-36.195
X282.734Y-67.31
X285.115Y-19.685
X285.115Y-95.885
X285.115Y-114.935
X289.084Y-64.77
X291.465Y-17.145
X291.465Y-93.345
X291.465Y-112.395
X304.165Y-19.685
X304.165Y-38.735
X304.165Y-57.785
X304.165Y-76.835
X304.165Y-95.885
X304.165Y-114.935
X310.515Y-17.145
X310.515Y-36.195
X310.515Y-55.245
X310.515Y-74.295
X310.515Y-93.345
X310.515Y-112.395
T0
M30
