M48
; DRILL file {KiCad 7.0.2} date Thu Apr 27 00:32:19 2023
; FORMAT={-:-/ absolute / metric / decimal}
; #@! TF.CreationDate,2023-04-27T00:32:19+01:00
; #@! TF.GenerationSoftware,Kicad,Pcbnew,7.0.2
; #@! TF.FileFunction,NonPlated,1,2,NPTH
FMAT,2
METRIC
; #@! TA.AperFunction,NonPlated,NPTH,ComponentDrill
T1C1.750
; #@! TA.AperFunction,NonPlated,NPTH,ComponentDrill
T2C2.100
; #@! TA.AperFunction,NonPlated,NPTH,ComponentDrill
T3C3.048
; #@! TA.AperFunction,NonPlated,NPTH,ComponentDrill
T4C3.988
%
G90
G05
T1
X17.145Y-22.225
X17.145Y-41.275
X19.526Y-98.425
X19.526Y-117.475
X21.907Y-60.325
X24.289Y-79.375
X27.305Y-22.225
X27.305Y-41.275
X29.686Y-98.425
X29.686Y-117.475
X32.067Y-60.325
X34.449Y-79.375
X36.195Y-22.225
X36.195Y-41.275
X40.957Y-98.425
X43.339Y-117.475
X45.72Y-60.325
X46.355Y-22.225
X46.355Y-41.275
X50.482Y-79.375
X51.117Y-98.425
X53.499Y-117.475
X55.245Y-22.225
X55.245Y-41.275
X55.88Y-60.325
X60.008Y-98.425
X60.642Y-79.375
X64.77Y-60.325
X65.405Y-22.225
X65.405Y-41.275
X67.151Y-117.475
X69.532Y-79.375
X70.167Y-98.425
X74.295Y-22.225
X74.295Y-41.275
X74.93Y-60.325
X77.311Y-117.475
X79.057Y-98.425
X79.692Y-79.375
X83.82Y-60.325
X84.455Y-22.225
X84.455Y-41.275
X88.582Y-79.375
X89.218Y-98.425
X93.345Y-22.225
X93.345Y-41.275
X93.98Y-60.325
X98.108Y-98.425
X98.742Y-79.375
X102.87Y-60.325
X103.505Y-22.225
X103.505Y-41.275
X107.632Y-79.375
X108.267Y-98.425
X112.395Y-22.225
X112.395Y-41.275
X113.03Y-60.325
X117.157Y-98.425
X117.792Y-79.375
X121.92Y-60.325
X122.555Y-22.225
X122.555Y-41.275
X126.682Y-79.375
X127.317Y-98.425
X131.445Y-22.225
X131.445Y-41.275
X132.08Y-60.325
X136.207Y-98.425
X136.843Y-79.375
X138.589Y-117.475
X140.97Y-60.325
X141.605Y-22.225
X141.605Y-41.275
X145.732Y-79.375
X146.368Y-98.425
X148.749Y-117.475
X150.495Y-22.225
X150.495Y-41.275
X151.13Y-60.325
X155.257Y-98.425
X155.892Y-79.375
X160.02Y-60.325
X160.655Y-22.225
X160.655Y-41.275
X164.782Y-79.375
X165.417Y-98.425
X169.545Y-22.225
X169.545Y-41.275
X170.18Y-60.325
X174.308Y-98.425
X174.942Y-79.375
X179.07Y-60.325
X179.705Y-22.225
X179.705Y-41.275
X183.832Y-79.375
X184.468Y-98.425
X188.595Y-22.225
X188.595Y-41.275
X189.23Y-60.325
X193.357Y-98.425
X193.992Y-79.375
X198.12Y-60.325
X198.755Y-22.225
X198.755Y-41.275
X202.882Y-79.375
X203.517Y-98.425
X207.645Y-22.225
X207.645Y-41.275
X208.28Y-60.325
X210.026Y-117.475
X212.407Y-98.425
X213.042Y-79.375
X217.17Y-60.325
X217.805Y-22.225
X217.805Y-41.275
X220.186Y-117.475
X221.932Y-79.375
X222.567Y-98.425
X226.695Y-22.225
X226.695Y-41.275
X227.33Y-60.325
X231.457Y-98.425
X232.093Y-79.375
X233.839Y-117.475
X236.22Y-60.325
X236.855Y-22.225
X236.855Y-41.275
X240.982Y-79.375
X241.617Y-98.425
X243.999Y-117.475
X245.745Y-22.225
X245.745Y-41.275
X246.38Y-60.325
X251.142Y-79.375
X255.27Y-60.325
X255.905Y-22.225
X255.905Y-41.275
X257.651Y-98.425
X260.032Y-79.375
X264.795Y-22.225
X264.795Y-117.475
X265.43Y-60.325
X267.811Y-98.425
X270.192Y-79.375
X274.32Y-41.275
X274.955Y-22.225
X274.955Y-117.475
X281.464Y-69.85
X283.845Y-22.225
X283.845Y-98.425
X283.845Y-117.475
X284.48Y-41.275
X291.624Y-69.85
X294.005Y-22.225
X294.005Y-98.425
X294.005Y-117.475
X302.895Y-22.225
X302.895Y-41.275
X302.895Y-60.325
X302.895Y-79.375
X302.895Y-98.425
X302.895Y-117.475
X313.055Y-22.225
X313.055Y-41.275
X313.055Y-60.325
X313.055Y-79.375
X313.055Y-98.425
X313.055Y-117.475
T2
X22.225Y-27.305
X22.225Y-46.355
X24.606Y-103.505
X24.606Y-122.555
X26.987Y-65.405
X29.369Y-84.455
X41.275Y-27.305
X41.275Y-46.355
X46.038Y-103.505
X48.419Y-122.555
X50.8Y-65.405
X55.562Y-84.455
X60.325Y-27.305
X60.325Y-46.355
X65.087Y-103.505
X69.85Y-65.405
X72.231Y-122.555
X74.612Y-84.455
X79.375Y-27.305
X79.375Y-46.355
X84.138Y-103.505
X88.9Y-65.405
X93.662Y-84.455
X98.425Y-27.305
X98.425Y-46.355
X103.188Y-103.505
X107.95Y-65.405
X112.712Y-84.455
X117.475Y-27.305
X117.475Y-46.355
X122.237Y-103.505
X127.0Y-65.405
X131.762Y-84.455
X136.525Y-27.305
X136.525Y-46.355
X141.287Y-103.505
X143.669Y-122.555
X146.05Y-65.405
X150.812Y-84.455
X155.575Y-27.305
X155.575Y-46.355
X160.338Y-103.505
X165.1Y-65.405
X169.862Y-84.455
X174.625Y-27.305
X174.625Y-46.355
X179.387Y-103.505
X184.15Y-65.405
X188.912Y-84.455
X193.675Y-27.305
X193.675Y-46.355
X198.438Y-103.505
X203.2Y-65.405
X207.962Y-84.455
X212.725Y-27.305
X212.725Y-46.355
X215.106Y-122.555
X217.487Y-103.505
X222.25Y-65.405
X227.012Y-84.455
X231.775Y-27.305
X231.775Y-46.355
X236.537Y-103.505
X238.919Y-122.555
X241.3Y-65.405
X246.062Y-84.455
X250.825Y-27.305
X250.825Y-46.355
X260.35Y-65.405
X262.731Y-103.505
X265.113Y-84.455
X269.875Y-27.305
X269.875Y-122.555
X279.4Y-46.355
X286.544Y-74.93
X288.925Y-27.305
X288.925Y-103.505
X288.925Y-122.555
X307.975Y-27.305
X307.975Y-46.355
X307.975Y-65.405
X307.975Y-84.455
X307.975Y-103.505
X307.975Y-122.555
T3
X93.662Y-124.46
X193.675Y-124.46
X267.494Y-34.29
X279.559Y-57.944
X279.559Y-81.756
X291.306Y-34.29
T4
X22.225Y-22.225
X22.225Y-41.275
X24.606Y-98.425
X24.606Y-117.475
X26.987Y-60.325
X29.369Y-79.375
X41.275Y-22.225
X41.275Y-41.275
X46.038Y-98.425
X48.419Y-117.475
X50.8Y-60.325
X55.562Y-79.375
X60.325Y-22.225
X60.325Y-41.275
X65.087Y-98.425
X69.85Y-60.325
X72.231Y-117.475
X74.612Y-79.375
X79.375Y-22.225
X79.375Y-41.275
X84.138Y-98.425
X88.9Y-60.325
X93.662Y-79.375
X93.662Y-109.22
X98.425Y-22.225
X98.425Y-41.275
X103.188Y-98.425
X107.95Y-60.325
X112.712Y-79.375
X117.475Y-22.225
X117.475Y-41.275
X122.237Y-98.425
X127.0Y-60.325
X131.762Y-79.375
X136.525Y-22.225
X136.525Y-41.275
X141.287Y-98.425
X143.669Y-117.475
X146.05Y-60.325
X150.812Y-79.375
X155.575Y-22.225
X155.575Y-41.275
X160.338Y-98.425
X165.1Y-60.325
X169.862Y-79.375
X174.625Y-22.225
X174.625Y-41.275
X179.387Y-98.425
X184.15Y-60.325
X188.912Y-79.375
X193.675Y-22.225
X193.675Y-41.275
X193.675Y-109.22
X198.438Y-98.425
X203.2Y-60.325
X207.962Y-79.375
X212.725Y-22.225
X212.725Y-41.275
X215.106Y-117.475
X217.487Y-98.425
X222.25Y-60.325
X227.012Y-79.375
X231.775Y-22.225
X231.775Y-41.275
X236.537Y-98.425
X238.919Y-117.475
X241.3Y-60.325
X246.062Y-79.375
X250.825Y-22.225
X250.825Y-41.275
X260.35Y-60.325
X262.731Y-98.425
X265.113Y-79.375
X267.494Y-49.53
X269.875Y-22.225
X269.875Y-117.475
X279.4Y-41.275
X286.544Y-69.85
X288.925Y-22.225
X288.925Y-98.425
X288.925Y-117.475
X291.306Y-49.53
X294.799Y-57.944
X294.799Y-81.756
X307.975Y-22.225
X307.975Y-41.275
X307.975Y-60.325
X307.975Y-79.375
X307.975Y-98.425
X307.975Y-117.475
T0
M30
