G04 #@! TF.GenerationSoftware,KiCad,Pcbnew,7.0.2*
G04 #@! TF.CreationDate,2023-04-27T00:32:00+01:00*
G04 #@! TF.ProjectId,ISO75+STM+PKRGB,49534f37-352b-4535-944d-2b504b524742,rev?*
G04 #@! TF.SameCoordinates,Original*
G04 #@! TF.FileFunction,Profile,NP*
%FSLAX46Y46*%
G04 Gerber Fmt 4.6, Leading zero omitted, Abs format (unit mm)*
G04 Created by KiCad (PCBNEW 7.0.2) date 2023-04-27 00:32:00*
%MOMM*%
%LPD*%
G01*
G04 APERTURE LIST*
G04 #@! TA.AperFunction,Profile*
%ADD10C,0.100000*%
G04 #@! TD*
G04 APERTURE END LIST*
D10*
X131242637Y-12700037D02*
G75*
G03*
X129828426Y-13699999I-37J-1499963D01*
G01*
X86965891Y-126000013D02*
G75*
G03*
X88380141Y-127000000I1414209J500013D01*
G01*
X14700000Y-12700000D02*
X27507353Y-12700000D01*
X131242637Y-12700000D02*
X198957354Y-12700000D01*
X295621569Y-13699998D02*
G75*
G03*
X301278421Y-13699998I2828426J1000000D01*
G01*
X40950000Y-127000000D02*
X40755136Y-127000000D01*
X39340890Y-126000011D02*
G75*
G03*
X40755136Y-127000000I1414210J500011D01*
G01*
X315500000Y-127000000D02*
G75*
G03*
X317500000Y-125000000I0J2000000D01*
G01*
X35992640Y-12700037D02*
G75*
G03*
X34578425Y-13700001I-40J-1499963D01*
G01*
X206028453Y-125999989D02*
G75*
G03*
X207442631Y-127000000I1414147J499889D01*
G01*
X124171610Y-13699983D02*
G75*
G03*
X122757353Y-12699998I-1414210J-500017D01*
G01*
X207442636Y-12700000D02*
X294207354Y-12700000D01*
X124171574Y-13699995D02*
G75*
G03*
X129828424Y-13699999I2828426J999995D01*
G01*
X14700000Y-12700000D02*
G75*
G03*
X12700000Y-14700000I0J-2000000D01*
G01*
X315500000Y-127000000D02*
X283642636Y-127000000D01*
X86965926Y-126000000D02*
G75*
G03*
X81309074Y-126000000I-2828426J-1000000D01*
G01*
X79882350Y-127000000D02*
X79700000Y-127000000D01*
X275157351Y-126999983D02*
G75*
G03*
X276571567Y-125999998I-51J1500083D01*
G01*
X198957354Y-127000000D02*
X88380141Y-127000000D01*
X317500000Y-14700000D02*
G75*
G03*
X315500000Y-12700000I-2000000J0D01*
G01*
X282228421Y-125999998D02*
G75*
G03*
X276571569Y-125999998I-2828426J-1000000D01*
G01*
X12700000Y-125000000D02*
X12700000Y-14700000D01*
X35992640Y-12700000D02*
X122757353Y-12700000D01*
X275157351Y-127000000D02*
X207442631Y-127000000D01*
X295621547Y-13700005D02*
G75*
G03*
X294207354Y-12699998I-1414147J-499895D01*
G01*
X39340921Y-126000000D02*
G75*
G03*
X33684069Y-126000000I-2828426J-1000000D01*
G01*
X302692636Y-12700000D02*
X315500000Y-12700000D01*
X302692636Y-12700008D02*
G75*
G03*
X301278425Y-13699999I64J-1500092D01*
G01*
X207442636Y-12700008D02*
G75*
G03*
X206028425Y-13699999I64J-1500092D01*
G01*
X79890684Y-126999955D02*
G75*
G03*
X81309072Y-126000000I4216J1499955D01*
G01*
X79890684Y-127000000D02*
X79882350Y-127000000D01*
X79700000Y-127000000D02*
X40950000Y-127000000D01*
X282228455Y-125999987D02*
G75*
G03*
X283642636Y-126999998I1414145J499887D01*
G01*
X317500000Y-14700000D02*
X317500000Y-125000000D01*
X198957354Y-126999984D02*
G75*
G03*
X200371567Y-126000000I-54J1500084D01*
G01*
X32269854Y-127000000D02*
X14700000Y-127000000D01*
X200371547Y-13700005D02*
G75*
G03*
X198957354Y-12699998I-1414147J-499895D01*
G01*
X28921608Y-13699984D02*
G75*
G03*
X27507353Y-12700000I-1414208J-500016D01*
G01*
X32269854Y-126999957D02*
G75*
G03*
X33684068Y-126000000I46J1499957D01*
G01*
X28921574Y-13699996D02*
G75*
G03*
X34578425Y-13700001I2828426J999996D01*
G01*
X12700000Y-125000000D02*
G75*
G03*
X14700000Y-127000000I2000000J0D01*
G01*
X200371569Y-13699998D02*
G75*
G03*
X206028421Y-13699998I2828426J1000000D01*
G01*
X206028421Y-126000000D02*
G75*
G03*
X200371569Y-126000000I-2828426J-1000000D01*
G01*
M02*
