G04 #@! TF.GenerationSoftware,KiCad,Pcbnew,7.0.2*
G04 #@! TF.CreationDate,2023-04-27T00:48:04+01:00*
G04 #@! TF.ProjectId,ISO75+STM+PKRGB,49534f37-352b-4535-944d-2b504b524742,rev?*
G04 #@! TF.SameCoordinates,Original*
G04 #@! TF.FileFunction,Soldermask,Top*
G04 #@! TF.FilePolarity,Negative*
%FSLAX46Y46*%
G04 Gerber Fmt 4.6, Leading zero omitted, Abs format (unit mm)*
G04 Created by KiCad (PCBNEW 7.0.2) date 2023-04-27 00:48:04*
%MOMM*%
%LPD*%
G01*
G04 APERTURE LIST*
%ADD10C,3.048000*%
%ADD11C,3.987800*%
%ADD12C,1.750000*%
%ADD13C,3.300000*%
%ADD14C,2.100000*%
%ADD15C,0.600000*%
G04 APERTURE END LIST*
D10*
X267493750Y-34290000D03*
D11*
X267493750Y-49530000D03*
D10*
X291306250Y-34290000D03*
D11*
X291306250Y-49530000D03*
D10*
X193675000Y-124460000D03*
D11*
X193675000Y-109220000D03*
D10*
X93662500Y-124460000D03*
D11*
X93662500Y-109220000D03*
D10*
X279558750Y-57943750D03*
X279558750Y-81756250D03*
D11*
X294798750Y-57943750D03*
X294798750Y-81756250D03*
D12*
X241617500Y-98425000D03*
D11*
X236537500Y-98425000D03*
D12*
X231457500Y-98425000D03*
D13*
X232727500Y-95885000D03*
X239077500Y-93345000D03*
D12*
X243998750Y-117475000D03*
D11*
X238918750Y-117475000D03*
D12*
X233838750Y-117475000D03*
D13*
X235108750Y-114935000D03*
X241458750Y-112395000D03*
D14*
X238918750Y-122555000D03*
D12*
X193992500Y-79375000D03*
D11*
X188912500Y-79375000D03*
D12*
X183832500Y-79375000D03*
D13*
X185102500Y-76835000D03*
X191452500Y-74295000D03*
D14*
X136525000Y-46355000D03*
D12*
X274955000Y-117475000D03*
D11*
X269875000Y-117475000D03*
D12*
X264795000Y-117475000D03*
D13*
X266065000Y-114935000D03*
X272415000Y-112395000D03*
D12*
X103505000Y-22225000D03*
D11*
X98425000Y-22225000D03*
D12*
X93345000Y-22225000D03*
D13*
X94615000Y-19685000D03*
X100965000Y-17145000D03*
D14*
X136525000Y-27305000D03*
D12*
X294005000Y-117475000D03*
D11*
X288925000Y-117475000D03*
D12*
X283845000Y-117475000D03*
D13*
X285115000Y-114935000D03*
X291465000Y-112395000D03*
D12*
X148748750Y-117475000D03*
D11*
X143668750Y-117475000D03*
D12*
X138588750Y-117475000D03*
D13*
X139858750Y-114935000D03*
X146208750Y-112395000D03*
D12*
X60642500Y-79375000D03*
D11*
X55562500Y-79375000D03*
D12*
X50482500Y-79375000D03*
D13*
X51752500Y-76835000D03*
X58102500Y-74295000D03*
D14*
X41275000Y-46355000D03*
D12*
X84455000Y-41275000D03*
D11*
X79375000Y-41275000D03*
D12*
X74295000Y-41275000D03*
D13*
X75565000Y-38735000D03*
X81915000Y-36195000D03*
D12*
X184467500Y-98425000D03*
D11*
X179387500Y-98425000D03*
D12*
X174307500Y-98425000D03*
D13*
X175577500Y-95885000D03*
X181927500Y-93345000D03*
D14*
X88900000Y-65405000D03*
X286543750Y-74930000D03*
X250825000Y-27305000D03*
D12*
X29686250Y-98425000D03*
D11*
X24606250Y-98425000D03*
D12*
X19526250Y-98425000D03*
D13*
X20796250Y-95885000D03*
X27146250Y-93345000D03*
D12*
X117792500Y-79375000D03*
D11*
X112712500Y-79375000D03*
D12*
X107632500Y-79375000D03*
D13*
X108902500Y-76835000D03*
X115252500Y-74295000D03*
D14*
X60325000Y-27305000D03*
X117475000Y-46355000D03*
D12*
X127317500Y-98425000D03*
D11*
X122237500Y-98425000D03*
D12*
X117157500Y-98425000D03*
D13*
X118427500Y-95885000D03*
X124777500Y-93345000D03*
D12*
X160655000Y-22225000D03*
D11*
X155575000Y-22225000D03*
D12*
X150495000Y-22225000D03*
D13*
X151765000Y-19685000D03*
X158115000Y-17145000D03*
D12*
X151130000Y-60325000D03*
D11*
X146050000Y-60325000D03*
D12*
X140970000Y-60325000D03*
D13*
X142240000Y-57785000D03*
X148590000Y-55245000D03*
D12*
X132080000Y-60325000D03*
D11*
X127000000Y-60325000D03*
D12*
X121920000Y-60325000D03*
D13*
X123190000Y-57785000D03*
X129540000Y-55245000D03*
D12*
X213042500Y-79375000D03*
D11*
X207962500Y-79375000D03*
D12*
X202882500Y-79375000D03*
D13*
X204152500Y-76835000D03*
X210502500Y-74295000D03*
D12*
X146367500Y-98425000D03*
D11*
X141287500Y-98425000D03*
D12*
X136207500Y-98425000D03*
D13*
X137477500Y-95885000D03*
X143827500Y-93345000D03*
D14*
X174625000Y-27305000D03*
X217487500Y-103505000D03*
X279400000Y-46355000D03*
D12*
X46355000Y-41275000D03*
D11*
X41275000Y-41275000D03*
D12*
X36195000Y-41275000D03*
D13*
X37465000Y-38735000D03*
X43815000Y-36195000D03*
D14*
X24606250Y-103505000D03*
D12*
X227330000Y-60325000D03*
D11*
X222250000Y-60325000D03*
D12*
X217170000Y-60325000D03*
D13*
X218440000Y-57785000D03*
X224790000Y-55245000D03*
D14*
X41275000Y-27305000D03*
X227012500Y-84455000D03*
D12*
X79692500Y-79375000D03*
D11*
X74612500Y-79375000D03*
D12*
X69532500Y-79375000D03*
D13*
X70802500Y-76835000D03*
X77152500Y-74295000D03*
D14*
X222250000Y-65405000D03*
X143668750Y-122555000D03*
D12*
X284480000Y-41275000D03*
D11*
X279400000Y-41275000D03*
D12*
X274320000Y-41275000D03*
D13*
X275590000Y-38735000D03*
X281940000Y-36195000D03*
D12*
X217805000Y-22225000D03*
D11*
X212725000Y-22225000D03*
D12*
X207645000Y-22225000D03*
D13*
X208915000Y-19685000D03*
X215265000Y-17145000D03*
D12*
X236855000Y-22225000D03*
D11*
X231775000Y-22225000D03*
D12*
X226695000Y-22225000D03*
D13*
X227965000Y-19685000D03*
X234315000Y-17145000D03*
D14*
X307975000Y-103505000D03*
D12*
X255905000Y-22225000D03*
D11*
X250825000Y-22225000D03*
D12*
X245745000Y-22225000D03*
D13*
X247015000Y-19685000D03*
X253365000Y-17145000D03*
D12*
X34448750Y-79375000D03*
D11*
X29368750Y-79375000D03*
D12*
X24288750Y-79375000D03*
D13*
X25558750Y-76835000D03*
X31908750Y-74295000D03*
D14*
X160337500Y-103505000D03*
D12*
X222567500Y-98425000D03*
D11*
X217487500Y-98425000D03*
D12*
X212407500Y-98425000D03*
D13*
X213677500Y-95885000D03*
X220027500Y-93345000D03*
D12*
X313055000Y-117475000D03*
D11*
X307975000Y-117475000D03*
D12*
X302895000Y-117475000D03*
D13*
X304165000Y-114935000D03*
X310515000Y-112395000D03*
D12*
X141605000Y-22225000D03*
D11*
X136525000Y-22225000D03*
D12*
X131445000Y-22225000D03*
D13*
X132715000Y-19685000D03*
X139065000Y-17145000D03*
D12*
X84455000Y-22225000D03*
D11*
X79375000Y-22225000D03*
D12*
X74295000Y-22225000D03*
D13*
X75565000Y-19685000D03*
X81915000Y-17145000D03*
D14*
X307975000Y-27305000D03*
D12*
X294005000Y-22225000D03*
D11*
X288925000Y-22225000D03*
D12*
X283845000Y-22225000D03*
D13*
X285115000Y-19685000D03*
X291465000Y-17145000D03*
D15*
X108885715Y-119439285D03*
X109657144Y-119439285D03*
X110428572Y-119439285D03*
X111200001Y-119439285D03*
X111971428Y-119439285D03*
X112742857Y-119439285D03*
X113514285Y-119439285D03*
X108885715Y-118667857D03*
X109657143Y-118667857D03*
X110428571Y-118667857D03*
X111200000Y-118667857D03*
X111971428Y-118667857D03*
X112742857Y-118667857D03*
X113514285Y-118667857D03*
X109657143Y-117896429D03*
X110428571Y-117896429D03*
X111200000Y-117896429D03*
X111971428Y-117896429D03*
X112742857Y-117896429D03*
X113514285Y-117896429D03*
X108885715Y-117896428D03*
X113514285Y-117125001D03*
X108885715Y-117125000D03*
X109657143Y-117125000D03*
X110428571Y-117125000D03*
X111200000Y-117125000D03*
X111971428Y-117125000D03*
X112742857Y-117125000D03*
X113514285Y-116353573D03*
X109657143Y-116353572D03*
X110428571Y-116353572D03*
X111200000Y-116353572D03*
X111971428Y-116353572D03*
X112742857Y-116353572D03*
X108885715Y-116353571D03*
X113514285Y-115582145D03*
X108885715Y-115582143D03*
X109657143Y-115582143D03*
X110428571Y-115582143D03*
X111200000Y-115582143D03*
X111971428Y-115582143D03*
X112742857Y-115582143D03*
X109657143Y-114810715D03*
X110428571Y-114810715D03*
X111200000Y-114810715D03*
X111971428Y-114810715D03*
X112742857Y-114810715D03*
X113514285Y-114810715D03*
X108885715Y-114810714D03*
D14*
X29368750Y-84455000D03*
X207962500Y-84455000D03*
X24606250Y-122555000D03*
D12*
X251142500Y-79375000D03*
D11*
X246062500Y-79375000D03*
D12*
X240982500Y-79375000D03*
D13*
X242252500Y-76835000D03*
X248602500Y-74295000D03*
D12*
X274955000Y-22225000D03*
D11*
X269875000Y-22225000D03*
D12*
X264795000Y-22225000D03*
D13*
X266065000Y-19685000D03*
X272415000Y-17145000D03*
D14*
X98425000Y-46355000D03*
D12*
X113030000Y-60325000D03*
D11*
X107950000Y-60325000D03*
D12*
X102870000Y-60325000D03*
D13*
X104140000Y-57785000D03*
X110490000Y-55245000D03*
D14*
X74612500Y-84455000D03*
X307975000Y-84455000D03*
D12*
X236855000Y-41275000D03*
D11*
X231775000Y-41275000D03*
D12*
X226695000Y-41275000D03*
D13*
X227965000Y-38735000D03*
X234315000Y-36195000D03*
D12*
X291623750Y-69850000D03*
D11*
X286543750Y-69850000D03*
D12*
X281463750Y-69850000D03*
D13*
X282733750Y-67310000D03*
X289083750Y-64770000D03*
D14*
X288925000Y-27305000D03*
X269875000Y-122555000D03*
X262731250Y-103505000D03*
D12*
X98742500Y-79375000D03*
D11*
X93662500Y-79375000D03*
D12*
X88582500Y-79375000D03*
D13*
X89852500Y-76835000D03*
X96202500Y-74295000D03*
D12*
X29686250Y-117475000D03*
D11*
X24606250Y-117475000D03*
D12*
X19526250Y-117475000D03*
D13*
X20796250Y-114935000D03*
X27146250Y-112395000D03*
D14*
X65087500Y-103505000D03*
X265112500Y-84455000D03*
X212725000Y-46355000D03*
D12*
X77311250Y-117475000D03*
D11*
X72231250Y-117475000D03*
D12*
X67151250Y-117475000D03*
D13*
X68421250Y-114935000D03*
X74771250Y-112395000D03*
D14*
X146050000Y-65405000D03*
D12*
X141605000Y-41275000D03*
D11*
X136525000Y-41275000D03*
D12*
X131445000Y-41275000D03*
D13*
X132715000Y-38735000D03*
X139065000Y-36195000D03*
D14*
X46037500Y-103505000D03*
X203200000Y-65405000D03*
D12*
X65405000Y-22225000D03*
D11*
X60325000Y-22225000D03*
D12*
X55245000Y-22225000D03*
D13*
X56515000Y-19685000D03*
X62865000Y-17145000D03*
D12*
X32067500Y-60325000D03*
D11*
X26987500Y-60325000D03*
D12*
X21907500Y-60325000D03*
D13*
X23177500Y-57785000D03*
X29527500Y-55245000D03*
D14*
X174625000Y-46355000D03*
D12*
X189230000Y-60325000D03*
D11*
X184150000Y-60325000D03*
D12*
X179070000Y-60325000D03*
D13*
X180340000Y-57785000D03*
X186690000Y-55245000D03*
D14*
X107950000Y-65405000D03*
X50800000Y-65405000D03*
X155575000Y-46355000D03*
D12*
X89217500Y-98425000D03*
D11*
X84137500Y-98425000D03*
D12*
X79057500Y-98425000D03*
D13*
X80327500Y-95885000D03*
X86677500Y-93345000D03*
D14*
X26987500Y-65405000D03*
X188912500Y-84455000D03*
X179387500Y-103505000D03*
D12*
X122555000Y-41275000D03*
D11*
X117475000Y-41275000D03*
D12*
X112395000Y-41275000D03*
D13*
X113665000Y-38735000D03*
X120015000Y-36195000D03*
D14*
X98425000Y-27305000D03*
X22225000Y-27305000D03*
D12*
X179705000Y-22225000D03*
D11*
X174625000Y-22225000D03*
D12*
X169545000Y-22225000D03*
D13*
X170815000Y-19685000D03*
X177165000Y-17145000D03*
D12*
X313055000Y-98425000D03*
D11*
X307975000Y-98425000D03*
D12*
X302895000Y-98425000D03*
D13*
X304165000Y-95885000D03*
X310515000Y-93345000D03*
D14*
X112712500Y-84455000D03*
D12*
X265430000Y-60325000D03*
D11*
X260350000Y-60325000D03*
D12*
X255270000Y-60325000D03*
D13*
X256540000Y-57785000D03*
X262890000Y-55245000D03*
D12*
X108267500Y-98425000D03*
D11*
X103187500Y-98425000D03*
D12*
X98107500Y-98425000D03*
D13*
X99377500Y-95885000D03*
X105727500Y-93345000D03*
D14*
X122237500Y-103505000D03*
D12*
X198755000Y-41275000D03*
D11*
X193675000Y-41275000D03*
D12*
X188595000Y-41275000D03*
D13*
X189865000Y-38735000D03*
X196215000Y-36195000D03*
D14*
X193675000Y-46355000D03*
D12*
X74930000Y-60325000D03*
D11*
X69850000Y-60325000D03*
D12*
X64770000Y-60325000D03*
D13*
X66040000Y-57785000D03*
X72390000Y-55245000D03*
D14*
X60325000Y-46355000D03*
D12*
X267811250Y-98425000D03*
D11*
X262731250Y-98425000D03*
D12*
X257651250Y-98425000D03*
D13*
X258921250Y-95885000D03*
X265271250Y-93345000D03*
D12*
X160655000Y-41275000D03*
D11*
X155575000Y-41275000D03*
D12*
X150495000Y-41275000D03*
D13*
X151765000Y-38735000D03*
X158115000Y-36195000D03*
D12*
X179705000Y-41275000D03*
D11*
X174625000Y-41275000D03*
D12*
X169545000Y-41275000D03*
D13*
X170815000Y-38735000D03*
X177165000Y-36195000D03*
D12*
X220186250Y-117475000D03*
D11*
X215106250Y-117475000D03*
D12*
X210026250Y-117475000D03*
D13*
X211296250Y-114935000D03*
X217646250Y-112395000D03*
D14*
X212725000Y-27305000D03*
X93662500Y-84455000D03*
X215106250Y-122555000D03*
D12*
X70167500Y-98425000D03*
D11*
X65087500Y-98425000D03*
D12*
X60007500Y-98425000D03*
D13*
X61277500Y-95885000D03*
X67627500Y-93345000D03*
D12*
X255905000Y-41275000D03*
D11*
X250825000Y-41275000D03*
D12*
X245745000Y-41275000D03*
D13*
X247015000Y-38735000D03*
X253365000Y-36195000D03*
D14*
X165100000Y-65405000D03*
X169862500Y-84455000D03*
X236537500Y-103505000D03*
D12*
X170180000Y-60325000D03*
D11*
X165100000Y-60325000D03*
D12*
X160020000Y-60325000D03*
D13*
X161290000Y-57785000D03*
X167640000Y-55245000D03*
D12*
X51117500Y-98425000D03*
D11*
X46037500Y-98425000D03*
D12*
X40957500Y-98425000D03*
D13*
X42227500Y-95885000D03*
X48577500Y-93345000D03*
D14*
X246062500Y-84455000D03*
X103187500Y-103505000D03*
D12*
X65405000Y-41275000D03*
D11*
X60325000Y-41275000D03*
D12*
X55245000Y-41275000D03*
D13*
X56515000Y-38735000D03*
X62865000Y-36195000D03*
D14*
X79375000Y-27305000D03*
X84137500Y-103505000D03*
D12*
X53498750Y-117475000D03*
D11*
X48418750Y-117475000D03*
D12*
X43338750Y-117475000D03*
D13*
X44608750Y-114935000D03*
X50958750Y-112395000D03*
D14*
X241300000Y-65405000D03*
D12*
X198755000Y-22225000D03*
D11*
X193675000Y-22225000D03*
D12*
X188595000Y-22225000D03*
D13*
X189865000Y-19685000D03*
X196215000Y-17145000D03*
D12*
X270192500Y-79375000D03*
D11*
X265112500Y-79375000D03*
D12*
X260032500Y-79375000D03*
D13*
X261302500Y-76835000D03*
X267652500Y-74295000D03*
D12*
X217805000Y-41275000D03*
D11*
X212725000Y-41275000D03*
D12*
X207645000Y-41275000D03*
D13*
X208915000Y-38735000D03*
X215265000Y-36195000D03*
D14*
X231775000Y-46355000D03*
X155575000Y-27305000D03*
X307975000Y-46355000D03*
D12*
X313055000Y-79375000D03*
D11*
X307975000Y-79375000D03*
D12*
X302895000Y-79375000D03*
D13*
X304165000Y-76835000D03*
X310515000Y-74295000D03*
D12*
X165417500Y-98425000D03*
D11*
X160337500Y-98425000D03*
D12*
X155257500Y-98425000D03*
D13*
X156527500Y-95885000D03*
X162877500Y-93345000D03*
D12*
X174942500Y-79375000D03*
D11*
X169862500Y-79375000D03*
D12*
X164782500Y-79375000D03*
D13*
X166052500Y-76835000D03*
X172402500Y-74295000D03*
D14*
X127000000Y-65405000D03*
D12*
X203517500Y-98425000D03*
D11*
X198437500Y-98425000D03*
D12*
X193357500Y-98425000D03*
D13*
X194627500Y-95885000D03*
X200977500Y-93345000D03*
D14*
X193675000Y-27305000D03*
D12*
X246380000Y-60325000D03*
D11*
X241300000Y-60325000D03*
D12*
X236220000Y-60325000D03*
D13*
X237490000Y-57785000D03*
X243840000Y-55245000D03*
D12*
X93980000Y-60325000D03*
D11*
X88900000Y-60325000D03*
D12*
X83820000Y-60325000D03*
D13*
X85090000Y-57785000D03*
X91440000Y-55245000D03*
D14*
X307975000Y-65405000D03*
X288925000Y-103505000D03*
X288925000Y-122555000D03*
X231775000Y-27305000D03*
X131762500Y-84455000D03*
D12*
X27305000Y-22225000D03*
D11*
X22225000Y-22225000D03*
D12*
X17145000Y-22225000D03*
D13*
X18415000Y-19685000D03*
X24765000Y-17145000D03*
D14*
X250825000Y-46355000D03*
X184150000Y-65405000D03*
D12*
X208280000Y-60325000D03*
D11*
X203200000Y-60325000D03*
D12*
X198120000Y-60325000D03*
D13*
X199390000Y-57785000D03*
X205740000Y-55245000D03*
D14*
X48418750Y-122555000D03*
X22225000Y-46355000D03*
D12*
X155892500Y-79375000D03*
D11*
X150812500Y-79375000D03*
D12*
X145732500Y-79375000D03*
D13*
X147002500Y-76835000D03*
X153352500Y-74295000D03*
D12*
X313055000Y-41275000D03*
D11*
X307975000Y-41275000D03*
D12*
X302895000Y-41275000D03*
D13*
X304165000Y-38735000D03*
X310515000Y-36195000D03*
D14*
X198437500Y-103505000D03*
X117475000Y-27305000D03*
X55562500Y-84455000D03*
D12*
X55880000Y-60325000D03*
D11*
X50800000Y-60325000D03*
D12*
X45720000Y-60325000D03*
D13*
X46990000Y-57785000D03*
X53340000Y-55245000D03*
D14*
X72231250Y-122555000D03*
D12*
X313055000Y-60325000D03*
D11*
X307975000Y-60325000D03*
D12*
X302895000Y-60325000D03*
D13*
X304165000Y-57785000D03*
X310515000Y-55245000D03*
D14*
X260350000Y-65405000D03*
D12*
X232092500Y-79375000D03*
D11*
X227012500Y-79375000D03*
D12*
X221932500Y-79375000D03*
D13*
X223202500Y-76835000D03*
X229552500Y-74295000D03*
D12*
X136842500Y-79375000D03*
D11*
X131762500Y-79375000D03*
D12*
X126682500Y-79375000D03*
D13*
X127952500Y-76835000D03*
X134302500Y-74295000D03*
D12*
X313055000Y-22225000D03*
D11*
X307975000Y-22225000D03*
D12*
X302895000Y-22225000D03*
D13*
X304165000Y-19685000D03*
X310515000Y-17145000D03*
D14*
X269875000Y-27305000D03*
D12*
X122555000Y-22225000D03*
D11*
X117475000Y-22225000D03*
D12*
X112395000Y-22225000D03*
D13*
X113665000Y-19685000D03*
X120015000Y-17145000D03*
D14*
X79375000Y-46355000D03*
X307975000Y-122555000D03*
D12*
X46355000Y-22225000D03*
D11*
X41275000Y-22225000D03*
D12*
X36195000Y-22225000D03*
D13*
X37465000Y-19685000D03*
X43815000Y-17145000D03*
D12*
X103505000Y-41275000D03*
D11*
X98425000Y-41275000D03*
D12*
X93345000Y-41275000D03*
D13*
X94615000Y-38735000D03*
X100965000Y-36195000D03*
D14*
X141287500Y-103505000D03*
X69850000Y-65405000D03*
D12*
X27305000Y-41275000D03*
D11*
X22225000Y-41275000D03*
D12*
X17145000Y-41275000D03*
D13*
X18415000Y-38735000D03*
X24765000Y-36195000D03*
D12*
X294005000Y-98425000D03*
D11*
X288925000Y-98425000D03*
D12*
X283845000Y-98425000D03*
D13*
X285115000Y-95885000D03*
X291465000Y-93345000D03*
D14*
X150812500Y-84455000D03*
M02*
